<svg xmlns="http://www.w3.org/2000/svg" viewBox="0 0 1927.56 1870.87"><defs><style>.cls-1{fill:#ffb80e}.cls-4{fill:#392930}.cls-11{opacity:.5}.cls-13{fill:#f7eed9;opacity:.25}.cls-10{fill:#ee9db7}.cls-11{fill:#fff}.cls-12,.cls-14{fill:#9ede2e}.cls-12,.cls-14,.cls-15{stroke:#392930;stroke-width:14px}.cls-12{stroke-miterlimit:10}.cls-14,.cls-15{stroke-linecap:round;stroke-linejoin:round}.cls-15{fill:none}</style></defs><g id="Color"><path class="cls-1" d="M601.17 1395.43a82.19 82.19 0 0 1-8.76 4.57 91.92 91.92 0 0 1-9.17 3.62 76.38 76.38 0 0 1-19.63 4 47 47 0 0 1-20.7-3.1 38.07 38.07 0 0 1-16.76-13.52 56.87 56.87 0 0 1-8.34-19.1 63.66 63.66 0 0 1-1.61-20.62 82.55 82.55 0 0 1 4.39-19.84 154 154 0 0 1 7.79-18.14c5.77-11.61 12.33-22.51 17.09-33.71a66.61 66.61 0 0 0 5-16.88 35.18 35.18 0 0 0-1.45-16.35 43.17 43.17 0 0 0-8.77-14.38 73.24 73.24 0 0 0-6.3-6.28q-3.48-3.11-7.08-6.13c-9.61-8.08-19.68-15.85-29.54-24.1s-19.58-16.94-28.11-27.15a95.44 95.44 0 0 1-11.33-16.73 61.87 61.87 0 0 1-6.58-19.77 55.5 55.5 0 0 1 1-21 72.12 72.12 0 0 1 7.77-19.07 111.73 111.73 0 0 1 11.59-16.37 171.62 171.62 0 0 1 13.59-14.27 288 288 0 0 1 30.21-24.47c5.24-3.76 10.57-7.37 16-10.88s10.51-6.86 15.58-10.52 10-7.43 14.6-11.43A102.36 102.36 0 0 0 574.24 991a44.41 44.41 0 0 0 4.7-7 20.58 20.58 0 0 0 2.43-7 10.26 10.26 0 0 0-.93-6 15.45 15.45 0 0 0-4.49-5.18c-4.1-3.14-9.59-5.42-15.27-7.11a121.34 121.34 0 0 0-17.8-3.73 252.38 252.38 0 0 0-37.18-2.12c-12.5.13-25 .92-37.49 2.27s-24.86 3.27-37.09 5.85a231 231 0 0 0-35.72 10.24c-2.85 1.11-5.64 2.31-8.35 3.61a79.15 79.15 0 0 0-7.78 4.3c-1.27.75-2.45 1.62-3.66 2.45-.6.42-1.16.88-1.75 1.32s-1.16.89-1.7 1.37a55.83 55.83 0 0 0-6.27 6 54.85 54.85 0 0 0-5.32 6.88 63.54 63.54 0 0 0-4.36 7.63 97.32 97.32 0 0 0-6.21 16.92c-3.24 11.79-5.1 24.27-7.27 36.84s-4.57 25.35-8.33 37.88a166.88 166.88 0 0 1-15.4 36.22 158.6 158.6 0 0 1-23.81 31.36 185 185 0 0 1-14.42 13.32l-1.88 1.57-1.87 1.5-3.73 3-7.46 6c-20 15.88-40.28 31.34-61.14 46.1-10.48 7.32-21.06 14.51-31.87 21.38-5.43 3.42-10.87 6.8-16.44 10-2.76 1.64-5.58 3.22-8.4 4.79l-4.3 2.3c-1.46.76-2.85 1.48-4.49 2.25a5 5 0 0 1-4.29-9h.1c1.24-.59 2.67-1.34 4-2.05l4.09-2.23c2.73-1.54 5.44-3.08 8.14-4.7 5.4-3.2 10.74-6.55 16.05-10 10.6-6.83 21-14 31.33-21.3 20.6-14.69 40.71-30.11 60.47-46l7.4-6 3.69-3 1.85-1.49 1.77-1.5a175.39 175.39 0 0 0 13.54-12.59 147.53 147.53 0 0 0 22.08-29.29 156.24 156.24 0 0 0 14.22-33.89c3.5-11.85 5.8-24.13 7.93-36.6s4-25.2 7.49-38a108.17 108.17 0 0 1 6.95-18.74 75.19 75.19 0 0 1 5.08-8.92 68.3 68.3 0 0 1 6.33-8.19 67.35 67.35 0 0 1 7.45-7.18q1-.85 2-1.62c.69-.52 1.36-1 2.05-1.55 1.42-1 2.8-2 4.26-2.86a94.54 94.54 0 0 1 8.9-4.93c3-1.45 6.07-2.76 9.15-4a241.56 241.56 0 0 1 37.5-10.81c12.65-2.68 25.41-4.66 38.22-6.06s25.69-2.23 38.62-2.37a264.94 264.94 0 0 1 38.9 2.19 134.69 134.69 0 0 1 19.54 4.13 75.62 75.62 0 0 1 9.67 3.54 46.69 46.69 0 0 1 9.38 5.5 27 27 0 0 1 7.78 9.2 21.31 21.31 0 0 1 2 6.19 23 23 0 0 1 .07 6.36 27.66 27.66 0 0 1-1.4 5.82 35.82 35.82 0 0 1-2.27 5.15 56.18 56.18 0 0 1-5.91 8.81 113 113 0 0 1-14.13 14.29c-5 4.3-10.16 8.27-15.44 12s-10.72 7.36-16 10.8-10.48 6.92-15.58 10.55a276.82 276.82 0 0 0-29.17 23.48c-9 8.45-17.25 17.68-23.2 28a61.29 61.29 0 0 0-6.64 16.1 44.25 44.25 0 0 0-.87 16.83 50.75 50.75 0 0 0 5.39 16.25 85.14 85.14 0 0 0 10 14.79c7.76 9.35 17 17.72 26.64 25.81S524 1203 533.85 1211.3c2.46 2.08 4.9 4.19 7.32 6.37a84 84 0 0 1 7.18 7.19 54.11 54.11 0 0 1 10.84 18 46.07 46.07 0 0 1 1.89 21.28 77.05 77.05 0 0 1-5.76 19.61c-5.25 12.2-11.9 23.12-17.45 34.27s-10.18 22.5-11.19 34.15a53.38 53.38 0 0 0 1.3 17.23 47.27 47.27 0 0 0 6.57 15.77 29.21 29.21 0 0 0 12.19 10.5 39.64 39.64 0 0 0 16.59 3.24 76 76 0 0 0 17.88-2.32c3-.72 5.94-1.58 8.87-2.54s5.9-2 8.62-3.24h.09a2.6 2.6 0 0 1 2.38 4.62z"/><path class="cls-1" d="M431.86 1424.89c0 113.38-59.27 181.39-193.13 205.26-1.49.27-3 .52-4.46.72l-2.18.31a130.82 130.82 0 0 1-20.54 1c-3.67-.09-7.29-.33-10.89-.75-2.39-.29-4.76-.63-7.13-1-3.56-.6-7.09-1.33-10.58-2.22s-6.88-1.87-10.24-3a152.81 152.81 0 0 1-43.37-23.27l-1.83-1.42c-1.23-1-2.48-1.94-3.69-3-.86-.69-1.73-1.42-2.59-2.16a.5.5 0 0 1-.08-.07h-.05c-.79-.69-1.59-1.38-2.39-2.09q-3.64-3.21-7.13-6.65a162.67 162.67 0 0 1-3.69-3.74c-.88-.91-1.75-1.85-2.61-2.78l-1.66-1.8c-.92-1-1.85-2.07-2.76-3.14-2.24-2.56-4.42-5.21-6.51-7.92-.32-.4-.62-.8-.95-1.23-.81-1-1.61-2.09-2.39-3.15-.34-.47-.69-.94-1-1.43q-1.56-2.1-3-4.25c-.63-.87-1.23-1.76-1.81-2.65l-.24-.35q-1.48-2.21-2.91-4.47c-.43-.72-.88-1.41-1.31-2.12s-1.06-1.69-1.55-2.53c-.37-.65-.76-1.27-1.13-1.92s-.84-1.38-1.2-2.07a6.16 6.16 0 0 1-.33-.55c-1.2-2.07-2.35-4.16-3.44-6.3q-1.14-2.1-2.2-4.25v-.09c-.26-.51-.49-1-.73-1.49-1.25-2.49-2.46-5-3.6-7.61-.45-1-.88-2-1.29-2.93-.58-1.29-1.12-2.58-1.66-3.9l-.26-.64a233.77 233.77 0 0 1-17.65-88.33 214.7 214.7 0 0 1 20-91 196.68 196.68 0 0 1 10.51-19.73 203.45 203.45 0 0 1 22.51-30.57 205.68 205.68 0 0 1 16.81-16.73 192.91 192.91 0 0 1 37.4-25.9 184.25 184.25 0 0 1 62.94-20 183.39 183.39 0 0 1 118.88 25.66c2.11 1.27 4.18 2.58 6.23 3.93 4.05 2.7 8 5.54 11.88 8.57a191.13 191.13 0 0 1 16.81 14.66 197.87 197.87 0 0 1 15 16.42c2.09 2.54 4.12 5.14 6.06 7.79a205.33 205.33 0 0 1 12.63 19.22c1.08 1.85 2.11 3.69 3.12 5.56a214.36 214.36 0 0 1 25.38 102.1z"/><path d="M431.86 1424.89c0 113.38-59.27 181.39-193.13 205.26-1.49.27-3 .52-4.46.72l-2.18.31a130.82 130.82 0 0 1-20.54 1c-3.67-.11-7.29-.35-10.89-.75-2.39-.29-4.76-.63-7.13-1-3.56-.6-7.09-1.33-10.58-2.22s-6.86-1.89-10.24-3a152.81 152.81 0 0 1-43.37-23.27l-1.83-1.42c-1.23-1-2.48-1.94-3.69-3-.86-.69-1.73-1.42-2.59-2.16a.5.5 0 0 1-.08-.07h-.05c-.79-.69-1.59-1.38-2.39-2.09q-3.64-3.21-7.13-6.65a162.67 162.67 0 0 1-3.69-3.74c-.88-.91-1.75-1.85-2.61-2.78l-1.66-1.8c-.92-1-1.85-2.07-2.76-3.14-2.24-2.56-4.42-5.21-6.51-7.92-.32-.4-.62-.8-.95-1.23-.81-1-1.61-2.09-2.39-3.15-.34-.47-.69-.94-1-1.43q-1.56-2.1-3-4.25c-.63-.87-1.23-1.76-1.81-2.65l-.24-.35q-1.48-2.21-2.91-4.47c-.43-.72-.88-1.41-1.31-2.12s-1.06-1.69-1.55-2.53c-.37-.65-.76-1.27-1.13-1.92s-.84-1.38-1.2-2.07a6.16 6.16 0 0 1-.33-.55c-1.2-2.07-2.35-4.16-3.44-6.3q-1.14-2.1-2.2-4.25v-.09c-.26-.51-.49-1-.73-1.49-1.25-2.49-2.46-5-3.6-7.61-.45-1-.88-2-1.29-2.93-.58-1.29-1.12-2.58-1.66-3.9A205.6 205.6 0 0 0 82.28 1524a208.54 208.54 0 0 0 26.72 10.6 203.87 203.87 0 0 0 21.13 5.52c6.55 1.38 13.17 2.4 19.78 3.13 4.57.49 9.17.85 13.78 1 48.56 2.18 97.64-12.22 139.09-41.67q5-3.54 9.79-7.34a240.41 240.41 0 0 0 48.12-51.24c25-35.88 40.42-78.4 45.65-121.12a214.36 214.36 0 0 1 25.52 102.01z" opacity=".5" fill="#392930"/></g><g id="Cat"><path d="M664.88 1325.49s86.37-184.73 19.25-542.41A383.68 383.68 0 0 1 677.4 719a317.93 317.93 0 0 1 9.87-86.08c2.39-9.1 5.15-17.93 8.3-26.57q2.1-5.89 4.51-11.68a300.43 300.43 0 0 1 19.44-38.86 158.93 158.93 0 0 0 17.37-42c1.12-4.45 2.07-9 2.8-13.46a156.24 156.24 0 0 0 2-28.86c-.06-3.43-.24-6.85-.54-10.28 0-.53-.08-1-.13-1.56-4.16-43.16-7.09-87.3-7.18-126.3v-8.03c.26-32.39 2.66-60.78 8.2-81.34C745.79 230 751 219.6 757.89 214c5.3-4.32 11.64-5.85 19.16-4a41.19 41.19 0 0 1 10.95 4.48c4.91 2.8 9.72 5.72 14.4 8.7 7.39 4.67 14.44 9.59 21.23 14.68 2.71 2 5.37 4.07 8 6.17 50.15 39.71 83.35 87.74 104 124.81a435 435 0 0 1 70-18.47l1.1-.2q15.16-2.67 30.39-4.4c.69-.09 1.4-.18 2.09-.25q6-.66 12-1.18l3.08-.26c1.9-.16 3.8-.32 5.69-.45 3.52-.27 7-.47 10.54-.64.52 0 1.06-.07 1.58-.07a580.72 580.72 0 0 1 71.8.93c1.64.14 3.3.25 4.93.4 1.32.09 2.63.2 3.93.32l1 .08q12.76 1.14 25.15 2.83c1.08.13 2.16.27 3.21.42 6.47.87 12.83 1.87 19.1 3s12.46 2.27 18.52 3.52c1.25.24 2.47.51 3.7.78.8.13 1.6.31 2.4.49a487.45 487.45 0 0 1 51 14l2.7 1c23.75-49.55 69.88-129 138.32-175.21 16.14-10.88 28-10.06 36.42-.6.61.67 1.19 1.4 1.77 2.16a46.49 46.49 0 0 1 5.28 9.19c.5 1.11 1 2.29 1.45 3.49s1 2.6 1.4 4v.07l.39 1.18c6.79 21.56 9.14 54.17 9.07 91.73v2.73c-.21 45.75-4 98.54-7.63 147.38-.26 3.36-.49 6.71-.75 10.05-.28 3.61-.54 7.17-.8 10.7-.32 4.25-.62 8.44-1 12.55-.24 3.21-.47 6.36-.69 9.5-.75 10.46-1 21.63 4.08 30.84 7.8 14.33 15.43 33.19 22.37 54.51 1.81 5.58 3.6 11.32 5.3 17.19 5.09 17.38 9.68 35.91 13.56 54.64 10.67 51.42 16 104.3 11 138.92-33.88 235.81 61.63 512.27 61.63 512.27z" fill="#f7eed9"/><path class="cls-4" d="M596 1383.8l105.26-51.17a4.93 4.93 0 0 1 4.48 8.78l-103.16 55.27a7.23 7.23 0 1 1-6.84-12.75zm287.37-146.49l59.33-24.94a2.38 2.38 0 0 1 2.14 4.25l-55.27 33a6.9 6.9 0 1 1-6.2-12.28z"/><path d="M1665.85 1156.83c16.83-.73 30.38 15.73 29 35.13-5 67.94-4.25 210.11 82.75 246.92 115.52 48.87-109.88 107.52-197.23 61.91s-216.95-3.26-295.84 65.16-200 16.29-217-74.94c-8-43.3-49.06-26.41-90 3.29-37.31 27.1-88.62-1-87.63-48.11l2.17-103c.45-21.25 11.13-42.45 29.06-47.75 257.6-76.12 744.72-138.61 744.72-138.61z" fill="#66d6c7"/><path d="M1603.5 1224c-4.46 23.76-8.93 50-16.08 74.93-13 45.3-34.88 86.19-81.5 99.76s-106.68-7.58-141-42.85c-14.64-15-23.8-33.77-28.87-54.46-8.14-33.35-5.69-71.8 1.56-108.19a477.46 477.46 0 0 1 26.4-86.48c12.4-30.08 29.08-59.38 54.56-80.3 57.05-46.85 149.07-27 176.12 41.94 18.81 47.83 18.14 105.76 8.81 155.65zm-747.13 133.53c-34.29 35.26-94.37 56.39-141 42.82-24.81-7.23-42.61-22.18-55.78-41.4-25.22-36.8-33.56-89.28-41.8-133.29-9.33-49.86-10-107.77 8.77-155.63 27-68.9 119.08-88.79 176.13-41.93 25.48 20.91 42.16 50.21 54.56 80.27a478.25 478.25 0 0 1 26.38 86.5 333.52 333.52 0 0 1 6.51 53.13c1.5 41.87-6.91 81.92-33.77 109.53z" fill="#f1dcb2"/><path d="M856.37 1357.53c-34.29 35.26-94.37 56.39-141 42.82-24.81-7.23-42.61-22.18-55.78-41.4 17.2-47.32 71.47-138.21 230.55-111 1.5 41.92-6.91 81.97-33.77 109.58zm731.05-58.63c-13 45.3-34.88 86.19-81.5 99.76s-106.68-7.58-141-42.85c-14.64-15-23.8-33.77-28.87-54.46 40.71-36.13 126.33-82.92 251.37-2.45z" fill="#f2ede4"/><path d="M1594.17 1066.62c-27-68.9-119.07-88.79-176.13-41.94-25.48 20.91-42.16 50.22-54.55 80.28a489.12 489.12 0 0 0-20.33 60.46c9.95-17 22.1-32.7 37.46-45.31 57.06-46.85 149.09-27 176.12 41.94 18.78 47.85 18.12 105.79 8.78 155.64-2.59 13.85-5.2 28.54-8.34 43.31 28.34-36.93 37.11-92.52 45.77-138.74 9.34-49.86 9.99-107.79-8.78-155.64zm-946.08 236.87c-9.34-49.86-10-107.79 8.78-155.64 27-68.9 119.07-88.79 176.12-41.94 17.7 14.53 31.15 33.11 41.87 53.17a490.09 490.09 0 0 0-18.13-52.41c-12.39-30.07-29.08-59.37-54.55-80.29-57.06-46.84-149.1-27-176.13 41.95-18.77 47.84-18.12 105.78-8.78 155.63 8.18 43.69 16.47 95.75 41.29 132.52-4.14-18.01-7.31-36.12-10.47-52.99z" opacity=".15" fill="#392930"/><path class="cls-4" d="M1413 719.16c2.77-3 5.46-5.6 8.26-8.29s5.64-5.25 8.52-7.8q8.67-7.62 17.75-14.7a393.72 393.72 0 0 1 78.77-47.69 344.67 344.67 0 0 1 43.36-16.07c29.62-8.67 60.63-13.16 91.56-12.16 7.72.23 15.43.86 23.1 1.75l5.74.75c1.91.26 3.82.6 5.72.9 3.82.57 7.59 1.36 11.37 2.1a268.63 268.63 0 0 1 44.09 13.38 3.23 3.23 0 0 1-2.1 6.1 353.77 353.77 0 0 0-43.69-10c-7.37-1.1-14.75-2.09-22.17-2.65s-14.83-1-22.25-1a297.33 297.33 0 0 0-87.87 12.56 334.86 334.86 0 0 0-41.83 15.49 371.11 371.11 0 0 0-39.74 20.5 433.2 433.2 0 0 0-37.24 24.89q-9 6.71-17.56 13.92c-2.86 2.4-5.67 4.86-8.44 7.33-1.39 1.25-2.77 2.49-4.12 3.76s-2.72 2.57-3.92 3.79l-.08.07a5 5 0 0 1-7.19-6.94zm24.93 44.9c.29-.44.49-.71.72-1s.46-.62.69-.93c.45-.61.91-1.18 1.37-1.76.92-1.17 1.88-2.25 2.85-3.35 2-2.16 4-4.25 6.1-6.2a118.09 118.09 0 0 1 13.46-10.8 131.74 131.74 0 0 1 30.56-15.6 155.45 155.45 0 0 1 33.23-7.89 193.66 193.66 0 0 1 33.94-1.21c2.82.18 5.63.44 8.44.66 1.4.13 2.81.21 4.21.37l4.19.56c2.79.38 5.58.72 8.36 1.16l8.28 1.56 4.14.79 4.09 1 8.17 2c2.72.67 5.39 1.52 8.08 2.27s5.39 1.51 8 2.36l7.92 2.73 4 1.36 2 .69 1.94.78 7.75 3.13c2.58 1.06 5.18 2 7.68 3.27 5.05 2.35 10.11 4.66 15.06 7.18s9.79 5.25 14.6 8a2.63 2.63 0 0 1-2.23 4.75h-.09c-5.16-1.91-10.24-4-15.31-6-1.26-.53-2.54-1-3.82-1.48l-3.85-1.42c-2.56-.94-5.1-1.94-7.65-2.9-1.27-.49-2.54-1-3.84-1.39l-3.86-1.34-7.71-2.68c-2.55-.94-5.17-1.66-7.75-2.5l-7.77-2.43a272.62 272.62 0 0 0-63.56-11.41l-8-.17-2-.05-2 .07-4 .13-4 .12-4 .33c-2.65.25-5.32.37-8 .8a145 145 0 0 0-30.93 7.24l-3.71 1.39c-.62.24-1.24.46-1.85.71l-1.82.79-3.63 1.59c-1.21.52-2.36 1.17-3.55 1.73a116.72 116.72 0 0 0-13.7 7.86 108.08 108.08 0 0 0-12.43 9.65c-1 .86-1.92 1.77-2.86 2.68s-1.84 1.84-2.75 2.76-1.76 1.9-2.58 2.87c-.41.49-.82 1-1.2 1.46-.19.24-.4.49-.57.73l-.47.63-.17.22a5 5 0 0 1-8.17-5.74zm0 48.42l.81-.73c.25-.23.5-.44.75-.65.49-.42 1-.84 1.48-1.22 1-.81 2-1.55 3-2.31s2.06-1.43 3.1-2.13 2.1-1.35 3.17-2a104 104 0 0 1 13.31-6.76 107.75 107.75 0 0 1 14.12-4.82l3.62-.87 1.82-.43 1.84-.33 3.67-.65c1.23-.24 2.47-.31 3.7-.48a113.84 113.84 0 0 1 29.68.41l3.67.53c1.22.16 2.42.48 3.62.72l3.62.79 1.8.39 1.78.5 7.08 2 6.93 2.46c18.28 7 34.92 17.42 49.88 29.46l5.5 4.66 2.75 2.32 1.37 1.17 1.31 1.23 5.22 4.93c1.72 1.66 3.52 3.24 5.14 5l4.94 5.18 2.47 2.6c.82.86 1.64 1.72 2.41 2.63l4.7 5.39 4.64 5.42a1.9 1.9 0 0 1-2.75 2.62l-.06-.06-5.12-4.87-5.06-4.91c-.83-.83-1.71-1.61-2.59-2.39l-2.63-2.34-5.26-4.68c-1.7-1.61-3.56-3-5.35-4.54l-5.41-4.46-1.35-1.12-1.4-1.05-2.79-2.11-5.57-4.21c-1.89-1.36-3.85-2.62-5.75-4l-2.87-2c-1-.66-1.91-1.33-2.91-1.91l-5.93-3.61c-1-.6-2-1.23-3-1.79l-3-1.63c-2-1.1-4-2.22-6.08-3.29l-6.24-2.92c-1-.47-2.06-1-3.14-1.42l-3.19-1.27-3.19-1.27-1.59-.64-1.62-.54c-17.19-6.1-35.49-8.68-53.32-6.54a107.71 107.71 0 0 0-13.21 2.44 104 104 0 0 0-12.76 4.19 93.44 93.44 0 0 0-12.12 5.78c-1 .55-1.91 1.14-2.88 1.71s-1.87 1.21-2.8 1.81-1.83 1.24-2.7 1.9c-.45.32-.87.64-1.29 1l-.62.49-.52.43-.29.24a5 5 0 0 1-6.53-7.56zM718.38 761.1l-.37-.71c-.13-.25-.29-.54-.44-.81-.3-.54-.63-1.09-1-1.63-.64-1.1-1.37-2.18-2.08-3.26-1.47-2.14-3-4.27-4.62-6.31a107.19 107.19 0 0 0-10.66-11.59 132.14 132.14 0 0 0-25.41-18.74 151 151 0 0 0-29.16-12.62c-2.51-.89-5.1-1.52-7.68-2.22l-3.86-1c-1.3-.31-2.61-.55-3.92-.85l-3.92-.84c-1.3-.29-2.61-.57-3.94-.75l-7.94-1.27a281.8 281.8 0 0 0-64.66-.41l-8.1 1-4 .48-2 .24-2 .33-8.08 1.28c-2.69.45-5.4.78-8.07 1.36-5.35 1.1-10.75 2-16.1 3.16s-10.67 2.47-16 3.64h-.1a2.64 2.64 0 0 1-1.37-5.09q7.92-2.54 15.89-5c1.32-.43 2.66-.78 4-1.14l4-1.07 8.07-2.12c2.68-.75 5.42-1.24 8.14-1.85l8.17-1.75 2-.42 2.06-.35 4.13-.68 8.26-1.37c2.77-.39 5.55-.66 8.33-1l4.17-.48c1.39-.15 2.78-.34 4.18-.41l8.39-.57 4.2-.25 4.21-.07 8.43-.12 8.45.29 4.22.16 4.22.39c2.81.28 5.62.47 8.43.82a192.33 192.33 0 0 1 33.25 7.1 152.23 152.23 0 0 1 31.39 13.6c2.45 1.49 5 2.85 7.31 4.51l3.57 2.41c1.18.82 2.31 1.71 3.46 2.57a122.45 122.45 0 0 1 13 11.25 117.53 117.53 0 0 1 11.38 13c.89 1.14 1.72 2.33 2.55 3.52s1.61 2.41 2.4 3.64 1.52 2.49 2.22 3.79c.36.65.71 1.3 1.05 2 .17.34.34.66.51 1s.32.67.53 1.15a5 5 0 0 1-9 4.32zM767 729c-1.91-2.93-4.07-6-6.22-9s-4.34-5.95-6.59-8.87c-4.51-5.85-9.11-11.62-13.91-17.22A432.77 432.77 0 0 0 710 661.79c-5.31-5.1-10.8-10-16.37-14.77s-11.3-9.39-17.16-13.79a323.06 323.06 0 0 0-36.73-24c-3.21-1.73-6.42-3.48-9.69-5.1l-2.44-1.25-2.46-1.2c-1.65-.78-3.27-1.62-4.94-2.35-6.62-3.09-13.4-5.81-20.25-8.31a250 250 0 0 0-42.24-11.41 254 254 0 0 0-43.77-3.93 303.69 303.69 0 0 0-44.25 3.3 2.4 2.4 0 0 1-1-4.68 237.26 237.26 0 0 1 44.92-7.72c3.81-.21 7.63-.48 11.45-.51s7.66-.06 11.49 0c1.92 0 3.83.18 5.75.27s3.83.19 5.74.37l5.73.49 5.73.68a218.73 218.73 0 0 1 22.69 4.07 228.2 228.2 0 0 1 22.23 6.22 264.6 264.6 0 0 1 42.26 18.4 321.6 321.6 0 0 1 73.13 55.17A367.08 367.08 0 0 1 750.08 686c4.66 6 9.19 12.14 13.45 18.47 2.13 3.16 4.23 6.34 6.24 9.59s3.93 6.48 5.85 10a5 5 0 0 1-8.57 5.14zm-33.16 98.48l-.42-.54-.49-.62c-.34-.41-.68-.83-1-1.24-.7-.83-1.46-1.64-2.21-2.46l-2.31-2.39-2.41-2.31a103.78 103.78 0 0 0-10.4-8.43c-.92-.64-1.82-1.29-2.75-1.91L709 805.8c-.93-.62-1.9-1.17-2.87-1.72l-2.91-1.65a108.79 108.79 0 0 0-38.09-11.79 123.46 123.46 0 0 0-26.91-.27 157.16 157.16 0 0 0-26.8 4.88c-2.21.57-4.44 1.1-6.61 1.85l-6.58 2-1.64.51-1.62.6-3.25 1.18c-2.17.79-4.34 1.55-6.5 2.37l-6.4 2.69-3.22 1.32c-1.08.43-2.15.87-3.2 1.38l-6.31 3c-2.11 1-4.28 1.86-6.33 3l-6.25 3.17-3.15 1.56c-1.05.52-2.1 1-3.11 1.62-4.12 2.25-8.25 4.48-12.45 6.64h-.08a2.12 2.12 0 0 1-2.28-3.56c3.76-2.92 7.58-5.78 11.42-8.62s7.93-5.34 11.94-8 8.25-4.88 12.4-7.29 8.56-4.41 12.88-6.55c2.2-1 4.43-1.93 6.64-2.9l3.34-1.43 1.67-.71 1.71-.62c4.57-1.61 9.09-3.41 13.81-4.65 2.35-.66 4.67-1.39 7-2l7.17-1.58c2.37-.59 4.82-.88 7.24-1.28s4.84-.82 7.3-1c19.54-2.19 40 0 58.54 7.4a114.17 114.17 0 0 1 13.5 6.58 105.83 105.83 0 0 1 12.43 8.3 99.93 99.93 0 0 1 11.16 9.91c.87.9 1.7 1.83 2.56 2.74s1.64 1.88 2.44 2.85 1.57 1.95 2.33 3c.38.5.75 1 1.12 1.56.19.26.37.53.56.81l.6.91a5 5 0 0 1-8.11 5.82zm-402.55 704.63a4.49 4.49 0 0 1-6.06-1.07l-.09-.11c-7.28-9.61-14.52-19.2-22.33-28.3-1.27-1.49-2.54-3-3.85-4.41l-3.41-4-3.51-3.87-7-7.7c-4.89-5-9.59-10.07-14.64-14.84q-8.62-8.47-17.63-16.5c-4.31-3.9-8.68-7.7-13.08-11.46-1.55-1.34-3.13-2.67-4.72-4q-5.24-4.38-10.65-8.61c-5.65-4.45-11.4-8.77-17.18-13-.39-.29-.75-.56-1.14-.82q-9.65-7.11-19.53-13.8-9.68-6.57-19.55-12.77-14.35-9.11-29.14-17.42-17.93-10.21-36.41-19.22-9.21-4.61-18.54-8.83-4.65-2.12-9.33-4.12c-2.65-1.14-5.39-2.31-7.93-3.34a196.68 196.68 0 0 1 10.51-19.73c1.92.73 3.76 1.47 5.65 2.25 3.3 1.37 6.58 2.78 9.81 4.22 6.51 2.92 13 5.88 19.31 9q19.08 9.51 37.47 20.26c12.26 7.17 24.18 14.91 35.93 22.94 2.95 2 5.86 4 8.75 6.12s5.82 4.09 8.67 6.25l8.55 6.39 8.41 6.63c22.16 17.91 43.41 37.17 62.57 58.49a433.11 433.11 0 0 1 31.41 38.49q10.66 14.71 20.13 30.28a4.84 4.84 0 0 1-1.45 6.6zm-30.61-88.77a4.14 4.14 0 0 1-5.26-1.25l-.06-.09c-6.45-8.79-13-17.37-20.05-25.54-1.73-2.07-3.56-4-5.35-6.07s-3.55-4-5.45-5.94l-5.51-5.85-5.69-5.72c-7.67-7.5-15.43-14.89-23.62-21.81s-16.41-13.77-24.9-20.29c-17-13.06-34.66-25.11-52.77-36.51-9.07-5.65-18.21-11.16-27.5-16.46-4.61-2.67-9.29-5.23-14-7.79-4-2.15-8.08-4.38-12-6.38a205.68 205.68 0 0 1 16.81-16.73c1.75.84 3.49 1.69 5.26 2.58 5 2.47 9.83 5.09 14.7 7.74 9.7 5.39 19.25 11 28.56 17a503.63 503.63 0 0 1 53.72 39.56 399.59 399.59 0 0 1 47.61 47.37 316.09 316.09 0 0 1 20.35 27 262.22 262.22 0 0 1 16.94 29.33 4.42 4.42 0 0 1-1.79 5.85zm15.15-55.78a2.54 2.54 0 0 1-2.82-.71l-.11-.14c-12.13-14.12-23.88-27.67-36.45-40.55-1.51-1.65-3.19-3.16-4.78-4.74l-4.77-4.76-4.72-4.76-4.91-4.59c-3.26-3.09-6.4-6.25-9.72-9.25l-9.94-9q-20.15-17.77-41.24-34.48-10.5-8.37-21.23-16.53c-2-1.58-4.11-3.16-6.21-4.74-5.08-3.85-10.19-7.68-15.08-11.37l-.28-.22a5.52 5.52 0 0 1-.78-.67 181.41 181.41 0 0 1 25.09-11c3.79 2.23 7.48 4.58 11.17 7 .75.47 1.5 1 2.24 1.45 3.17 2.07 6.23 4.27 9.33 6.43 3.86 2.63 7.59 5.45 11.34 8.25a431.25 431.25 0 0 1 42.48 36.82 325.79 325.79 0 0 1 36.78 43.25c2.63 4 5.23 8 7.78 12l1.9 3c.62 1 1.16 2.12 1.74 3.16l3.39 6.34c4.63 8.32 8.1 17.42 11.31 26.37a2.65 2.65 0 0 1-1.51 3.44z"/><path class="cls-4" d="M187.36 1399l-.9.67c-8.69 6.45-77.06 58.87-104.18 124.37a157 157 0 0 0-5.8 16.42c-1.2-2.07-2.35-4.16-3.44-6.3q-1.14-2.1-2.2-4.25v-.09c-.26-.51-.49-1-.73-1.49-1.25-2.49-2.46-5-3.6-7.61-.45-1-.88-2-1.29-2.93-.58-1.29-1.12-2.58-1.66-3.9l-.26-.64c26-61.3 82.43-109.66 103.66-126.35 4.48-3.54 7.41-5.65 8.15-6.18a10.57 10.57 0 0 1 15 2.8 11.33 11.33 0 0 1-2.75 15.48zm36.95 28.3a10.87 10.87 0 0 1-3.58 3.18c-53.63 29.48-79 71.66-90.57 109.64a213 213 0 0 0-9 55.19h-.05c-.79-.69-1.59-1.38-2.39-2.09q-3.64-3.21-7.13-6.65a162.67 162.67 0 0 1-3.69-3.74c-.88-.91-1.75-1.85-2.61-2.78l-1.66-1.8c-.92-1-1.85-2.07-2.76-3.14a242.46 242.46 0 0 1 4.08-24.67c1.12-5.06 2.45-10.35 4.09-15.8 11.73-39.18 38.16-87.17 97-121.16 1.51-.87 3.06-1.74 4.61-2.61a10.6 10.6 0 0 1 14.57 4.61 11.43 11.43 0 0 1-.91 11.82z"/><path class="cls-4" d="M251.84 1451.92l-3.69 2.31-3.88 2.49-7.7 5.19c-5.11 3.53-10.16 7.18-15.08 11a227.6 227.6 0 0 0-27.77 24.85 158.63 158.63 0 0 0-22.18 29.77 134.06 134.06 0 0 0-7.87 16.87 125.31 125.31 0 0 0-5.15 18.06l-.06.24a5.52 5.52 0 0 1-6.61 4.31 5.69 5.69 0 0 1-4.31-5.93 120.51 120.51 0 0 1 3.1-20.9 125.24 125.24 0 0 1 6.78-20 159.49 159.49 0 0 1 9.69-18.68 189.38 189.38 0 0 1 12-17.07 210.13 210.13 0 0 1 28.77-29.49 202.72 202.72 0 0 1 16.32-12.32c2.84-1.88 5.68-3.75 8.65-5.46l4.47-2.56c1.54-.88 3-1.59 4.79-2.48a10.62 10.62 0 0 1 14.36 5.25 11.33 11.33 0 0 1-4.11 14.27zm151.38-134.62c-16.1 17.22-50.38 32.77-62.19 37.82a10.31 10.31 0 0 1-4.09.85 10.82 10.82 0 0 1-10-6.88 11.24 11.24 0 0 1 5.84-14.52c25.37-10.84 54.62-28.06 57.74-36.4v-.09a205.33 205.33 0 0 1 12.7 19.22zm-18.69-27.01c-14.94 18.2-52 35-64.36 40.31a10.42 10.42 0 0 1-4.12.85 10.75 10.75 0 0 1-10-6.87 11.25 11.25 0 0 1 5.84-14.53c25.16-10.75 54.11-27.75 57.62-36.18a197.87 197.87 0 0 1 15.02 16.42zm-31.79-31.08c-15.93 17.38-50.62 33.13-62.49 38.2a10.49 10.49 0 0 1-4.12.85 10.73 10.73 0 0 1-10-6.88 11.24 11.24 0 0 1 5.84-14.53c20.05-8.56 42.55-21.13 52.62-30.14 2.11 1.27 4.18 2.58 6.23 3.93 4.09 2.7 8.06 5.54 11.92 8.57z"/><ellipse class="cls-4" cx="541.8" cy="1501.83" rx="21.99" ry="23.89"/><ellipse class="cls-4" cx="725.38" cy="1673.62" rx="25.82" ry="28.05"/><ellipse class="cls-4" cx="771.27" cy="1465.09" rx="18.17" ry="19.74"/><ellipse class="cls-4" cx="1010.3" cy="1571.53" rx="18.17" ry="19.74"/><ellipse class="cls-4" cx="1232.83" cy="1295.23" rx="10.88" ry="11.83"/><ellipse class="cls-4" cx="1188.84" cy="1327.57" rx="12.61" ry="13.7"/><ellipse class="cls-4" cx="1072.4" cy="1359.9" rx="12.61" ry="13.7"/><ellipse class="cls-4" cx="1175.9" cy="1464.24" rx="12.61" ry="13.7"/><ellipse class="cls-4" cx="1233.69" cy="1353.04" rx="11.33" ry="12.31"/><ellipse class="cls-4" cx="1193.15" cy="1377.53" rx="8.3" ry="9.01"/><ellipse class="cls-4" cx="1142.7" cy="1396.64" rx="8.3" ry="9.01"/><ellipse class="cls-4" cx="323.74" cy="1681.26" rx="18.17" ry="19.74"/><ellipse class="cls-4" cx="1645.11" cy="1598.96" rx="18.17" ry="19.74"/><ellipse class="cls-4" cx="1463.65" cy="1555.55" rx="27.73" ry="30.13"/><ellipse class="cls-4" cx="1825.44" cy="1381.03" rx="27.73" ry="30.13"/><ellipse class="cls-4" cx="1113.56" cy="1660.59" rx="22.16" ry="24.08"/><path class="cls-4" d="M1396.35 1322.72l-.45 1c-.16.35-.31.71-.47 1.08-.31.73-.64 1.44-.93 2.19-.63 1.46-1.23 3-1.81 4.44-1.2 3-2.29 6-3.37 9l-1.53 4.57c-.5 1.53-.94 3.07-1.41 4.61s-.88 3.09-1.32 4.63l-.63 2.33-.55 2.34a152.19 152.19 0 0 0-3.42 18.94c-.17 1.6-.32 3.2-.51 4.8l-.26 4.82-.15 2.42v7.49a2.74 2.74 0 0 1-5.43.46c-.32-1.68-.62-3.37-.9-5.06l-.42-2.55-.24-2.56-.4-5.15c0-1.72 0-3.44-.06-5.16v-2.59l.14-2.57c.13-1.71.16-3.44.36-5.15l.61-5.12c.21-1.71.55-3.39.83-5.09.14-.85.28-1.7.45-2.54l.56-2.51c.39-1.67.72-3.36 1.18-5s.9-3.32 1.4-5 1-3.28 1.57-4.9l1.76-4.84c.65-1.58 1.27-3.19 2-4.76s1.4-3.14 2.17-4.69 1.55-3.05 2.5-4.69a5 5 0 0 1 8.9 4.51zm59.78 16.45a6.74 6.74 0 0 1-.42.69c-.16.25-.34.57-.5.84-.36.55-.69 1.16-1 1.75s-.67 1.2-1 1.82-.65 1.21-1 1.85l-.93 1.87c-.3.63-.57 1.28-.85 1.92-.61 1.26-1.13 2.58-1.64 3.89a122 122 0 0 0-5.06 16.28l-.87 4.23c-.33 1.4-.46 2.85-.72 4.27s-.52 2.87-.64 4.32-.31 2.9-.47 4.36c-.07.73-.19 1.46-.22 2.19s-.09 1.47-.13 2.2l-.3 4.44c-.14 3-.13 5.94-.34 9v.18a2.34 2.34 0 0 1-4.6.42c-.77-3-1.48-6.07-2-9.15l-.63-4.67c-.1-.78-.21-1.56-.29-2.35s-.09-1.57-.14-2.36c-.07-1.57-.18-3.16-.22-4.74s.07-3.17.09-4.76a93 93 0 0 1 .83-9.54 80.92 80.92 0 0 1 5.06-18.65c.63-1.5 1.26-3 2-4.45.38-.73.73-1.46 1.13-2.17l1.23-2.14c.4-.71.87-1.4 1.33-2.09s.9-1.38 1.43-2 1-1.34 1.56-2c.29-.33.54-.64.86-1s.56-.63 1-1.08a4.92 4.92 0 0 1 8 5.47zm58.73.83c0 .12-.25.45-.4.7s-.33.57-.49.85c-.34.56-.66 1.18-1 1.78s-.64 1.21-1 1.83-.63 1.23-.91 1.88l-.89 1.89c-.29.64-.54 1.3-.81 1.94-.58 1.28-1.07 2.6-1.55 3.93a121.32 121.32 0 0 0-4.69 16.39l-.77 4.25c-.3 1.41-.4 2.86-.63 4.29s-.45 2.88-.54 4.33-.25 2.91-.37 4.37c-.06.73-.16 1.46-.18 2.2s0 1.47-.08 2.2l-.2 4.44c-.06 3 0 6-.13 9v.18a2.33 2.33 0 0 1-4.58.53c-.84-3-1.63-6-2.26-9.11l-.73-4.65c-.12-.78-.25-1.56-.35-2.34s-.13-1.57-.2-2.36c-.1-1.57-.24-3.15-.32-4.74s0-3.17 0-4.76a90.38 90.38 0 0 1 .61-9.56 80.48 80.48 0 0 1 4.64-18.76c.6-1.51 1.19-3 1.91-4.49.36-.74.7-1.48 1.08-2.21l1.19-2.16c.38-.72.84-1.41 1.28-2.11s.87-1.41 1.38-2.08 1-1.36 1.52-2c.28-.34.52-.66.83-1s.55-.64 1-1.09a4.92 4.92 0 0 1 8.11 5.28zm-704.18-20a85.84 85.84 0 0 1 5.6 8.36c.84 1.43 1.67 2.86 2.46 4.31L821 1337l2.12 4.48c.69 1.5 1.32 3 2 4.55 1.24 3 2.47 6.12 3.49 9.27a145.09 145.09 0 0 1 5.25 19.1c.33 1.62.63 3.25.92 4.87s.48 3.27.68 4.91l.3 2.46.18 2.47c.12 1.65.2 3.3.28 4.94a2.35 2.35 0 0 1-4.59.83v-.13c-.49-1.52-1-3-1.41-4.57l-.67-2.28-.75-2.26c-.51-1.5-1-3-1.46-4.5s-1.09-3-1.6-4.46l-.79-2.23-.87-2.2c-.58-1.46-1.09-2.94-1.69-4.4-1.23-2.9-2.38-5.82-3.67-8.68-2.57-5.74-5.17-11.45-8-17.06-1.37-2.82-2.78-5.62-4.19-8.42l-4.19-8.28-.08-.16a5 5 0 0 1 8.44-5.31zM741 1334.36a85.84 85.84 0 0 1 5.6 8.36c.84 1.43 1.67 2.86 2.46 4.31l2.3 4.39 2.12 4.48c.69 1.5 1.32 3 2 4.55 1.25 3 2.48 6.12 3.5 9.27a145.09 145.09 0 0 1 5.25 19.1c.33 1.62.63 3.25.92 4.87s.48 3.27.68 4.91l.3 2.46.18 2.47c.12 1.65.2 3.3.28 4.94a2.35 2.35 0 0 1-4.59.83v-.13c-.49-1.52-1-3.05-1.41-4.57l-.67-2.28-.75-2.26c-.51-1.5-1-3-1.46-4.5s-1.09-3-1.6-4.46l-.79-2.22-.87-2.21c-.58-1.46-1.09-2.94-1.69-4.4-1.23-2.9-2.38-5.82-3.67-8.68-2.57-5.74-5.17-11.45-8-17.06-1.37-2.82-2.78-5.62-4.19-8.42l-4.19-8.28-.08-.15a5 5 0 0 1 8.44-5.32zm118-54.62c.54.36.82.58 1.2.87s.69.53 1 .8c.68.55 1.28 1.11 1.9 1.67s1.18 1.16 1.76 1.74 1.15 1.18 1.66 1.81l1.59 1.87c.49.64 1 1.28 1.46 1.94 1 1.29 1.84 2.66 2.72 4a75.39 75.39 0 0 1 7.86 17.41l1.29 4.55a18.27 18.27 0 0 1 .54 2.3l.46 2.31c.28 1.54.68 3.06.83 4.62l.54 4.65a42.55 42.55 0 0 1 .31 4.65c0 1.55.12 3.09.14 4.63-.06 3.09-.26 6.17-.51 9.22a2.13 2.13 0 0 1-4.2.31v-.16c-.66-2.93-1.16-5.83-1.74-8.71-.73-2.85-1.27-5.72-2.06-8.51a137.16 137.16 0 0 0-5.46-16.29 113.52 113.52 0 0 0-7.68-14.93c-.73-1.17-1.44-2.37-2.25-3.47-.4-.56-.78-1.14-1.16-1.71l-1.23-1.63c-.41-.56-.82-1.1-1.25-1.62s-.84-1.07-1.28-1.56-.85-1-1.29-1.5c-.22-.23-.44-.5-.64-.71a5 5 0 0 1-.51-.58l-.88-1.46a4.86 4.86 0 0 1 6.9-6.52z"/><path d="M1178.86 347c-25.39 103-51.65 160.1-76.31 128.66-17.3-22-33.43-69.24-48.26-132.06 1.9-.16 3.8-.32 5.69-.45 3.52-.27 7-.47 10.54-.64.52 0 1.06-.07 1.58-.07a580.72 580.72 0 0 1 71.8.93c1.64.14 3.3.25 4.93.4 1.32.09 2.63.2 3.93.32l1 .08q12.71 1.13 25.1 2.83zm315.63 254.64C1434.59 637.84 1388.31 658 1388 634c-.39-26.85 33.79-84.41 75.48-144.39-.24 3.2-.47 6.36-.69 9.5-.75 10.46-1 21.63 4.08 30.84 7.8 14.32 15.43 33.19 22.37 54.5 1.76 5.55 3.55 11.32 5.25 17.19zm-697.44 33.49c-.32 23.29-44 4.94-101.48-29.33q2.1-5.89 4.51-11.68a300.43 300.43 0 0 1 19.44-38.86 158.93 158.93 0 0 0 17.37-42c34.43 51.45 60.53 98.42 60.16 121.87zm667.03-421.92c-7.89 13.22-15.89 26.48-23.93 39.67-5 8.19-10 16.33-15 24.45-95.51 154-194.49 289.67-221 239.5-7.7-14.53-11.47-38-12.29-67.52a417.87 417.87 0 0 1 7.65-90.46c.52-2.72 1.06-5.56 1.62-8.48q9.43 1.63 18.52 3.52c1.25.24 2.47.51 3.7.78.8.13 1.6.31 2.4.48a489.87 489.87 0 0 1 51 14l2.7 1c23.75-49.54 69.88-129 138.32-175.2 16.14-10.88 28-10.06 36.42-.6.61.67 1.19 1.4 1.77 2.16a46.49 46.49 0 0 1 5.28 9.19c.5 1.11 1 2.29 1.45 3.49s.94 2.64 1.39 4.02zm-418.69 225.86c-.82 29.57-4.61 53-12.31 67.55-26.49 50.17-125.47-85.52-221-239.52-5-8.12-10-16.27-15-24.45q-10.1-16.56-20.07-33.2l25.31 13.22c7.39 4.67 14.44 9.59 21.23 14.68 2.71 2 5.37 4.07 8 6.17 50.15 39.71 83.35 87.74 104 124.81a435 435 0 0 1 70-18.47l1.1-.2q15.16-2.67 30.39-4.4c.22 1.13.43 2.24.65 3.36a417.59 417.59 0 0 1 7.7 90.45z" opacity=".25" fill="#392930"/><path class="cls-10" d="M1076.3 742.68l48.61-.75c16.52-.26 27.3 11.14 19.46 20.57l-33.19 39.83a8.16 8.16 0 0 1-12.12.72L1059 764.4c-9.54-9.14.3-21.46 17.3-21.72z"/><path class="cls-11" d="M1095.6 746.74l-18.78 1.26c-1.71.11-3.52.26-5 1.54a8.54 8.54 0 0 0-2.54 7.63c.35 3.05 1 6.18 3.35 8.35a12.9 12.9 0 0 0 7.41 3 68.26 68.26 0 0 0 10 0c3.43-.13 6.86-.21 10.29-.39 4.43-.24 13.61-4.27 10.69-13-2.17-6.63-10.87-8.69-15.42-8.39z"/><path class="cls-4" d="M1200.52 864c7.79.12 11.38 5.17 5.49 7.7-32.5 13.94-61.59 21.45-86.61 20.68-41.27-1.28-70.25-15.06-84.7-23.86-4.7-2.87-.8-7.14 6.36-7z"/><path class="cls-10" d="M1199 853.27c15.11-66.24-76.83-69.52-74.53-38.54s-30.29 47.63-30.29 47.63 94.13 37.64 104.82-9.09z"/><path class="cls-4" d="M1136.34 886a134.92 134.92 0 0 0 10.14-10 104.91 104.91 0 0 0 8.93-11.09 63.44 63.44 0 0 0 6.77-12.35 37.64 37.64 0 0 0 2.89-13.72.63.63 0 0 1 1.25-.12 28.58 28.58 0 0 1 .44 7.51 34.79 34.79 0 0 1-1.41 7.44 44.8 44.8 0 0 1-2.76 7 59.11 59.11 0 0 1-3.7 6.54 84.4 84.4 0 0 1-9.18 11.74 89.06 89.06 0 0 1-11 10.06 1.92 1.92 0 0 1-2.44-3z"/><path class="cls-11" d="M1182.92 819.64a18.54 18.54 0 0 0-7-5.27c-2.87-1.16-6.47-1.33-9.06 0-1.22.65-2.21 1.78-1.89 3a4.72 4.72 0 0 0 1.4 1.86 30.68 30.68 0 0 1 8.42 14c1.12 4.24 5.25 16.25 12.09 8.57 5.51-6.2 1.01-16.47-3.96-22.16z"/><path class="cls-10" d="M741.18 471c0-.54-.08-1.07-.13-1.6-4.44-47.93-7.5-97-7.18-139.43.26-33.64 2.66-63.1 8.2-84.43 3.72-14.47 8.9-25.21 15.82-31C786.3 247.34 858 334.4 868.51 388.84c10.19 52.62-83.85 74.77-127.33 82.16zm724.75-4.49c-46.62-9.12-124.65-31.77-115.32-79.94 10.46-53.86 83-142.81 112.07-176.5.49 1.34 1.59 5.17 1.81 5.43 15.17 50.04 8.19 157.43 1.44 251.01z"/><path class="cls-4" d="M1382.2 392.64a25.26 25.26 0 0 0 1.84-3.25c.6-1.17 1.15-2.37 1.71-3.58 1.11-2.41 2.2-4.85 3.27-7.3l6.52-14.7 3.3-7.35c1.1-2.45 2.21-4.89 3.35-7.33 2.25-4.87 4.54-9.75 7-14.53a3.5 3.5 0 0 1 6.69 1.27l3.26 78.1-5.7-2.57c1.66-1.42 3.36-2.78 5-4.17l5.12-4.06c3.41-2.71 6.89-5.34 10.37-8s7-5.22 10.55-7.75l5.34-3.79c1.81-1.23 3.59-2.49 5.42-3.69a1.64 1.64 0 0 1 2 2.53c-1.56 1.54-3.16 3-4.74 4.53l-4.83 4.43c-3.22 3-6.5 5.82-9.78 8.7s-6.6 5.69-10 8.47l-5 4.15c-1.71 1.35-3.39 2.74-5.13 4.06l-.19.15a3.43 3.43 0 0 1-4.8-.65 3.38 3.38 0 0 1-.71-2.08l-3.25-78.1 6.7 1.28c-2 5.07-4.14 10-6.4 14.91-1.14 2.46-2.3 4.9-3.5 7.33s-2.42 4.84-3.66 7.25q-3.72 7.21-8 14.22c-1.43 2.32-2.91 4.62-4.5 6.87-.8 1.13-1.64 2.23-2.52 3.32a20.15 20.15 0 0 1-3.07 3.15 1.28 1.28 0 0 1-1.83-1.75zm-594.6-70.2a27.3 27.3 0 0 0 2.21 3c.82 1 1.68 2 2.55 3q2.61 3 5.3 5.94l10.69 11.87 5.33 6c1.78 2 3.54 4 5.3 6 3.51 4 7 8.07 10.36 12.21a3.5 3.5 0 0 1-3.83 5.62l-71.17-26.74 4.61-4.19c.64 2.12 1.2 4.27 1.81 6.4l1.68 6.44c1.12 4.29 2.14 8.6 3.16 12.92s2 8.65 2.89 13l1.34 6.52c.41 2.19.85 4.36 1.22 6.56a1.63 1.63 0 0 1-3.14.85c-.79-2.08-1.51-4.18-2.26-6.27l-2.14-6.32c-1.42-4.21-2.74-8.44-4.06-12.67s-2.59-8.49-3.79-12.76l-1.8-6.4c-.55-2.15-1.15-4.28-1.67-6.44v-.17a3.47 3.47 0 0 1 2.56-4.17 3.37 3.37 0 0 1 2.09.15L828 369.5l-3.83 5.62c-3.81-3.82-7.4-7.8-10.95-11.85q-2.66-3-5.22-6.14c-1.74-2.06-3.42-4.16-5.1-6.26q-5.05-6.31-9.68-13c-1.52-2.25-3-4.52-4.4-6.89-.7-1.17-1.36-2.39-2-3.63a21.44 21.44 0 0 1-1.6-4.07 1.28 1.28 0 0 1 2.35-1z"/><path class="cls-12" d="M1343 637.85c11.52 24.76 10.69 55.08-8.12 76.72-32.77 37.7-93.35 39.8-138.1 27.58-12.3-3.36-36.53-9.29-37.28-25.89-2-43.8 18.35-98.44 66.58-117.73 30.5-12.21 69.44-9.79 95.45 11.43a79 79 0 0 1 21.47 27.89z"/><ellipse class="cls-4" cx="1255.15" cy="678.27" rx="69.49" ry="72.11" transform="rotate(-58.13 1255.052 678.273)"/><path class="cls-13" d="M1213.31 674.09c1.49 8.06 3.64 16.18 8.13 23.09s11.67 12.52 19.88 13.48c4.66.54 9.32-.41 13.89-1.35l18.15-3.76a1.89 1.89 0 0 0 1.17-.55 1.86 1.86 0 0 0 .14-1.42c-.42-2.53-.88-5.16-2.35-7.29a13.71 13.71 0 0 0-6-4.43c-8.58-3.72-18.55-3.12-27.1-6.9a13.82 13.82 0 0 1-5.76-4.24c-2.86-3.92-2.17-9.45-4.64-13.61-2-3.41-7.92-6.33-11.93-4.89-5.06 1.78-4.43 7.21-3.58 11.87z"/><path class="cls-14" d="M1162.46 682.92s4.36 41.34 34.31 59.23"/><path class="cls-15" d="M1350.5 679.67c15-50.07 7-60.32-42.2-78.71"/><path class="cls-12" d="M860.43 636.45c-12 25.84-11.16 57.48 8.48 80.07 34.2 39.34 97.42 41.53 144.12 28.78 12.84-3.5 38.13-9.69 38.91-27 2.06-45.71-19.15-102.74-69.49-122.87-31.83-12.74-72.46-10.22-99.61 11.93a82.4 82.4 0 0 0-22.41 29.09z"/><ellipse class="cls-4" cx="952.11" cy="678.63" rx="75.26" ry="72.53" transform="rotate(-31.87 952.24 678.686)"/><path class="cls-13" d="M1003.24 693.56c-2 7.56-4.76 15-9.33 21.32-13.64 18.89-46.53-7.53-39.76-8.69 9.7-1.66 23.51.11 29.19-10.09 1.81-3.26 2.14-7.21 4.12-10.37 2.71-4.35 10.89-7.88 15.1-3.55 2.41 2.47 1.89 6.48 1.07 9.82q-.18.78-.39 1.56z"/><path class="cls-14" d="M1048.84 683.48s-4.55 43.15-35.81 61.82"/><path class="cls-15" d="M854 682.37c-16.94-55.34-8.77-65.23 42.62-84.43"/></g></svg>