<svg xmlns="http://www.w3.org/2000/svg" viewBox="0 0 1927.56 1870.87"><defs><style>.cls-1{fill:#f7e1c4}.cls-3,.cls-5{fill:#392930}.cls-3{opacity:.15}.cls-4{fill:#f4eee4}.cls-26{opacity:.25}.cls-8{fill:#ec9bb5}.cls-28{fill:none}.cls-27,.cls-28{stroke-linecap:round;stroke-linejoin:round}.cls-12{fill:#d1915b}.cls-16{fill:#cd915c}.cls-20{fill:#2fb1a0}.cls-22{fill:#ffb80e}.cls-25,.cls-27{fill:#9ede2e}.cls-25,.cls-27,.cls-28{stroke:#392930;stroke-width:10.39px}.cls-25{stroke-miterlimit:10}.cls-26{fill:#f7eed9}</style></defs><g id="Cat"><path class="cls-1" d="M1769.26 662.78c-31.56 33-80.33 25-120 52.5a99.82 99.82 0 0 0-11.66 9.44c-37.28 35.14-57.06 89.27-68.22 149.27-3.12 16.71-5.56 33.88-7.53 51.22-5.25 46.31-7.12 93.82-9.25 137.15l-2.5 43.83c-.75 10.64-1.6 20.84-2.64 30.5-9.33 87-47.57 189.16-109.26 250.49a121.79 121.79 0 0 1-14.45 12.1c-56.8 41.3-187.35 81.38-210-7-21.31-83.23 103.81-79 144-108.7 24.86-18.36 43.87-45.71 57.79-76.67 17.46-38.79 26.94-83.24 30-122.87.67-8.75 1-17.27 1.1-25.43.57-74.63-5-145.95-.12-216.59.92-13.43 2.22-26.84 4-40.23a473.55 473.55 0 0 1 21.59-92.62q2.82-8.13 6.32-16.27a276.68 276.68 0 0 1 23.65-43.5c49.49-74.73 137.41-133.83 224.45-107.43 51.23 15.49 85.29 76.37 42.73 120.81z"/><path d="M1727.91 541.93c-66.35-20.12-133.2 9.45-183.16 57.75a157.72 157.72 0 0 1 77.46 3.41c42.48 12.89 73.68 55.66 62.5 96 31-10 63-12.38 85.87-36.31 42.55-44.44 8.5-105.33-42.67-120.85z" opacity=".3" fill="#392930"/><path class="cls-3" d="M1649.27 715.28a99.82 99.82 0 0 0-11.66 9.44c-92.56 87.23-77.22 291.6-90.14 412-9.33 87-47.57 189.16-109.26 250.49a121.79 121.79 0 0 1-14.45 12.1c18.77-36.23 8.29-82.57 1.88-120.62-3.31-19.68-8.73-40.78-10-60.56a97.41 97.41 0 0 1 0-11.21c17.46-38.79 26.94-83.24 30-122.87 22.88-71.32 51.2-141 68.77-213.91 10.89-45.21 32.42-88.89 66.6-121.1 20.7-19.6 44.63-27.43 68.26-33.76z"/><path class="cls-1" d="M887.65 922c-28.65 26.84-118.4 64-199.25 72.65-59.93 6.46-115-2.75-136.75-43.31-21.21-39.57 25-58 70.91-70.52 23.32-6.36 46.53-11.2 60.77-16.5 13.58-5.06 27.3-10.4 40.9-16.19 13.32-5.67 26.51-11.76 39.31-18.46 49.46-25.82 93.06-60.48 115.9-113.42z"/><path class="cls-4" d="M688.4 994.65c-59.93 6.46-115-2.75-136.75-43.31-21.21-39.57 25-58 70.91-70.52 35.3 32.77 65.73 73.52 65.84 113.83z"/><path class="cls-3" d="M819 794.18c2.79 70.1-41.81 133.56-108.89 154.12-27.82 8.53-57.66 15.2-86.39 18.27-20.4 2.2-40.24 2.58-58.4.53 26.52 26.44 73.73 32.19 124.41 26.73C770.57 985.17 860.29 948 889 921.15l-8.21-205.72c-13.99 32.36-35.73 57.89-61.79 78.75z"/><path class="cls-4" d="M1374 1470.86c-45.12 69-128.83 103.83-220 116.4q-6.21.85-12.45 1.57c-15.24 1.75-30.67 2.9-46.12 3.52s-30.8.67-46.1.25c-57.19-1.57-112.8-9.95-159.45-22.35C576.5 1487 714.38 1100.14 804 888.76c24.59-58 45.32-146.35 78.63-220a421.78 421.78 0 0 1 25-47.74c19.08-30.82 41.87-56 70.18-70.47 97.44-50 179.54-6.29 239.83 65.76a435.8 435.8 0 0 1 33.42 45.94c22.35 35.12 40.3 73.16 53.38 108.71 30.31 82.47 69.66 187.48 95.41 295.39q3.39 14.25 6.45 28.55c29.26 136.63 33.7 275.1-32.3 375.96z"/><path class="cls-3" d="M1406.31 1094.89c-20.29 15.13-39.26 45-53.25 92.31-38.24 129.18-18.18 220.89-123.11 315.29-24.42 22-65.39 48.47-76 84.77q-6.21.85-12.45 1.57c-15.24 1.75-30.67 2.9-46.12 3.52s-30.8.67-46.1.25L1027 1085l72.64 372.34c7.62 39.06 54.88 55.18 84.63 28.75l.52-.46c104.93-94.38 84.86-186.11 123.1-315.27 22.75-76.85 58.66-107.82 92-104q3.36 14.23 6.42 28.53zm-486.72 363.2c-70.34-87.77-77.3-166.16-78.38-259.56-9.7 95.51-13 172.8 47.65 270 21 33.71 81.79 87.43 50.41 128.94a52 52 0 0 1-5.58 6.29c20.8 1.58 39.66-3.93 51.17-23.6 26.26-44.9-40.43-91.08-65.27-122.07z"/><path class="cls-1" d="M837.93 1161.34c-17.71-163.24-133.31-139.26-174.93-3.63-20.07 65.56-35.63 154.84-23.28 223.71 16.14 89.82 107.78 174.45 184.78 211.2 35 16.68 112.48 59 141.89 8.68 26.26-44.92-40.43-91.1-65.27-122.1-85.84-107.09-49.29-189.78-63.19-317.86z"/><path class="cls-5" d="M965.54 919.24a1 1 0 0 1 .44-1.13h.06c6.49-4.31 12.73-8.48 18.73-13 .76-.54 1.48-1.16 2.21-1.74l2.23-1.73 2.22-1.71 2.16-1.8c1.45-1.19 2.92-2.34 4.34-3.56l4.27-3.66q8.43-7.44 16.46-15.32 4-3.93 8-8l2.29-2.33c1.86-1.91 3.72-3.84 5.5-5.68l.11-.1a2.21 2.21 0 0 1 .32-.29 76.72 76.72 0 0 1 3.26 11c-1.12 1.46-2.29 2.87-3.47 4.27l-.72.86c-1 1.21-2.1 2.36-3.15 3.54-1.29 1.46-2.66 2.87-4 4.28a180.79 180.79 0 0 1-17.52 15.72 136.15 136.15 0 0 1-19.86 13c-1.8.89-3.59 1.76-5.4 2.61l-1.35.63c-.45.21-.94.37-1.4.56l-2.81 1.08a73.06 73.06 0 0 1-11.59 3.26 1.1 1.1 0 0 1-1.33-.76zm24.63 39.93c-6.32-7.58-11-22.62-12.48-27.78a4.19 4.19 0 0 1-.13-1.75 4.5 4.5 0 0 1 3.37-3.78 4.71 4.71 0 0 1 5.73 3.18c3.18 11.09 8.81 24.13 12.11 25.86a85.27 85.27 0 0 1-8.6 4.27zm12.18-6.36c-6.78-7.15-11.85-23.39-13.35-28.81a4.42 4.42 0 0 1-.14-1.76 4.49 4.49 0 0 1 3.37-3.77 4.7 4.7 0 0 1 5.73 3.18c3.15 11 8.71 23.9 12 25.79a79.8 79.8 0 0 1-7.61 5.37zm14.55-11.59c-6.38-7.51-11.12-22.73-12.61-27.92a4.38 4.38 0 0 1-.14-1.75 4.48 4.48 0 0 1 3.37-3.78 4.69 4.69 0 0 1 5.73 3.18c2.52 8.76 6.57 18.76 9.78 23.41-.63.81-1.28 1.6-1.95 2.38a76.677 76.677 0 0 1-4.18 4.48z"/><path class="cls-1" d="M1483.11 1385.8a190.79 190.79 0 0 1-12.94 42 266.47 266.47 0 0 1-29.23 50.44c-37.65 51.8-93.15 95.16-142.61 118.76-12.17 5.81-29.49 14.72-48.15 21.75-35 13.17-74.57 19.73-93.74-13.07-14.48-24.76-.7-49.91 18.74-72.69 15.82-18.53 35.39-35.5 46.53-49.4 24-29.9 38.39-57.9 47-85.51a248.9 248.9 0 0 0 8.57-37.62c5.66-37.47 3.81-75.52 3.9-117.94 0-16.41.34-33.48 1.5-51.43.53-8.26 1.24-16.71 2.18-25.37 17.71-163.24 133.31-139.25 174.94-3.63 20.11 65.57 35.66 154.85 23.31 223.71zM1303.2 787.74a250.48 250.48 0 0 1-20.51 41.47 224.15 224.15 0 0 1-24.87 33.65c-8 8.76-17.07 17.83-26.88 27a577.826 577.826 0 0 1-38.08 32.37q-5.62 4.38-11.4 8.66c-13.36 9.89-27.25 19.25-41.29 27.67-22.83 13.7-46.06 24.89-68.08 31.73-5.27 1.63-10.46 3-15.58 4.14C953 1017 889.22 959.61 982.74 882.4c5.47-4.54 11.15-8.92 16.93-13.17 50.59-37.23 110.83-65.66 152.79-112.6 7.23-8.1 14.83-18.65 23-29.7 9-12.28 18.71-25.17 29.23-35.94 22.41-23 48.62-36.37 80.49-13.9 35.88 25.34 33.46 69.91 18.02 110.65z"/><path class="cls-3" d="M1251.07 662.24c-97.76 55.83-264.92 67.11-368.48 6.51a421.78 421.78 0 0 1 25-47.74c92.43 39.87 219.89 33.35 310-4.71a435.8 435.8 0 0 1 33.48 45.94z"/><path class="cls-1" d="M780.22 500.24a295.44 295.44 0 0 1-4.47-45.95 244.55 244.55 0 0 1 6.57-61.68q2.38-9.78 5.52-19c.93-2.82 1.94-5.61 3-8.37a221.66 221.66 0 0 1 12.94-27.85 119.09 119.09 0 0 0 11.56-30.13c.74-3.19 1.37-6.41 1.86-9.65a120.75 120.75 0 0 0 1.35-20.67q-.06-3.69-.36-7.37c0-.38-.06-.75-.08-1.12-2.77-30.92-4.72-62.55-4.78-90.5v-5.75c.17-23.21 1.76-43.55 5.45-58.28 2.48-10 5.92-17.41 10.53-21.41a13.25 13.25 0 0 1 12.75-2.9 26.41 26.41 0 0 1 7.26 3.23c3.27 2 6.47 4.1 9.58 6.24 4.92 3.35 9.61 6.87 14.13 10.53 1.81 1.45 3.57 2.91 5.32 4.41 33.38 28.46 55.47 62.88 69.24 89.44a272.71 272.71 0 0 1 46.55-13.23l.73-.15q10.1-1.91 20.23-3.15c.45-.07.93-.13 1.39-.18 2.66-.32 5.33-.61 8-.85l2-.19 3.79-.32c2.34-.19 4.67-.33 7-.46.35 0 .71-.05 1.05-.05a359.6 359.6 0 0 1 47.78.67c1.09.1 2.19.18 3.28.29.88.06 1.75.14 2.61.22l.64.07q8.49.81 16.73 2c.72.1 1.44.19 2.14.31q6.47.93 12.71 2.12t12.32 2.51l2.47.56c.53.1 1.06.23 1.59.35a308.43 308.43 0 0 1 33.98 10.02l1.79.72c15.81-35.5 46.51-92.46 92.05-125.55 10.74-7.79 18.6-7.2 24.24-.43.4.48.79 1 1.18 1.55a34.72 34.72 0 0 1 3.51 6.59c.33.79.65 1.64 1 2.5s.63 1.86.93 2.85c.08.29.17.56.26.84 4.51 15.45 6.08 38.82 6 65.73v2c-.14 32.77-2.65 70.6-5.07 105.6-.18 2.4-.33 4.81-.51 7.2-.18 2.59-.35 5.14-.53 7.67-.21 3.05-.41 6-.63 9-.15 2.3-.31 4.56-.46 6.81-.5 7.49-.63 15.5 2.71 22.1 5.2 10.26 10.28 23.78 14.89 39 1.21 4 2.4 8.12 3.53 12.33 3.39 12.45 6.44 25.73 9 39.15 7.1 36.84 7.51 74.49 7.31 99.55-1.47 183.71-510.89 247.33-555.56-8.97z"/><path class="cls-5" d="M1263.74 453.84c1.83-2.14 3.56-4 5.39-5.91s3.65-3.75 5.53-5.56c3.74-3.65 7.62-7.13 11.59-10.51a262 262 0 0 1 25-18.81c17.43-11.48 36.29-21.07 56.36-27.45l3.75-1.22 3.81-1 3.81-1c1.27-.35 2.54-.69 3.84-.94l7.72-1.68c2.6-.48 5.21-.87 7.81-1.3s5.22-.72 7.85-1l3.94-.4c1.31-.16 2.62-.21 3.94-.25l7.92-.32c2.63 0 5.27.07 7.91.15 1.32.05 2.64.06 3.95.14l3.94.37 3.94.36 2 .18 1 .09 1 .16c5.19.91 10.42 1.57 15.49 2.95a161.6 161.6 0 0 1 29.64 10.11 3.35 3.35 0 0 1-2.2 6.31h-.17c-9.72-2.58-19.35-5.2-29.2-6.54-4.88-.92-9.83-1.26-14.74-1.79-2.46-.21-4.94-.25-7.4-.39l-3.69-.18h-3.7a184.16 184.16 0 0 0-58.16 9.37c-4.73 1.45-9.34 3.26-14 5l-6.83 2.92c-2.27 1-4.49 2.12-6.74 3.16a251.39 251.39 0 0 0-26 14.58 282.62 282.62 0 0 0-24.32 17.43c-3.88 3.14-7.72 6.33-11.43 9.66q-2.79 2.49-5.49 5.06a133.21 133.21 0 0 0-5.19 5.14l-.1.11a5.2 5.2 0 0 1-7.71-7zm16.45 32.4l.5-.79.45-.67c.3-.44.6-.86.91-1.27.6-.84 1.23-1.61 1.86-2.41 1.28-1.55 2.6-3.06 4-4.47a78.14 78.14 0 0 1 8.93-7.85 85.65 85.65 0 0 1 20.58-11.61 97 97 0 0 1 22.73-6 118.61 118.61 0 0 1 23.27-.94c1.93.1 3.84.32 5.76.48l2.89.26 2.85.41c1.9.28 3.8.55 5.7.86l5.62 1.16 2.81.58 2.77.72 5.54 1.45c1.84.49 3.64 1.11 5.45 1.67s3.64 1.1 5.43 1.73l5.32 2 2.66 1c.89.32 1.76.68 2.62 1.08L1424 466c1.72.77 3.45 1.52 5.11 2.43 3.34 1.74 6.68 3.47 9.94 5.36s6.41 3.93 9.52 6a2.75 2.75 0 0 1-2.45 4.87h-.1c-3.5-1.23-6.91-2.61-10.32-4-1.68-.72-3.42-1.3-5.13-1.95s-3.4-1.32-5.11-2c-3.41-1.28-6.84-2.46-10.25-3.71s-6.88-2.29-10.3-3.44a168.22 168.22 0 0 0-42.08-8l-5.3-.11c-1.76-.05-3.52.1-5.28.14-.87 0-1.76 0-2.63.12l-2.62.29-2.62.23c-.87.08-1.73.25-2.6.37a91.31 91.31 0 0 0-20.15 5.22l-2.41 1c-.81.31-1.58.71-2.37 1.07s-1.57.71-2.34 1.1l-2.29 1.21c-1.56.76-3 1.72-4.49 2.58l-2.16 1.42-1.08.71-1 .77a66.66 66.66 0 0 0-7.9 6.61 76.67 76.67 0 0 0-3.54 3.68c-.54.63-1.11 1.27-1.62 1.91q-.39.48-.75 1l-.34.47-.27.37-.26.36a5.18 5.18 0 0 1-8.59-5.8zm.24 34.39l.58-.57.51-.49 1-.91c.67-.6 1.36-1.15 2-1.71 1.38-1.09 2.81-2.1 4.26-3.06a69.13 69.13 0 0 1 9.1-5.06 67.41 67.41 0 0 1 20-5.68 71.89 71.89 0 0 1 20.72.43 87.11 87.11 0 0 1 19.63 5.75 122.73 122.73 0 0 1 33.24 21.86 185.76 185.76 0 0 1 25.91 29.16 2 2 0 0 1-3 2.57 286.55 286.55 0 0 0-28.24-25.26c-1.21-1-2.54-1.82-3.79-2.76l-3.79-2.72-3.91-2.51-2-1.25c-.64-.42-1.34-.76-2-1.15l-4-2.3c-1.34-.74-2.74-1.37-4.1-2.06l-2.05-1c-.69-.32-1.4-.59-2.1-.89-1.41-.57-2.78-1.2-4.19-1.75-11.3-4.27-23.28-6.19-34.9-4.7a61.38 61.38 0 0 0-16.89 4.59 58.76 58.76 0 0 0-7.84 4l-1.85 1.17-1.8 1.24c-.58.42-1.18.83-1.73 1.27-.29.21-.55.43-.81.64l-.68.57-.39.32a5.18 5.18 0 0 1-7-7.66zm-479.17-35.25l-.49-.93c-.18-.36-.38-.71-.6-1.08-.4-.72-.86-1.44-1.3-2.16-.93-1.42-1.88-2.85-2.91-4.23a70 70 0 0 0-6.73-7.88 86 86 0 0 0-16.17-13 96.26 96.26 0 0 0-18.83-9l-2.47-.89c-.83-.28-1.69-.49-2.53-.75l-2.53-.73-1.27-.37-1.29-.3-5.14-1.26-5.23-.92a174.1 174.1 0 0 0-43-.76 337.38 337.38 0 0 0-43.23 7.57 2.74 2.74 0 0 1-1.61-5.23 221.2 221.2 0 0 1 43.6-12l5.66-.75c1.89-.22 3.77-.56 5.68-.67 3.81-.3 7.62-.7 11.46-.69a137.42 137.42 0 0 1 23.08 1.18 113.5 113.5 0 0 1 22.73 5.38 99.29 99.29 0 0 1 21.23 10.22l2.5 1.6 2.4 1.74c1.62 1.13 3.14 2.41 4.67 3.65.78.61 1.51 1.29 2.24 1.95s1.48 1.32 2.2 2c1.4 1.4 2.84 2.77 4.13 4.27a82.28 82.28 0 0 1 7.39 9.33c1.12 1.65 2.18 3.34 3.18 5.09.47.9 1 1.77 1.41 2.7.23.45.46.92.68 1.4l.33.74.35.85a5.18 5.18 0 0 1-9.36 4.42zm32.4-22.84c-1.26-1.93-2.69-4.07-4.1-6.07s-2.86-4.07-4.34-6.08c-3-4-6-8-9.1-11.84-6.22-7.77-12.84-15.2-19.71-22.34-13.85-14.17-29-27-45.66-37.26a170.16 170.16 0 0 0-53.92-22.08 160.17 160.17 0 0 0-29.23-3.43c-2.47-.07-5-.07-7.44-.05s-5 .13-7.45.31c-1.25.08-2.5.12-3.74.23l-3.74.35c-2.51.18-5 .58-7.5.82h-.1a2.49 2.49 0 0 1-1-4.85 140.82 140.82 0 0 1 62.31-5.56c21.09 2.8 41.44 10.52 59.62 21.36a213.07 213.07 0 0 1 48.5 40.14 245.39 245.39 0 0 1 19.6 24.45c3 4.29 5.88 8.61 8.56 13.1 1.34 2.24 2.67 4.49 3.93 6.78s2.47 4.55 3.67 7.09a5.2 5.2 0 0 1-9.06 5.06zm-22.01 70.62l-.55-.71c-.22-.27-.42-.54-.66-.81-.45-.55-.93-1.09-1.41-1.62l-1.48-1.6-1.55-1.55a78.24 78.24 0 0 0-6.65-5.71l-1.76-1.3c-.59-.42-1.21-.81-1.82-1.21-1.18-.85-2.46-1.55-3.69-2.32s-2.55-1.38-3.83-2-2.62-1.25-4-1.76a66.77 66.77 0 0 0-16.71-4.46 74.85 74.85 0 0 0-17.52-.27 95.88 95.88 0 0 0-17.59 3.35c-1.46.39-2.93.76-4.36 1.28l-4.34 1.4c-2.87 1-5.75 2.1-8.62 3.2l-4.24 1.84c-1.42.62-2.89 1.13-4.27 1.84l-4.22 2c-1.41.66-2.86 1.25-4.23 2s-2.78 1.45-4.19 2.14-2.85 1.36-4.22 2.14c-2.77 1.5-5.57 3-8.44 4.41h-.08a2.22 2.22 0 0 1-2.49-3.61c2.38-2.2 4.83-4.32 7.31-6.43s5.14-4 7.76-5.93 5.41-3.65 8.16-5.43 5.68-3.31 8.57-4.9c1.47-.76 3-1.45 4.46-2.18s3-1.49 4.52-2.08c3.1-1.21 6.15-2.56 9.39-3.49 1.6-.5 3.18-1 4.81-1.47l4.92-1.19c1.63-.44 3.33-.66 5-1s3.34-.61 5.05-.74a77.52 77.52 0 0 1 40.64 5.73 72.36 72.36 0 0 1 24.9 18.36c1.12 1.32 2.24 2.64 3.25 4.06.51.71 1 1.42 1.51 2.16.25.37.49.75.73 1.14l.37.59.4.69a5.18 5.18 0 0 1-8.54 5.82z"/><path d="M1109.44 188.12c-16.89 73.83-34.36 114.72-50.77 92.2-11.52-15.8-22.25-49.62-32.12-94.64l3.79-.32c2.34-.19 4.67-.33 7-.46.35 0 .71-.05 1.05-.05a359.6 359.6 0 0 1 47.78.67c1.09.1 2.19.18 3.28.29.88.06 1.75.14 2.61.22l.64.07q8.5.81 16.74 2.02zm210.04 182.48c-39.86 25.94-70.66 40.35-70.9 23.18-.26-19.24 22.49-60.49 50.23-103.47-.15 2.3-.31 4.56-.46 6.81-.5 7.49-.63 15.5 2.71 22.1 5.2 10.26 10.28 23.78 14.89 39 1.21 4.06 2.4 8.17 3.53 12.38zm-464.11 23.99c-.21 16.69-29.3 3.54-67.53-21 .93-2.82 1.94-5.61 3-8.37a221.66 221.66 0 0 1 12.94-27.85 119.09 119.09 0 0 0 11.56-30.13c22.9 36.89 40.28 70.55 40.03 87.35zm443.87-302.33q-7.87 14.2-15.92 28.43c-3.31 5.86-6.67 11.7-10 17.52-63.56 110.35-129.42 207.57-147 171.62-5.12-10.41-7.63-27.2-8.18-48.39a321.31 321.31 0 0 1 5.1-64.82c.34-2 .7-4 1.07-6.07q6.29 1.17 12.32 2.51l2.47.56c.53.1 1.06.23 1.59.35a308.43 308.43 0 0 1 33.89 10.03l1.79.72c15.81-35.5 46.51-92.46 92.05-125.55 10.74-7.79 18.6-7.2 24.24-.43.4.48.79 1 1.18 1.55a34.72 34.72 0 0 1 3.51 6.59c.33.79.65 1.64 1 2.5s.59 1.89.89 2.88zm-278.61 161.85c-.55 21.18-3.07 38-8.19 48.4-17.63 35.95-83.5-61.28-147-171.64-3.32-5.82-6.67-11.65-10-17.52q-6.7-11.85-13.35-23.78L858.9 99c4.92 3.35 9.61 6.87 14.13 10.53 1.81 1.45 3.57 2.91 5.32 4.41 33.38 28.46 55.47 62.88 69.24 89.44a272.71 272.71 0 0 1 46.55-13.23l.73-.15q10.1-1.91 20.23-3.15c.14.81.28 1.61.43 2.4a321.88 321.88 0 0 1 5.1 64.86z" opacity=".25" fill="#392930"/><path d="M1122.72 424.08c-2.14 5.29-3.94 10.87-4 16.67s1.75 11.9 5.86 15.68a27.85 27.85 0 0 0 8 4.67l11.2 4.94a1.15 1.15 0 0 0 .84.14 1.35 1.35 0 0 0 .6-.77 12.93 12.93 0 0 0 1.38-5.19 10 10 0 0 0-1.63-4.93c-3.29-5.55-8.91-9.11-12.17-14.68a10.31 10.31 0 0 1-1.58-4.74c-.11-3.41 2.28-6.36 2.46-9.76.14-2.8-2-6.81-4.69-7.55-3.41-.93-4.99 2.44-6.27 5.52zm-127.14-14.5c2.16 5.34 4 11 4.06 16.85s-1.77 12-5.92 15.84a28.24 28.24 0 0 1-8.11 4.72l-11.32 5a1.17 1.17 0 0 1-.85.14c-.3-.11-.46-.46-.6-.78a13.31 13.31 0 0 1-1.4-5.23 10.21 10.21 0 0 1 1.65-5c3.33-5.61 9-9.21 12.3-14.84a10.34 10.34 0 0 0 1.6-4.78c.11-3.45-2.3-6.44-2.48-9.87-.15-2.83 2-6.89 4.73-7.63 3.45-.94 5.09 2.49 6.34 5.58z" fill="#f5ecd7" opacity=".25"/><path class="cls-5" d="M1069.28 508.57v2.26l.12 2.38c.12 1.58.26 3.16.46 4.73a62.16 62.16 0 0 0 1.84 9.18c1.67 5.89 4.46 11.31 8.7 14.63a17.88 17.88 0 0 0 7.29 3.48 28.78 28.78 0 0 0 8.73.66c6.12-.29 12.45-2 18.85-3.82h.08a2.35 2.35 0 0 1 1.84 4.28q-2.25 1.33-4.58 2.59c-1.57.78-3.21 1.47-4.83 2.19s-3.38 1.2-5.11 1.74c-.88.22-1.77.44-2.66.64l-1.35.31-1.38.19c-.92.13-1.85.28-2.78.37l-2.86.07a21.93 21.93 0 0 1-2.9-.15l-1.45-.13c-.49 0-1-.19-1.46-.28a26.91 26.91 0 0 1-11-4.82 30.24 30.24 0 0 1-7.82-8.95 43.91 43.91 0 0 1-4.28-10.46 60.78 60.78 0 0 1-1.85-10.75c-.17-1.8-.24-3.59-.25-5.39v-2.69c0-.9.08-1.77.18-2.81a4.22 4.22 0 0 1 8.43.4z"/><path class="cls-5" d="M1069.26 508c.11 1.08.15 1.93.2 2.88s0 1.85 0 2.77c0 1.84-.08 3.69-.27 5.53a56.49 56.49 0 0 1-2 11 41.48 41.48 0 0 1-4.74 10.62 30.08 30.08 0 0 1-8.43 8.74 28.33 28.33 0 0 1-11.31 4.46 37.84 37.84 0 0 1-11.58.1 21.42 21.42 0 0 1-2.77-.5l-2.72-.6c-1.76-.52-3.52-1.08-5.23-1.68s-3.36-1.36-5-2.15-3.18-1.68-4.72-2.57a2.32 2.32 0 0 1 1.63-4.28h.14c1.68.36 3.34.74 5 1.17l4.9 1c1.62.32 3.25.53 4.85.83l2.39.25c.8.09 1.6.18 2.38.19l2.34.1c.78 0 1.54-.07 2.3-.09h1.15c.37 0 .74-.11 1.11-.15.73-.13 1.49-.16 2.19-.35a20.19 20.19 0 0 0 7.76-3.34c4.57-3.19 7.64-8.52 9.46-14.48a55.65 55.65 0 0 0 2-9.32c.21-1.6.35-3.21.46-4.83l.11-2.42v-2.45a4.22 4.22 0 0 1 8.42-.5z"/><path class="cls-8" d="M1046.57 475.36l32.35.29c11 .1 18 8.45 12.56 15.06l-22.8 28a5.18 5.18 0 0 1-8.08.31l-26-28.37c-6.11-6.74.66-15.4 11.97-15.29z"/><path d="M1059.34 478.59l-12.52.57a4.91 4.91 0 0 0-3.33 1c-3.41 3.09-1.47 9 .41 12.25a3.84 3.84 0 0 0 1 1.29 2.08 2.08 0 0 0 1.16.26q8 .24 16 0c3-.09 9.13-2.82 7.35-9.11-1.29-4.77-7.05-6.39-10.07-6.26z" fill="#fff" opacity=".5"/><path class="cls-8" d="M818.19 277c0-.38-.06-.77-.08-1.15-3-34.34-5-69.51-4.78-99.91.17-24.1 1.76-45.21 5.45-60.5 2.48-10.36 5.92-18.06 10.53-22.22 18.9 23.53 66.58 85.91 73.61 124.92 6.79 37.67-55.8 53.55-84.73 58.86zm482.29-3.24c-31-6.53-83-22.76-76.74-57.28 7-38.59 55.22-102.33 74.57-126.47.33 1 1.06 3.7 1.21 3.89 10.09 35.86 5.48 112.81.96 179.86z"/><path class="cls-5" d="M1244.4 220.57c.32-.63.68-1.53 1-2.36s.66-1.72 1-2.6l1.94-5.3c1.33-3.53 2.64-7.08 4.07-10.59.7-1.76 1.39-3.52 2.12-5.27s1.44-3.5 2.19-5.24c1.5-3.48 3-7 4.74-10.33a3.64 3.64 0 0 1 7 1.24l2.16 56-6-2.6c4.39-4.06 9-7.84 13.75-11.54s9.53-7.26 14.59-10.55a1.7 1.7 0 0 1 2.22 2.54c-4 4.57-8.18 8.83-12.46 13s-8.69 8.24-13.32 12l-.2.16a3.56 3.56 0 0 1-5.82-2.77l-2.17-56 7 1.24c-1.21 3.65-2.63 7.19-4.14 10.71q-1.12 2.64-2.35 5.23c-.79 1.75-1.64 3.46-2.5 5.18a135.02 135.02 0 0 1-5.55 10.13c-1 1.64-2.08 3.28-3.24 4.87-.57.8-1.19 1.59-1.83 2.37a16 16 0 0 1-2.29 2.29 1.33 1.33 0 0 1-2-1.66zm-394.86-50.15c.41.59 1 1.31 1.59 2s1.19 1.36 1.8 2.05l3.7 4.1c2.46 2.77 4.94 5.52 7.33 8.36 1.21 1.41 2.42 2.81 3.6 4.25s2.39 2.84 3.55 4.29c2.34 2.88 4.66 5.81 6.8 8.83a3.63 3.63 0 0 1-4.15 5.7l-47.35-19.15 4.89-4.26c1.73 6.09 3.07 12.27 4.32 18.48s2.32 12.45 3 18.79a1.7 1.7 0 0 1-3.27.82c-2.36-5.92-4.34-12-6.21-18s-3.58-12.14-4.94-18.32v-.21a3.57 3.57 0 0 1 4.93-4l47.36 19.15-4.15 5.71c-2.63-2.71-5.05-5.56-7.42-8.48q-1.78-2.18-3.47-4.43c-1.16-1.48-2.25-3-3.35-4.54-2.22-3-4.28-6.2-6.23-9.47-1-1.64-1.89-3.31-2.74-5.06-.42-.86-.81-1.76-1.19-2.68a15.9 15.9 0 0 1-.92-3 1.34 1.34 0 0 1 1.09-1.54 1.33 1.33 0 0 1 1.32.55z"/><path class="cls-4" d="M1072.09 990.25c-5.27 1.63-10.46 3-15.58 4.14C953 1017 889.22 959.61 982.74 882.4c5.47-4.54 11.15-8.92 16.93-13.17 42.08 26.36 93.75 70.7 72.42 121.02z"/><path class="cls-3" d="M1281.11 809.37c-44.66 48.73-120.5 107.12-185.73 127.38q-7.89 2.46-15.57 4.15c-66 14.41-115.93-3.75-119.06-38.85-60.15 66.55 1.16 112.19 95.3 91.64 5.11-1.11 10.31-2.51 15.57-4.14 65.23-20.26 141.07-78.66 185.73-127.38 17.71-19.32 39.52-53.55 50-88.65a226.84 226.84 0 0 1-26.24 35.85z"/><path d="M561.59 964.4s-46.11-2.28-37.82 60.15 59.66 48.55 49.72 104" stroke-width="5" stroke-linecap="round" stroke-linejoin="round" stroke="#ffb911" fill="none"/><path fill="#b47b43" d="M956.2 1083.37l28.73 25.33 30.69 574.27-60.89 55.05 1.47-654.65z"/><path class="cls-12" d="M514.89 1092.13l-32.15 607.89 471.99 38 1.47-654.65-441.31 8.76z"/><path fill="#9e653e" d="M922.1 983.13l-225.36-.69v34.36l226.17-2.51-.81-31.16z"/><path fill="#af7045" d="M984.93 1108.7l42.05-23.71 59.59 623.8-70.95-25.82-30.69-574.27z"/><path fill="#9a6439" d="M954.73 1738.02l131.84-29.23-70.95-25.82-60.89 55.05z"/><path class="cls-12" d="M1026.98 1084.99l-70.78-1.62 28.73 25.33 42.05-23.71z"/><path class="cls-16" d="M824.68 982.05l2.92 129.57 32.15.97-1.95-99.36-33.12-31.18z"/><path fill="#b17f52" d="M922.1 983.13l2.35 100.97 31.75-.68-.98-76.41-33.12-23.88z"/><path class="cls-16" d="M600.62 1017.45l3.57 101.96 32.15.98.65-138.66-36.37 35.72z"/><path fill="#b97e4d" d="M636.99 981.73l187.69.32.85 36.9-188.7.12.16-37.34z"/><path fill="#ab7e54" d="M730.58 1018.71l.07 69.21-35.22.61.07-69.49 35.08-.33z"/><path class="cls-3" d="M945.36 1342.64c-36.14-4.51-101.66 12.14-82.56-263.23-61.92 264.83 30.25 286.65 66.74 291.21 21.28 2.66 27.65-9.58 25.12-27.84a38 38 0 0 1-9.3-.14z"/><path class="cls-20" d="M859 1084.93s25.3-54.94 87.21-23.54-20.93 185.75-.87 222.38 27 74.13-7.85 69.77-98.49 2.62-78.49-268.61z"/><path class="cls-3" d="M946.23 1060.51c-11.81-6-22.29-8.83-31.51-9.51 1.75.77 3.53 1.61 5.35 2.54 61.92 31.39-20.93 185.75-.87 222.38s27 74.13-7.85 69.77c-2.7-.34-5.57-.61-8.56-.94 12.17 6.34 24.65 6.66 34.72 7.92 34.89 4.36 27.91-33.14 7.85-69.77s62.79-190.99.87-222.39z"/><path d="M688.48 1214.88c10.46-34.88 8.14-16.28-1.16-68.6s101.16-54.65 43-186-101.45-116-101.45-82.85" stroke="#ec9bb5" stroke-width="5" stroke-linecap="round" stroke-linejoin="round" fill="none"/><rect class="cls-22" x="837.34" y="1666.32" width="87.43" height="87.43" rx="7.66" transform="rotate(35.38 881.067 1710.05)"/><rect class="cls-20" x="913.57" y="1670.81" width="87.43" height="87.43" rx="7.66" transform="rotate(10.1 957.094 1714.054)"/><path class="cls-3" d="M993.85 1757a8.41 8.41 0 0 1-9.75 6.81l-69.52-12.38a8.41 8.41 0 0 1-6.16-4.76L896 1764.23a8.4 8.4 0 0 1-11.72 2l-56.5-40.12-3.07 4.32a8.43 8.43 0 0 0 2 11.73l57.55 40.84a8.41 8.41 0 0 0 11.72-2l12.44-17.52a8.42 8.42 0 0 0 6.16 4.75l69.52 12.38a8.41 8.41 0 0 0 9.75-6.8l12.38-69.53a8.38 8.38 0 0 0-1.78-6.8zm-169.72-43.48l40.87-57.58a8.41 8.41 0 0 1 11.72-2l40.91 29 1.1-6.18-40.89-29a8.4 8.4 0 0 0-11.72 2l-40.89 57.57a8.41 8.41 0 0 0-1.37 6.56c.14-.11.14-.24.27-.37zm92.1-20.41l-.84 4.73.92-5.18c-.01.16-.05.34-.08.45z"/><path class="cls-3" d="M1000 1671.51l-69.52-12.38a8.41 8.41 0 0 0-9.75 6.8l-1 5.73a8.4 8.4 0 0 1 9.65-6.37l69.52 12.39a8.4 8.4 0 0 1 6.8 9.75l-2.18 12.28v.06l3.29-18.51a8.4 8.4 0 0 0-6.81-9.75z"/><rect class="cls-8" x="1450.9" y="1688.11" width="76.76" height="73.98" rx="20.61" transform="rotate(-19.28 1489.045 1724.916)"/><path class="cls-3" d="M1516.37 1755.65l-29.76 10.41a22.63 22.63 0 0 1-28.82-13.88l-9.49-27.18a22.6 22.6 0 0 1-1.23-8.62 22.57 22.57 0 0 0-1.29 17.87l9.49 27.13a22.63 22.63 0 0 0 28.82 13.89l29.76-10.41a22.62 22.62 0 0 0 15.11-20.2 22.51 22.51 0 0 1-12.59 10.99zm-765.9-860.02c-11.8-10.77-20.25-28.79-26.24-47.5 13.32-5.67 26.51-11.76 39.31-18.46.47 3.21.93 6.57 1.37 10 4.33 33.68 6.17 74.8-14.44 55.96zm781.01-185.83c-16.55-.27-35.14-7.3-53-16.93a276.68 276.68 0 0 1 23.65-43.5c30.38 26.93 62.4 60.97 29.35 60.43zm30.38 215.41c-25 10.55-47.51 15.89-38.56-4.48 7.7-17.52 26.78-33.81 46.09-46.74zm-9.25 137.15l-2.5 43.83c-1.76-1-3.56-2-5.37-3-29.43-16.94-63.29-40.34-35.82-45.36 12.9-2.4 28.32-.02 43.69 4.53zm-67.05-220.09c-11.36 3-25 2.32-39-.28.92-13.43 2.22-26.84 4-40.23 29.55 14.5 60.79 33.75 35 40.51zm-256.9-101.37c-16.34.7-35.13-5.34-53.23-14 9-12.28 18.71-25.17 29.23-35.94 27.87 22.76 52.93 48.7 24 49.94zm2.28 148.92a577.826 577.826 0 0 1-38.08 32.37c-1.37-3-2.76-6.05-4.15-9.2-2-4.4-3.9-9-5.76-13.49-13.33-32.69-22.27-65.92 3.31-53.52 16.13 7.82 31 24.18 43.61 42.28zm72.26-102.08a250.48 250.48 0 0 1-20.51 41.47c-.27-.66-.54-1.32-.8-2-12.76-31.84-20.61-63.09 4.32-51a79.23 79.23 0 0 1 16.99 11.53z"/><path class="cls-4" d="M1250.18 1618.75c-35 13.17-74.57 19.73-93.74-13.07-14.48-24.76-.7-49.91 18.74-72.69 34.53 25.59 62.32 62.19 75 85.76z"/><path class="cls-3" d="M1470.17 1427.8a266.47 266.47 0 0 1-29.23 50.44c-9.23-13-19.94-21.57-31.66-19.22-15.73 3.15-18.28-4.82-15.83-15.3 6.39-27.24 37.57-40.32 62-26.65a78.56 78.56 0 0 1 14.72 10.73zm-188.96-185.28c0-16.41.34-33.48 1.5-51.43 16.1-1.57 36.74.18 63.19 7.1 84.36 22.08-.9 37.01-64.69 44.33zm-12.47 155.56a248.9 248.9 0 0 0 8.57-37.62c1.15.29 2.31.58 3.48.89 61.56 16.11 32.78 28.42-12.05 36.73z"/></g><g id="Details"><path d="M1485.43 1673.26c-15.87 4.07-31.85 7.64-47.88 11-8 1.74-16.06 3.29-24.08 4.94l-24.16 4.62c-16.13 3-32.28 5.85-48.5 8.46s-32.46 5.1-48.83 7.08a2.38 2.38 0 0 1-1.1-4.59c15.49-5.66 31.09-10.83 46.73-15.84s31.34-9.79 47.05-14.47l23.63-6.84c7.9-2.17 15.77-4.45 23.69-6.53 15.82-4.27 31.69-8.35 47.67-11.91a12.38 12.38 0 0 1 5.78 24.07z" fill="#9cdc2e"/><path class="cls-22" d="M1334 1694.47c-65-8.12-99.75-47-103.84-125.44 0-.88-.08-1.75-.09-2.61v-1.27a75.85 75.85 0 0 1 .89-11.86q.46-3.13 1.21-6.18a85.4 85.4 0 0 1 3.09-9.91 68.99 68.99 0 0 1 2.47-5.65 88.43 88.43 0 0 1 16.45-23.2l.95-.95c.64-.63 1.29-1.28 2-1.9l1.42-1.33c.45-.41.9-.82 1.37-1.23q2.1-1.86 4.32-3.61c.79-.63 1.6-1.24 2.41-1.85.59-.44 1.18-.86 1.78-1.29l1.15-.82c.66-.46 1.32-.92 2-1.36q2.45-1.65 5-3.17l.77-.45c.65-.4 1.31-.78 2-1.15.29-.16.58-.33.89-.49.88-.49 1.77-1 2.65-1.42.55-.3 1.1-.58 1.65-.85l.22-.11c.91-.47 1.84-.91 2.77-1.35.44-.2.87-.41 1.31-.6s1.05-.49 1.57-.71l1.17-.51c.43-.19.85-.38 1.28-.54.11-.06.23-.1.34-.15 1.27-.54 2.55-1 3.86-1.52.85-.33 1.72-.65 2.59-1l.91-.31c1.52-.54 3.07-1 4.62-1.52.59-.19 1.19-.36 1.78-.53.78-.24 1.56-.46 2.35-.67l.39-.1a135 135 0 0 1 51.9-3.79 124.16 124.16 0 0 1 50.72 18 112.57 112.57 0 0 1 10.56 7.45 116.46 116.46 0 0 1 24.3 25.93 111.39 111.39 0 0 1 12.17 23.3 106.52 106.52 0 0 1 6.93 37.52 105.93 105.93 0 0 1-23.23 66.32c-.88 1.12-1.78 2.21-2.71 3.29-1.83 2.13-3.75 4.2-5.76 6.19a109 109 0 0 1-9.61 8.59 113.82 113.82 0 0 1-10.49 7.41c-1.6 1-3.24 2-4.9 2.92a115.5 115.5 0 0 1-11.92 5.86c-1.14.49-2.27 1-3.42 1.4a123.76 123.76 0 0 1-60.24 7.22z"/><path class="cls-3" d="M1466.13 1578.52a104.27 104.27 0 0 0-4.5-15.18q-1.79-4.71-4-9.25a104.18 104.18 0 0 1 .84 13.14 104.51 104.51 0 0 1-.82 13.28 105.78 105.78 0 0 1-22.41 53c-.88 1.12-1.78 2.22-2.7 3.29q-2.76 3.2-5.77 6.2a110.66 110.66 0 0 1-9.61 8.59 113.82 113.82 0 0 1-10.49 7.41c-1.6 1-3.24 2-4.89 2.91a118.85 118.85 0 0 1-11.93 5.87c-1.14.48-2.27.94-3.41 1.39a123.89 123.89 0 0 1-60.33 7.32c-44-5.5-74.13-25.11-90.28-61.54 10.83 58.31 44.35 88.16 100.37 95.17a123.84 123.84 0 0 0 60.32-7.32c1.15-.45 2.28-.91 3.42-1.39a117.64 117.64 0 0 0 11.92-5.87c1.66-.92 3.3-1.9 4.9-2.91a115.77 115.77 0 0 0 10.49-7.41 110.66 110.66 0 0 0 9.61-8.59q3-3 5.76-6.2c.93-1.08 1.83-2.17 2.71-3.29a105.78 105.78 0 0 0 22.41-53 104.51 104.51 0 0 0 .82-13.28 104.23 104.23 0 0 0-2.43-22.34z"/><path class="cls-5" d="M1279.69 1629.12a2.58 2.58 0 0 1 1-3.39h.07c6-3.49 12-7 17.83-10.78.94-.62 1.87-1.25 2.8-1.9l2.51-1.66 2.47-1.74 4.92-3.47c3.19-2.45 6.47-4.77 9.56-7.32q5.47-4.35 10.73-8.93c2.54-2.19 5-4.43 7.5-6.68.88-.79 1.76-1.6 2.63-2.42 1.92-1.79 3.82-3.63 5.69-5.49 3-2.92 5.85-5.91 8.71-8.91l.56-.6q4.76-5 9.3-10.21t8.73-10.29q6.26-7.57 12.07-15.46 7.14-9.54 13.64-19.5c2.2-3.3 4.32-6.64 6.39-10 1-1.68 2-3.36 3-5.06.84-1.44 1.71-2.92 2.48-4.31a112.57 112.57 0 0 1 10.56 7.45c-.56 1-1.11 2-1.69 3.07q-1.55 2.7-3.13 5.32c-2.14 3.53-4.3 7-6.56 10.43q-6.82 10.26-14.31 20c-5 6.51-10.28 12.79-15.73 19-1.36 1.55-2.73 3.08-4.13 4.58s-2.77 3-4.21 4.52l-4.27 4.45-4.41 4.35a311.37 311.37 0 0 1-38 31.68 252.27 252.27 0 0 1-24.32 15.25c-6.13 3.37-12.42 6.5-18.8 9.37a2.79 2.79 0 0 1-3.59-1.35zm53.09-11.18a2.4 2.4 0 0 1 1.09-2.93h.06c5.5-3.06 10.89-6.21 16.08-9.66 1.31-.84 2.58-1.75 3.87-2.63s2.55-1.75 3.79-2.7l3.75-2.75 3.69-2.85c4.85-3.86 9.64-7.78 14.19-12s9.08-8.42 13.42-12.82c8.71-8.79 16.89-18.07 24.72-27.64 3.89-4.8 7.71-9.64 11.41-14.59 1.86-2.45 3.66-4.95 5.46-7.44 1.53-2.11 3.1-4.32 4.52-6.41a117.53 117.53 0 0 1 8.39 10.84c-.61.94-1.22 1.88-1.86 2.83-1.77 2.67-3.62 5.27-5.49 7.87-3.78 5.18-7.71 10.25-11.82 15.16a289.31 289.31 0 0 1-26.53 28 230.57 230.57 0 0 1-30.57 23.9 181.74 181.74 0 0 1-16.92 9.74 150.9 150.9 0 0 1-18 7.61 2.56 2.56 0 0 1-3.25-1.53z"/><path class="cls-5" d="M1366.34 1556.15s-.12-.23-.32-.57c-3.07-5.44-28.22-48.4-63.83-68.64a90 90 0 0 0-9-4.51c1.27-.54 2.55-1 3.86-1.52.85-.33 1.72-.65 2.59-1l.91-.31c1.52-.54 3.07-1 4.62-1.52.59-.19 1.19-.36 1.78-.53.78-.24 1.56-.46 2.35-.67l.39-.1c33.27 19.32 57 55.12 65 68.49 1.7 2.82 2.71 4.65 3 5.11a6.11 6.11 0 0 1-2.68 8.4 6.56 6.56 0 0 1-8.67-2.63zm-18.89 19.15a6.18 6.18 0 0 1-1.56-2.28c-13.06-32.86-35.43-50.42-56.37-59.79a123.14 123.14 0 0 0-31-9.12c.45-.41.9-.82 1.37-1.23q2.1-1.86 4.32-3.61c.79-.63 1.6-1.24 2.41-1.85.59-.44 1.18-.86 1.78-1.29l1.15-.82c.66-.46 1.32-.92 2-1.36a139.81 139.81 0 0 1 13.85 4.1c2.82 1 5.76 2.15 8.77 3.48 21.62 9.54 47.24 28.13 62.52 64.28l1.16 2.83a6.13 6.13 0 0 1-3.69 8 6.62 6.62 0 0 1-6.71-1.34z"/><path class="cls-5" d="M1331.36 1589.32l-1.06-2.28-1.14-2.4-2.43-4.79c-1.66-3.19-3.39-6.34-5.22-9.43a131.05 131.05 0 0 0-12.26-17.71 91.43 91.43 0 0 0-15.48-14.85 77 77 0 0 0-9.11-5.72 72.27 72.27 0 0 0-10-4.25l-.13-.05a3.19 3.19 0 0 1-2-4.1 3.28 3.28 0 0 1 3.71-2A69.12 69.12 0 0 1 1288 1525a71.53 71.53 0 0 1 11 5.33 91 91 0 0 1 10 6.89 109.06 109.06 0 0 1 8.93 8.1 121.56 121.56 0 0 1 14.84 18.61 117 117 0 0 1 5.9 10.24c.87 1.76 1.74 3.53 2.51 5.35l1.15 2.75c.39.94.69 1.81 1.08 2.92a6.14 6.14 0 0 1-4 7.86 6.53 6.53 0 0 1-7.88-3.38z"/><path class="cls-3" d="M1047.29 837.05a93 93 0 0 0-12-11.87C976.8 845.94 1000 959 1023.75 1014.93c6.53 15.36 13.84 35.43-2.79 36.8-14.27 1.17-30 1.84-40.88.49-11.71 14.31 23.23 14 52.12 11.64a24.5 24.5 0 0 0 20.49-34c-23.84-56.14-65-172.75-5.4-192.81z"/><path d="M1047.28 837.88s-49.41-74.76-86.94 13.12 36 167.77 3.4 192.4c-20.45 15.43 17 18.7 47.79 19a24.5 24.5 0 0 0 23.52-32c-18.61-58.09-48.95-177.98 12.23-192.52z" fill="#ffb911"/><path class="cls-22" d="M218.19 1614.69c16.29 1.7 32.52 3.93 48.72 6.34 8.11 1.16 16.19 2.52 24.29 3.76l24.25 4.08c16.16 2.84 32.3 5.75 48.41 9s32.21 6.51 48.24 10.35a2.38 2.38 0 0 1-.56 4.69c-16.49-.08-32.92-.67-49.32-1.42s-32.78-1.73-49.15-2.81l-24.53-1.81c-8.16-.72-16.33-1.33-24.49-2.13-16.31-1.51-32.6-3.21-48.83-5.44a12.38 12.38 0 0 1 3-24.57z"/><path class="cls-8" d="M1388.5 1748.46c-16.27-2-32.45-4.46-48.62-7.14-8.09-1.29-16.15-2.78-24.22-4.16l-24.19-4.48c-16.1-3.1-32.2-6.28-48.25-9.75s-32.1-7-48.06-11.15a2.37 2.37 0 0 1 .64-4.67c16.48.35 32.9 1.2 49.29 2.22s32.75 2.28 49.09 3.63l24.5 2.21c8.15.85 16.31 1.6 24.45 2.53 16.29 1.78 32.55 3.75 48.74 6.24a12.38 12.38 0 0 1-3.37 24.52z"/><path class="cls-3" d="M1391.42 1740.41c-16.48-1.47-32.9-3.47-49.3-5.67-8.21-1-16.39-2.29-24.59-3.42l-24.56-3.74c-16.35-2.62-32.7-5.31-49-8.29s-32.63-6.07-48.88-9.69a2.39 2.39 0 0 1-1.71-1.46 2.34 2.34 0 0 0 1.46 3.29c15.9 4.89 31.9 9.29 47.94 13.52s32.11 8.23 48.2 12.13l24.18 5.67c8.08 1.78 16.14 3.67 24.23 5.36 16.18 3.48 32.39 6.77 48.7 9.54a12.49 12.49 0 0 0 14.35-9.71 12.2 12.2 0 0 0-2.34-10 12.58 12.58 0 0 1-8.68 2.47zm93.58-78.16c-15.83 4.81-31.81 9.11-47.84 13.22-8 2.1-16.05 4-24.08 6l-24.17 5.73c-16.14 3.7-32.31 7.33-48.56 10.68s-32.52 6.59-48.94 9.32a2.42 2.42 0 0 1-2.14-.72 2 2 0 0 0 0 .35 2.38 2.38 0 0 0 2.58 2.16c16.58-1.42 33.07-3.34 49.52-5.42s32.85-4.39 49.24-6.8l24.54-3.8c8.16-1.38 16.33-2.65 24.48-4.11 16.3-2.83 32.56-5.85 48.72-9.39a12.5 12.5 0 0 0 9.67-14.38 12.25 12.25 0 0 0-5.92-8.4 12.54 12.54 0 0 1-7.1 5.56z"/><path class="cls-20" d="M275.73 1569.22c15.48 5.34 30.79 11.17 46 17.18 7.64 3 15.21 6.11 22.81 9.15l22.71 9.45c15.09 6.42 30.16 12.91 45.13 19.67s29.9 13.62 44.65 21a2.38 2.38 0 0 1-1.61 4.44c-16-3.81-31.91-8.08-47.72-12.52s-31.54-9.1-47.24-13.85l-23.49-7.3c-7.79-2.54-15.61-5-23.37-7.61-15.55-5.15-31-10.49-46.34-16.32a12.38 12.38 0 0 1 8.44-23.27z"/><path class="cls-3" d="M454.82 1650.7l-2.11-1a2.35 2.35 0 0 1-1.63.12c-15.84-4.59-31.48-9.65-47.05-14.87s-31-10.65-46.5-16.17l-23.09-8.46c-7.65-2.92-15.35-5.75-23-8.75-15.28-5.92-30.48-12-45.48-18.6a12.29 12.29 0 0 1-5.76-5.2 12.1 12.1 0 0 0-2.34 3.83 12.37 12.37 0 0 0 7.15 16c15.31 5.83 30.8 11.17 46.35 16.33 7.76 2.62 15.58 5.06 23.37 7.6l23.49 7.31c15.69 4.75 31.42 9.43 47.24 13.84s31.68 8.72 47.72 12.52a2.37 2.37 0 0 0 1.61-4.43zm-42.1-1.7l-2.31-.45a2.4 2.4 0 0 1-1.55.54c-16.48-.29-32.9-1.08-49.29-2s-32.76-2.15-49.11-3.44l-24.46-2.13c-8.15-.82-16.31-1.53-24.45-2.44-16.3-1.71-32.57-3.62-48.77-6a12.31 12.31 0 0 1-6.92-3.52 12.35 12.35 0 0 0 9.83 17.86c16.3 1.62 32.64 2.72 49 3.63 8.18.5 16.37.81 24.55 1.22l24.58.91c16.39.48 32.79.88 49.22 1s32.86.13 49.34-.4a2.37 2.37 0 0 0 .39-4.7z"/><path class="cls-25" d="M1219.85 384.89c7.28 15.65 6.76 34.81-5.14 48.49-20.7 23.82-59 25.15-87.27 17.43-7.77-2.12-23.09-5.87-23.56-16.36-1.24-27.68 11.6-62.21 42.08-74.41 19.28-7.71 43.88-6.18 60.32 7.23a50.07 50.07 0 0 1 13.57 17.62z"/><ellipse class="cls-5" cx="1164.34" cy="410.44" rx="43.92" ry="45.57" transform="rotate(-58.13 1164.257 410.453)"/><path class="cls-26" d="M1137.9 407.8c.93 5.09 2.29 10.22 5.13 14.59s7.37 7.91 12.57 8.52a27.76 27.76 0 0 0 8.78-.86l11.46-2.37a1.2 1.2 0 0 0 .74-.35 1.14 1.14 0 0 0 .09-.89 11 11 0 0 0-1.48-4.61 8.63 8.63 0 0 0-3.79-2.8c-5.42-2.35-11.72-2-17.13-4.36a8.86 8.86 0 0 1-3.64-2.68c-1.8-2.48-1.36-6-2.93-8.6-1.28-2.16-5-4-7.54-3.09-3.16 1.15-2.81 4.55-2.26 7.5z"/><path class="cls-27" d="M1105.76 413.38s2.75 26.12 21.68 37.43"/><path class="cls-28" d="M1224.59 411.33c9.49-31.65 4.45-38.13-26.66-49.75"/><path class="cls-25" d="M894.74 384c-7.6 16.33-7 36.33 5.36 50.6 21.61 24.86 61.56 26.25 91.07 18.19 8.12-2.21 24.1-6.13 24.6-17.08 1.29-28.89-12.11-64.92-43.92-77.65-20.12-8.05-45.79-6.45-63 7.54a52.11 52.11 0 0 0-14.11 18.4z"/><ellipse class="cls-5" cx="952.67" cy="410.67" rx="47.56" ry="45.83" transform="rotate(-31.87 952.795 410.678)"/><path class="cls-26" d="M985 420.1a39.85 39.85 0 0 1-5.9 13.47c-8.62 11.94-29.4-4.75-25.13-5.49 6.14-1.05 14.86.07 18.45-6.37 1.15-2.06 1.36-4.56 2.6-6.56 1.72-2.74 6.89-5 9.55-2.24 1.52 1.56 1.19 4.09.68 6.21-.09.33-.18.65-.25.98z"/><path class="cls-27" d="M1013.81 413.73s-2.88 27.27-22.64 39.07"/><path class="cls-28" d="M890.69 413c-10.71-35-5.54-41.22 26.93-53.35"/></g></svg>