<svg id="Cat_Box" data-name="Cat Box" xmlns="http://www.w3.org/2000/svg" viewBox="0 0 1451.34 1451.34"><defs><style>.cls-1{fill:#f7e1c4}.cls-3,.cls-5{fill:#392930}.cls-3{opacity:.15}.cls-4{fill:#f4eee4}.cls-6{fill:#ec9bb5}.cls-9{fill:#ea688d}.cls-11{fill:#eaf251}.cls-13,.cls-15{fill:#9ede2e}.cls-13,.cls-15,.cls-16{stroke:#392930;stroke-width:10px}.cls-13{stroke-miterlimit:10}.cls-14{fill:#f7eed9;opacity:.25}.cls-15,.cls-16{stroke-linecap:round;stroke-linejoin:round}.cls-16{fill:none}</style></defs><path class="cls-1" d="M1256 547.93c-18.72 19.55-44.74 21.76-70.08 29.75-10.12 3.2-20.13 7.31-29.52 13.82a83.45 83.45 0 0 0-9.67 7.84c-41.8 39.38-57.09 107.55-64.07 177.62-1.67 16.74-2.86 33.6-3.83 50.19-2.41 41.4-3.42 81.19-6.87 113.67 0 .15 0 .31-.05.46a386.58 386.58 0 0 1-7.08 42.59c-13.55 60.89-42.23 124.18-83.61 165.33a101.91 101.91 0 0 1-12 10c-47.15 34.28-155.51 67.55-174.3-5.83-17.69-69.08 86.17-65.54 119.56-90.22 20.63-15.24 36.41-37.94 48-63.64 14.49-32.19 22.37-69.09 24.9-102 .55-7.27.85-14.33.91-21.11.31-40.25-1.54-79.33-1.76-117.85-.08-14.6.07-29.13.65-43.61 1.44-35.3 5.48-70.32 15.13-105.54q3.15-11.51 7.13-23.05a203.81 203.81 0 0 1 7.48-18.52 239.28 239.28 0 0 1 29.19-47.4q3.79-4.85 7.87-9.53a238.23 238.23 0 0 1 24.66-24.56c.64-.57 1.28-1.11 1.92-1.65 2-1.66 4-3.27 6-4.85 38.84-30.43 86.61-46.66 134.08-32.27C1263 460.5 1291.27 511 1256 547.93z"/><path d="M1256 547.93c-18.72 19.55-44.74 21.76-70.08 29.75 8.92-33.45-24.77-78.32-59.89-89-13.56-4.11-26.56-7.72-39.53-8.81 38.84-30.43 86.61-46.66 134.08-32.27 42.42 12.9 70.69 63.4 35.42 100.33z" opacity=".3" fill="#392930"/><path class="cls-3" d="M1156.35 591.5a83.45 83.45 0 0 0-9.67 7.84c-76.83 72.39-64.1 242-74.82 341.94-7.75 72.21-39.49 157-90.69 207.92a101.91 101.91 0 0 1-12 10c15.57-30.07 6.87-68.54 1.55-100.11-2.74-16.34-7.24-33.86-8.3-50.27a82.53 82.53 0 0 1 0-9.31c14.49-32.19 22.37-69.09 24.9-102 19-59.2 42.5-117 57.07-177.55 9.05-37.53 26.92-73.78 55.29-100.53 17.2-16.18 37.06-22.68 56.67-27.93z"/><path class="cls-4" d="M927.87 1218.65c-37.45 57.26-106.93 86.18-182.64 96.62-3.43.47-6.88.9-10.33 1.3-12.65 1.46-25.46 2.41-38.28 2.92s-25.57.56-38.27.21c-47.47-1.31-93.62-8.26-132.34-18.55-260.08-69.15-145.64-390.21-71.29-565.66C475.13 687.35 492.34 614 520 552.88a350.53 350.53 0 0 1 20.79-39.63c15.84-25.58 34.76-46.45 58.25-58.49 80.88-41.47 149-5.22 199.07 54.58a362.59 362.59 0 0 1 27.74 38.13 478.45 478.45 0 0 1 44.31 90.24c25.16 68.45 57.82 155.61 79.19 245.18q2.82 11.83 5.35 23.7C979 1020 982.62 1135 927.87 1218.65z"/><path class="cls-3" d="M550.7 1208.05c-58.38-72.85-64.16-137.91-65.06-215.44-8.05 79.28-10.75 143.43 39.55 224.13 17.44 28 67.89 72.57 41.85 107a43.85 43.85 0 0 1-4.64 5.22c17.27 1.31 32.93-3.26 42.47-19.59 21.8-37.26-33.55-75.6-54.17-101.32z"/><path class="cls-1" d="M589.54 1326.92c-24.25 41.48-87.94 7.09-117.22-6.94l-.56-.27c-46.11-22-98.55-64.7-129.21-114.78-10.11-16.51-17.85-33.82-22.22-51.46q-1.12-4.52-1.94-9.06c-4.51-25.13-4.54-53.54-1.74-82.11a541.66 541.66 0 0 1 18.63-95.36c.8-2.78 1.62-5.52 2.44-8.21 34.55-112.58 130.5-132.49 145.2 3 3.46 31.88 3.16 60.38 2.95 87v1.34c-.07 9.33-.11 18.45 0 27.42.12 7.71.38 15.31.88 22.83 2.78 41.49 13 80.82 48.6 125.2a197 197 0 0 0 13.38 14.54c24.21 24.59 58.8 56.08 40.81 86.86z"/><path class="cls-3" d="M763.28 1317.77c-23.83-36 29.32-77.35 48.49-104.18C878 1120.9 860.83 1065.83 866.48 959c3.06-57.89 21.55-79.88 45.84-87.46-26.76 3.41-66.22 12.49-72.89 73.9-11.53 106.31 18.8 174.94-52.44 263.83-20.61 25.73-76 64.06-54.17 101.34 9.69 16.59 25.69 21 43.27 19.52a38.92 38.92 0 0 1-12.81-12.36z"/><path class="cls-1" d="M1018.84 1145.75c-.13.77-.26 1.54-.4 2.3-3.58 19.91-11.62 39.5-22.71 58.12-30.44 51.12-83.81 94.83-130.66 117.19-7.63 3.64-17.7 8.75-28.85 13.54-31.24 13.45-70.93 24.43-88.92-6.34-13.72-23.47 3.13-47.35 22.64-68.25 11.49-12.29 23.89-23.56 31.53-33.09 31.19-38.91 42.9-73.94 47.2-109.94.92-7.78 1.5-15.61 1.86-23.53.25-5.6.38-11.25.45-17 .23-19.79-.37-40.35 0-62.41q.1-6.64.34-13.49.32-9.3 1-19 .62-9.07 1.63-18.52.8-7.29 1.89-14c0-.1 0-.2.05-.3 19.71-119.63 110-97.19 143.27 11.26 16.4 53.77 29.18 126.63 19.68 183.46z"/><path class="cls-3" d="M825.84 547.47C744.7 593.81 606 603.18 520 552.88a349.52 349.52 0 0 1 20.79-39.62c76.72 33.09 182.52 27.67 257.32-3.92a364 364 0 0 1 27.73 38.13z"/><path class="cls-1" d="M443.78 409a237.34 237.34 0 0 1-3.58-36.71 195.73 195.73 0 0 1 5.25-49.29 182.09 182.09 0 0 1 4.42-15.21q1.11-3.39 2.39-6.69a177.82 177.82 0 0 1 10.34-22.26 94.76 94.76 0 0 0 9.24-24.07c.6-2.55 1.1-5.13 1.49-7.71a96.84 96.84 0 0 0 1.08-16.52c0-2-.13-3.93-.29-5.89 0-.31 0-.6-.07-.89-2.21-24.72-3.77-50-3.81-72.32v-4.61c.13-18.55 1.41-34.81 4.35-46.58 2-8 4.73-13.91 8.41-17.11a10.59 10.59 0 0 1 10.19-2.32 21.25 21.25 0 0 1 5.8 2.59q3.93 2.42 7.66 5c3.93 2.68 7.68 5.49 11.29 8.41 1.45 1.16 2.86 2.33 4.25 3.53 26.68 22.74 44.33 50.25 55.33 71.47a217.75 217.75 0 0 1 37.2-10.57l.58-.12q8.07-1.53 16.16-2.52l1.12-.14q3.2-.39 6.39-.68l1.64-.15c1-.09 2-.18 3-.25 1.87-.16 3.73-.27 5.6-.37h.84a286.69 286.69 0 0 1 38.18.53c.87.08 1.75.14 2.62.23.7.05 1.4.12 2.09.18h.5q6.79.65 13.38 1.62c.57.08 1.15.15 1.71.24q5.16.75 10.15 1.7c3.35.62 6.63 1.3 9.85 2l2 .44c.43.08.85.18 1.27.28a246 246 0 0 1 27.1 8l1.43.58C773 144.55 797.5 99 833.9 72.59c8.58-6.23 14.86-5.76 19.37-.34.32.38.63.8.94 1.23a27.63 27.63 0 0 1 2.79 5.27c.26.63.51 1.31.76 2s.51 1.49.75 2.28l.21.68c3.61 12.34 4.86 31 4.82 52.53v1.56c-.11 26.19-2.12 56.43-4.06 84.39-.13 1.92-.26 3.85-.4 5.76-.15 2.06-.28 4.1-.42 6.12-.17 2.44-.33 4.83-.51 7.19-.12 1.83-.25 3.64-.36 5.44-.4 6-.51 12.38 2.16 17.66 4.15 8.2 8.21 19 11.9 31.21 1 3.2 1.92 6.48 2.82 9.85 2.71 9.94 5.15 20.56 7.21 31.28 5.68 29.44 6 59.52 5.84 79.55C886.55 563 479.47 613.85 443.78 409z"/><path class="cls-5" d="M829.52 371.4c1.49-1.75 2.85-3.23 4.32-4.78s2.92-3 4.43-4.49c3-2.94 6.09-5.74 9.27-8.46a209.44 209.44 0 0 1 20-15.15 183.08 183.08 0 0 1 45.27-22.08 151.3 151.3 0 0 1 24.73-5.78c2.09-.39 4.2-.58 6.31-.8s4.22-.48 6.35-.51l6.37-.24c2.12 0 4.24.06 6.36.14 1.06 0 2.12.05 3.18.13l3.17.3c2.11.23 4.23.35 6.32.67 4.17.76 8.37 1.31 12.44 2.45a125.55 125.55 0 0 1 23.72 8.37 3.23 3.23 0 0 1-2.11 6.08h-.17c-7.79-1.94-15.46-3.94-23.3-4.94-3.88-.7-7.82-.94-11.72-1.33-2-.16-3.92-.18-5.87-.28l-2.93-.13c-1 0-2 0-2.94.05a147.11 147.11 0 0 0-46.14 7.51 160.39 160.39 0 0 0-21.86 8.83 201.71 201.71 0 0 0-20.69 11.57 229.5 229.5 0 0 0-19.38 13.81c-3.09 2.49-6.16 5-9.12 7.65-1.48 1.32-2.94 2.66-4.38 4s-2.9 2.77-4.13 4.05l-.11.11a5 5 0 0 1-7.41-6.71zm13.06 26.01l.42-.66.37-.55c.24-.37.49-.71.73-1.05.49-.68 1-1.31 1.51-2 1-1.26 2.11-2.48 3.24-3.63a61.55 61.55 0 0 1 7.21-6.4 69.87 69.87 0 0 1 16.66-9.4 78.06 78.06 0 0 1 18.37-4.84 95.26 95.26 0 0 1 18.77-.75c1.56.08 3.1.26 4.65.39l2.32.22 2.3.33c1.53.23 3.06.44 4.58.7l4.53.94 2.26.48 2.22.58 4.45 1.17c2.93.87 5.84 1.8 8.74 2.75s5.71 2.11 8.49 3.33l4.14 1.89c1.37.65 2.76 1.25 4.08 2 2.67 1.43 5.33 2.86 7.91 4.41s5.1 3.24 7.55 5a2.65 2.65 0 0 1-2.35 4.68h-.11c-2.83-.91-5.57-2-8.3-3s-5.51-2-8.22-3-5.48-1.89-8.19-2.89c-1.35-.51-2.74-.9-4.1-1.35l-4.1-1.34a134.23 134.23 0 0 0-33.4-6.25 94.09 94.09 0 0 0-16.64.79 72.94 72.94 0 0 0-15.89 4.04c-1.27.5-2.55 1-3.77 1.59-.61.29-1.24.57-1.84.87l-1.81.95c-1.22.6-2.35 1.36-3.53 2s-2.3 1.45-3.37 2.28a55.32 55.32 0 0 0-6.24 5.16c-1 .93-1.9 1.9-2.8 2.88-.43.49-.88 1-1.27 1.49-.21.25-.41.49-.59.74l-.46.62-.31.41a5 5 0 0 1-8.21-5.65zm.31 27.33l.49-.49.42-.4c.28-.26.55-.52.82-.75.55-.5 1.1-1 1.66-1.41 1.11-.89 2.27-1.72 3.44-2.51a53.38 53.38 0 0 1 7.39-4.12 54.34 54.34 0 0 1 16.24-4.62 57.77 57.77 0 0 1 16.82.36 70.29 70.29 0 0 1 15.83 4.69 97.52 97.52 0 0 1 26.67 17.76 143.49 143.49 0 0 1 20.52 23.62 1.91 1.91 0 0 1-2.89 2.47 243.43 243.43 0 0 0-22.76-19.86c-1-.79-2-1.43-3-2.17l-3-2.14-3.13-2c-1-.67-2.07-1.32-3.15-1.89l-3.18-1.8c-1.07-.58-2.17-1.07-3.25-1.62l-1.63-.79c-.55-.25-1.11-.46-1.66-.7-1.12-.43-2.21-.94-3.32-1.36a57.84 57.84 0 0 0-27.45-3.64 49.51 49.51 0 0 0-13.26 3.63 48.62 48.62 0 0 0-6.16 3.1c-1 .58-1.94 1.2-2.87 1.85-.46.32-.93.64-1.36 1l-.64.49-.5.41-.42.34a5 5 0 0 1-6.67-7.4zM459.8 397.49l-.37-.69c-.14-.27-.3-.55-.47-.83-.32-.56-.69-1.12-1-1.68a56.18 56.18 0 0 0-2.31-3.31 58.8 58.8 0 0 0-5.32-6.18 67.66 67.66 0 0 0-12.75-10.23 77.19 77.19 0 0 0-14.85-7.13l-1.95-.7c-.66-.22-1.33-.39-2-.59-1.34-.37-2.65-.83-4-1.12l-4.07-1-4.15-.73a140.45 140.45 0 0 0-34.08-.75 287.87 287.87 0 0 0-34.51 5.68 2.65 2.65 0 0 1-1.55-5 171.17 171.17 0 0 1 34.87-10l4.55-.63c1.51-.18 3-.46 4.56-.56 3.06-.26 6.11-.59 9.21-.59a109.45 109.45 0 0 1 18.59.9 90.85 90.85 0 0 1 18.34 4.32 79.81 79.81 0 0 1 17.09 8.33l2 1.3 1.95 1.4c1.31.92 2.53 2 3.77 3s2.4 2.12 3.59 3.2 2.29 2.24 3.34 3.46a63.41 63.41 0 0 1 6 7.57q1.35 2 2.55 4.15c.39.73.78 1.44 1.14 2.2.19.37.37.75.54 1.15l.27.6.3.72a5 5 0 0 1-9 4.29zm25.93-18.17c-1-1.49-2.17-3.19-3.31-4.77s-2.31-3.21-3.5-4.79c-2.39-3.17-4.81-6.3-7.32-9.36-5-6.15-10.29-12-15.77-17.67a222.16 222.16 0 0 0-17.31-15.92c-3-2.44-6.1-4.87-9.27-7.13-.79-.56-1.56-1.16-2.36-1.71l-2.43-1.6c-1.61-1.08-3.2-2.21-4.88-3.17s-3.3-2-5-3l-5.09-2.78c-1.71-.91-3.48-1.66-5.21-2.53-.87-.41-1.72-.88-2.62-1.24l-2.67-1.1c-3.53-1.57-7.19-2.77-10.84-4.06-3.71-1.05-7.4-2.22-11.2-3-3.76-1-7.61-1.41-11.46-2.06l-5.82-.58c-1-.08-1.95-.21-2.93-.26l-2.94-.07c-2 0-3.94-.18-5.91-.17s-3.94.15-5.93.19c-1 0-2 0-3 .1l-3 .29c-2 .16-4 .34-6 .48h-.18a2.39 2.39 0 0 1-.88-4.67c2-.63 4-1.21 6-1.81l3-.86c1-.28 2.05-.44 3.07-.67 2.06-.43 4.13-.81 6.2-1.21s4.18-.54 6.29-.78l3.16-.32c1.05-.08 2.11-.09 3.17-.13 2.12-.06 4.25-.15 6.39-.18a124.3 124.3 0 0 1 12.76 1 126.8 126.8 0 0 1 12.64 2.27c4.11 1.17 8.3 2.2 12.29 3.76a128.71 128.71 0 0 1 23.16 10.94 167.67 167.67 0 0 1 39 32.3 192.2 192.2 0 0 1 15.66 19.7c2.34 3.47 4.68 6.94 6.79 10.57 1.06 1.81 2.12 3.62 3.11 5.47s1.95 3.68 2.9 5.75a5 5 0 0 1-8.7 4.9zm-17.56 56.47l-.95-1.14c-.36-.42-.74-.84-1.12-1.25-.77-.83-1.57-1.65-2.39-2.45a63.51 63.51 0 0 0-5.26-4.43l-1.38-1c-.47-.32-1-.62-1.43-.94-.93-.66-1.94-1.2-2.9-1.8s-2-1.07-3-1.58-2.05-1-3.11-1.37a52.59 52.59 0 0 0-13.08-3.45 59.56 59.56 0 0 0-13.75-.23 79.89 79.89 0 0 0-13.88 2.58c-1.16.3-2.32.59-3.45 1L399 420.8c-2.28.78-4.55 1.65-6.85 2.48-9.1 3.59-18 8.05-27.19 12.56a2.15 2.15 0 0 1-2.46-3.45 109.79 109.79 0 0 1 25.24-18.66c1.17-.63 2.38-1.19 3.57-1.78s2.38-1.21 3.64-1.69c2.49-1 4.95-2.1 7.56-2.86 1.29-.41 2.57-.85 3.88-1.21l4-1c1.32-.36 2.69-.56 4-.8s2.71-.5 4.09-.6a62.41 62.41 0 0 1 33 4.68 57.38 57.38 0 0 1 14.22 9.06 55.62 55.62 0 0 1 6 5.94c.9 1.07 1.79 2.16 2.62 3.31a45.827 45.827 0 0 1 1.8 2.7l.3.5.33.58a5 5 0 0 1-8.14 5.68z"/><path class="cls-3" d="M706.86 159.63c-13.5 59-27.46 91.67-40.58 73.67-9.2-12.62-17.77-39.64-25.66-75.62 1-.09 2-.18 3-.25 1.87-.16 3.73-.27 5.6-.37h.84a286.69 286.69 0 0 1 38.18.53c.87.08 1.75.14 2.62.23.7.05 1.4.12 2.09.18h.5q6.83.66 13.41 1.63zM874.7 305.45c-31.85 20.72-56.46 32.24-56.7 18.55-.2-15.38 18-48.34 40.14-82.68-.12 1.83-.25 3.64-.36 5.44-.4 6-.51 12.38 2.16 17.66 4.15 8.2 8.21 19 11.9 31.21 1 3.17 1.96 6.45 2.86 9.82zm-370.87 19.17c-.17 13.34-23.42 2.83-54-16.79q1.11-3.39 2.39-6.69a177.82 177.82 0 0 1 10.34-22.26 94.76 94.76 0 0 0 9.24-24.07c18.35 29.49 32.2 56.38 32.03 69.81zM858.53 83c-4.2 7.56-8.45 15.16-12.72 22.71-2.65 4.69-5.33 9.35-8 14-50.79 88.18-103.42 165.87-117.51 137.14-4.09-8.32-6.1-21.73-6.53-38.66a257.46 257.46 0 0 1 4.06-51.8c.28-1.55.57-3.19.86-4.85 3.35.62 6.63 1.3 9.85 2l2 .44c.43.08.85.18 1.27.28a246 246 0 0 1 27.1 8l1.43.58C773 144.55 797.5 99 833.9 72.59c8.58-6.23 14.86-5.76 19.37-.34.32.38.63.8.94 1.23a27.63 27.63 0 0 1 2.79 5.27c.26.63.51 1.31.76 2s.53 1.49.77 2.25zM635.89 212.36c-.44 16.93-2.46 30.34-6.55 38.67-14.09 28.73-66.72-49-117.5-137.15-2.64-4.65-5.33-9.31-8-14q-5.37-9.48-10.68-19l13.46 7.57c3.93 2.68 7.68 5.49 11.29 8.41 1.45 1.16 2.86 2.33 4.25 3.53 26.68 22.74 44.33 50.25 55.33 71.47a217.75 217.75 0 0 1 37.2-10.57l.58-.12q8.07-1.53 16.16-2.52c.12.65.23 1.28.35 1.92a257.36 257.36 0 0 1 4.11 51.79z"/><path class="cls-5" d="M675 415.14c0 1.34.07 3 .16 4.46s.25 3 .44 4.56a58.14 58.14 0 0 0 1.78 8.84c1.6 5.67 4.28 10.88 8.37 14.08a17.08 17.08 0 0 0 7 3.35 27.6 27.6 0 0 0 8.4.64c5.89-.28 12-1.93 18.15-3.68h.08a2.26 2.26 0 0 1 1.77 4.12q-2.18 1.29-4.41 2.49c-1.52.76-3.09 1.42-4.66 2.11s-3.25 1.16-4.91 1.68l-2.57.62-1.29.29-1.33.19c-.89.12-1.78.26-2.68.35l-2.75.07a20.29 20.29 0 0 1-2.79-.14l-1.4-.13c-.47 0-.94-.18-1.41-.27a26 26 0 0 1-10.62-4.64 29.2 29.2 0 0 1-7.53-8.61 42.13 42.13 0 0 1-4.12-10.08 58.09 58.09 0 0 1-1.78-10.35c-.17-1.72-.23-3.45-.24-5.18a51 51 0 0 1 .21-5.3 4.06 4.06 0 0 1 8.11.35z"/><path class="cls-5" d="M674.94 414.55c.1 1 .14 1.86.19 2.78s0 1.78 0 2.66c0 1.78-.08 3.55-.26 5.32a54.41 54.41 0 0 1-2 10.61 39.59 39.59 0 0 1-4.56 10.22 28.79 28.79 0 0 1-8.12 8.42 27.2 27.2 0 0 1-10.89 4.3 36.55 36.55 0 0 1-11.14.09 19.62 19.62 0 0 1-2.67-.48l-2.62-.57c-1.7-.51-3.38-1-5-1.62s-3.24-1.31-4.79-2.08-3.06-1.61-4.55-2.47a2.23 2.23 0 0 1 1.57-4.12h.14c1.62.34 3.21.71 4.78 1.13l4.72 1c1.56.32 3.12.52 4.66.8l2.31.25c.76.08 1.53.17 2.28.18l2.26.1c.75 0 1.48-.07 2.22-.09h1.1c.36 0 .71-.1 1.07-.15.7-.12 1.43-.15 2.11-.33a19.65 19.65 0 0 0 7.47-3.21c4.39-3.08 7.35-8.21 9.1-13.94a52.82 52.82 0 0 0 1.9-9c.21-1.54.34-3.09.45-4.65l.1-2.33V415a4.07 4.07 0 0 1 8.11-.48z"/><path class="cls-6" d="M656.62 389.16l25.85.23c8.78.08 14.35 6.75 10 12l-18.23 22.35a4.14 4.14 0 0 1-6.45.25l-20.75-22.67c-4.87-5.32.54-12.25 9.58-12.16z"/><path d="M666.82 391.74l-10 .46a3.91 3.91 0 0 0-2.66.81c-2.73 2.47-1.18 7.19.33 9.79a3 3 0 0 0 .81 1 1.68 1.68 0 0 0 .93.21q6.4.19 12.82 0c2.36-.08 7.29-2.26 5.87-7.29-1.08-3.79-5.68-5.08-8.1-4.98z" opacity=".5" fill="#fff"/><path class="cls-6" d="M474.12 230.63c0-.31 0-.62-.07-.92-2.36-27.44-4-55.55-3.81-79.84.13-19.26 1.41-36.13 4.35-48.35 2-8.28 4.73-14.43 8.41-17.75 15.11 18.8 53.21 68.65 58.83 99.82 5.42 30.13-44.59 42.82-67.71 47.04zm385.39-2.56c-24.79-5.23-66.28-18.2-61.32-45.78 5.56-30.84 44.13-81.77 59.59-101.06.27.76.85 3 1 3.11 8.04 28.66 4.32 90.14.73 143.73z"/><path class="cls-5" d="M814.54 185.41c.21-.5.48-1.23.71-1.9s.48-1.39.72-2.09l1.45-4.27c1-2.84 2-5.7 3.13-8.5.54-1.41 1.08-2.82 1.66-4.22s1.14-2.8 1.74-4.19c1.2-2.77 2.43-5.55 3.84-8.22a3.5 3.5 0 0 1 6.73 1.2l1.73 44.72-5.79-2.5c3.48-3.28 7.22-6.26 11-9.18s7.71-5.71 11.84-8.24a1.65 1.65 0 0 1 2.14 2.45c-3.07 3.75-6.4 7.21-9.79 10.6s-6.88 6.64-10.61 9.65l-.2.16a3.43 3.43 0 0 1-5.59-2.67l-1.73-44.72 6.73 1.2a90.34 90.34 0 0 1-3.25 8.59q-.9 2.11-1.89 4.18c-.64 1.4-1.34 2.76-2 4.13-1.37 2.75-2.91 5.43-4.56 8.06-.85 1.3-1.73 2.6-2.7 3.86-.47.63-1 1.25-1.53 1.87a12.66 12.66 0 0 1-1.93 1.82 1.27 1.27 0 0 1-1.94-1.51zm-315.16-39.99c.76.9 1.82 2 2.81 3.07l3 3.2c2 2.17 4 4.34 5.94 6.59 1 1.12 2 2.23 2.9 3.37s1.92 2.26 2.85 3.42c1.86 2.3 3.7 4.64 5.38 7.08a3.5 3.5 0 0 1-4 5.49l-37.85-15.31 4.71-4.09c1.4 4.85 2.44 9.8 3.39 14.77s1.74 10 2.19 15.09a1.65 1.65 0 0 1-3.16.79c-2-4.7-3.66-9.5-5.21-14.32s-2.94-9.68-4-14.63l-.05-.24a3.43 3.43 0 0 1 2.63-4.08 3.5 3.5 0 0 1 2.13.22l37.84 15.31-4 5.49a88.61 88.61 0 0 1-6-6.74q-1.43-1.74-2.77-3.55c-.91-1.19-1.78-2.42-2.65-3.65a88.89 88.89 0 0 1-4.89-7.66c-.74-1.34-1.46-2.7-2.1-4.12a19.06 19.06 0 0 1-1.59-4.7 1.29 1.29 0 0 1 1.05-1.47 1.27 1.27 0 0 1 1.19.44z"/><path class="cls-6" d="M668.23 838.56L558.3 778.08 681 710.32a9.22 9.22 0 0 1 9 0l104.9 58.52z"/><path fill="#e28aaa" d="M794.88 768.86l.42 26.71-126.64 69.77-.43-26.78 126.65-69.7z"/><path class="cls-9" d="M558.3 778.08l109.93 60.48.43 26.78-110.71-62.04.35-25.22z"/><path class="cls-9" d="M668.23 865.2v104.34L782.33 906a9.44 9.44 0 0 0 4.85-8.33l-.8-97.31z"/><path d="M566.08 807.89l102.58 57.45-.43 104.2-99.8-54.88a4.65 4.65 0 0 1-2.41-4.07z" fill="#dd5784"/><path class="cls-3" d="M668.83 870.98l-86.36-49.37 1.12-3.64 85.12 47.67.12 5.34zm0-.61l98.02-52.78-1.66-5.43-96.48 52.87.12 5.34z"/><path class="cls-11" d="M614.79 746.89l105.51 62.86 1.56 26.14 25.03-13.67-1.55-25.94-108.91-61.3-21.64 11.91z"/><path class="cls-11" d="M602.45 802.21l127.48-69.97 23.52 13.29-127.78 69.45-.45 26.04-23.47-13.23.7-25.58z"/><ellipse class="cls-6" cx="679.03" cy="764.41" rx="19.76" ry="20.49"/><ellipse cx="679.03" cy="757.66" rx="12.99" ry="9.34" opacity=".5" fill="#f4eee4"/><path class="cls-3" d="M697.61 762.12a19.57 19.57 0 0 1-38 3 21.31 21.31 0 0 0-.37 3.94c0 11.32 8.84 20.49 19.75 20.49s19.76-9.17 19.76-20.49a21 21 0 0 0-1.14-6.94z"/><path class="cls-1" d="M929.17 708.83a419 419 0 0 1-8.15 45.9 488.6 488.6 0 0 1-12 42.74c-10.8 32.52-25.28 64-42.79 87.38-2.74 3.65-5.56 7.12-8.46 10.36-.61.68-1.22 1.36-1.83 2l-1.12 1.2a172 172 0 0 1-18.53 17.21l-1.2 1-1.2.92-1.2.91-1.2.88c-1.6 1.17-3.19 2.29-4.79 3.34l-1.14.76-1.24.79-1.19.74c-.39.25-.79.49-1.19.73l-1.18.7-1.18.68-1.18.66-1.17.64-1.17.62-1.17.6q-1.75.88-3.48 1.68c-.77.35-1.53.69-2.29 1l-1.28.53-1 .4c-1.13.45-2.26.86-3.38 1.24s-2.23.74-3.33 1.05l-1.1.31-.94.25c-.41.11-.82.21-1.24.3l-1.08.25q-2.68.58-5.28.9l-1 .11-1.26.12-.84.06-1 .06a43.18 43.18 0 0 1-5.71-.12l-.92-.09c-.52 0-1-.12-1.56-.2l-.88-.15-.54-.1c-.77-.15-1.54-.32-2.29-.52l-.84-.23c-.4-.11-.8-.23-1.19-.36h-.09c-.4-.13-.79-.28-1.19-.43l-.3-.12a5.1 5.1 0 0 1-.5-.19c-.84-.34-1.66-.72-2.45-1.12-.4-.21-.8-.42-1.19-.64h-.06l-1.09-.66c-.38-.24-.75-.49-1.12-.74a38.9 38.9 0 0 1-2.12-1.62c-.35-.29-.69-.59-1-.9s-.67-.63-1-.95c-.16-.15-.31-.3-.45-.46s-.3-.31-.44-.47a1.14 1.14 0 0 1-.15-.16c-.6-.66-1.17-1.35-1.73-2.07l-.78-1.06-.16-.23c-.24-.35-.49-.71-.72-1.08s-.47-.74-.7-1.12a42.76 42.76 0 0 1-2.78-5.72c-.15-.39-.3-.77-.44-1.17a53 53 0 0 1-2.05-7.2c-.1-.46-.19-.93-.28-1.41a71.46 71.46 0 0 1-1-8.31v-.61c0-.48 0-1-.07-1.45s-.05-1.14-.06-1.73 0-1.42 0-2.14v-2.17c0-1.25.07-2.53.15-3.83 0-.67.08-1.34.14-2v-.1q.07-1 .18-2.07c0-.54.1-1.08.16-1.62.15-1.39.32-2.81.52-4.26.06-.48.14-1 .21-1.46.14-1 .3-2 .47-3 .14-.85.29-1.7.45-2.57 0-.12 0-.25.07-.38.17-.93.36-1.86.55-2.81q1-4.89 2.36-10.13c1.47-5.72 3.16-11.42 5-17.09 15.92-49.66 42.61-98.08 48-150.06q.17-1.65.3-3.39c1-12.93.41-29.06 1.06-45.1 1.39-34.74 8.47-69 49.19-69.54 23.83-.28 40.64 12.9 52.06 31.82 6.6 10.92 11.41 23.75 14.74 37 6.08 24.79 7.12 51.22 5.02 69.27z"/><path class="cls-4" d="M866.22 884.85c-2.74 3.65-5.56 7.12-8.46 10.36-58.6 65.52-129.43 58-104.09-39.43 1.47-5.72 3.16-11.42 5-17.09 41.1-2.75 97.42 1.94 107.55 46.16z"/><path class="cls-3" d="M918.81 661.52c-6.33 54.5-28.93 130.66-62.94 176-2.75 3.66-5.57 7.13-8.46 10.36-37.41 41.82-79.79 53.88-99 31.79-8.08 74 55.35 74.89 108.67 15.28 2.9-3.24 5.72-6.71 8.46-10.37 34-45.35 56.61-121.52 62.95-176 2.51-21.6.53-55.23-9.53-83.91a188.27 188.27 0 0 1-.15 36.85z"/><path class="cls-1" d="M602.58 892.84v2.14c0 1.11-.09 2.19-.17 3.26 0 .49-.07 1-.12 1.45s-.08 1-.14 1.45c0 .3-.06.6-.1.9s-.11.88-.17 1.31c-.15 1.1-.33 2.17-.52 3.22-.12.67-.26 1.33-.4 2s-.24 1.06-.37 1.58c-.25 1-.52 2-.82 2.94-.1.31-.19.61-.29.9s-.12.38-.19.57c-.12.35-.24.7-.37 1a39.9 39.9 0 0 1-.83 2.1c-.17.41-.35.82-.54 1.22l-.09.21c-.1.22-.21.44-.31.65a1.74 1.74 0 0 1-.1.19l-.09.19v.1c-.08.17-.17.34-.26.5a36.32 36.32 0 0 1-2.21 3.71c-.19.28-.38.55-.58.82s-.48.67-.73 1-.54.69-.83 1l-.57.67-.41.46c-.22.24-.44.47-.68.7-.3.31-.61.61-.92.9s-.48.45-.73.66l-.27.24-.11.09c-.27.23-.56.46-.84.68-.48.39-1 .76-1.49 1.11l-1 .64c-.34.22-.69.44-1 .63l-.87.49-.92.47-1 .46-.48.21-.51.22-.12.06-.13.05h-.07l-.85.31-.13.05h-.1l-.91.32-1.17.35h-.06l-1.58.4a33.83 33.83 0 0 1-3.82.66h-.07l-1.24.12a44.12 44.12 0 0 1-6.81 0l-1.08-.09-1.1-.11-2.22-.3-1.13-.19-1.13-.21q-.57-.1-1.14-.24c-.38-.07-.75-.16-1.13-.25l-1-.24-1.59-.42c-.53-.15-1.06-.3-1.6-.47l-1.71-.55c-.58-.19-1.15-.39-1.73-.6l-.82-.31-2-.75c-.89-.36-1.78-.74-2.67-1.13l-.77-.35-1.15-.53-1.28-.61-1.27-.64a96.88 96.88 0 0 1-3.86-2.06l-1.2-.69c-1-.56-2-1.15-2.93-1.76l-1.19-.74q-3.2-2-6.41-4.38l-1.35-1q-.67-.49-1.35-1l-1.35-1-1.34-1.07-1.35-1.09-1.2-1c-.8-.67-1.6-1.36-2.4-2.05q-3.6-3.15-7.17-6.66l-1.19-1.18c-2-2-4.08-4.19-6.09-6.41-.73-.8-1.45-1.6-2.16-2.42l-1.17-1.34c-2.84-3.29-5.59-6.81-8.27-10.52-13.14-18.2-24.38-41.2-33.51-65.73a472.3 472.3 0 0 1-20.92-75.54l-.21-1.1c-2.29-12.19-4-23.92-5-34.79-.34-3.55-.57-7.43-.65-11.55-.05-3 0-6.1.06-9.32 1.45-47.74 20.46-117.65 75.13-116 36.56 1.11 45.47 29 47.45 59.87 1.35 20.77-.46 42.89.9 59.08a218 218 0 0 0 4.63 29.39q.33 1.53.69 3.06c2.83 12 6.47 23.92 10.5 35.74 1 2.95 2.05 5.9 3.1 8.84 6.44 18.09 13.57 36 19.83 54.06 2.29 6.6 4.47 13.2 6.46 19.82.25.84.5 1.67.74 2.51.18.59.35 1.18.52 1.77q1.1 3.84 2.09 7.7c.13.49.26 1 .38 1.48.33 1.24.63 2.48.93 3.72.44 1.83.84 3.62 1.22 5.38.13.63.26 1.25.38 1.87.29 1.39.55 2.76.78 4.1.11.6.21 1.2.31 1.79s.19 1.13.27 1.68a.52.52 0 0 1 0 .11c0 .24.08.48.11.72a.28.28 0 0 1 0 .09c.09.61.18 1.22.26 1.82.13.89.25 1.76.34 2.62.07.55.13 1.1.19 1.64s.1.9.14 1.34v.14c0 .45.09.9.12 1.35a2 2 0 0 1 0 .23c.06.62.11 1.24.15 1.85.09 1.28.16 2.53.2 3.77v2.28c.01 1.19.01 2.21 0 3.21z"/><path class="cls-4" d="M602.58 892.84v2.14c0 1.11-.09 2.19-.17 3.26 0 .49-.07 1-.12 1.45s-.08 1-.14 1.45c0 .3-.06.6-.1.9s-.11.88-.17 1.31c-.15 1.1-.33 2.17-.52 3.22-.12.67-.26 1.33-.4 2s-.24 1.06-.37 1.58c-.25 1-.52 2-.82 2.94-.1.31-.19.61-.29.9s-.12.38-.19.57c-.12.35-.24.7-.37 1a39.9 39.9 0 0 1-.83 2.1c-.17.41-.35.82-.54 1.22l-.09.21c-.1.22-.21.44-.31.65a1.63 1.63 0 0 1-.09.19l-.09.19v.1c-.08.17-.17.34-.26.5a36.32 36.32 0 0 1-2.21 3.71c-.19.28-.38.55-.58.82s-.48.67-.73 1-.54.69-.83 1l-.57.67-.41.46c-.23.24-.46.49-.69.71-.3.31-.61.61-.92.9s-.48.45-.73.66l-.27.24-.11.09c-.27.23-.56.46-.84.68-.48.39-1 .76-1.49 1.11l-1 .64c-.34.22-.69.44-1 .63l-.87.49-.92.47-1 .46-.48.21-.51.22-.12.06-.13.05h-.07l-.85.31-.23.08-.91.32-1.17.35h-.06l-1.58.4a33.83 33.83 0 0 1-3.82.66h-.07l-1.24.12a41.75 41.75 0 0 1-6.81 0l-1.08-.09-1.1-.11-2.22-.3-1.13-.19-1.13-.21q-.57-.1-1.14-.24c-.38-.07-.75-.16-1.13-.25l-1-.24-1.59-.42c-.53-.15-1.06-.3-1.6-.47l-1.71-.55c-.58-.19-1.15-.39-1.73-.6l-.82-.31-2-.75c-.89-.36-1.78-.74-2.67-1.13l-.77-.35-1.15-.53-1.28-.61-1.27-.64a96.88 96.88 0 0 1-3.86-2.06l-1.2-.69c-1-.56-2-1.15-2.93-1.76l-1.19-.74q-3.2-2-6.41-4.38l-1.35-1q-.67-.49-1.35-1l-1.35-1-1.34-1.07-1.35-1.09-1.2-1c-.8-.67-1.6-1.36-2.4-2.05q-3.6-3.15-7.17-6.66l-1.19-1.18c-2-2-4.08-4.19-6.09-6.41-.73-.8-1.45-1.6-2.16-2.42l-1.17-1.34c-2.84-3.29-5.59-6.81-8.27-10.52.07-.28.14-.56.23-.84 3.75-14.2 12.32-24.13 23.57-30.92 19.75-11.93 47.78-14.24 72.65-13.17 4.09.17 8.1.44 12 .77.25.84.5 1.67.74 2.51.18.59.35 1.18.52 1.77.73 2.56 1.44 5.13 2.09 7.7.13.49.26 1 .38 1.48.33 1.24.63 2.48.93 3.72.44 1.83.84 3.62 1.22 5.38.13.63.26 1.25.38 1.87.29 1.39.55 2.76.78 4.1.11.6.21 1.2.31 1.79s.19 1.13.27 1.68a.52.52 0 0 1 0 .11c0 .24.08.48.11.72a.28.28 0 0 1 0 .09c.09.61.18 1.22.26 1.82.13.89.25 1.76.34 2.62.07.55.13 1.1.19 1.64s.1.9.14 1.34v.14c0 .45.09.9.12 1.35a2 2 0 0 1 0 .23c.06.62.11 1.24.15 1.85.09 1.28.16 2.53.2 3.77v2.28c.02 1.14.02 2.16.01 3.16z"/><path class="cls-3" d="M597.42 920.17a34.67 34.67 0 0 1-6.65 9.16 30.25 30.25 0 0 1-10.49 6.67l-.13.05h-.07l-.85.31H579c-22 7.29-55.41-7.66-85.18-42.21-2.84-3.29-5.59-6.81-8.27-10.52-.15-.2-.29-.41-.43-.61-32.93-46-53.94-122.18-59.25-176.54-2.11-21.65.49-55.24 11.08-83.73a188.81 188.81 0 0 0-.51 36.85c5.33 54.61 26.52 131.18 59.68 177.15 2.68 3.71 5.43 7.23 8.27 10.52q2.14 2.48 4.3 4.83c22 23.9 45.58 37.24 64.82 39a42.9 42.9 0 0 0 9.64-.14 31.28 31.28 0 0 0 19-9.41c.21-.21.41-.43.61-.65 1.5 16.95-.59 29.95-5.34 39.27z"/><path class="cls-13" d="M808.71 322.2c6.29 13.52 5.84 30.07-4.43 41.89-17.89 20.58-51 21.73-75.4 15.06-6.72-1.84-20-5.08-20.36-14.14-1.07-23.92 10-53.75 36.36-64.28 16.65-6.66 37.91-5.35 52.11 6.24a43.1 43.1 0 0 1 11.72 15.23z"/><ellipse class="cls-5" cx="760.75" cy="344.27" rx="37.94" ry="39.37" transform="rotate(-58.13 760.697 344.274)"/><path class="cls-14" d="M737.91 342c.81 4.4 2 8.84 4.44 12.61s6.37 6.84 10.85 7.36a23.79 23.79 0 0 0 7.59-.74l9.9-2a.75.75 0 0 0 .72-1.07 9.71 9.71 0 0 0-1.28-4 7.52 7.52 0 0 0-3.27-2.41c-4.69-2-10.13-1.7-14.8-3.77a7.61 7.61 0 0 1-3.15-2.31c-1.55-2.14-1.18-5.16-2.53-7.44-1.11-1.86-4.32-3.45-6.51-2.67-2.77.94-2.43 3.88-1.96 6.44z"/><path class="cls-15" d="M710.14 346.8s2.38 22.58 18.74 32.35"/><path class="cls-16" d="M812.81 345c8.2-27.34 3.84-32.93-23-43"/><path class="cls-13" d="M527.06 321.76c-6.45 13.85-6 30.82 4.54 42.94 18.34 21.09 52.24 22.27 77.29 15.43 6.88-1.88 20.45-5.2 20.86-14.49 1.11-24.51-10.26-55.09-37.26-65.89-17.07-6.83-38.86-5.48-53.42 6.4a44.09 44.09 0 0 0-12.01 15.61z"/><ellipse class="cls-5" cx="576.22" cy="344.38" rx="40.36" ry="38.89" transform="rotate(-31.87 576.298 344.394)"/><path class="cls-14" d="M603.64 352.38a33.89 33.89 0 0 1-5 11.44c-7.31 10.13-25-4-21.32-4.66 5.21-.89 12.61.06 15.66-5.41 1-1.75 1.14-3.87 2.2-5.56 1.46-2.34 5.85-4.23 8.11-1.91 1.28 1.33 1 3.48.57 5.27z"/><path class="cls-15" d="M628.09 347s-2.44 23.14-19.2 33.15"/><path class="cls-16" d="M523.62 346.38c-9.09-29.67-4.7-35 22.85-45.27"/><path class="cls-3" d="M497.89 683.77c-8.06 17.92-28.1 34.45-48.06 47.37-6.4 4.14-12.78 7.91-18.76 11.23l-.62.35-.21-1.1c-2.29-12.19-4-23.92-5-34.79-.34-3.55-.57-7.43-.65-11.55l.66-.34c4.55-2.34 9.66-4.88 15-7.43 30.61-14.61 69.1-29.2 57.64-3.74zm553.44-57.3c-15.33-.25-32.78-7.55-49.1-17q3.15-11.51 7.13-23.05a203.81 203.81 0 0 1 7.48-18.52c2.66 2.24 5.44 4.62 8.26 7.08 25.53 22.36 54.15 51.95 26.23 51.49zM1082.61 777c-1.67 16.74-2.86 33.6-3.83 50.19-27.26 12.21-54.51 20.3-44.82-1.76 7.91-18 27.81-34.69 47.65-47.78zm-10.7 163.82c0 .15 0 .31-.05.46a386.58 386.58 0 0 1-7.08 42.59c-2.68-1.48-5.46-3-8.29-4.67-29.43-16.94-63.29-40.34-35.82-45.36 15.02-2.75 33.46.93 51.24 6.98zM1032 760.21c-13.12 3.44-29.31 2-45.51-1.61-.08-14.6.07-29.13.65-43.61 1.87.87 3.78 1.77 5.71 2.69 30.58 14.67 66.15 35.45 39.15 42.53zm-468.09-3.11c-27.21 11.25-53.82 18.19-43.7-3.33 6.07-12.93 18.46-25 32.51-35.47q.33 1.53.69 3.06c2.83 12.03 6.47 23.92 10.5 35.74zm293.32-109.75c-9.92 15.49-30 28.23-50.3 37.89 1-12.93.41-29.06 1.06-45.1 30.5-8.75 63.01-14.31 49.24 7.21zM921 754.73a488.6 488.6 0 0 1-12 42.74c-.23 0-.47-.07-.7-.12-4.32-.74-9-1.6-13.75-2.55-4.07-.81-8.24-1.69-12.37-2.63-29.66-6.8-57.53-17-36.1-28.87 13.51-7.5 32.43-9.89 51.44-9.79 5.17 0 10.34.23 15.41.57 2.5.17 5 .36 7.4.59zm3-115.32l-.63-.14c-1.21-.27-2.41-.54-3.6-.83-28.77-6.79-54.77-16.75-33.85-28.34 6.67-3.7 14.66-6.16 23.32-7.69 6.6 10.92 11.41 23.75 14.76 37z"/><path class="cls-4" d="M589.54 1326.92c-24.25 41.48-87.94 7.09-117.22-6.94 6.47-20.89 24.79-56.1 76.42-79.86 24.2 24.53 58.79 56.02 40.8 86.8zm246.68 9.98c-31.24 13.45-70.93 24.43-88.92-6.34-13.72-23.47 3.13-47.35 22.64-68.25 31.11 21.37 56.18 54.76 66.28 74.59z"/><path class="cls-3" d="M316.65 1062.3a541.66 541.66 0 0 1 18.63-95.36c22.44-10.75 49.25-14.07 52.32 21.17 1.24 14.28-33.77 47.45-70.95 74.19zm702.19 83.45c-.13.77-.26 1.54-.4 2.3-3.58 19.91-11.62 39.5-22.71 58.12-10.57-18.5-23.63-32.57-38.26-29.64-15.73 3.15-18.28-4.82-15.83-15.3 6.39-27.24 37.57-40.32 62-26.65a78.75 78.75 0 0 1 15.2 11.17zm-532.08-45.37c-17.54 3.56-41.81 2.43-75.42-7.34-88.27-25.68 10.28-38 74.52-42.91-.07 9.33-.11 18.45 0 27.42.14 7.71.4 15.31.9 22.83zm364.54-97.5q.32-9.3 1-19 .62-9.07 1.63-18.52.8-7.29 1.89-14c0-.1 0-.2.05-.3 16.57-2.17 38.24-.69 66.58 6.72 87.22 22.88-6.98 38.07-71.15 45.1zm-2.63 116.4c.92-7.78 1.5-15.61 1.86-23.53.25-5.6.38-11.25.45-17q6.36 1.35 13.24 3.14c63.15 16.56 31.23 29.11-15.55 37.39z"/></svg>