<svg id="Layer_1" data-name="Layer 1" xmlns="http://www.w3.org/2000/svg" viewBox="0 0 1451.34 1451.34"><defs><style>.cls-1{fill:#f7e1c4}.cls-3,.cls-5{fill:#392930}.cls-3{opacity:.15}.cls-4{fill:#f4eee4}.cls-6{fill:#ec9bb5}.cls-10,.cls-8{fill:#9ede2e}.cls-10,.cls-11,.cls-8{stroke:#392930;stroke-width:9.33px}.cls-8{stroke-miterlimit:10}.cls-9{fill:#f7eed9;opacity:.25}.cls-10,.cls-11{stroke-linecap:round;stroke-linejoin:round}.cls-11{fill:none}</style></defs><path class="cls-1" d="M1261.18 644.92c-17.47 18.24-41.74 20.3-65.39 27.76-9.44 3-18.78 6.82-27.54 12.89a78.47 78.47 0 0 0-9 7.32c-39 36.75-53.27 100.36-59.78 165.74-1.56 15.62-2.67 31.35-3.57 46.83-2.25 38.63-3.2 75.76-6.42 106.06v.43a359 359 0 0 1-6.61 39.74c-12.64 56.82-39.4 115.88-78 154.27a94.71 94.71 0 0 1-11.19 9.37c-44 32-145.11 63-162.64-5.44-16.51-64.46 80.4-61.15 111.56-84.18 19.25-14.22 34-35.4 44.75-59.38 13.52-30 20.87-64.47 23.24-95.16.51-6.78.79-13.37.84-19.7.29-37.56-1.43-74-1.64-110-.07-13.63.07-27.19.61-40.7 1.34-32.94 5.11-65.61 14.12-98.48q2.94-10.73 6.65-21.5c2-5.76 4.33-11.54 7-17.28a223.07 223.07 0 0 1 27.24-44.23q3.54-4.53 7.34-8.9a222.16 222.16 0 0 1 23-22.91c.6-.54 1.19-1 1.79-1.54 1.84-1.55 3.7-3.05 5.57-4.53 36.24-28.39 80.82-43.54 125.11-30.11 39.55 12.05 65.92 59.21 32.96 93.63z"/><path d="M1261.18 644.92c-17.47 18.24-41.74 20.3-65.39 27.76 8.32-31.21-23.11-73.08-55.88-83-12.66-3.83-24.79-7.2-36.89-8.22 36.24-28.39 80.82-43.54 125.11-30.11 39.64 11.99 66.01 59.15 33.05 93.57z" opacity=".3" fill="#392930"/><path class="cls-3" d="M1168.25 685.57a77.62 77.62 0 0 0-9 7.32c-71.69 67.55-59.81 225.84-69.82 319.06-7.22 67.39-36.84 146.51-84.61 194a94.56 94.56 0 0 1-11.19 9.37c14.53-28 6.41-63.95 1.45-93.42-2.56-15.24-6.76-31.58-7.75-46.9a76.25 76.25 0 0 1 0-8.69c13.52-30 20.87-64.47 23.23-95.15 17.72-55.24 39.66-109.22 53.26-165.68 8.44-35 25.11-68.84 51.59-93.79 16-15.15 34.59-21.21 52.84-26.12z"/><path class="cls-4" d="M955.05 1270.77c-34.94 53.43-99.77 80.41-170.42 90.15-3.2.44-6.42.85-9.64 1.22-11.8 1.35-23.75 2.25-35.72 2.72s-23.85.52-35.7.2c-44.3-1.22-87.37-7.71-123.5-17.31-242.68-64.52-135.89-364.1-66.51-527.82 19-44.92 35.1-113.35 60.9-170.39a325.32 325.32 0 0 1 19.4-37c14.78-23.87 32.43-43.34 54.35-54.57 75.47-38.71 139.06-4.88 185.75 50.92a336.34 336.34 0 0 1 25.88 35.58 446.37 446.37 0 0 1 41.35 84.2c23.48 63.87 53.95 145.2 73.89 228.78q2.64 11 5 22.11c22.65 105.85 26.06 213.11-25.03 291.21z"/><path class="cls-3" d="M603.11 1260.88c-54.47-68-59.86-128.69-60.7-201-7.51 74-10 133.84 36.9 209.13 16.27 26.11 63.35 67.72 39.05 99.87a41.14 41.14 0 0 1-4.32 4.86c16.1 1.23 30.71-3 39.62-18.27 20.34-34.82-31.31-70.59-50.55-94.59z"/><path class="cls-1" d="M639.36 1371.79c-22.63 38.71-82.06 6.62-109.38-6.47l-.52-.25c-43-20.54-92-60.38-120.57-107.1-9.43-15.41-16.66-31.56-20.73-48-.7-2.81-1.31-5.63-1.81-8.46-4.21-23.44-4.24-50-1.63-76.61a505.42 505.42 0 0 1 17.39-89c.74-2.6 1.51-5.15 2.27-7.66 32.24-105 121.77-123.63 135.49 2.81 3.23 29.74 3 56.34 2.75 81.22v1.25c-.06 8.71-.1 17.22 0 25.59.11 7.19.36 14.28.82 21.3 2.6 38.71 12.16 75.41 45.35 116.82a182.73 182.73 0 0 0 12.49 13.57c22.59 22.89 54.86 52.27 38.08 80.99z"/><path class="cls-3" d="M801.47 1363.26c-22.23-33.61 27.37-72.18 45.25-97.21 61.79-86.49 45.78-137.88 51-237.52 2.85-54 20.1-74.54 42.78-81.62-25 3.19-61.8 11.66-68 69-10.76 99.2 17.54 163.24-48.93 246.19-19.24 24-70.89 59.77-50.55 94.56 9.05 15.47 24 19.62 40.38 18.21a36.34 36.34 0 0 1-11.93-11.61z"/><path class="cls-1" d="M1039.94 1202.74c-.13.72-.25 1.44-.38 2.15-3.34 18.58-10.84 36.86-21.19 54.23-28.4 47.7-78.2 88.49-121.92 109.35-7.12 3.4-16.51 8.17-26.92 12.64-29.15 12.55-66.18 22.79-83-5.92-12.8-21.9 2.92-44.18 21.13-63.68 10.72-11.47 22.29-22 29.42-30.88 29.1-36.31 40-69 44-102.58.86-7.26 1.4-14.57 1.74-22 .23-5.23.35-10.5.42-15.84.21-18.46-.35-37.65 0-58.23q.09-6.19.31-12.59.3-8.67.92-17.71.57-8.46 1.52-17.28.74-6.8 1.76-13c0-.1 0-.19.05-.28 18.39-111.63 102.62-90.69 133.68 10.5 15.39 50.11 27.32 118.1 18.46 171.12z"/><path class="cls-3" d="M859.84 644.5c-75.71 43.23-205.18 52-285.38 5a325.93 325.93 0 0 1 19.4-37c71.58 30.87 170.31 25.82 240.1-3.66a335.45 335.45 0 0 1 25.88 35.66z"/><path class="cls-1" d="M503.35 515.32a219.53 219.53 0 0 1-3.35-34.25 182.4 182.4 0 0 1 4.9-46q1.79-7.29 4.12-14.19c.69-2.1 1.44-4.18 2.23-6.24a165.24 165.24 0 0 1 9.65-20.77 88.6 88.6 0 0 0 8.62-22.46c.56-2.38 1-4.78 1.39-7.2a91 91 0 0 0 1-15.41c0-1.83-.12-3.66-.27-5.5 0-.28 0-.55-.07-.83-2.06-23.06-3.51-46.64-3.56-67.48v-4.29c.13-17.31 1.32-32.48 4.07-43.46 1.85-7.44 4.41-13 7.85-16a9.89 9.89 0 0 1 9.51-2.16 19.89 19.89 0 0 1 5.41 2.41c2.44 1.5 4.82 3.06 7.14 4.65 3.67 2.5 7.17 5.13 10.54 7.85 1.35 1.08 2.66 2.17 4 3.29 24.88 21.22 41.35 46.88 51.62 66.69a203.35 203.35 0 0 1 34.71-9.87l.54-.1q7.53-1.44 15.08-2.36l1-.13q3-.36 6-.63l1.53-.14 2.82-.24c1.75-.14 3.49-.25 5.23-.34h.78a267 267 0 0 1 35.63.5c.81.07 1.64.13 2.45.21l2 .17h.47q6.33.6 12.48 1.51l1.59.22q4.82.71 9.48 1.58t9.18 1.88c.63.13 1.23.28 1.84.42.4.07.8.16 1.19.26a228.32 228.32 0 0 1 25.29 7.5l1.33.54c11.79-26.48 34.68-68.95 68.63-93.62 8-5.81 13.88-5.37 18.08-.32.3.36.59.75.88 1.16a25.34 25.34 0 0 1 2.62 4.91c.24.59.48 1.22.71 1.86s.47 1.39.7 2.13c.06.22.13.42.19.63 3.37 11.52 4.54 28.95 4.5 49v1.46c-.1 24.44-2 52.65-3.78 78.74-.13 1.79-.25 3.59-.38 5.37s-.26 3.83-.39 5.72c-.16 2.27-.31 4.5-.47 6.7-.12 1.72-.24 3.4-.34 5.08-.38 5.59-.47 11.55 2 16.48 3.87 7.65 7.65 17.73 11.1 29.12.9 3 1.78 6 2.63 9.19 2.52 9.28 4.8 19.18 6.73 29.19 5.29 27.47 5.59 55.54 5.44 74.23-1.12 137.02-380.97 184.45-414.27-6.66z"/><path class="cls-5" d="M863.28 480.2c1.39-1.63 2.66-3 4-4.46s2.73-2.82 4.14-4.18c2.8-2.73 5.7-5.34 8.66-7.89a190.7 190.7 0 0 1 18.67-14.15 170.56 170.56 0 0 1 42.25-20.6 141.85 141.85 0 0 1 23.07-5.4c1.95-.36 3.92-.54 5.9-.74s3.93-.45 5.92-.48l5.94-.22c2 0 4 .06 5.94.12 1 .05 2 .06 3 .12l3 .29c2 .21 3.94.33 5.9.63 3.89.7 7.8 1.22 11.61 2.28a117.35 117.35 0 0 1 22.12 7.81 3 3 0 0 1-2 5.67h-.16c-7.27-1.8-14.43-3.67-21.74-4.6-3.62-.65-7.3-.88-10.94-1.24-1.82-.15-3.65-.17-5.48-.27l-2.73-.11h-2.74a136.93 136.93 0 0 0-43.05 7 149 149 0 0 0-20.4 8.24 186.35 186.35 0 0 0-19.31 10.79 219.59 219.59 0 0 0-18.09 12.87c-2.9 2.31-5.76 4.68-8.51 7.15-1.38 1.23-2.73 2.49-4.08 3.74s-2.7 2.58-3.86 3.78l-.09.1a4.67 4.67 0 0 1-6.92-6.26zm12.19 24.27l.39-.62.34-.51c.23-.34.46-.66.69-1 .46-.64.93-1.23 1.41-1.83 1-1.18 2-2.32 3-3.4a57.5 57.5 0 0 1 6.72-6 65.22 65.22 0 0 1 15.55-8.78 72.86 72.86 0 0 1 17.14-4.51 88.69 88.69 0 0 1 17.52-.7c1.45.07 2.89.24 4.34.36l2.16.2 2.14.31c1.43.21 2.86.42 4.28.66l4.22.88 2.11.44 2.08.54 4.15 1.09c2.74.82 5.45 1.68 8.15 2.57s5.34 2 7.93 3.11l3.86 1.76c1.28.6 2.57 1.18 3.8 1.87 2.49 1.33 5 2.66 7.39 4.11s4.75 3 7 4.66a2.47 2.47 0 0 1-2.19 4.37h-.1c-2.64-.84-5.2-1.83-7.75-2.8-1.26-.51-2.57-.93-3.84-1.39s-2.55-.95-3.82-1.43l-7.65-2.68c-1.26-.48-2.55-.84-3.83-1.26l-3.82-1.26a125.19 125.19 0 0 0-31.16-5.83 87.27 87.27 0 0 0-15.53.74 68.06 68.06 0 0 0-14.77 3.86c-1.19.47-2.38.93-3.51 1.49-.58.27-1.16.53-1.73.81l-1.68.89c-1.14.56-2.2 1.26-3.3 1.89s-2.16 1.35-3.16 2.12a52 52 0 0 0-5.83 4.82c-.91.86-1.77 1.76-2.61 2.68-.4.46-.82.92-1.18 1.39-.2.23-.38.46-.55.69l-.43.58-.29.38a4.65 4.65 0 0 1-7.66-5.27zm.29 25.53l.45-.45.4-.38c.25-.24.51-.48.76-.7.51-.46 1-.88 1.55-1.31 1-.84 2.11-1.61 3.21-2.35a50.44 50.44 0 0 1 6.89-3.84 51.23 51.23 0 0 1 15.16-4.32 54.24 54.24 0 0 1 15.69.34 65.35 65.35 0 0 1 14.81 4.38 91.29 91.29 0 0 1 24.89 16.57 133.66 133.66 0 0 1 19.14 22 1.78 1.78 0 0 1-2.7 2.3 227.84 227.84 0 0 0-21.24-18.54c-.9-.73-1.9-1.33-2.82-2l-2.83-2-2.91-1.83c-1-.61-1.94-1.23-2.94-1.76l-3-1.68c-1-.54-2-1-3-1.5l-1.51-.75c-.51-.23-1-.43-1.56-.64-1-.41-2.06-.88-3.09-1.28a54 54 0 0 0-25.61-3.39 45.76 45.76 0 0 0-12.35 3.34 44.61 44.61 0 0 0-5.74 2.88c-.92.55-1.82 1.13-2.69 1.73-.42.3-.86.6-1.26.91-.21.16-.41.31-.6.47l-.47.38-.39.31a4.65 4.65 0 0 1-6.22-6.9zM518.3 504.55l-.35-.65c-.13-.25-.28-.51-.44-.78-.29-.52-.64-1-1-1.56-.69-1-1.4-2.09-2.16-3.09a56.65 56.65 0 0 0-5-5.77 63.33 63.33 0 0 0-11.89-9.54 72.48 72.48 0 0 0-13.86-6.66l-1.82-.65c-.62-.21-1.25-.37-1.87-.55-1.25-.34-2.47-.77-3.75-1l-3.8-.9-3.86-.68a131.42 131.42 0 0 0-31.81-.7 269.37 269.37 0 0 0-32.2 5.3 2.47 2.47 0 0 1-1.44-4.7 158.28 158.28 0 0 1 32.53-9.3c2.83-.38 5.65-.84 8.5-1.12s5.71-.55 8.59-.55a101 101 0 0 1 17.35.85 84.31 84.31 0 0 1 17.12 4 74.46 74.46 0 0 1 16 7.71l1.88 1.21 1.82 1.31c1.22.86 2.36 1.83 3.52 2.77s2.24 2 3.35 3 2.14 2.1 3.12 3.23a59.65 59.65 0 0 1 5.56 7.07q1.26 1.88 2.38 3.87c.36.68.72 1.34 1.06 2.05.17.35.34.7.51 1.07l.25.57.28.67a4.65 4.65 0 0 1-8.39 4zm24.19-16.96c-.94-1.39-2-3-3.09-4.45s-2.15-3-3.26-4.47c-2.23-2.95-4.49-5.88-6.83-8.74-4.66-5.74-9.61-11.21-14.72-16.49-2.55-2.64-5.23-5.14-7.89-7.65l-4.06-3.68-4.19-3.54c-2.85-2.26-5.7-4.52-8.66-6.63-.73-.53-1.46-1.08-2.2-1.59l-2.27-1.5c-1.51-1-3-2.06-4.55-3s-3.08-1.9-4.66-2.78l-4.75-2.59c-1.59-.85-3.25-1.55-4.86-2.36s-3.27-1.5-4.94-2.19c-3.29-1.46-6.71-2.58-10.11-3.78-3.46-1-6.91-2.07-10.45-2.78-3.51-.93-7.11-1.32-10.7-1.92l-5.43-.54c-.91-.08-1.82-.2-2.73-.24l-2.74-.07c-1.83 0-3.68-.17-5.52-.16s-3.68.15-5.53.19c-.93 0-1.87 0-2.79.09l-2.78.26c-1.85.15-3.72.33-5.6.45H397a2.24 2.24 0 0 1-.82-4.36c1.85-.59 3.72-1.12 5.59-1.68l2.82-.81c.94-.25 1.91-.41 2.86-.62 1.92-.4 3.85-.76 5.79-1.13s3.9-.5 5.86-.72l2.95-.31c1-.07 2-.08 3-.12 2-.05 4-.13 6-.16 4 .24 8 .3 11.91.92a112.39 112.39 0 0 1 11.79 2.11c3.84 1.09 7.75 2 11.47 3.5a120.08 120.08 0 0 1 21.62 10.22 157.41 157.41 0 0 1 36.39 30.13 182.59 182.59 0 0 1 14.61 18.38c2.18 3.25 4.37 6.48 6.33 9.87 1 1.69 2 3.38 2.91 5.11s1.81 3.42 2.7 5.36a4.68 4.68 0 0 1-8.12 4.57zm-16.39 52.69l-.88-1.06c-.33-.39-.69-.78-1-1.17-.73-.77-1.47-1.54-2.24-2.28a58.59 58.59 0 0 0-4.9-4.14c-.86-.63-1.73-1.25-2.63-1.81s-1.8-1.13-2.71-1.68-1.86-1-2.8-1.48-1.92-.9-2.9-1.28a49.9 49.9 0 0 0-12.21-3.23A53.9 53.9 0 0 0 481 522a73.17 73.17 0 0 0-13 2.36c-1.08.28-2.16.54-3.22.92l-3.21 1c-2.14.73-4.26 1.55-6.4 2.32l-3.17 1.33c-1.06.45-2.15.82-3.18 1.33l-3.16 1.43c-1.05.48-2.14.9-3.17 1.44s-2.08 1-3.14 1.54-2.15 1-3.18 1.52c-2.09 1.08-4.2 2.14-6.38 3.14h-.08a2 2 0 0 1-2.23-3.25c1.74-1.7 3.54-3.33 5.37-5s3.79-3.06 5.73-4.54 4-2.81 6.06-4.18 4.25-2.51 6.39-3.75c1.09-.58 2.23-1.1 3.34-1.65s2.22-1.13 3.39-1.58c2.33-.93 4.62-2 7.06-2.67 1.2-.38 2.39-.8 3.62-1.13l3.71-.91c1.23-.34 2.5-.53 3.76-.75s2.53-.46 3.82-.56a58.58 58.58 0 0 1 30.79 4.36 53.47 53.47 0 0 1 13.27 8.46 52.78 52.78 0 0 1 5.55 5.54c.84 1 1.68 2 2.44 3.1.39.54.77 1.08 1.14 1.65.18.27.37.57.55.87l.27.46.31.54a4.65 4.65 0 0 1-7.59 5.3z"/><path class="cls-3" d="M748.83 282.6c-12.6 55-25.63 85.54-37.86 68.74-8.59-11.78-16.59-37-24-70.56l2.82-.24c1.75-.14 3.49-.25 5.23-.34h.78a267 267 0 0 1 35.63.5c.81.07 1.64.13 2.45.21l2 .17h.47q6.33.61 12.48 1.52zm156.61 136.06c-29.72 19.34-52.69 30.08-52.87 17.28-.19-14.35 16.77-45.1 37.46-77.15-.12 1.72-.24 3.4-.34 5.08-.38 5.59-.47 11.55 2 16.48 3.87 7.65 7.65 17.73 11.1 29.12.92 2.98 1.8 6.05 2.65 9.19zm-346.06 17.89c-.16 12.44-21.85 2.64-50.35-15.67.69-2.1 1.44-4.18 2.23-6.24a165.24 165.24 0 0 1 9.65-20.77 88.6 88.6 0 0 0 8.62-22.46c17.08 27.51 30.03 52.59 29.85 65.14zm330.97-225.43c-3.92 7.06-7.88 14.15-11.87 21.19-2.47 4.38-5 8.73-7.44 13.07-47.39 82.28-96.5 154.77-109.65 128-3.81-7.76-5.69-20.28-6.09-36.07a239.31 239.31 0 0 1 3.8-48.34c.25-1.45.52-3 .8-4.53q4.68.89 9.18 1.88c.63.13 1.23.28 1.84.42.4.07.8.16 1.19.26a228.32 228.32 0 0 1 25.29 7.5l1.33.54c11.79-26.48 34.68-68.95 68.63-93.62 8-5.81 13.88-5.37 18.08-.32.3.36.59.75.88 1.16a25.34 25.34 0 0 1 2.62 4.91 50.942 50.942 0 0 1 1.41 3.95zM682.6 331.8c-.4 15.8-2.29 28.31-6.1 36.09-13.15 26.8-62.26-45.7-109.64-128-2.47-4.34-5-8.69-7.45-13.06q-5-8.85-9.95-17.74l12.54 7.08c3.67 2.5 7.17 5.13 10.54 7.85 1.35 1.08 2.66 2.17 4 3.29 24.88 21.22 41.35 46.88 51.62 66.69a203.35 203.35 0 0 1 34.71-9.87l.54-.1q7.53-1.44 15.08-2.36l.33 1.8a239.83 239.83 0 0 1 3.78 48.33z"/><path class="cls-5" d="M743.43 566.5c0 21-10.65 16.58-22.84 16.58s-29.12 5.74-29.12-15.23 12.11-38.75 24.3-38.75 27.66 16.43 27.66 37.4z"/><path class="cls-6" d="M702 496.77l24.12.22c8.2.07 13.39 6.3 9.37 11.23l-17 20.85a3.85 3.85 0 0 1-6 .23L693 508.15c-4.54-5 .51-11.46 9-11.38z"/><path d="M711.47 499.18l-9.34.43a3.59 3.59 0 0 0-2.48.76c-2.54 2.3-1.1 6.7.31 9.13a3 3 0 0 0 .75 1 1.59 1.59 0 0 0 .87.2q6 .16 12 0c2.2-.07 6.81-2.11 5.48-6.79-1.06-3.62-5.34-4.83-7.59-4.73z" fill="#fff" opacity=".5"/><path class="cls-6" d="M531.66 348.84c0-.28 0-.57-.07-.85-2.2-25.61-3.72-51.83-3.56-74.5.13-18 1.32-33.71 4.07-45.11 1.85-7.73 4.41-13.47 7.85-16.57C554 229.35 589.6 275.87 594.84 305c5.05 28.07-41.61 39.91-63.18 43.84zm359.61-2.39c-23.14-4.87-61.85-17-57.22-42.71 5.19-28.77 41.18-76.3 55.6-94.3.25.72.8 2.76.9 2.9 7.53 26.74 4.07 84.12.72 134.11z"/><path class="cls-5" d="M849.31 306.65c.19-.46.44-1.14.66-1.77s.44-1.29.67-1.95l1.35-4c.94-2.65 1.88-5.3 2.92-7.93.51-1.31 1-2.63 1.55-3.93s1.06-2.62 1.62-3.91c1.12-2.59 2.27-5.18 3.59-7.68a3.27 3.27 0 0 1 6.28 1.12l1.61 41.73-5.4-2.34c3.25-3.05 6.73-5.84 10.27-8.57s7.19-5.32 11.05-7.68a1.54 1.54 0 0 1 2 2.29 131.67 131.67 0 0 1-9.13 9.88c-3.18 3.14-6.42 6.2-9.9 9l-.19.15a3.2 3.2 0 0 1-5.21-2.49l-1.62-41.73 6.29 1.12a84.65 84.65 0 0 1-3 8c-.56 1.32-1.15 2.62-1.77 3.91s-1.24 2.57-1.89 3.85a93.252 93.252 0 0 1-4.25 7.52c-.8 1.21-1.61 2.42-2.52 3.6-.44.59-.93 1.17-1.43 1.75a12.42 12.42 0 0 1-1.8 1.7 1.2 1.2 0 0 1-1.67-.25 1.18 1.18 0 0 1-.14-1.17zm-294.08-37.31c.7.84 1.7 1.9 2.62 2.86l2.84 3c1.87 2 3.74 4.05 5.54 6.15.91 1 1.83 2.07 2.71 3.14s1.78 2.11 2.65 3.19c1.74 2.15 3.46 4.33 5 6.61a3.26 3.26 0 0 1-3.73 5.12l-35.32-14.28 4.4-3.82c1.31 4.53 2.28 9.15 3.17 13.79s1.61 9.31 2 14.07a1.54 1.54 0 0 1-2.94.74c-1.89-4.39-3.42-8.86-4.87-13.36s-2.74-9-3.73-13.65v-.23a3.2 3.2 0 0 1 4.44-3.59l35.32 14.28-3.73 5.12a77.17 77.17 0 0 1-5.58-6.29c-.89-1.08-1.75-2.19-2.59-3.31s-1.66-2.26-2.47-3.41q-2.44-3.43-4.57-7.14c-.69-1.25-1.36-2.52-2-3.85a18.23 18.23 0 0 1-1.48-4.39 1.2 1.2 0 0 1 1-1.37 1.21 1.21 0 0 1 1.11.41z"/><path class="cls-8" d="M843.87 434.29c5.87 12.61 5.44 28.06-4.14 39.09-16.7 19.2-47.56 20.27-70.36 14.05-6.27-1.71-18.61-4.74-19-13.2-1-22.31 9.35-50.14 33.92-60 15.54-6.21 35.37-5 48.62 5.83a40.23 40.23 0 0 1 10.96 14.23z"/><ellipse class="cls-5" cx="801.91" cy="449.6" rx="29.21" ry="28.15" transform="rotate(-46.36 801.876 449.6)"/><path class="cls-9" d="M807 433.36a25.34 25.34 0 0 0-9.83 1.31 11.67 11.67 0 0 0-7 6.77 18.34 18.34 0 0 0-.61 5.63v7.5a.74.74 0 0 0 .13.51.7.7 0 0 0 .55.17 7 7 0 0 0 3.08-.33 5.42 5.42 0 0 0 2.25-2c2.19-3.1 2.77-7.1 5-10.18a5.59 5.59 0 0 1 2.16-1.94c1.79-.81 3.92-.07 5.78-.71 1.52-.52 3.16-2.62 2.92-4.33-.3-2.16-2.49-2.36-4.43-2.4z"/><path class="cls-10" d="M751.89 457.25s2.22 21.06 17.48 30.18"/><path class="cls-11" d="M847.69 455.6c7.65-25.51 3.58-30.74-21.5-40.11"/><path class="cls-8" d="M581.05 433.88c-6 12.93-5.58 28.76 4.24 40.07 17.12 19.68 48.75 20.78 72.12 14.4 6.43-1.76 19.08-4.85 19.47-13.53 1-22.87-9.58-51.4-34.77-61.48-15.93-6.37-36.26-5.11-49.84 6a41.38 41.38 0 0 0-11.22 14.54z"/><ellipse class="cls-5" cx="626.55" cy="451.21" rx="30.01" ry="28.86" transform="rotate(-67.67 626.519 451.204)"/><path class="cls-9" d="M606 447.61a26.17 26.17 0 0 1 2.59-9c4.37-8.25 18.43.84 15.86 1.62-3.69 1.13-9.14 1.07-10.84 5.44-.55 1.4-.48 3-1.09 4.37-.85 1.88-3.85 3.69-5.7 2.15-1-.89-1-2.52-.89-3.91-.02-.28.01-.46.07-.67z"/><path class="cls-10" d="M675.33 457.41s-2.28 21.59-17.92 30.94"/><path class="cls-11" d="M577.84 456.86c-8.47-27.69-4.38-32.64 21.33-42.25"/><path class="cls-3" d="M1070.25 718.21c-14.3-.24-30.59-7.05-45.81-15.89q2.94-10.73 6.65-21.5c2-5.76 4.33-11.54 7-17.28 2.48 2.09 5.07 4.31 7.71 6.6 23.8 20.86 50.5 48.49 24.45 48.07zm29.19 140.42c-1.56 15.62-2.67 31.35-3.57 46.83-25.44 11.39-50.87 18.94-41.83-1.64 7.38-16.79 26-32.37 44.47-44.59zm-9.99 152.89v.43a359 359 0 0 1-6.61 39.74c-2.5-1.38-5.09-2.84-7.73-4.35-27.46-15.81-59.06-37.64-33.43-42.33 13.98-2.56 31.18.87 47.77 6.51zM1052.18 843c-12.24 3.21-27.35 1.89-42.47-1.5-.07-13.63.07-27.19.61-40.7 1.74.81 3.53 1.65 5.33 2.51 28.57 13.69 61.73 33.08 36.53 39.69z"/><path class="cls-4" d="M639.36 1371.79c-22.63 38.71-82.06 6.62-109.38-6.47 6-19.49 23.13-52.35 71.31-74.52 22.58 22.89 54.85 52.27 38.07 80.99zm230.17 9.32c-29.15 12.55-66.18 22.79-83-5.92-12.8-21.9 2.92-44.18 21.13-63.68 29.06 19.94 52.45 51.09 61.87 69.6z"/><path class="cls-3" d="M1039.94 1202.74c-.13.72-.25 1.44-.38 2.15-3.34 18.58-10.84 36.86-21.19 54.23-9.86-17.26-22-30.39-35.7-27.65-14.68 2.93-17.06-4.5-14.77-14.28 6-25.42 35.06-37.62 57.84-24.86a73.46 73.46 0 0 1 14.2 10.41zm-496.49-42.33c-16.36 3.32-39 2.27-70.37-6.85-82.37-24 9.59-35.42 69.53-40-.06 8.71-.1 17.22 0 25.59.13 7.15.39 14.24.84 21.26zm340.15-90.98q.3-8.67.92-17.71.57-8.46 1.52-17.28.74-6.8 1.76-13c0-.1 0-.19.05-.28 15.46-2 35.68-.65 62.13 6.27 81.4 21.27-6.5 35.44-66.38 42zm-2.45 108.62c.86-7.26 1.4-14.57 1.74-22 .23-5.23.35-10.5.42-15.84q5.93 1.26 12.35 2.93c58.92 15.47 29.14 27.15-14.51 34.91zM493.78 447.34a19.29 19.29 0 0 1 2 .29c.38.07.75.13 1.13.22a43.44 43.44 0 0 1 16.78 7.85s66.16 56.32 27 99.41c103.85-62-8.22-125.68-8.22-125.68a43.39 43.39 0 0 0-18-4.57h-1.15c-.67 0-1.34 0-2 .09-14.35 1.15-24.9 11.68-32.48 24.36a32.38 32.38 0 0 1 14.94-1.97z"/><path class="cls-1" d="M564.47 714.82c11.18 25.94-9.46 54.35-37.54 51.3a94.36 94.36 0 0 1-46.47-18.32 92.72 92.72 0 0 1-30.4-39.51c-2.7-6.72-5.3-14-7.63-21.75C428.7 640.81 424 578 458.57 509.5c0 0-1-3.26-2.1-8.55-4-18.72-10.32-62.86 15.41-77.86.57-.34 1.16-.65 1.77-.95l1-.49a43.43 43.43 0 0 1 18.2-3.65s132.78 9.18 58.48 114.65c0 0-6.74 21.88-8.55 55.39-.47 8.79-.61 18.39-.2 28.6 1.19 29.14 6.84 63.36 21.89 98.18z"/><path class="cls-4" d="M560.73 517.69c-37.39-1-74.53-8.05-104.52-16.82-4.88-22.82-12.9-82.48 36.42-82.75 0 0 119.84 8.27 68.1 99.57z"/><path class="cls-3" d="M552.35 679.35a36.53 36.53 0 0 1-39.21 26.52 94.49 94.49 0 0 1-46.47-18.32 92.81 92.81 0 0 1-30.4-39.55c-.84-2.09-1.66-4.25-2.48-6.44a244.15 244.15 0 0 0 9.15 46c2.34 7.76 4.93 15 7.63 21.75A92.72 92.72 0 0 0 481 748.82a94.39 94.39 0 0 0 46.47 18.32c28.08 3.05 48.72-25.35 37.54-51.3a262.51 262.51 0 0 1-12.66-36.49zm346.07 73.55a254.87 254.87 0 0 0 18.58-100 277.47 277.47 0 0 0-2.49-33.56 252.25 252.25 0 0 0-12.78-53c-.75-2-1.19-3-1.19-3-91.24-100.42 48.54-121 59.65-122.48-8.51-8.46-21.06-13.35-39.44-11.15 0 0-153.22 28.74-49.27 126.37 0 0 .54 1 1.46 3a255.73 255.73 0 0 1 17.46 52 280.8 280.8 0 0 1 5.46 33.29 252.92 252.92 0 0 1-9.64 101c-5.13 16.52 2.55 32.32 16.24 41.17a34.21 34.21 0 0 1-4.04-33.64z"/><path class="cls-1" d="M988.37 673.55a253.6 253.6 0 0 1-11.15 34.74c-.68 1.69-1.41 3.36-2.18 5a92.46 92.46 0 0 1-28.22 34.52 94.06 94.06 0 0 1-46.46 18.32c-28.08 3-48.73-25.36-37.53-51.3a274.8 274.8 0 0 0 21.73-95.15 305.16 305.16 0 0 0-.1-32.4 269.48 269.48 0 0 0-7.68-51.63c-.52-2-.83-3-.83-3C801.66 427.18 934.45 418 934.45 418c55.76.32 38.2 76.55 34.77 89.6-.31 1.22-.5 1.9-.5 1.9 31.39 62.25 30.4 119.76 19.65 164.05z"/><path class="cls-4" d="M969.23 507.6a501.17 501.17 0 0 1-92.45 28c-.52-2-.83-3-.83-3C801.66 427.18 934.44 418 934.44 418c55.76.32 38.21 76.54 34.79 89.6z"/><path class="cls-3" d="M986 553.15a237.43 237.43 0 0 1-6.78 56.06A252.26 252.26 0 0 1 968 644c-.68 1.69-1.41 3.36-2.18 5a92.46 92.46 0 0 1-28.22 34.52 94.06 94.06 0 0 1-46.46 18.32 36.12 36.12 0 0 1-21.61-4.27c-2 5.74-4.23 11.51-6.73 17.31-11.2 25.94 9.45 54.35 37.53 51.3a94.06 94.06 0 0 0 46.46-18.32A92.46 92.46 0 0 0 975 713.28c.77-1.63 1.5-3.3 2.18-5a253.6 253.6 0 0 0 11.15-34.74A232.32 232.32 0 0 0 986 553.15z"/><path class="cls-5" d="M496.36 425c.11-.05 0 .09-.05.14l-.19.27c-.15.16-.3.38-.45.57-.31.41-.64.81-.94 1.26-.64.85-1.25 1.78-1.86 2.72a61.36 61.36 0 0 0-3.43 6.06c-1.07 2.16-2 4.46-2.89 6.86l-1.29 3.69c-.41 1.26-.79 2.55-1.3 3.85v.08a1.1 1.1 0 0 1-1.43.63 1.13 1.13 0 0 1-.66-.71 41 41 0 0 1-1-4.14c-.11-.71-.18-1.41-.27-2.13a15.45 15.45 0 0 1-.18-2.14 31.61 31.61 0 0 1 .06-4.35 32.81 32.81 0 0 1 .59-4.39 30.12 30.12 0 0 1 3.09-8.52 23.71 23.71 0 0 1 2.67-3.88 21.32 21.32 0 0 1 1.68-1.77c.32-.28.61-.55 1-.83l.54-.41c.22-.17.34-.25.71-.5a4.76 4.76 0 1 1 5.69 7.64zm30.19 1.82a4.09 4.09 0 0 1-.21.4l-.28.46c-.19.31-.38.62-.57.95-.41.62-.77 1.29-1.19 1.91l-2.36 3.89c-1.57 2.6-3.08 5.25-4.48 8-.75 1.35-1.33 2.76-2 4.16l-.9 2.15a22.58 22.58 0 0 0-.86 2.19c-1.19 2.94-2 6-3 9.21v.1a1.41 1.41 0 0 1-2.72-.1 37 37 0 0 1-1-10.52 48.06 48.06 0 0 1 .52-5.33c.35-1.74.67-3.52 1.19-5.23a45 45 0 0 1 4.06-9.93c.45-.78.91-1.55 1.39-2.31s1-1.47 1.56-2.2 1.12-1.42 1.72-2.11c.31-.34.63-.67 1-1 .16-.17.33-.33.51-.5l.59-.54a4.65 4.65 0 0 1 7.57 4.89zm24.58 2.75c.18.42.23.55.33.81l.23.64c.15.43.25.82.36 1.23a18.77 18.77 0 0 1 .46 2.4 23.36 23.36 0 0 1 .14 4.72 29.91 29.91 0 0 1-2 8.87 31.38 31.38 0 0 1-1.86 4 34.44 34.44 0 0 1-2.32 3.71 18 18 0 0 1-1.31 1.71c-.47.55-.91 1.11-1.39 1.65a39.32 39.32 0 0 1-3.13 2.93 1.57 1.57 0 0 1-2.54-1.53v-.13c.3-1.36.7-2.62 1.06-3.88l1-3.75c.58-2.47 1.12-4.86 1.46-7.23a64 64 0 0 0 .6-6.88v-3.29c0-.54 0-1.05-.06-1.56v-1.15a4.76 4.76 0 0 1 9-3.23zm389.32-12.26c.38.25.5.33.72.5l.54.41c.36.28.65.55 1 .83a22.59 22.59 0 0 1 4.29 5.65 30.14 30.14 0 0 1 3.1 8.52 32.81 32.81 0 0 1 .59 4.39 33.27 33.27 0 0 1 .06 4.35 19.3 19.3 0 0 1-.18 2.14c-.09.72-.16 1.42-.28 2.13-.28 1.4-.61 2.79-1 4.14a1.11 1.11 0 0 1-1.39.74 1.13 1.13 0 0 1-.7-.65v-.09c-.51-1.3-.9-2.59-1.3-3.85l-1.29-3.69c-.92-2.4-1.82-4.7-2.89-6.86a63.45 63.45 0 0 0-3.43-6.06c-.61-.94-1.22-1.87-1.86-2.72-.31-.45-.63-.85-.94-1.26-.15-.19-.31-.41-.45-.57l-.19-.27s-.17-.19-.06-.14a4.76 4.76 0 0 1 5.69-7.64zm-28.8 3.13l.59.54c.18.17.35.33.51.5.32.34.65.67 1 1 .6.69 1.19 1.38 1.73 2.11s1.06 1.45 1.55 2.2.95 1.53 1.4 2.31a44.46 44.46 0 0 1 4 9.93c.52 1.71.84 3.49 1.2 5.23a50.59 50.59 0 0 1 .52 5.33 37 37 0 0 1-1 10.52 1.41 1.41 0 0 1-2.72.1v-.1c-1-3.21-1.78-6.27-3-9.21-.26-.74-.53-1.47-.86-2.19l-.9-2.15c-.69-1.4-1.28-2.81-2-4.16-1.4-2.73-2.91-5.38-4.49-8l-2.36-3.89c-.41-.62-.77-1.29-1.18-1.91-.19-.33-.38-.64-.58-.95l-.27-.46a2 2 0 0 1-.21-.4l-.5-1.49a4.65 4.65 0 0 1 7.57-4.89zM889 432.8c.07-.1 0 .09 0 .16v1.06c0 .51-.07 1-.06 1.56v3.29a64.05 64.05 0 0 0 .61 6.88c.33 2.37.88 4.76 1.46 7.23l1 3.75c.37 1.26.77 2.52 1.07 3.88v.12a1.56 1.56 0 0 1-1.19 1.87 1.58 1.58 0 0 1-1.35-.33 41 41 0 0 1-3.12-2.93c-.48-.54-.92-1.1-1.39-1.65a18.11 18.11 0 0 1-1.32-1.71 36 36 0 0 1-4.18-7.74 30.23 30.23 0 0 1-2-8.87 23.37 23.37 0 0 1 .15-4.72 20.62 20.62 0 0 1 .45-2.4c.12-.41.22-.8.36-1.23l.24-.64c.09-.26.15-.39.32-.81a4.76 4.76 0 0 1 9 3.23z"/><path class="cls-3" d="M988.37 673.55a253.6 253.6 0 0 1-11.15 34.74c-.68 1.69-1.41 3.36-2.18 5-2.59-.92-5.28-1.91-8-2.93-29.12-11-63.24-27.34-39.54-37 16.55-6.81 39.86-4.52 60.87.19zM902.75 616a60.05 60.05 0 0 1-18.19 3.66 305.16 305.16 0 0 0-.1-32.4c21.13 10.19 36.47 21.74 18.29 28.74zM464.28 723.63c-1.71.65-3.4 1.28-5 1.89a91.86 91.86 0 0 1-9.17-17.23c-2.7-6.72-5.3-14-7.63-21.75h.08c21.12-4.83 44.63-7.23 61.31-.34 23.65 9.8-10.48 26.33-39.59 37.43zm78.3-106.99a61.48 61.48 0 0 1-20-3.79c-18.21-7.13-2.8-18.81 18.4-29.11q.91 2.14 1.81 4.3c-.48 8.79-.62 18.39-.21 28.6z"/></svg>