<svg id="Layer_1" data-name="Layer 1" xmlns="http://www.w3.org/2000/svg" viewBox="0 0 1451.34 1451.34"><defs><style>.cls-1{fill:#f7e1c4}.cls-3,.cls-5{fill:#392930}.cls-3{opacity:.15}.cls-4{fill:#f4eee4}.cls-6{fill:#ec9bb5}.cls-10,.cls-8{fill:#9ede2e}.cls-10,.cls-11,.cls-8{stroke:#392930;stroke-width:10px}.cls-8{stroke-miterlimit:10}.cls-9{fill:#f7eed9;opacity:.25}.cls-10,.cls-11{stroke-linecap:round;stroke-linejoin:round}.cls-11{fill:none}</style></defs><path class="cls-1" d="M1203 556.93c-18.72 19.55-44.74 21.76-70.08 29.75-10.12 3.2-20.13 7.31-29.52 13.82a83.45 83.45 0 0 0-9.67 7.84c-41.8 39.38-57.09 107.55-64.07 177.62-1.67 16.74-2.86 33.6-3.83 50.19-2.41 41.4-3.42 81.19-6.87 113.67v.46a386.58 386.58 0 0 1-7.08 42.59c-13.55 60.89-42.23 124.18-83.61 165.33a101.91 101.91 0 0 1-12 10c-47.15 34.28-155.51 67.55-174.3-5.83-17.69-69.08 86.17-65.54 119.56-90.22 20.63-15.24 36.41-37.94 48-63.64 14.49-32.19 22.37-69.09 24.9-102 .55-7.27.85-14.33.91-21.11.31-40.25-1.54-79.33-1.76-117.85-.08-14.6.07-29.13.65-43.61 1.44-35.3 5.48-70.32 15.13-105.54q3.15-11.51 7.13-23.05a203.81 203.81 0 0 1 7.48-18.52A239.28 239.28 0 0 1 993 529.48q3.79-4.85 7.87-9.53a238.23 238.23 0 0 1 24.66-24.56c.64-.57 1.28-1.11 1.92-1.65 2-1.66 4-3.27 6-4.85 38.84-30.43 86.61-46.66 134.08-32.27C1210 469.5 1238.27 520 1203 556.93z"/><path d="M1203 556.93c-18.72 19.55-44.74 21.76-70.08 29.75 8.92-33.45-24.77-78.32-59.89-89-13.56-4.11-26.56-7.72-39.53-8.81 38.84-30.43 86.61-46.66 134.08-32.27 42.42 12.9 70.69 63.4 35.42 100.33z" opacity=".3" fill="#392930"/><path class="cls-3" d="M1103.35 600.5a83.45 83.45 0 0 0-9.67 7.84c-76.83 72.39-64.1 242-74.82 341.94-7.75 72.21-39.49 157-90.69 207.92a101.91 101.91 0 0 1-12 10c15.57-30.07 6.87-68.54 1.55-100.11-2.74-16.34-7.24-33.86-8.3-50.27a82.53 82.53 0 0 1 0-9.31c14.49-32.19 22.37-69.09 24.9-102 19-59.2 42.5-117 57.07-177.55 9-37.53 26.92-73.78 55.29-100.53 17.2-16.18 37.06-22.68 56.67-27.93z"/><path class="cls-1" d="M502.41 898.28c-.05.36-.11.71-.16 1.07l-.18 1c-.18 1.1-.38 2.16-.61 3.21-.09.48-.2.95-.31 1.42s-.21 1-.34 1.42c-.07.29-.14.59-.22.88s-.23.85-.35 1.27a63.61 63.61 0 0 1-.95 3.12c-.21.65-.43 1.28-.66 1.91s-.38 1-.58 1.52c-.39 1-.79 1.9-1.21 2.8-.14.29-.27.58-.41.85s-.17.36-.27.54-.33.66-.5 1c-.36.68-.73 1.33-1.11 2-.23.38-.46.76-.7 1.13l-.12.2-.39.6-.13.18a1.63 1.63 0 0 0-.11.17s0 .07-.07.09a5.33 5.33 0 0 1-.32.46 35.39 35.39 0 0 1-2.7 3.38c-.22.25-.45.49-.68.73s-.57.6-.86.89-.63.61-1 .89-.44.4-.65.59l-.47.4c-.25.21-.5.41-.77.6-.33.26-.68.52-1 .76s-.54.39-.81.56a2.61 2.61 0 0 1-.3.2l-.12.08-.93.56c-.53.32-1.07.62-1.62.89l-1 .51c-.37.17-.74.34-1.12.48l-.93.37-1 .34-1 .32-.5.14-.54.15h-.12a.58.58 0 0 1-.14 0 .08.08 0 0 1-.07 0c-.29.07-.58.14-.88.19h-.24l-.95.2c-.4.06-.8.13-1.21.18h-.06l-1.62.18a35.39 35.39 0 0 1-3.87.14h-1.32a43.73 43.73 0 0 1-6.75-.89l-1.06-.23-1.07-.26-2.16-.6-1.1-.34-1.09-.36c-.36-.12-.73-.25-1.09-.39s-.73-.26-1.09-.4l-.93-.37c-.51-.2-1-.41-1.52-.63s-1-.44-1.52-.69l-1.62-.77c-.55-.27-1.08-.54-1.63-.83-.25-.14-.52-.27-.77-.42l-1.84-1c-.83-.48-1.66-1-2.49-1.48l-.72-.45-1.07-.68-1.18-.78c-.39-.26-.79-.53-1.17-.81-1.18-.81-2.37-1.66-3.55-2.56-.37-.27-.73-.55-1.09-.85-.89-.68-1.78-1.4-2.67-2.14l-1.08-.89c-1.92-1.64-3.85-3.38-5.75-5.21-.41-.38-.81-.77-1.21-1.17s-.8-.78-1.2-1.19-.8-.8-1.19-1.21l-1.19-1.24-1.19-1.27-1-1.15c-.7-.77-1.4-1.56-2.1-2.36q-3.13-3.6-6.2-7.57c-.35-.44-.68-.88-1-1.33-1.74-2.3-3.48-4.7-5.17-7.17-.61-.89-1.22-1.78-1.81-2.69-.33-.49-.65-1-1-1.49-2.36-3.64-4.61-7.5-6.76-11.54-10.56-19.81-18.58-44.12-24.3-69.67a471.92 471.92 0 0 1-10.5-77.67l-.06-1.12c-.61-12.39-.7-24.24-.28-35.15.15-3.57.45-7.44.92-11.53.36-3 .79-6 1.33-9.23 7.9-47.1 36.21-113.79 90.15-104.75 36.07 6 41.12 34.9 38.9 65.74-1.48 20.76-6.27 42.43-7.11 58.66a218.89 218.89 0 0 0 .6 29.75q.12 1.56.27 3.12c1.18 12.3 3.17 24.58 5.57 36.83.6 3.06 1.23 6.13 1.87 9.18 3.93 18.8 8.56 37.56 12.32 56.25 1.38 6.85 2.64 13.68 3.72 20.51.13.87.27 1.72.39 2.59.1.61.19 1.22.28 1.82.37 2.64.72 5.28 1 7.92.07.5.13 1 .18 1.51.16 1.28.29 2.55.42 3.82.19 1.87.34 3.7.48 5.49 0 .64.09 1.27.12 1.91.1 1.41.17 2.8.22 4.16 0 .61 0 1.22.06 1.82s0 1.14 0 1.7a.45.45 0 0 1 0 .11v8.3a.66.66 0 0 1 0 .14c0 .45 0 .9-.06 1.35a1.69 1.69 0 0 1 0 .23c0 .63-.06 1.25-.1 1.86-.09 1.28-.19 2.53-.32 3.76 0 .46-.08.92-.13 1.36s-.06.61-.11.91c-.34 1.16-.47 2.17-.62 3.16z"/><path class="cls-4" d="M502.41 898.28c-.05.36-.11.71-.16 1.07l-.18 1c-.18 1.1-.38 2.16-.61 3.21-.09.48-.2.95-.31 1.42s-.21 1-.34 1.42c-.07.29-.14.59-.22.88s-.23.85-.35 1.27a63.61 63.61 0 0 1-.95 3.12c-.21.65-.43 1.28-.66 1.91s-.38 1-.58 1.52c-.39 1-.79 1.9-1.21 2.8-.14.29-.27.58-.41.85s-.17.36-.27.54-.33.66-.5 1c-.36.68-.73 1.33-1.11 2-.23.38-.46.76-.7 1.13l-.12.2-.39.6s-.07.12-.12.18a1.63 1.63 0 0 0-.11.17s0 .07-.07.09a5.33 5.33 0 0 1-.32.46 35.39 35.39 0 0 1-2.7 3.38c-.22.25-.45.49-.68.73s-.57.6-.86.89-.63.61-1 .89-.44.4-.65.59l-.47.4-.78.61c-.33.26-.68.52-1 .76s-.54.39-.81.56a2.61 2.61 0 0 1-.3.2l-.12.08-.93.56c-.53.32-1.07.62-1.62.89l-1 .51c-.37.17-.74.34-1.12.48l-.93.37-1 .34-1 .32-.5.14-.54.15h-.12a.58.58 0 0 1-.14 0 .08.08 0 0 1-.07 0l-.89.19-.23.05-.95.2c-.4.06-.8.13-1.21.18h-.06l-1.62.18a35.39 35.39 0 0 1-3.87.14h-1.32a41.42 41.42 0 0 1-6.75-.89l-1.06-.23-1.07-.26-2.16-.6-1.1-.34-1.09-.36c-.36-.12-.73-.25-1.09-.39s-.73-.26-1.09-.4l-.93-.37c-.51-.2-1-.41-1.52-.63s-1-.44-1.52-.69l-1.62-.77c-.55-.27-1.08-.54-1.63-.83-.25-.14-.52-.27-.77-.42l-1.84-1c-.83-.48-1.66-1-2.49-1.48l-.72-.45-1.07-.68-1.18-.78c-.39-.26-.79-.53-1.17-.81-1.18-.81-2.37-1.66-3.55-2.56-.37-.27-.73-.55-1.09-.85-.89-.68-1.78-1.4-2.67-2.14l-1.08-.89c-1.92-1.64-3.85-3.38-5.75-5.21-.41-.38-.81-.77-1.21-1.17s-.8-.78-1.2-1.19-.8-.8-1.19-1.21l-1.19-1.24-1.19-1.27-1-1.15c-.7-.77-1.4-1.56-2.1-2.36q-3.13-3.6-6.2-7.57c-.35-.44-.68-.88-1-1.33-1.74-2.3-3.48-4.7-5.17-7.17-.61-.89-1.22-1.78-1.81-2.69-.33-.49-.65-1-1-1.49-2.36-3.64-4.61-7.5-6.76-11.54a8 8 0 0 1 .34-.8c5.64-13.56 15.47-22.24 27.54-27.44 21.18-9.15 49.27-7.64 73.76-3.21 4 .72 8 1.53 11.76 2.38.13.87.27 1.72.39 2.59.1.61.19 1.22.28 1.82.37 2.64.73 5.28 1 7.92.07.5.13 1 .18 1.51.16 1.28.29 2.55.42 3.82.19 1.87.34 3.7.48 5.49 0 .64.09 1.27.12 1.91.1 1.41.17 2.8.22 4.16 0 .61 0 1.22.06 1.82s0 1.14 0 1.7a.45.45 0 0 1 0 .11v8.3a.66.66 0 0 1 0 .14c0 .45 0 .9-.06 1.35a1.69 1.69 0 0 1 0 .23c0 .63-.06 1.25-.1 1.86-.09 1.28-.19 2.53-.32 3.76 0 .46-.08.92-.13 1.36s-.06.61-.11.91c-.34 1.09-.47 2.1-.62 3.09z"/><path class="cls-3" d="M493.6 924.66a34.57 34.57 0 0 1-7.83 8.17 30.24 30.24 0 0 1-11.3 5.21.58.58 0 0 1-.14 0 .08.08 0 0 1-.07 0l-.89.19h-.23c-22.77 4.25-53.87-15.09-78.68-53.36-2.37-3.64-4.62-7.5-6.77-11.54-.12-.22-.23-.45-.34-.66-26.39-50.08-36.9-128.36-34.79-182.94.84-21.74 8-54.67 22.32-81.46a188.52 188.52 0 0 0-5.5 36.44c-2.12 54.83 8.51 133.57 35.13 183.6 2.16 4 4.4 7.9 6.77 11.55 1.2 1.83 2.39 3.61 3.61 5.37 18.55 26.77 40.11 43.17 58.93 47.5a42.46 42.46 0 0 0 9.57 1.16 31.23 31.23 0 0 0 20.09-6.75c.24-.18.46-.37.69-.56-.77 16.89-4.6 29.49-10.57 38.08z"/><path class="cls-3" d="M427 677c-10.42 16.66-32.51 30.32-54 40.42-6.9 3.23-13.73 6.11-20.1 8.58-.23.09-.44.19-.67.27l-.06-1.12c-.61-12.39-.7-24.24-.28-35.15.15-3.57.45-7.44.92-11.53l.7-.25c4.83-1.7 10.24-3.53 15.87-5.33 32.32-10.37 72.43-19.61 57.62 4.11zm55.49 81.55c-28.49 7.45-55.79 10.74-42.85-9.22 7.77-12 21.68-22.27 37-30.73q.12 1.56.27 3.12c1.19 12.28 3.18 24.58 5.58 36.83z"/><path class="cls-1" d="M886.41 678.83a417.84 417.84 0 0 1-1.76 46.59 484.446 484.446 0 0 1-6 44c-6.22 33.69-16.23 66.9-30.36 92.43q-3.31 6-6.95 11.43l-1.53 2.25-.95 1.34a171.78 171.78 0 0 1-16 19.6c-.35.37-.71.73-1.06 1.11l-1.06 1.07-1.07 1.07-1.06 1c-1.43 1.38-2.85 2.7-4.29 4l-1 .91-1.12 1-1.08.89c-.35.3-.71.6-1.08.89l-1.07.86-1.07.83-1.08.82-1.07.79-1.08.78c-.35.26-.71.51-1.07.75-1.08.75-2.15 1.46-3.22 2.15-.71.45-1.42.89-2.13 1.31-.4.24-.79.48-1.19.7l-1 .54c-1.06.6-2.12 1.16-3.18 1.69s-2.1 1-3.15 1.5l-1 .46-.89.38c-.39.16-.79.32-1.19.46l-1 .4a58.77 58.77 0 0 1-5.1 1.62c-.32.08-.63.17-1 .24s-.82.21-1.23.29-.55.13-.82.18l-1 .2a43.45 43.45 0 0 1-5.68.67h-3.93c-.79-.05-1.57-.11-2.34-.2l-.87-.11c-.41-.06-.82-.12-1.22-.2h-.1l-1.24-.27a2 2 0 0 1-.31-.07l-.52-.12q-1.32-.35-2.58-.78c-.43-.15-.85-.3-1.27-.47h-.06c-.4-.16-.79-.33-1.17-.5l-1.21-.58c-.39-.19-.77-.4-1.15-.62s-.78-.45-1.17-.69-.76-.49-1.13-.75-.75-.53-1.11-.8c-.18-.13-.35-.26-.51-.4s-.34-.26-.5-.4a.79.79 0 0 1-.17-.14c-.69-.57-1.35-1.18-2-1.81a41.9 41.9 0 0 1-.92-.95l-.19-.2c-.29-.32-.58-.64-.86-1s-.57-.67-.85-1a42.22 42.22 0 0 1-3.54-5.28c-.2-.36-.4-.72-.6-1.1a52.71 52.71 0 0 1-3-6.85c-.16-.44-.32-.89-.47-1.35a72.53 72.53 0 0 1-2.17-8.09c0-.2-.08-.39-.12-.6l-.27-1.43c-.11-.56-.2-1.12-.3-1.7s-.22-1.41-.32-2.12c-.09-.7-.18-1.43-.26-2.15-.16-1.24-.28-2.52-.38-3.82-.06-.67-.11-1.33-.14-2v-.1c0-.68-.08-1.37-.1-2.07 0-.54 0-1.08-.07-1.63 0-1.39-.07-2.82-.07-4.29v-1.47c0-1 0-2 .05-3s.06-1.72.1-2.61v-.38c0-1 .1-1.89.16-2.86.22-3.32.52-6.78.94-10.36.67-5.87 1.56-11.75 2.58-17.61 8.93-51.38 28.7-103 26.88-155.24 0-1.1-.1-2.24-.17-3.4-.81-12.94-3.6-28.84-5.16-44.81-3.41-34.6-1.12-69.56 39.15-75.65 23.56-3.56 42 7.18 55.94 24.35 8 9.91 14.57 22 19.69 34.62 9.55 23.66 14.21 49.7 14.62 67.86z"/><path class="cls-4" d="M848.29 861.84q-3.33 6-6.95 11.43c-49 73-120.23 75.25-108.54-24.73.68-5.86 1.56-11.75 2.58-17.62 40.36-8.38 96.79-11.48 112.91 30.92z"/><path class="cls-3" d="M869.64 633.4c1.23 54.85-10.68 133.4-38.12 183q-3.33 6-6.95 11.43c-31.3 46.57-71.62 64.34-93.66 45.1 2.19 74.43 65.14 66.56 109.75.18q3.63-5.42 7-11.43c27.44-49.61 39.34-128.16 38.12-183-.49-21.75-7.08-54.78-21-81.81a188.4 188.4 0 0 1 4.86 36.53zm-62.95-5.56c-7.69 16.71-25.86 32.09-44.6 44.45-.81-12.94-3.6-28.84-5.16-44.81 29-12.87 60.46-22.85 49.76.36z"/><path class="cls-3" d="M884.65 725.42a484.446 484.446 0 0 1-6 44h-.71c-4.38-.14-9.1-.35-14-.63-4.14-.24-8.39-.54-12.61-.9-30.33-2.7-59.33-8.89-39.71-23.67 12.35-9.29 30.76-14.26 49.6-16.78 5.12-.69 10.27-1.19 15.34-1.55q3.75-.27 7.41-.44zm-12.94-114.63h-.64c-1.23-.1-2.46-.21-3.68-.33C838 607.65 810.9 601.35 830 587c6.1-4.59 13.68-8.12 22-10.83 8.06 9.91 14.59 21.95 19.71 34.62z"/><path class="cls-4" d="M899.5 1178.18a247.72 247.72 0 0 1-11.64 26.9 231 231 0 0 1-13 22.56c-29.8 45.57-79.89 73.19-137.26 87.83-10.23 2.61-20.7 4.81-31.32 6.62-2.89.5-5.8 1-8.72 1.4-1.77.27-3.56.52-5.34.77-3.43.47-6.88.9-10.33 1.3q-3.46.4-6.95.74c-10.38 1-20.85 1.76-31.33 2.18-12.77.5-25.57.56-38.27.21a612.22 612.22 0 0 1-58.65-4.47q-12.78-1.57-25.09-3.66-8.45-1.41-16.63-3c-11.1-2.2-21.79-4.67-32-7.38q-11.67-3.11-22.34-6.87c-117.16-41.27-146.6-140.67-137.76-250.83 1.15-14.49 3-29.16 5.36-43.91a807.4 807.4 0 0 1 22.24-96.61c17.81-61.25 41-119.73 61.21-167.44C422.13 696.35 439.34 623 467 561.88a350.53 350.53 0 0 1 20.79-39.63c15.84-25.58 34.76-46.45 58.25-58.49 80.88-41.47 149-5.22 199.07 54.58a362.59 362.59 0 0 1 27.74 38.13 478.45 478.45 0 0 1 44.31 90.24c25.16 68.45 57.82 155.61 79.19 245.18q2.82 11.83 5.35 23.7 1.08 5 2.1 10.09c18.07 89.12 22.74 178.57-4.3 252.5z"/><path class="cls-3" d="M772.84 556.47C691.7 602.81 553 612.18 467 561.88a349.52 349.52 0 0 1 20.79-39.62c76.72 33.09 182.52 27.67 257.32-3.92a364 364 0 0 1 27.73 38.13z"/><path class="cls-1" d="M390.78 418a237.34 237.34 0 0 1-3.58-36.71 195.73 195.73 0 0 1 5.25-49.29 182.09 182.09 0 0 1 4.42-15.21q1.11-3.39 2.39-6.69a177.82 177.82 0 0 1 10.34-22.26 94.76 94.76 0 0 0 9.24-24.07c.6-2.55 1.1-5.13 1.49-7.71a96.84 96.84 0 0 0 1.08-16.52c0-2-.13-3.93-.29-5.89 0-.31 0-.6-.07-.89-2.21-24.72-3.77-50-3.81-72.32v-4.61c.13-18.55 1.41-34.81 4.35-46.58 2-8 4.73-13.91 8.41-17.11a10.59 10.59 0 0 1 10.19-2.32 21.25 21.25 0 0 1 5.8 2.59q3.93 2.42 7.66 5c3.93 2.68 7.68 5.49 11.29 8.41 1.45 1.16 2.86 2.33 4.25 3.53 26.68 22.74 44.33 50.25 55.33 71.47a217.75 217.75 0 0 1 37.2-10.57l.58-.12q8.07-1.53 16.16-2.52l1.12-.14q3.2-.39 6.39-.68l1.64-.15c1-.09 2-.18 3-.25 1.87-.16 3.73-.27 5.6-.37h.84a286.69 286.69 0 0 1 38.18.53c.87.08 1.75.14 2.62.23.7.05 1.4.12 2.09.18h.5q6.79.65 13.38 1.62c.57.08 1.15.15 1.71.24q5.16.75 10.15 1.7c3.35.62 6.63 1.3 9.85 2l2 .44c.43.08.85.18 1.27.28a246 246 0 0 1 27.1 8l1.43.58C720 153.55 744.5 108 780.9 81.59c8.58-6.23 14.86-5.76 19.37-.34.32.38.63.8.94 1.23a27.63 27.63 0 0 1 2.79 5.27c.26.63.51 1.31.76 2s.51 1.49.75 2.28l.21.68c3.61 12.34 4.86 31 4.82 52.53v1.56c-.11 26.19-2.12 56.43-4.06 84.39-.13 1.92-.26 3.85-.4 5.76-.15 2.06-.28 4.1-.42 6.12-.17 2.44-.33 4.83-.51 7.19-.12 1.83-.25 3.64-.36 5.44-.4 6-.51 12.38 2.16 17.66 4.15 8.2 8.21 19 11.9 31.21 1 3.2 1.92 6.48 2.82 9.85 2.71 9.94 5.15 20.56 7.21 31.28 5.68 29.44 6 59.52 5.84 79.55C833.55 572 426.47 622.85 390.78 418z"/><path class="cls-5" d="M776.52 380.4c1.49-1.75 2.85-3.23 4.32-4.78s2.92-3 4.43-4.49c3-2.94 6.09-5.74 9.27-8.46a209.44 209.44 0 0 1 20-15.15 183.08 183.08 0 0 1 45.27-22.08 151.3 151.3 0 0 1 24.73-5.78c2.09-.39 4.2-.58 6.31-.8s4.22-.48 6.35-.51l6.37-.24c2.12 0 4.24.06 6.36.14 1.06 0 2.12.05 3.18.13l3.17.3c2.11.23 4.23.35 6.32.67 4.17.76 8.37 1.31 12.44 2.45a125.55 125.55 0 0 1 23.72 8.37 3.23 3.23 0 0 1-2.11 6.08h-.17c-7.79-1.94-15.46-3.94-23.3-4.94-3.88-.7-7.82-.94-11.72-1.33-2-.16-3.92-.18-5.87-.28l-2.93-.13c-1 0-2 0-2.94.05a147.11 147.11 0 0 0-46.14 7.51 160.39 160.39 0 0 0-21.86 8.83 201.71 201.71 0 0 0-20.69 11.57 229.5 229.5 0 0 0-19.38 13.81c-3.09 2.49-6.16 5-9.12 7.65-1.48 1.32-2.94 2.66-4.38 4s-2.9 2.77-4.13 4.05l-.11.11a5 5 0 0 1-7.41-6.71zm13.06 26.01l.42-.66.37-.55c.24-.37.49-.71.73-1.05.49-.68 1-1.31 1.51-2 1-1.26 2.11-2.48 3.24-3.63a61.55 61.55 0 0 1 7.21-6.4 69.87 69.87 0 0 1 16.66-9.4 78.06 78.06 0 0 1 18.37-4.84 95.26 95.26 0 0 1 18.77-.75c1.56.08 3.1.26 4.65.39l2.32.22 2.3.33c1.53.23 3.06.44 4.58.7l4.53.94 2.26.48 2.22.58 4.45 1.17c2.93.87 5.84 1.8 8.74 2.75s5.71 2.11 8.49 3.33l4.14 1.89c1.37.65 2.76 1.25 4.08 2 2.67 1.43 5.33 2.86 7.91 4.41s5.1 3.24 7.55 5a2.65 2.65 0 0 1-2.35 4.68h-.11c-2.83-.91-5.57-2-8.3-3s-5.51-2-8.22-3-5.48-1.89-8.19-2.89c-1.35-.51-2.74-.9-4.1-1.35l-4.1-1.34a134.23 134.23 0 0 0-33.4-6.25 94.09 94.09 0 0 0-16.64.79 72.94 72.94 0 0 0-15.89 4.04c-1.27.5-2.55 1-3.77 1.59-.61.29-1.24.57-1.84.87l-1.81.95c-1.22.6-2.35 1.36-3.53 2s-2.3 1.45-3.37 2.28a55.32 55.32 0 0 0-6.24 5.16c-1 .93-1.9 1.9-2.8 2.88-.43.49-.88 1-1.27 1.49-.21.25-.41.49-.59.74l-.46.62-.31.41a5 5 0 0 1-8.21-5.65zm.31 27.33l.49-.49.42-.4c.28-.26.55-.52.82-.75.55-.5 1.1-1 1.66-1.41 1.11-.89 2.27-1.72 3.44-2.51a53.38 53.38 0 0 1 7.39-4.12 54.34 54.34 0 0 1 16.24-4.62 57.77 57.77 0 0 1 16.82.36 70.29 70.29 0 0 1 15.83 4.69 97.52 97.52 0 0 1 26.67 17.76 143.49 143.49 0 0 1 20.52 23.62 1.91 1.91 0 0 1-2.89 2.47 243.43 243.43 0 0 0-22.76-19.86c-1-.79-2-1.43-3-2.17l-3-2.14-3.13-2c-1-.67-2.07-1.32-3.15-1.89l-3.18-1.8c-1.07-.58-2.17-1.07-3.25-1.62l-1.63-.79c-.55-.25-1.11-.46-1.66-.7-1.12-.43-2.21-.94-3.32-1.36a57.84 57.84 0 0 0-27.45-3.64 49.51 49.51 0 0 0-13.26 3.63 48.62 48.62 0 0 0-6.16 3.1c-1 .58-1.94 1.2-2.87 1.85-.46.32-.93.64-1.36 1l-.64.49-.5.41-.42.34a5 5 0 0 1-6.67-7.4zM406.8 406.49l-.37-.69c-.14-.27-.3-.55-.47-.83-.32-.56-.69-1.12-1-1.68a56.18 56.18 0 0 0-2.31-3.31 58.8 58.8 0 0 0-5.32-6.18 67.66 67.66 0 0 0-12.75-10.23 77.19 77.19 0 0 0-14.85-7.13l-1.95-.7c-.66-.22-1.33-.39-2-.59-1.34-.37-2.65-.83-4-1.12l-4.07-1-4.15-.73a140.45 140.45 0 0 0-34.08-.75 287.87 287.87 0 0 0-34.51 5.68 2.65 2.65 0 0 1-1.55-5 171.17 171.17 0 0 1 34.87-10l4.55-.63c1.51-.18 3-.46 4.56-.56 3.06-.26 6.11-.59 9.21-.59a109.45 109.45 0 0 1 18.59.9 90.85 90.85 0 0 1 18.34 4.32 79.81 79.81 0 0 1 17.09 8.33l2 1.3 1.95 1.4c1.31.92 2.53 2 3.77 3s2.4 2.12 3.59 3.2 2.29 2.24 3.34 3.46a63.41 63.41 0 0 1 6 7.57q1.35 2 2.55 4.15c.39.73.78 1.44 1.14 2.2.19.37.37.75.54 1.15l.27.6.3.72a5 5 0 0 1-9 4.29zm25.93-18.17c-1-1.49-2.17-3.19-3.31-4.77s-2.31-3.21-3.5-4.79c-2.39-3.17-4.81-6.3-7.32-9.36-5-6.15-10.29-12-15.77-17.67a222.16 222.16 0 0 0-17.31-15.92c-3-2.44-6.1-4.87-9.27-7.13-.79-.56-1.56-1.16-2.36-1.71l-2.43-1.6c-1.61-1.08-3.2-2.21-4.88-3.17s-3.3-2-5-3l-5.09-2.78c-1.71-.91-3.48-1.66-5.21-2.53-.87-.41-1.72-.88-2.62-1.24l-2.67-1.1c-3.53-1.57-7.19-2.77-10.84-4.06-3.71-1.05-7.4-2.22-11.2-3-3.76-1-7.61-1.41-11.46-2.06l-5.82-.58c-1-.08-1.95-.21-2.93-.26l-2.94-.07c-2 0-3.94-.18-5.91-.17s-3.94.15-5.93.19c-1 0-2 0-3 .1l-3 .29c-2 .16-4 .34-6 .48h-.18a2.39 2.39 0 0 1-.88-4.67c2-.63 4-1.21 6-1.81l3-.86c1-.28 2.05-.44 3.07-.67 2.06-.43 4.13-.81 6.2-1.21s4.18-.54 6.29-.78l3.16-.32c1.05-.08 2.11-.09 3.17-.13 2.12-.06 4.25-.15 6.39-.18a124.3 124.3 0 0 1 12.76 1 126.8 126.8 0 0 1 12.64 2.27c4.11 1.17 8.3 2.2 12.29 3.76a128.71 128.71 0 0 1 23.16 10.94 167.67 167.67 0 0 1 39 32.3 192.2 192.2 0 0 1 15.66 19.7c2.34 3.47 4.68 6.94 6.79 10.57 1.06 1.81 2.12 3.62 3.11 5.47s1.95 3.68 2.9 5.75a5 5 0 0 1-8.7 4.9zm-17.56 56.47l-.95-1.14c-.36-.42-.74-.84-1.12-1.25-.77-.83-1.57-1.65-2.39-2.45a63.51 63.51 0 0 0-5.26-4.43l-1.38-1c-.47-.32-1-.62-1.43-.94-.93-.66-1.94-1.2-2.9-1.8s-2-1.07-3-1.58-2.05-1-3.11-1.37a52.59 52.59 0 0 0-13.08-3.45 59.56 59.56 0 0 0-13.75-.23 79.89 79.89 0 0 0-13.88 2.58c-1.16.3-2.32.59-3.45 1L346 429.8c-2.28.78-4.55 1.65-6.85 2.48-9.1 3.59-18 8.05-27.19 12.56a2.15 2.15 0 0 1-2.46-3.45 109.79 109.79 0 0 1 25.24-18.66c1.17-.63 2.38-1.19 3.57-1.78s2.38-1.21 3.64-1.69c2.49-1 4.95-2.1 7.56-2.86 1.29-.41 2.57-.85 3.88-1.21l4-1c1.32-.36 2.69-.56 4-.8s2.71-.5 4.09-.6a62.41 62.41 0 0 1 33 4.68 57.38 57.38 0 0 1 14.22 9.06 55.62 55.62 0 0 1 6 5.94c.9 1.07 1.79 2.16 2.62 3.31a45.827 45.827 0 0 1 1.8 2.7l.3.5.33.58a5 5 0 0 1-8.14 5.68z"/><path class="cls-3" d="M653.86 168.63c-13.5 59-27.46 91.67-40.58 73.67-9.2-12.62-17.77-39.64-25.66-75.62 1-.09 2-.18 3-.25 1.87-.16 3.73-.27 5.6-.37h.84a286.69 286.69 0 0 1 38.18.53c.87.08 1.75.14 2.62.23.7.05 1.4.12 2.09.18h.5q6.83.66 13.41 1.63zM821.7 314.45c-31.85 20.72-56.46 32.24-56.7 18.55-.2-15.38 18-48.34 40.14-82.68-.12 1.83-.25 3.64-.36 5.44-.4 6-.51 12.38 2.16 17.66 4.15 8.2 8.21 19 11.9 31.21 1 3.17 1.96 6.45 2.86 9.82zm-370.87 19.17c-.17 13.34-23.42 2.83-54-16.79q1.11-3.39 2.39-6.69a177.82 177.82 0 0 1 10.34-22.26 94.76 94.76 0 0 0 9.24-24.07c18.35 29.49 32.2 56.38 32.03 69.81zM805.53 92c-4.2 7.56-8.45 15.16-12.72 22.71-2.65 4.69-5.33 9.35-8 14-50.79 88.18-103.42 165.87-117.51 137.14-4.09-8.32-6.1-21.73-6.53-38.66a257.46 257.46 0 0 1 4.06-51.8c.28-1.55.57-3.19.86-4.85 3.35.62 6.63 1.3 9.85 2l2 .44c.43.08.85.18 1.27.28a246 246 0 0 1 27.1 8l1.43.58C720 153.55 744.5 108 780.9 81.59c8.58-6.23 14.86-5.76 19.37-.34.32.38.63.8.94 1.23a27.63 27.63 0 0 1 2.79 5.27c.26.63.51 1.31.76 2s.53 1.49.77 2.25zM582.89 221.36c-.44 16.93-2.46 30.34-6.55 38.67-14.09 28.73-66.72-49-117.5-137.15-2.64-4.65-5.33-9.31-8-14q-5.37-9.48-10.68-19l13.46 7.57c3.93 2.68 7.68 5.49 11.29 8.41 1.45 1.16 2.86 2.33 4.25 3.53 26.68 22.74 44.33 50.25 55.33 71.47a217.75 217.75 0 0 1 37.2-10.57l.58-.12q8.07-1.53 16.16-2.52c.12.65.23 1.28.35 1.92a257.36 257.36 0 0 1 4.11 51.79z"/><path class="cls-6" d="M603.62 398.16l25.85.23c8.78.08 14.35 6.75 10 12l-18.23 22.35a4.14 4.14 0 0 1-6.45.25l-20.75-22.67c-4.87-5.32.54-12.25 9.58-12.16z"/><path d="M613.82 400.74l-10 .46a3.91 3.91 0 0 0-2.66.81c-2.73 2.47-1.18 7.19.33 9.79a3 3 0 0 0 .81 1 1.68 1.68 0 0 0 .93.21q6.4.19 12.82 0c2.36-.08 7.29-2.26 5.87-7.29-1.08-3.79-5.68-5.08-8.1-4.98z" fill="#fff" opacity=".5"/><path class="cls-6" d="M421.12 239.63c0-.31 0-.62-.07-.92-2.36-27.44-4-55.55-3.81-79.84.13-19.26 1.41-36.13 4.35-48.35 2-8.28 4.73-14.43 8.41-17.75 15.11 18.8 53.21 68.65 58.83 99.82 5.42 30.13-44.59 42.82-67.71 47.04zm385.39-2.56c-24.79-5.23-66.28-18.2-61.32-45.78 5.56-30.84 44.13-81.77 59.59-101.06.27.76.85 3 1 3.11 8.04 28.66 4.32 90.14.73 143.73z"/><path class="cls-5" d="M761.54 194.41c.21-.5.48-1.23.71-1.9s.48-1.39.72-2.09l1.45-4.27c1-2.84 2-5.7 3.13-8.5.54-1.41 1.08-2.82 1.66-4.22s1.14-2.8 1.74-4.19c1.2-2.77 2.43-5.55 3.84-8.22a3.5 3.5 0 0 1 6.73 1.2l1.73 44.72-5.79-2.5c3.48-3.28 7.22-6.26 11-9.18s7.71-5.71 11.84-8.24a1.65 1.65 0 0 1 2.14 2.45c-3.07 3.75-6.4 7.21-9.79 10.6s-6.88 6.64-10.61 9.65l-.2.16a3.43 3.43 0 0 1-5.59-2.67l-1.73-44.72 6.73 1.2a90.34 90.34 0 0 1-3.25 8.59q-.9 2.11-1.89 4.18c-.64 1.4-1.34 2.76-2 4.13-1.37 2.75-2.91 5.43-4.56 8.06-.85 1.3-1.73 2.6-2.7 3.86-.47.63-1 1.25-1.53 1.87a12.66 12.66 0 0 1-1.93 1.82 1.27 1.27 0 0 1-1.94-1.51zm-315.16-39.99c.76.9 1.82 2 2.81 3.07l3 3.2c2 2.17 4 4.34 5.94 6.59 1 1.12 2 2.23 2.9 3.37s1.92 2.26 2.85 3.42c1.86 2.3 3.7 4.64 5.38 7.08a3.5 3.5 0 0 1-4 5.49l-37.85-15.31 4.71-4.09c1.4 4.85 2.44 9.8 3.39 14.77s1.74 10 2.19 15.09a1.65 1.65 0 0 1-3.16.79c-2-4.7-3.66-9.5-5.21-14.32s-2.94-9.68-4-14.63l-.05-.24a3.43 3.43 0 0 1 2.63-4.08 3.5 3.5 0 0 1 2.13.22l37.84 15.31-4 5.49a88.61 88.61 0 0 1-6-6.74q-1.43-1.74-2.77-3.55c-.91-1.19-1.78-2.42-2.65-3.65a88.89 88.89 0 0 1-4.89-7.66c-.74-1.34-1.46-2.7-2.1-4.12a19.06 19.06 0 0 1-1.59-4.7 1.29 1.29 0 0 1 1.05-1.47 1.27 1.27 0 0 1 1.19.44z"/><path class="cls-8" d="M751 344.52c6.29 13.52 5.84 30.08-4.43 41.89-17.9 20.58-51 21.73-75.4 15.06-6.72-1.83-20-5.07-20.36-14.14-1.07-23.91 10-53.74 36.36-64.28 16.65-6.66 37.91-5.34 52.11 6.24A43.28 43.28 0 0 1 751 344.52z"/><ellipse class="cls-5" cx="712.25" cy="362.25" rx="37.94" ry="39.37" transform="rotate(-58.13 712.2 362.253)"/><path class="cls-9" d="M689.41 360c.81 4.4 2 8.83 4.44 12.61s6.37 6.83 10.85 7.36a24.38 24.38 0 0 0 7.59-.74l9.9-2.05a1 1 0 0 0 .64-.3 1 1 0 0 0 .08-.78 9.67 9.67 0 0 0-1.28-4 7.56 7.56 0 0 0-3.27-2.42c-4.69-2-10.13-1.7-14.8-3.77a7.59 7.59 0 0 1-3.15-2.31c-1.55-2.14-1.18-5.16-2.53-7.43-1.11-1.86-4.32-3.46-6.51-2.67-2.77.98-2.43 3.93-1.96 6.5z"/><path class="cls-10" d="M652.45 369.13s2.38 22.57 18.74 32.34"/><path class="cls-11" d="M755.12 367.36c8.2-27.34 3.84-32.94-23-43"/><path class="cls-8" d="M479.32 340.25c-6.45 13.86-6 30.83 4.55 42.94 18.34 21.1 52.24 22.28 77.28 15.44 6.89-1.88 20.45-5.2 20.87-14.49 1.1-24.52-10.27-55.1-37.26-65.89-17.07-6.83-38.86-5.48-53.42 6.39a44.41 44.41 0 0 0-12.02 15.61z"/><ellipse class="cls-5" cx="538.38" cy="362.36" rx="40.36" ry="38.89" transform="rotate(-31.87 538.455 362.378)"/><path class="cls-9" d="M565.8 370.36a33.74 33.74 0 0 1-5 11.43c-7.32 10.13-24.95-4-21.32-4.65 5.2-.9 12.61.06 15.65-5.41 1-1.75 1.15-3.87 2.21-5.57 1.46-2.33 5.84-4.22 8.1-1.9 1.29 1.33 1 3.47.57 5.27-.01.28-.13.55-.21.83z"/><path class="cls-10" d="M580.36 365.48s-2.44 23.13-19.21 33.15"/><path class="cls-11" d="M475.89 364.88c-9.09-29.67-4.71-35 22.85-45.27"/><path class="cls-3" d="M998.33 635.47c-15.33-.25-32.78-7.55-49.1-17q3.15-11.51 7.13-23.05a203.81 203.81 0 0 1 7.48-18.52c2.66 2.24 5.44 4.62 8.26 7.08 25.53 22.36 54.15 51.95 26.23 51.49zM1029.61 786c-1.67 16.74-2.86 33.6-3.83 50.19-27.26 12.21-54.51 20.3-44.82-1.76 7.91-18 27.81-34.69 47.65-47.78zm-10.7 163.82v.46a386.58 386.58 0 0 1-7.08 42.59c-2.68-1.48-5.46-3-8.29-4.67-29.43-16.94-63.29-40.34-35.82-45.36 14.97-2.75 33.41.93 51.19 6.98zM979 769.21c-13.12 3.44-29.31 2-45.51-1.61-.08-14.6.07-29.13.65-43.61 1.87.87 3.78 1.77 5.71 2.69 30.58 14.67 66.15 35.45 39.15 42.53zm-457.39 551.36c9.47 14.18 14.34 29.11 7.59 44-8.35 5-18.37 6.44-29 5.63a43.85 43.85 0 0 0 4.64-5.22c11.08-14.65 8.31-31.14.13-47.4-5.89-11.74-14.6-23.35-23-34.08-7.3-9.36-14.34-18-19-25.54-25.88-41.52-37.73-78.65-42.05-115.72a345.37 345.37 0 0 1-1.82-50.54c.56-17.86 2.13-36.14 4.06-55.29.09-.86.17-1.72.26-2.58.9 77.53 6.68 142.59 65.06 215.44 15.76 19.66 51.83 46.7 58.19 75q-12.75-1.61-25.06-3.7z"/><path class="cls-1" d="M529.2 1364.52a38 38 0 0 1-1.85 3.57c-24.25 41.48-87.94 7.09-117.22-6.94l-.56-.27c-46.11-22-98.55-64.7-129.21-114.78-10.11-16.51-17.85-33.82-22.22-51.46q-1.12-4.52-1.94-9.06c-4.51-25.13-4.54-53.54-1.74-82.11a541.66 541.66 0 0 1 18.63-95.36c.8-2.78 1.62-5.52 2.44-8.21 14.42-47 39.54-77.84 65-88 35.51-14.15 71.66 12 80.22 91 1.26 11.57 2 22.7 2.46 33.45.79 18.88.62 36.61.49 53.6v1.34c-.07 9.33-.11 18.45 0 27.42.12 7.71.38 15.31.88 22.83 2.78 41.49 13 80.82 48.6 125.2a197 197 0 0 0 13.38 14.54c11.62 11.77 25.63 25.15 35.06 39.28s14.38 29.12 7.58 43.96z"/><path class="cls-4" d="M529.2 1364.52a38 38 0 0 1-1.85 3.57c-24.25 41.48-87.94 7.09-117.22-6.94 4.67-15.07 15.5-37.58 40.54-57.87a165.27 165.27 0 0 1 31.33-19.83c1.48-.73 3-1.45 4.54-2.16 11.62 11.77 25.63 25.15 35.06 39.28s14.4 29.11 7.6 43.95z"/><path class="cls-3" d="M254.46 1103.47a541.66 541.66 0 0 1 18.63-95.36c22.44-10.75 49.25-14.07 52.32 21.17 1.24 14.28-33.77 47.45-70.95 74.19zm170.11 38.08c-17.54 3.56-41.81 2.43-75.42-7.34-88.27-25.68 10.28-38 74.52-42.91-.07 9.33-.11 18.45 0 27.42.14 7.71.4 15.28.9 22.83zm434.75-233.4c-23 7.18-40.83 27.31-45.23 78.67-.25 2.83-.45 5.77-.61 8.8-.79 15-1.14 29-1.32 42.23-.43 29.75-.06 55.57-2.27 80.3a267.53 267.53 0 0 1-5.54 36.07c-5.25 23-14.28 46.28-29.92 72.22-4.62 7.66-9.81 15.55-15.66 23.73-8.47 11.83-23.57 26.53-35.77 42.34a186.76 186.76 0 0 0-5.15 7c-5.09 7.39-9.27 15-11.6 22.55-3.36 10.87-2.93 21.78 4 32.25a38.92 38.92 0 0 0 12.81 12.4c-11.94 1-23.16-.7-32.16-7.11-3.91-12.19-.4-24.39 6.64-36.14-1.77.27-3.56.52-5.34.77-3.43.47-6.88.9-10.33 1.3q-3.46.4-6.95.74c2.55-30.25 42.28-59.51 59-80.42 71.24-88.89 40.91-157.52 52.44-263.84 5.85-53.85 36.92-67.46 62.52-72.29 3.66-.64 7.12-1.15 10.44-1.57z"/><path class="cls-1" d="M965.84 1182.32c-.13.77-.26 1.54-.4 2.3-3.58 19.91-11.62 39.5-22.71 58.12-30.44 51.12-83.81 94.83-130.66 117.19-7.63 3.64-17.7 8.75-28.85 13.54-31.24 13.45-70.93 24.43-88.92-6.34a37.2 37.2 0 0 1-3.37-7.49c-3.91-12.19-.4-24.39 6.64-36.14 5.09-8.5 12-16.77 19.37-24.62 2-2.16 4.06-4.28 6.1-6.37 9.6-9.82 19.13-18.86 25.43-26.72a239 239 0 0 0 26-39.35c12.47-24 18.43-47.1 21.24-70.59.92-7.78 1.5-15.61 1.86-23.53.25-5.6.38-11.25.45-17 .23-19.79-.37-40.35 0-62.41q.1-6.64.34-13.49.32-9.3 1-19 .62-9.08 1.63-18.52.8-7.29 1.89-14c0-.1 0-.2.05-.3 7.49-45.51 25.21-70.45 46.1-77.92 17.42-6.24 37-.34 54.84 15.92 17 15.5 32.26 40.44 42.33 73.25 16.36 53.78 29.14 126.64 19.64 183.47z"/><path class="cls-4" d="M783.22 1373.47c-31.24 13.45-70.93 24.43-88.92-6.34a37.2 37.2 0 0 1-3.37-7.49c-3.91-12.19-.4-24.39 6.64-36.14 5.09-8.5 12-16.77 19.37-24.62.32.22.64.44.95.67a184.83 184.83 0 0 1 19.72 15.93c21.32 19.61 37.87 42.78 45.61 57.99z"/><path class="cls-3" d="M965.84 1182.32c-.13.77-.26 1.54-.4 2.3-3.58 19.91-11.62 39.5-22.71 58.12-10.57-18.5-23.63-32.57-38.26-29.64-15.73 3.15-18.28-4.81-15.83-15.29 6.39-27.25 37.57-40.32 62-26.65a78.68 78.68 0 0 1 15.2 11.16zM798.3 1039.45q.32-9.3 1-19 .62-9.08 1.63-18.52.8-7.29 1.89-14c0-.1 0-.2.05-.3 16.57-2.17 38.24-.69 66.58 6.72 87.22 22.88-6.98 38.07-71.15 45.1zm-2.63 116.4c.92-7.78 1.5-15.61 1.86-23.53.25-5.6.38-11.25.45-17q6.36 1.35 13.24 3.14c63.15 16.54 31.23 29.08-15.55 37.39z"/><path class="cls-5" d="M665.58 438.67c-7.33 13.71-21.53 31.65-45.64 31.65-25.72 0-39.79-17.17-46.75-30.17a5.52 5.52 0 0 1 6.93-7.75c.72.3 1.47.6 2.24.9a104.67 104.67 0 0 0 16.64 4.88 93.15 93.15 0 0 0 56.1-5.65c1.07-.46 2.15-.94 3.23-1.45a5.52 5.52 0 0 1 7.25 7.59z"/><path class="cls-4" d="M655.1 432.53l-5.88 10.16a3.19 3.19 0 0 1-5.17.52l-4.8-5.46a94.91 94.91 0 0 0 15.85-5.22zm-56.1 5.65l-5.39 6.14a3.19 3.19 0 0 1-5.17-.53l-6.08-10.49a104.67 104.67 0 0 0 16.64 4.88z"/></svg>