<svg id="Layer_1" data-name="Layer 1" xmlns="http://www.w3.org/2000/svg" viewBox="0 0 1451.34 1451.34"><defs><style>.cls-2,.cls-3{fill:#392930}.cls-3{opacity:.15}.cls-4{fill:#ec9bb5}.cls-6,.cls-7{fill:#9ede2e}.cls-6,.cls-7,.cls-8{stroke:#392930;stroke-width:14.26px}.cls-6{stroke-miterlimit:10}.cls-7,.cls-8{stroke-linecap:round;stroke-linejoin:round}.cls-8{fill:none}.cls-10{fill:#f1dcb2}.cls-11{fill:#f2ede4}</style></defs><path d="M407.73 756.84a323.79 323.79 0 0 1-5.18-51.62 267.29 267.29 0 0 1 7.6-69.31c1.84-7.33 4-14.44 6.38-21.39 1.07-3.17 2.24-6.3 3.46-9.4a248 248 0 0 1 14.95-31.3A131.27 131.27 0 0 0 448.31 540c.86-3.59 1.59-7.2 2.15-10.84A133.34 133.34 0 0 0 452 505.9c0-2.76-.18-5.52-.42-8.28 0-.43-.06-.84-.1-1.25-3.19-34.76-5.45-70.29-5.52-101.7v-6.46c.2-26.08 2-48.94 6.3-65.49 2.87-11.22 6.85-19.56 12.17-24.06 4.08-3.48 8.95-4.71 14.74-3.26a30.71 30.71 0 0 1 8.39 3.64c3.78 2.25 7.47 4.6 11.07 7 5.68 3.76 11.1 7.72 16.32 11.82 2.09 1.63 4.13 3.28 6.15 5 38.58 32 64.11 70.65 80 100.49a323.38 323.38 0 0 1 53.9-14.88l.85-.16q11.66-2.16 23.37-3.55l1.61-.2c3.08-.36 6.17-.68 9.25-.95l2.37-.21q2.19-.19 4.38-.36c2.7-.22 5.4-.38 8.1-.52h1.21a424 424 0 0 1 55.22.75c1.26.11 2.54.2 3.8.32 1 .07 2 .16 3 .25l.73.07q9.82.92 19.35 2.28c.83.11 1.66.21 2.47.34q7.46 1 14.68 2.38t14.24 2.83c1 .2 1.91.41 2.86.63.61.11 1.22.25 1.84.39A359.57 359.57 0 0 1 863.47 424l2.08.8c18.26-39.89 53.74-103.9 106.37-141.06 12.42-8.76 21.5-8.1 28-.49.47.54.92 1.13 1.36 1.74a38.66 38.66 0 0 1 4.07 7.4c.38.89.74 1.84 1.11 2.81s.73 2.1 1.07 3.21v.05l.3.95c5.22 17.36 7 43.62 7 73.86v2.2c-.17 36.83-3.07 79.34-5.87 118.66-.2 2.7-.38 5.4-.58 8.09q-.33 4.35-.61 8.62l-.73 10.1c-.19 2.58-.37 5.12-.53 7.65-.58 8.42-.73 17.41 3.13 24.83 6 11.53 11.87 26.72 17.21 43.88 1.39 4.5 2.76 9.12 4.07 13.85 3.92 14 7.45 28.91 10.43 44 8.21 41.39 8.67 83.69 8.44 111.85-1.72 206.34-590.44 277.83-642.06-10.16z" fill="#f7e1c4"/><path class="cls-2" d="M966.31 703.2c1.12-1.29 2.11-2.36 3.17-3.5s2.08-2.23 3.15-3.3c2.1-2.18 4.27-4.29 6.46-6.36s4.42-4.1 6.66-6.11 4.54-4 6.87-5.87a299.12 299.12 0 0 1 29.13-21.37c20.31-13 42.23-23.81 65.52-30.93 1.45-.45 2.89-.94 4.35-1.36l4.42-1.16 4.41-1.16 2.21-.57 2.24-.47 8.94-1.88 9-1.43c3-.54 6-.76 9.09-1.09s6.06-.66 9.12-.71l9.15-.33q4.58.06 9.15.23c1.52.07 3 .07 4.57.2l4.55.42 4.55.43c1.51.18 3 .22 4.53.53 6 1.06 12 1.84 17.9 3.44 11.85 2.64 23.23 6.94 34.2 11.78a4.61 4.61 0 0 1-2.94 8.7l-.23-.06c-11.23-2.71-22.32-5.5-33.62-6.9-5.6-1-11.27-1.32-16.9-1.86-1.4-.16-2.82-.16-4.23-.23l-4.23-.17-4.23-.17c-1.41-.05-2.83 0-4.23 0l-8.46.13-8.43.56c-2.82.09-5.61.55-8.41.84s-5.61.56-8.38 1.1l-8.34 1.42-8.26 1.84-2.07.46-2 .55-4.09 1.16-4.08 1.12-4 1.28-4 1.29-2 .64-2 .73-8 2.93-7.86 3.27c-2.62 1.08-5.16 2.36-7.76 3.51a290.86 290.86 0 0 0-30 16.24 333.1 333.1 0 0 0-28.19 19.48c-4.51 3.52-9 7.1-13.29 10.83-1.09.93-2.15 1.87-3.22 2.82s-2.13 1.89-3.17 2.85-2.08 1.92-3.12 2.89-2.06 2-2.92 2.86l-.14.14a7.13 7.13 0 0 1-10.44-9.7zm18.88 36.58l.62-.95.54-.79c.36-.52.72-1 1.08-1.48.72-1 1.47-1.88 2.22-2.81 1.52-1.79 3.08-3.53 4.74-5.16a88.3 88.3 0 0 1 10.52-9 102.48 102.48 0 0 1 24.15-13.17 114.85 114.85 0 0 1 26.46-6.71 142.66 142.66 0 0 1 27-1c2.23.12 4.45.37 6.68.55l3.33.3 3.31.47c2.2.32 4.41.62 6.59 1l6.52 1.32 3.25.66 3.21.82 6.4 1.64c2.13.56 4.21 1.27 6.32 1.89s4.21 1.26 6.28 2c4.11 1.53 8.25 3 12.27 4.67l6 2.66c2 .91 4 1.76 5.9 2.8 3.86 2 7.72 4 11.47 6.22s7.38 4.58 11 7.06a3.78 3.78 0 0 1-3.28 6.72h-.15c-4.09-1.27-8-2.75-12-4.21-2-.77-4-1.39-6-2.1s-4-1.4-5.92-2.12c-3.94-1.42-7.93-2.65-11.85-4.05-2-.72-4-1.26-5.93-1.9l-5.92-1.88a199.75 199.75 0 0 0-48.23-8.79l-6-.12h-3l-3 .11c-1 0-2 .06-3 .12l-3 .27c-2 .17-4 .31-6 .65a107.59 107.59 0 0 0-23 5.72c-1.84.72-3.7 1.38-5.46 2.23l-2.69 1.21-2.62 1.35c-1.77.85-3.43 1.89-5.14 2.85-.85.49-1.65 1.05-2.48 1.57s-1.66 1-2.44 1.63a80.54 80.54 0 0 0-9.11 7.31c-1.43 1.31-2.78 2.68-4.09 4.07-.63.7-1.29 1.4-1.86 2.11-.3.36-.6.71-.86 1.06l-.68.88-.45.59a7.11 7.11 0 0 1-11.6-8.21zm.46 38.42l.71-.69.61-.57c.4-.37.8-.73 1.2-1.06.79-.7 1.59-1.34 2.39-2 1.62-1.25 3.29-2.42 5-3.53a76.16 76.16 0 0 1 10.66-5.77 82 82 0 0 1 11.4-4.12l2.94-.76 1.47-.36 1.5-.28 3-.55c1-.19 2-.26 3-.4a85.45 85.45 0 0 1 24.07.47l3 .46c1 .19 2 .43 2.92.65 1.93.47 3.89.86 5.76 1.49s3.8 1.13 5.65 1.79l5.51 2.11a141.57 141.57 0 0 1 38.61 24.92 205.49 205.49 0 0 1 30 33.48A2.73 2.73 0 0 1 1141 827a345.63 345.63 0 0 0-33.16-28c-1.42-1.09-2.95-2-4.4-3s-2.91-2-4.4-3l-4.52-2.77-2.26-1.38-2.31-1.25-4.6-2.54c-1.56-.78-3.15-1.49-4.72-2.24l-2.35-1.12-2.41-1-2.4-1c-.8-.32-1.58-.69-2.4-.93-12.91-4.67-26.48-6.64-39.61-5a78.54 78.54 0 0 0-9.74 1.86 76.21 76.21 0 0 0-9.39 3.17 73.43 73.43 0 0 0-8.91 4.36l-2.12 1.26-2 1.34c-.67.46-1.35.91-2 1.38l-.92.7-.74.58-.6.48a7.11 7.11 0 0 1-9.36-10.68zM431.6 740.13l-.55-1c-.21-.38-.44-.78-.69-1.18-.46-.8-1-1.6-1.52-2.4-1.08-1.58-2.18-3.17-3.39-4.7a86.12 86.12 0 0 0-7.8-8.76 98.17 98.17 0 0 0-18.65-14.4c-1.66-1.07-3.43-2-5.16-2.91s-3.56-1.75-5.34-2.61-3.64-1.58-5.47-2.36-3.72-1.42-5.61-2.07l-2.83-1-2.89-.81c-1.93-.54-3.84-1.14-5.82-1.54s-3.91-.94-5.89-1.33l-6-1a210.52 210.52 0 0 0-49.15-1c-16.58 1.45-33.13 4.47-49.74 7.93a3.77 3.77 0 0 1-2.15-7.19 251 251 0 0 1 50.23-14l6.53-.89 3.27-.44c1.09-.16 2.19-.29 3.29-.37 4.4-.34 8.79-.85 13.23-.85a162.74 162.74 0 0 1 26.71 1.2 135.92 135.92 0 0 1 26.4 5.94c2.16.73 4.32 1.42 6.43 2.31s4.26 1.64 6.3 2.68 4.15 1.91 6.14 3.07 4 2.16 6 3.42l2.92 1.83c1 .62 1.89 1.3 2.83 2s1.89 1.32 2.8 2l2.7 2.15 1.35 1.08 1.3 1.14 2.6 2.28 2.49 2.41 1.23 1.21 1.18 1.27a90.8 90.8 0 0 1 8.75 10.76q2 2.87 3.76 5.91c.58 1 1.16 2.06 1.69 3.15q.42.79.81 1.65l.4.87.44 1a7.11 7.11 0 0 1-12.73 6.25zm37.5-25.54l-2.34-3.35c-.82-1.14-1.64-2.29-2.49-3.43-1.67-2.28-3.36-4.56-5.1-6.8-3.49-4.48-7-9-10.68-13.28-7.29-8.71-15-17-23-25a314 314 0 0 0-25.19-22.44 256.54 256.54 0 0 0-27.5-19.09 201.93 201.93 0 0 0-61.57-24.61c-5.44-1.17-10.95-2.06-16.5-2.78-2.78-.29-5.57-.67-8.37-.83-1.4-.09-2.8-.25-4.21-.31l-4.22-.2c-1.41-.08-2.82-.08-4.24-.11s-2.83-.1-4.25-.06c-2.83 0-5.68.07-8.52.22-1.43.06-2.86.08-4.29.19l-4.28.31c-2.87.15-5.72.54-8.61.74h-.15a3.43 3.43 0 0 1-1.32-6.67 163.31 163.31 0 0 1 71.73-7.21c24.37 2.88 48 11.33 69.23 23.49l4 2.3 3.91 2.39c2.57 1.64 5.14 3.3 7.64 5 5 3.43 9.91 7.08 14.64 10.89a261.59 261.59 0 0 1 26.56 24.74 283.73 283.73 0 0 1 22.87 27.94c1.73 2.46 3.45 4.92 5.11 7.43s3.3 5 4.86 7.59 3.1 5.16 4.57 7.8c.73 1.32 1.45 2.66 2.16 4l1 2 1.05 2.16a7.14 7.14 0 0 1-12.26 7.22zM443.71 794l-1.39-1.61c-.51-.6-1.07-1.19-1.63-1.78l-1.69-1.76-1.78-1.71a86.29 86.29 0 0 0-7.66-6.25l-2-1.43-2.08-1.32c-1.35-.93-2.82-1.68-4.22-2.53s-2.9-1.52-4.38-2.21l-2.24-1-1.12-.5-1.15-.43a77.33 77.33 0 0 0-18.95-4.81 89.07 89.07 0 0 0-19.87-.3 117.37 117.37 0 0 0-20 3.62c-1.67.42-3.35.81-5 1.38l-5 1.53c-3.3 1.08-6.58 2.32-9.9 3.47-13.16 5-26.07 11.29-39.33 17.62a3.06 3.06 0 0 1-3.44-5 159.93 159.93 0 0 1 36.63-26.35c1.69-.88 3.44-1.66 5.17-2.49s3.44-1.71 5.25-2.38c3.59-1.39 7.13-2.93 10.88-4 1.86-.58 3.7-1.2 5.59-1.7l5.71-1.37c1.89-.5 3.86-.78 5.8-1.12s3.88-.7 5.87-.84 4-.43 5.93-.56l6-.15a93.47 93.47 0 0 1 12 .79 88.87 88.87 0 0 1 23.4 6.37 83.1 83.1 0 0 1 20.61 12.69 80.16 80.16 0 0 1 8.69 8.4l2 2.3c.64.8 1.27 1.58 1.88 2.41s1.2 1.65 1.78 2.52c.3.42.59.87.87 1.33l.44.7.49.83a7.1 7.1 0 0 1-11.49 8.26z"/><path class="cls-3" d="M788.78 405.56c-19.53 83-39.72 128.9-58.69 103.59-13.31-17.75-25.71-55.74-37.09-106.33 1.46-.13 2.91-.25 4.37-.36 2.71-.21 5.41-.37 8.11-.52.4 0 .81-.05 1.21-.05a424 424 0 0 1 55.22.75c1.26.11 2.53.2 3.79.32 1 .07 2 .16 3 .25l.73.08q9.83.9 19.35 2.27zm242.73 205.03c-46.07 29.15-81.66 45.34-81.94 26-.3-21.62 26-68 58-116.26q-.27 3.87-.53 7.65c-.58 8.42-.73 17.41 3.14 24.83 6 11.54 11.86 26.73 17.2 43.89 1.44 4.54 2.82 9.17 4.13 13.89z"/><path class="cls-2" d="M742.4 771.18c0 1.34.06 3 .16 4.46s.24 3.05.44 4.56a59.12 59.12 0 0 0 1.77 8.84c1.61 5.67 4.29 10.89 8.37 14.09a17.43 17.43 0 0 0 7 3.35 27.92 27.92 0 0 0 8.4.63c5.89-.27 12-1.92 18.14-3.67h.08a2.26 2.26 0 0 1 1.77 4.12q-2.16 1.29-4.4 2.49c-1.52.76-3.09 1.43-4.66 2.11s-3.25 1.16-4.91 1.68c-.85.22-1.71.43-2.57.62l-1.29.29-1.33.19c-.89.12-1.78.27-2.68.35l-2.75.07a20.14 20.14 0 0 1-2.79-.14l-1.41-.13c-.46 0-.93-.18-1.4-.27a25.92 25.92 0 0 1-10.62-4.63 29.21 29.21 0 0 1-7.53-8.62 42.58 42.58 0 0 1-4.13-10.08 59.78 59.78 0 0 1-1.78-10.35c-.16-1.72-.22-3.45-.24-5.18s0-3.39.21-5.3a4.07 4.07 0 0 1 8.12.35z"/><path class="cls-2" d="M742.39 770.59c.1 1 .14 1.86.18 2.78s0 1.78 0 2.67c0 1.77-.08 3.54-.26 5.31a55.16 55.16 0 0 1-2 10.61 40.14 40.14 0 0 1-4.56 10.23 29.16 29.16 0 0 1-8.12 8.42 27.24 27.24 0 0 1-10.89 4.29 36.61 36.61 0 0 1-11.15.09 19.73 19.73 0 0 1-2.66-.47l-2.62-.58c-1.7-.51-3.39-1-5-1.62s-3.23-1.31-4.79-2.07-3-1.62-4.54-2.48a2.23 2.23 0 0 1 1.57-4.11h.14c1.62.34 3.21.71 4.78 1.12l4.71 1c1.56.31 3.13.51 4.67.8l2.3.24a22.51 22.51 0 0 0 2.29.18l2.26.1c.75 0 1.48-.06 2.21-.09h1.1c.36 0 .72-.1 1.07-.15a20.81 20.81 0 0 0 2.12-.33 19.72 19.72 0 0 0 7.47-3.21c4.39-3.08 7.34-8.2 9.1-13.94a53.81 53.81 0 0 0 1.9-9c.2-1.53.33-3.09.44-4.64l.11-2.33v-2.36a4.07 4.07 0 0 1 8.11-.49z"/><path class="cls-3" d="M495.15 637.55c-.25 18.76-33.87 4-78-23.61q1.62-4.76 3.47-9.4a246.51 246.51 0 0 1 14.95-31.29 131.09 131.09 0 0 0 13.36-33.86c26.43 41.47 46.5 79.28 46.22 98.16zm512.97-339.7c-6.07 10.64-12.22 21.32-18.4 31.94-3.83 6.59-7.71 13.15-11.52 19.68-73.45 124-149.57 233.23-170 192.84-5.92-11.7-8.82-30.56-9.45-54.37a352 352 0 0 1 5.89-72.83c.4-2.19.81-4.48 1.24-6.83q7.26 1.32 14.24 2.83c1 .2 1.91.42 2.85.63.62.11 1.23.25 1.84.39A362 362 0 0 1 864 423.44l2.07.8c18.27-39.89 53.75-103.89 106.38-141.06 12.41-8.76 21.5-8.1 28-.49.47.54.91 1.13 1.36 1.74a38.11 38.11 0 0 1 4.06 7.4c.38.9.75 1.85 1.11 2.81s.79 2.1 1.14 3.21zM686.13 479.7c-.63 23.81-3.55 42.67-9.46 54.39-20.38 40.39-96.5-68.86-169.93-192.86-3.83-6.53-7.71-13.09-11.54-19.68q-7.76-13.33-15.43-26.73l19.46 10.64c5.69 3.76 11.11 7.72 16.33 11.82 2.09 1.63 4.13 3.28 6.15 5 38.58 32 64.1 70.65 80 100.5a322.18 322.18 0 0 1 53.79-14.87l.85-.16q11.65-2.16 23.37-3.55c.16.91.33 1.81.5 2.71a351.09 351.09 0 0 1 5.91 72.79z"/><path class="cls-4" d="M716.11 728.3l37.39.33c12.7.11 20.75 9.5 14.52 16.93L741.66 777a6.09 6.09 0 0 1-9.33.34l-30-31.87c-7.12-7.55.67-17.28 13.78-17.17z"/><path d="M717.82 754.4l9.62 10.83a5.8 5.8 0 0 0 3.31 2.26c5.18.87 8.92-5 10.38-9a4.16 4.16 0 0 0 .39-1.82 2.61 2.61 0 0 0-.62-1.24Q735.26 748 729.2 741c-2.23-2.58-9.12-6.19-13.3-.14-3.18 4.6-.4 10.92 1.92 13.54z" fill="#fff" opacity=".5"/><path class="cls-4" d="M452.18 505.39c0-.43-.06-.86-.1-1.29-3.41-38.58-5.77-78.1-5.52-112.26.2-27.09 2-50.8 6.3-68 2.87-11.64 6.85-20.3 12.17-25 21.85 26.44 77 96.53 85.07 140.37 7.84 42.41-64.48 60.25-97.92 66.18zm557.37-3.6c-35.86-7.34-95.87-25.58-88.69-64.36 8-43.37 63.82-115 86.18-142.11.38 1.08 1.23 4.16 1.4 4.37 11.67 40.31 6.29 126.76 1.11 202.1z"/><path class="cls-2" d="M944.55 441.77c.29-.7.69-1.72 1-2.66s.7-2 1-2.95l2.11-6c1.46-4 2.92-8 4.54-12 .79-2 1.57-4 2.41-5.94l1.24-3 1.28-2.94c1.73-3.91 3.52-7.81 5.55-11.57a5 5 0 0 1 9.58 1.75l2.5 62.88-8.21-3.61c5-4.61 10.44-8.81 15.92-12.9 2.76-2 5.54-4 8.38-6s5.73-3.81 8.7-5.58a2.35 2.35 0 0 1 3 3.54q-3.36 4-6.94 7.67c-2.37 2.48-4.8 4.89-7.26 7.27-4.94 4.73-10 9.36-15.35 13.58l-.3.23a4.88 4.88 0 0 1-7.91-3.84l-2.5-62.88 9.58 1.74a126.35 126.35 0 0 1-4.72 12.1l-1.33 3-1.41 2.93c-.92 2-1.92 3.88-2.93 5.8a128.52 128.52 0 0 1-6.48 11.39c-1.22 1.83-2.48 3.65-3.88 5.42-.68.89-1.43 1.75-2.2 2.61a17.92 17.92 0 0 1-2.78 2.54 1.82 1.82 0 0 1-2.73-2.18zm-455.87-56.22c.5.59 1.22 1.38 1.9 2.09s1.43 1.47 2.15 2.21l4.38 4.49c2.89 3 5.8 6.08 8.57 9.24 1.41 1.57 2.82 3.13 4.19 4.73l2.07 2.38 2 2.42c2.7 3.23 5.36 6.52 7.79 10a5 5 0 0 1-5.61 7.9l-54.73-21.52 6.66-5.9c2 6.83 3.54 13.79 4.92 20.78.66 3.51 1.3 7 1.84 10.56s1 7.09 1.35 10.68a2.35 2.35 0 0 1-4.49 1.16q-2.18-5-4-10c-1.24-3.35-2.39-6.73-3.51-10.12-2.18-6.78-4.24-13.6-5.77-20.56l-.08-.36a4.88 4.88 0 0 1 3.72-5.83 4.81 4.81 0 0 1 3 .3l54.74 21.52-5.61 7.9a118.54 118.54 0 0 1-8.63-9.46l-2-2.47-2-2.52c-1.32-1.67-2.58-3.4-3.84-5.14a125.23 125.23 0 0 1-7.09-10.78c-1.08-1.89-2.12-3.81-3.07-5.82-.47-1-.91-2-1.32-3.11a18.39 18.39 0 0 1-1-3.56 1.83 1.83 0 0 1 3.2-1.46z"/><path class="cls-6" d="M937.31 706.45c-3.67 20.75-17.76 39.3-39.52 44.15-37.88 8.46-70.12-3.69-97.85-27.51-12.09-10.39-28.68-21.2-16.43-42.64 16.7-29.23 56.74-62.44 96.33-52.3 25 6.41 48.94 25.82 56.15 51a60.84 60.84 0 0 1 1.32 27.3z"/><ellipse class="cls-2" cx="868.52" cy="689.74" rx="57.78" ry="61.08" transform="rotate(-36.03 868.502 689.732)"/><path class="cls-7" d="M801 658.49s-16.85 33.78-5.62 58.72"/><path class="cls-8" d="M923.43 736c32-24.35 31.48-34.42 8.1-68.53"/><path class="cls-6" d="M533.63 706.2c3.67 20.75 17.76 39.29 39.51 44.15 37.89 8.46 70.13-3.7 97.86-27.52 12.09-10.38 28.68-21.19 16.43-42.64-16.7-29.22-56.74-62.43-96.33-52.3-25 6.41-49 25.82-56.16 51a61 61 0 0 0-1.31 27.31z"/><ellipse class="cls-2" cx="602.42" cy="689.49" rx="61.08" ry="57.78" transform="rotate(-53.97 602.424 689.485)"/><path class="cls-7" d="M670 658.23S686.83 692 675.6 717"/><path class="cls-8" d="M547.51 735.75c-32-24.35-31.49-34.41-8.11-68.53"/><path d="M572.23 681.26c-2.86 6.16-5.28 12.68-5.51 19.56s2 14.21 7.26 18.92c3 2.67 6.65 4.34 10.27 6l14.36 6.47a1.61 1.61 0 0 0 1.08.21c.39-.12.6-.52.78-.88a14.36 14.36 0 0 0 1.89-6.08 11.73 11.73 0 0 0-2-5.94c-4.15-6.76-11.34-11.29-15.43-18.08a11.83 11.83 0 0 1-1.95-5.7c-.08-4.05 3.06-7.43 3.36-11.46.24-3.3-2.43-8.18-5.9-9.2-4.44-1.32-6.56 2.62-8.21 6.18zm284.62 49.23a47.41 47.41 0 0 1-16.44-6.88c-14.68-10.3 4.75-36.61 5.78-31.33 1.47 7.57.41 18.43 8.3 22.66 2.52 1.36 5.54 1.54 8 3 3.37 2 6.23 8.37 3 11.76-1.83 1.94-4.89 1.62-7.46 1-.39-.02-.78-.12-1.18-.21z" fill="#f7eed9" opacity=".25"/><path class="cls-10" d="M663 1051.16a105 105 0 0 1-4.35 9.91 126.06 126.06 0 0 1-46.18 50c-10.88 6.57-22.61 11.06-34.45 12.58a73.49 73.49 0 0 1-28.35-1.75 82.94 82.94 0 0 1-23-10.12c-11.23-7-21.39-16.52-30.74-27.15-.37-.42-.75-.83-1.11-1.26-14.05-16.21-26.27-34.91-37.56-51.55-21.59-31.82-39.6-71.86-41.05-110.8-2.09-56.07 55.84-97.78 109.69-82.5 24 6.81 44.51 22.11 62.22 39.25 5.74 5.55 11.84 11.84 18 18.71.78.87 1.56 1.76 2.34 2.65a346.3 346.3 0 0 1 24.2 30.75 254.68 254.68 0 0 1 20.62 34.95c1.84 3.83 3.54 7.7 5.08 11.58 6.11 15.37 9.81 31 9.72 46.29 0 1.66-.06 3.31-.15 5a80.14 80.14 0 0 1-4.93 23.46z"/><path class="cls-11" d="M663 1051.16a105 105 0 0 1-4.35 9.91 126.06 126.06 0 0 1-46.18 50c-10.88 6.57-22.61 11.06-34.45 12.58a73.49 73.49 0 0 1-28.35-1.75 82.94 82.94 0 0 1-23-10.12c-2.38-38.1 7.81-117.69 126.61-147 1.84 3.83 3.54 7.7 5.08 11.58 6.11 15.37 9.81 31 9.72 46.29 0 1.66-.06 3.31-.15 5a80.14 80.14 0 0 1-4.93 23.51z"/><path class="cls-3" d="M501.87 1076.71c-21.6-31.81-39.6-71.87-41.05-110.81-2.09-56.07 55.84-97.77 109.68-82.5 16.7 4.73 31.68 13.57 45.2 24.26a373.49 373.49 0 0 0-28.47-30.93C569.51 859.6 549 844.29 525 837.47 471.16 822.2 413.23 863.9 415.31 920c1.45 38.94 19.46 79 41.05 110.81 18.92 27.88 40.45 61.55 68.83 79.58-8.32-11.29-16.02-22.92-23.32-33.68z"/><path class="cls-10" d="M1050.57 1016c-.5.74-1 1.47-1.51 2.2s-1.22 1.74-1.83 2.59l-1.56 2.16a280.62 280.62 0 0 1-24.45 28.88c-2.05 2.13-4.13 4.27-6.24 6.47-9.56 9.91-19.7 20.36-30.44 29.92-.92.83-1.84 1.64-2.78 2.45-.46.41-.93.81-1.4 1.21-13.93 11.89-28.84 22.05-44.83 27.55-14.74 5.08-30.39 6.19-47 1a79.17 79.17 0 0 1-17-7.64h-.07c-26.69-15.88-47.43-47.08-53.12-77-2.91-15.39-.91-30.82 4.46-45.8.37-1 .75-2 1.16-3.08 9-23 25.68-44.81 44.34-63.66 6.69-6.75 13.63-13.1 20.56-19a361.35 361.35 0 0 1 31.49-24c20.09-13.63 42.55-25 67-27.55 54.81-5.69 103.94 44.58 92.41 98.62a97.34 97.34 0 0 1-.92 4c-.12.52-.25 1-.39 1.55s-.33 1.24-.49 1.85c-5.38 20.08-15.27 39.53-27.39 57.28z"/><path class="cls-11" d="M981.76 1090.66c-.46.41-.93.81-1.4 1.21-13.93 11.89-28.84 22.05-44.83 27.55-14.74 5.08-30.39 6.19-47 1a79.17 79.17 0 0 1-17-7.64h-.07c-26.69-15.88-47.43-47.08-53.12-77-2.91-15.39-.91-30.82 4.46-45.8.37-1 .75-2 1.16-3.08 41.5-4.9 112.75 3.82 157.8 103.76z"/><path class="cls-3" d="M1050.57 1016c-.5.74-1 1.47-1.51 2.2s-1.22 1.74-1.83 2.59l-1.56 2.16a280.62 280.62 0 0 1-24.45 28.88c-2.05 2.13-4.13 4.27-6.24 6.47-9.56 9.91-19.7 20.36-30.44 29.92q-2.07 1.86-4.18 3.66c-13.93 11.89-28.84 22.05-44.83 27.55.39-.4.8-.79 1.19-1.18 7-7 13.73-14.06 20.19-20.72 6-6.23 12-12.9 17.59-20 19.42-24.17 35.61-52.64 41.91-82.15 11.71-54.87-38.18-105.92-93.84-100.15a118.76 118.76 0 0 0-33.68 8.93 361.35 361.35 0 0 1 31.49-24c20.09-13.63 42.55-25 67-27.55 54.81-5.69 103.94 44.58 92.41 98.62a97.34 97.34 0 0 1-.92 4c-.12.52-.25 1-.39 1.55s-.33 1.24-.49 1.85c-5.47 20.15-15.34 39.6-27.42 57.37z"/></svg>