<svg xmlns="http://www.w3.org/2000/svg" viewBox="0 0 1451.34 1451.34"><defs><style>.cls-1{fill:#f7e1c4}.cls-2,.cls-4{fill:#392930}.cls-2{opacity:.15}.cls-3{fill:#f4eee4}.cls-5{fill:#ec9bb5}.cls-7,.cls-8{fill:#9ede2e}.cls-7,.cls-8,.cls-9{stroke:#392930;stroke-width:10.95px}.cls-7{stroke-miterlimit:10}.cls-8,.cls-9{stroke-linecap:round;stroke-linejoin:round}.cls-9{fill:none}.cls-12{fill:#8fb833}.cls-13{fill:#78ab1d}.cls-14{fill:#694b30}.cls-15{fill:#5a4130}</style></defs><g id="Cat"><path class="cls-1" d="M1276.25 627.15c-14.17 14.81-32.53 19.64-51.61 24.6-6.06 1.57-12.2 3.16-18.31 5.09-10.09 3.2-20.08 7.29-29.45 13.79a82 82 0 0 0-9.64 7.82c-41.7 39.28-57 107.3-63.93 177.21-1.66 16.69-2.85 33.52-3.82 50.06-2.4 41.31-3.4 81-6.85 113.41 0 .15 0 .31-.05.46a386.71 386.71 0 0 1-7.06 42.49c-13.52 60.75-42.13 123.89-83.42 165a101.39 101.39 0 0 1-12 10c-47 34.2-155.14 67.39-173.9-5.81-17.64-68.92 86-65.4 119.28-90 20.59-15.2 36.33-37.85 47.86-63.48 14.46-32.12 22.31-68.93 24.84-101.75.54-7.25.85-14.29.9-21.06.32-40.15-1.53-79.14-1.75-117.57-.08-14.56.07-29.06.65-43.52 1.44-35.21 5.47-70.14 15.09-105.29q3.15-11.47 7.12-23 3.19-9.24 7.46-18.48a238.92 238.92 0 0 1 29.12-47.29c2.52-3.22 5.15-6.39 7.86-9.5a236.19 236.19 0 0 1 24.6-24.51c.64-.57 1.27-1.1 1.91-1.65q3-2.48 6-4.83c4.72-3.69 9.56-7.18 14.52-10.42 35.82-23.43 77.65-34.39 119.25-21.78 42.37 12.79 70.56 63.21 35.33 100.01z"/><path class="cls-2" d="M1176.89 670.62a83.25 83.25 0 0 0-9.66 7.83c-76.64 72.22-63.94 241.46-74.64 341.14-7.73 72-39.4 156.64-90.48 207.43a100.45 100.45 0 0 1-12 10c15.54-30 6.86-68.37 1.55-99.88-2.74-16.3-7.22-33.77-8.28-50.15a82.17 82.17 0 0 1 0-9.29c14.45-32.11 22.31-68.93 24.84-101.74 18.94-59.06 42.4-116.78 56.94-177.14 9-37.43 26.85-73.61 55.16-100.28 17.18-16.19 37-22.67 56.57-27.92z"/><path class="cls-3" d="M992.34 1139.17a370.63 370.63 0 0 1-8.57 71 282.06 282.06 0 0 1-10.57 35.92q-1.32 3.57-2.74 7.08a237.29 237.29 0 0 1-21.52 41.42c-26.18 40-68.08 66.19-116.8 81.84a368.93 368.93 0 0 1-48.37 11.85c-.59.12-1.19.22-1.79.32-5.05.89-10.13 1.67-15.25 2.38l-2.8.37c-1.28.17-2.57.34-3.86.49l-1.79.2c-.62.09-1.24.17-1.86.23-3.06.35-6.11.68-9.18 1-9.63.93-19.32 1.56-29 2-12.74.5-25.5.55-38.17.21-19.54-.55-38.86-2-57.52-4.34q-3.31-.39-6.6-.83c-7.06-1-14-2-20.84-3.17-16.55-2.82-32.36-6.25-47.08-10.17-201.53-53.59-177.67-258.74-122.23-429.71 16-49.18 34.53-95.54 51.09-134.63 7.84-18.48 15.2-40.68 22.86-64.47 10.51-32.61 21.57-68.21 35.2-101.35 2.28-5.53 4.63-11 7-16.37a366.35 366.35 0 0 1 18.12-35.19c.87-1.46 1.74-2.91 2.63-4.34 8.47-13.67 17.81-26 28.27-36.33a120.69 120.69 0 0 1 29.85-22c63.65-32.65 119.4-17 164.6 20.3a263 263 0 0 1 34 34.14c1.55 1.84 3.07 3.71 4.56 5.59A365.23 365.23 0 0 1 847.14 625c2.1 3.3 4.16 6.63 6.15 10a482.47 482.47 0 0 1 38.06 80l4 10.74c1.92 5.24 3.89 10.6 5.89 16l.08.21c23.29 63.5 50.47 139.64 69.07 217.63v.09q2.79 11.75 5.33 23.53c5.69 26.58 10.24 53.24 13.17 79.57a547 547 0 0 1 3.45 76.4z"/><path class="cls-2" d="M572.65 1285.74c-58.25-72.68-64-137.59-64.91-214.94-8 79.09-10.73 143.1 39.46 223.61 17.4 27.91 67.73 72.4 41.75 106.77a42.8 42.8 0 0 1-4.63 5.2c17.23 1.31 32.85-3.25 42.37-19.54 21.75-37.19-33.48-75.44-54.04-101.1z"/><path class="cls-1" d="M611.39 1404.33c-24.18 41.38-87.73 7.07-116.94-6.92l-.55-.28c-1-.48-2.08-1-3.13-1.52-45.23-22.36-95.89-64.14-125.79-113-10.09-16.47-17.8-33.74-22.17-51.34q-1.12-4.5-1.93-9c-4.5-25.08-4.53-53.42-1.74-81.92a541 541 0 0 1 18.59-95.14c.8-2.77 1.62-5.5 2.43-8.19 34.47-112.32 130.2-132.18 144.86 3 3.46 31.81 3.16 60.25 3 86.85v1.34c-.07 9.3-.11 18.4 0 27.35.12 7.69.38 15.28.87 22.78 2.78 41.39 13 80.63 48.49 124.91 2.88 3.6 6.45 7.44 10.41 11.5q1.43 1.49 2.94 3c24.11 24.45 58.61 55.87 40.66 86.58z"/><path class="cls-2" d="M935.38 950c-23 7.18-40.74 27.25-45.14 78.49q-.37 4.24-.61 8.78c-.79 15-1.13 29-1.32 42.14-.42 29.68 0 55.44-2.26 80.12 0 .39-.06.78-.11 1.16a262.7 262.7 0 0 1-5.42 34.82c-5.23 22.92-14.22 46.11-29.79 72-.35.57-.68 1.14-1 1.7q-6.54 10.69-14.64 22.06c-8.44 11.82-23.5 26.47-35.64 42.25-1.55 2-3.06 4-4.48 6.09-11.64 16.58-18.82 34.11-11 50.73a39.78 39.78 0 0 0 2.75 4.87 38.76 38.76 0 0 0 12.79 12.37c-11.92 1-23.11-.69-32.09-7.09a36.29 36.29 0 0 1-7.14-6.71 42.39 42.39 0 0 1-3.94-5.67 36.1 36.1 0 0 1-4.42-11.67c-6.17-33.37 40-66.45 58.46-89.43a248.72 248.72 0 0 0 21.06-30.47c17.28-29.72 24.16-57.79 26.82-86.71 4-43.84-1.68-89.62 4.44-146 5.83-53.72 36.83-67.29 62.38-72.13 3.54-.7 7.01-1.24 10.3-1.7z"/><path class="cls-1" d="M1039.69 1223.59c-.13.76-.26 1.53-.4 2.29-3.57 19.87-11.59 39.4-22.65 58-30.38 51-83.62 94.61-130.36 116.92-7.53 3.59-17.46 8.63-28.45 13.37l-.33.14c-31.17 13.42-70.76 24.37-88.71-6.33a37.12 37.12 0 0 1-3.37-7.48 33.48 33.48 0 0 1-1.49-7.41c-1.61-18.47 12.1-36.75 27.44-53.2l.84-.89c1.74-1.85 3.5-3.68 5.26-5.47 9.58-9.8 19.08-18.81 25.36-26.65a241.24 241.24 0 0 0 25-37.6l.93-1.76c12.4-23.93 18.34-46.92 21.13-70.33.92-7.76 1.49-15.56 1.85-23.47.15-3.11.24-6.23.32-9.38.06-2.5.11-5 .14-7.55.23-19.75-.37-40.25 0-62.27q.09-6.63.34-13.45.3-9.29 1-18.94.6-9 1.62-18.47c.53-4.86 1.16-9.49 1.88-13.94 0-.1 0-.2.06-.3 7.47-45.41 25.14-70.3 46-77.76 15-5.36 31.62-1.72 47.29 9.8 12.59 9.23 24.54 23.53 34.54 42.31a209.31 209.31 0 0 1 15.11 36.88c11.84 38.64 21.76 87.23 22.82 132.6a268.8 268.8 0 0 1-3.17 50.34z"/><path class="cls-2" d="M1103.32 855.65c-1.67 16.7-2.86 33.53-3.83 50.08-27.19 12.18-54.38 20.25-44.71-1.76 7.89-18 27.74-34.61 47.54-47.67zm-10.68 163.48c0 .15 0 .31-.05.46a387.11 387.11 0 0 1-7.06 42.49c-2.68-1.48-5.45-3-8.27-4.66-29.36-16.9-63.15-40.24-35.74-45.25 14.99-2.75 33.38.93 51.12 6.96zm-52.95 204.45c-.12.77-.25 1.54-.39 2.3-3.58 19.86-11.6 39.41-22.66 58-10.55-18.45-23.58-32.49-38.17-29.57-15.7 3.14-18.24-4.81-15.79-15.26 6.37-27.18 37.48-40.22 61.84-26.59a78.28 78.28 0 0 1 15.17 11.12zm-530.83-45.26c-17.5 3.55-41.72 2.42-75.25-7.32-88.06-25.62 10.26-37.88 74.35-42.81-.07 9.3-.11 18.4 0 27.35.14 7.69.4 15.28.9 22.78zm363.69-97.27c.21-6.19.52-12.49 1-18.94q.62-9.06 1.63-18.48.79-7.26 1.89-13.93c0-.1 0-.2.05-.3 16.53-2.17 38.15-.69 66.42 6.7 87.01 22.78-6.97 37.9-70.99 44.95zm-2.63 116.12c.92-7.76 1.5-15.57 1.86-23.47.25-5.59.38-11.22.45-16.93 4.23.9 8.63 1.93 13.21 3.13 63 16.49 31.15 28.98-15.52 37.27z"/><path class="cls-1" d="M946.26 753.3c-.07 3.43-.14 7-.41 10.49a73.13 73.13 0 0 1-.33 3.32c-.91 7.46-1.75 14.44-3.21 22-1.27 6.68-3.08 14.15-4.87 20.92-.12.42-.24.91-.38 1.36-3.34 11.2-7.12 22.68-12 33.31-8.61 18.56-20.2 37-33.55 51.71-20.77 22.92-44.17 40.27-70.56 55-3.33 1.86-5.65 2.84-8.89 4.52-1.78.84-3.58 1.67-5.37 2.45-.65.29-1.31.57-1.94.83-1.16.5-2.33 1-3.47 1.47-3.17 1.29-6.37 2.52-9.55 3.72-.63.23-1.25.45-1.82.64-3.52 1.23-7.06 2.4-10.58 3.44-1.19.36-2.22.64-3.37 1-.58.17-1.08.3-1.67.46s-1.24.35-1.86.49l-.35.09-1.48.37-1.82.45-1.79.4c-.59.15-1.22.28-1.81.4-2.79.57-5.59 1.11-8.37 1.54-.55.09-1 .14-1.54.21a18.33 18.33 0 0 0-3.63.48l-1.49.17c-1.55.18-3.1.29-4.65.39l-1.5.09-1.51.07h-5.32c-.91 0-1.42 0-2.27-.08h-1c-.51 0-1.31-.05-1.9-.12l-1.89-.15-1.73-.21c-.56-.06-1.23-.16-1.7-.23l-1.06-.15a11.93 11.93 0 0 1-1.19-.24l-1.2-.21-1.17-.26c-.4-.1-.78-.15-1.18-.26-.74-.18-1.49-.39-2.23-.6-.37-.11-.75-.21-1.11-.33l-1.14-.25a52.65 52.65 0 0 1-6.49-2.72l-1.14-.6a34.91 34.91 0 0 1-3.34-2.12c-.47-.32-.91-.66-1.34-1h-.07c-.27-.23-.68-.56-.93-.78s-.57-.5-.71-.64-.05 0-.12-.1 0 0-.11-.11-.54-.5-.64-.59l-.08-.07a.9.9 0 0 1-.1-.09.41.41 0 0 0-.1-.11c-.08-.07-.26-.28-.37-.39l-.36-.38c-.11-.12-.59-.65-.66-.76-.22-.29-.44-.52-.67-.79l-.63-.83c-.23-.3-.48-.65-.71-1s-.39-.62-.64-1-.43-.7-.63-1.08c-.11-.18-.21-.36-.28-.49-.19-.38-.39-.74-.5-1s0 0-.07-.17a2.91 2.91 0 0 1-.17-.35c-.09-.23-.27-.57-.4-.89s-.34-.82-.48-1.19a.11.11 0 0 0 0-.06c0-.11-.26-.74-.32-.84v-.06a5.43 5.43 0 0 1-.34-.79c-.09-.27-.14-.51-.25-.85s-.26-.87-.34-1.26-.19-.84-.26-1.2-.12-.66-.19-1c-.22-1.43-.38-2.88-.46-4.32v-.55a.83.83 0 0 1 0-.16v-.19a1.56 1.56 0 0 1 0-.24v-.94a13.43 13.43 0 0 1 0-1.39c0-.61.06-1.56.12-2.25 0-.33.06-.81.09-1.1s.06-.35.09-.63.07-.61.12-.95c.14-1 .32-2 .52-3.08.11-.53.22-1 .36-1.62s.31-1.34.49-2c.28-1 .59-2.15.93-3.2l.4-1.29c.13-.38.2-.51.33-.91s.31-.91.47-1.34v-.06c.17-.44.33-.92.52-1.38.4-1 .83-2.08 1.28-3.11.14-.33.31-.67.46-1s.29-.68.45-1c.44-1 .89-1.88 1.37-2.85.13-.28.25-.52.42-.87s.44-.8.66-1.22c.58-1.13 1.21-2.32 1.85-3.45.31-.55.64-1.12 1-1.69l.12-.18c.22-.4.46-.82.7-1.22l.08-.12c.27-.45.46-.74.75-1.21s.54-.89.91-1.48 1-1.63 1.45-2.25.69-1 1.08-1.62l.06-.1c.06-.1.34-.49.4-.59s0-.06.08-.11c.35-.51.65-.94 1-1.46s.73-1 1.11-1.55c.83-1.19 1.68-2.35 2.56-3.52.39-.52.77-1.05 1.2-1.61 1.16-1.49 2.34-3 3.55-4.52.81-1 1.67-2.08 2.53-3.11l1-1.22c1.8-2.1 3.63-4.2 5.51-6.24.44-.47.9-.93 1.32-1.4l.19-.19c.4-.5 1.32-1.33 1.71-1.8a54.77 54.77 0 0 1 7.8-7.22l.34-.2a1.07 1.07 0 0 1 .15-.1s-.08 0 0 0c2.91-1.91 5.39-4.33 8.13-6.39 4.45-3.36 9.06-6.61 13.58-9.8a366.47 366.47 0 0 0 29.42-22.5c1.27-1.1 2.52-2.15 3.64-3.32 2.1-2.18 4.28-4.13 6.21-6.45.74-.89 1.44-1.78 2.12-2.68a82.73 82.73 0 0 0 13.9-28 25.56 25.56 0 0 0 .74-2.85 194.67 194.67 0 0 0 3-19.92c.26-2.94.45-6.12.56-9.82.6-19.92-3.83-39.51-2.13-61.48 2.53-32.66 12.48-62.12 51.72-64.15 43.45-2.26 61.91 39.34 69.85 79.44a322 322 0 0 1 5.08 39.63c.22 3.02.48 7.41.41 10.71zM652.72 860.83s.02.01 0 0z"/><path class="cls-1" d="M700.36 940.54v.93a1.28 1.28 0 0 0 0 .19v.71c-.08 1.44-.25 2.89-.47 4.32-.06.35-.11.64-.19 1s-.16.82-.25 1.2-.24.93-.35 1.26-.15.58-.25.85-.09.37-.17.61v.06c-.05.1-.27.73-.32.84s0 .07 0 .07c-.14.37-.35.86-.48 1.19s-.31.66-.4.89-.09.21-.17.35 0 0-.07.17-.31.58-.5 1c-.07.13-.17.31-.26.49-.22.38-.48.82-.65 1.08s-.42.66-.65 1-.47.69-.71 1-.4.54-.63.83-.43.49-.66.78l-.05.06c-.07.11-.55.64-.66.76-.09.09-.27.27-.36.38l-.37.39-.11.11s-.07 0-.11.09l-.07.07c-.11.09-.53.5-.64.59s0 0-.11.11 0 0-.13.1-.46.44-.71.64-.65.55-.93.78h-.06c-.44.34-.88.68-1.34 1a34.91 34.91 0 0 1-3.34 2.12c-.4.2-.74.39-1.14.6a52.15 52.15 0 0 1-6.5 2.72l-1.07.35-1.11.33c-.74.21-1.5.42-2.24.6-.39.11-.77.16-1.17.26l-1.18.26c-.39.08-.8.13-1.2.21a11.39 11.39 0 0 1-1.19.24l-1.05.15c-.47.07-1.16.17-1.7.23l-1.74.21-1.88.15c-.59.07-1.42.09-1.9.12s-.61 0-1 0c-.84 0-1.37.06-2.26.08s-2.07 0-3.06 0h-2.27l-1.5-.07c-.49 0-1-.05-1.51-.09-1.54-.1-3.09-.21-4.64-.39l-1.49-.17a18.33 18.33 0 0 0-3.63-.48c-.53-.07-1-.12-1.54-.21-2.8-.43-5.58-1-8.37-1.54-.59-.12-1.22-.25-1.82-.4l-1.79-.4-1.81-.45c-.55-.13-1-.23-1.48-.37l-.36-.09c-.61-.14-1.26-.33-1.85-.49s-1.09-.29-1.67-.46c-1.15-.34-2.19-.62-3.38-1-3.51-1-7-2.21-10.57-3.44-.57-.19-1.21-.41-1.83-.64-3.17-1.2-6.37-2.43-9.54-3.72-1.15-.47-2.32-1-3.48-1.47l-1.94-.83c-1.78-.78-3.59-1.61-5.37-2.45-3.23-1.68-5.56-2.66-8.88-4.52-26.4-14.78-49.8-32.13-70.57-55A204 204 0 0 1 472 853.33c-1.49-2.85-2.89-5.73-4.22-8.6-4.93-10.63-8.71-22.11-12.05-33.31-.14-.45-.26-.94-.37-1.36-.82-3.1-1.65-6.35-2.41-9.61-.93-3.84-1.78-7.69-2.47-11.31-1.45-7.59-2.3-14.57-3.22-22a137 137 0 0 1-.72-13.81c-.07-3.27.19-7.69.4-10.75 3.17-45.24 16.27-122.12 74.92-119.07 16 .83 27.17 6.23 34.92 14.55 11.22 12.07 15.32 30.28 16.82 49.6.07 1 .14 2 .18 3 1.12 20.79-2.89 39.51-2.32 58.53.39 12.19 1.5 18.79 3.54 29.74a28 28 0 0 0 .73 2.85 82.54 82.54 0 0 0 16 30.65c1.92 2.32 4.11 4.27 6.21 6.45 1.12 1.17 2.36 2.22 3.63 3.32A368.42 368.42 0 0 0 631 844.62c4.51 3.19 9.14 6.44 13.58 9.8 2.74 2.06 5.21 4.47 8.12 6.39l.17.13.34.2a55.31 55.31 0 0 1 7.8 7.22c.39.47 1.31 1.3 1.7 1.8l.19.19c.43.47.89.93 1.31 1.4 1.9 2 3.73 4.14 5.53 6.24l1 1.22c.85 1 1.71 2.09 2.53 3.11 1.21 1.51 2.39 3 3.55 4.52.43.56.8 1.09 1.19 1.61.88 1.17 1.73 2.33 2.57 3.52.37.53.75 1 1.1 1.55l1 1.46.07.11c.07.11.34.5.41.59l.06.1c.38.57.66 1 1.07 1.62s1.08 1.66 1.45 2.25.62 1 .91 1.48.49.76.75 1.21a.94.94 0 0 1 .09.12c.24.4.48.82.69 1.22l.12.18c.34.57.68 1.14 1 1.69.64 1.13 1.26 2.32 1.85 3.45.22.42.47.88.66 1.22l.42.87c.47 1 .93 1.88 1.37 2.85.16.34.3.68.45 1s.32.67.46 1c.45 1 .87 2.07 1.28 3.11.18.46.35.94.51 1.38v.06c.17.43.35.94.48 1.34s.21.53.33.91.27.87.41 1.29c.34 1 .65 2.16.93 3.2.17.66.35 1.4.49 2s.24 1.09.35 1.62c.21 1 .39 2.06.53 3.08 0 .34.09.65.12.95s0 .33.09.63.06.77.08 1.1c.07.69.11 1.64.13 2.25s0 .85 0 1.39a1.78 1.78 0 0 1 .12.29z"/><path class="cls-2" d="M824 594.25c-77.15 32-185.59 37.08-263.9 2.66.87-1.46 1.74-2.91 2.63-4.35 8.47-13.67 17.81-26 28.27-36.33 61.06 17.32 133.4 15.2 194.45-1.72a263.11 263.11 0 0 1 34 34.15c1.55 1.84 3.08 3.71 4.55 5.59z"/><path class="cls-1" d="M444.54 438.52a247.33 247.33 0 0 1-4-39.63 205.22 205.22 0 0 1 5.83-53.21c1.41-5.62 3-11.08 4.9-16.42q1.23-3.64 2.66-7.22a188.83 188.83 0 0 1 11.48-24 100.49 100.49 0 0 0 10.25-26c.67-2.75 1.23-5.53 1.66-8.32a102 102 0 0 0 1.19-17.83c0-2.12-.14-4.24-.31-6.36 0-.33-.05-.64-.08-1-2.46-26.68-4.19-54-4.24-78.07v-4.97c.15-20 1.57-37.57 4.84-50.28 2.2-8.61 5.25-15 9.34-18.47a12 12 0 0 1 11.31-2.5 24.07 24.07 0 0 1 6.44 2.79c2.9 1.73 5.74 3.54 8.5 5.38 4.36 2.89 8.52 5.93 12.53 9.08 1.61 1.25 3.17 2.52 4.72 3.81 29.62 24.55 49.22 54.24 61.43 77.15a247.38 247.38 0 0 1 41.3-11.41l.65-.13q9-1.65 18-2.72c.4-.06.82-.11 1.23-.15 2.37-.28 4.73-.52 7.1-.73l1.82-.17c1.12-.09 2.24-.19 3.36-.27 2.08-.17 4.15-.29 6.22-.4h.93a324.71 324.71 0 0 1 42.4.53c1 .08 1.94.15 2.91.24l2.32.2.56.05q7.53.71 14.85 1.75c.63.08 1.27.16 1.89.26q5.73.81 11.28 1.83t10.93 2.17c.74.15 1.47.32 2.19.48.47.09.94.2 1.41.31a276.33 276.33 0 0 1 30.09 8.71l1.59.62c14-30.62 41.26-79.76 81.67-108.3 9.53-6.72 16.5-6.21 21.5-.37.36.41.7.87 1 1.33a29.44 29.44 0 0 1 3.17 5.72c.29.69.57 1.42.85 2.16s.56 1.61.83 2.46c.08.24.15.48.23.72 4 13.33 5.39 33.49 5.36 56.71v1.69c-.13 28.27-2.36 60.91-4.51 91.09-.15 2.08-.29 4.16-.44 6.22-.17 2.23-.32 4.43-.48 6.61-.19 2.63-.36 5.22-.56 7.76-.14 2-.28 3.93-.4 5.87-.45 6.47-.56 13.37 2.4 19.06 4.61 8.86 9.11 20.52 13.21 33.7 1.07 3.45 2.13 7 3.13 10.63 3 10.74 5.72 22.19 8 33.77 6.3 31.79 6.66 64.26 6.48 85.87-1.31 158.42-453.29 213.3-492.92-7.8z"/><path class="cls-4" d="M873.38 397.34c1.67-1.91 3.21-3.53 4.85-5.22s3.28-3.29 5-4.88c3.36-3.2 6.83-6.25 10.39-9.2a232.08 232.08 0 0 1 22.36-16.41 205.27 205.27 0 0 1 50.3-23.74 165.34 165.34 0 0 1 55.37-7.63c1.17.06 2.34.06 3.51.15l3.5.33 3.49.33c1.16.14 2.33.17 3.48.41 4.61.81 9.24 1.41 13.74 2.64a142.3 142.3 0 0 1 26.25 9 3.54 3.54 0 0 1-2.25 6.68h-.18c-8.62-2.08-17.13-4.23-25.81-5.3-4.3-.75-8.65-1-13-1.43-2.16-.18-4.34-.2-6.5-.31l-3.25-.13h-3.25a168 168 0 0 0-51.13 8l-3.1 1c-1 .32-2.07.66-3.09 1.05l-6.13 2.32-6 2.51c-2 .83-4 1.81-6 2.7a223.83 223.83 0 0 0-23.05 12.46 253.83 253.83 0 0 0-21.64 15c-3.46 2.7-6.89 5.45-10.2 8.32-1.67 1.42-3.3 2.88-4.91 4.35-.82.73-1.6 1.47-2.39 2.21s-1.58 1.53-2.24 2.2l-.12.11a5.47 5.47 0 0 1-8-7.45zm14.5 28.08l.47-.72.42-.61c.27-.4.55-.77.83-1.14.55-.75 1.13-1.44 1.7-2.15 1.17-1.38 2.37-2.72 3.64-4a70.74 70.74 0 0 1 8.09-6.92 78 78 0 0 1 18.53-10.13 88.41 88.41 0 0 1 20.31-5.15 109.73 109.73 0 0 1 20.71-.77c1.72.1 3.42.28 5.13.42l2.56.24 2.54.36c1.69.24 3.38.47 5.06.75l5 1 2.5.51 2.46.62 4.92 1.26c1.63.44 3.23 1 4.85 1.46s3.23 1 4.82 1.51l4.73 1.76 2.36.88c.79.29 1.57.6 2.33.95l4.59 2.05c1.52.69 3.06 1.35 4.53 2.15 3 1.54 5.93 3.09 8.8 4.77s5.67 3.51 8.41 5.41a2.91 2.91 0 0 1-2.52 5.16h-.11c-3.14-1-6.18-2.11-9.22-3.23-1.5-.6-3-1.07-4.57-1.61s-3-1.1-4.54-1.64l-9.1-3.11c-3-1-6.07-1.93-9.1-2.9a153.47 153.47 0 0 0-37-6.74 108 108 0 0 0-18.45.83 82.35 82.35 0 0 0-17.67 4.39c-1.41.55-2.83 1.05-4.19 1.71l-2.07.93-2 1a64.23 64.23 0 0 0-7.73 4.63 59.48 59.48 0 0 0-7 5.62c-1.09 1-2.13 2.07-3.14 3.13-.48.54-1 1.08-1.42 1.63q-.36.4-.66.81l-.52.68-.35.44a5.46 5.46 0 0 1-8.9-6.3zm.35 29.5l.54-.53.47-.44c.31-.28.62-.56.92-.81.61-.54 1.22-1 1.84-1.53 1.25-1 2.53-1.85 3.83-2.71a61.86 61.86 0 0 1 26.07-9.39 65.71 65.71 0 0 1 18.48.35l2.27.36c.76.15 1.5.33 2.24.5 1.49.36 3 .66 4.43 1.14s2.92.87 4.34 1.38l4.23 1.62A108.31 108.31 0 0 1 987.57 464a157.23 157.23 0 0 1 23 25.7 2.09 2.09 0 0 1-3.14 2.74A264.52 264.52 0 0 0 982 470.85c-1.09-.83-2.27-1.54-3.38-2.33s-2.23-1.57-3.38-2.31l-3.47-2.12-1.69-1.09-1.78-1-3.53-1.94c-1.2-.6-2.42-1.15-3.62-1.73l-1.81-.85-1.85-.73c-1.24-.47-2.44-1-3.69-1.46a65.8 65.8 0 0 0-30.41-3.84 55.81 55.81 0 0 0-14.68 3.86 54.05 54.05 0 0 0-6.84 3.34c-1.1.63-2.17 1.3-3.2 2-.51.35-1 .7-1.52 1.06-.25.18-.48.36-.71.54l-.56.44-.47.37a5.46 5.46 0 0 1-7.18-8.2zm-425.36-29.23l-.42-.76c-.17-.29-.34-.6-.53-.9-.36-.61-.78-1.23-1.17-1.84-.83-1.22-1.68-2.44-2.6-3.61a66.84 66.84 0 0 0-6-6.73 75.46 75.46 0 0 0-14.3-11.06 86.42 86.42 0 0 0-16.56-7.64l-2.18-.75-2.22-.63c-1.48-.41-2.95-.87-4.46-1.18s-3-.72-4.53-1l-4.59-.79a161.61 161.61 0 0 0-37.73-.75 326.64 326.64 0 0 0-38.19 6.09 2.9 2.9 0 0 1-1.65-5.53 193.34 193.34 0 0 1 38.56-10.77l5-.68c1.67-.2 3.34-.5 5-.62 3.38-.26 6.75-.65 10.16-.65a124.7 124.7 0 0 1 20.5.92 105 105 0 0 1 20.28 4.56 88.76 88.76 0 0 1 19.06 8.82l2.24 1.4c.74.47 1.46 1 2.18 1.5s1.45 1 2.15 1.56l2.07 1.65c1.41 1.06 2.69 2.3 4 3.45s2.58 2.43 3.76 3.75a69.5 69.5 0 0 1 6.73 8.26q1.53 2.2 2.89 4.54c.44.8.88 1.58 1.29 2.42.21.41.42.83.62 1.27l.31.66.34.79a5.46 5.46 0 0 1-9.79 4.81zm28.79-19.61c-1.13-1.62-2.43-3.48-3.71-5.19s-2.59-3.51-3.92-5.23c-2.67-3.45-5.39-6.86-8.2-10.19-5.6-6.68-11.52-13.07-17.68-19.16a244 244 0 0 0-19.32-17.24l-5.12-3.91c-1.71-1.31-3.49-2.5-5.23-3.76s-3.55-2.39-5.34-3.56l-2.69-1.76c-.9-.57-1.83-1.09-2.75-1.64l-2.76-1.62c-.92-.55-1.84-1.09-2.79-1.56l-5.65-3c-3.86-1.78-7.68-3.7-11.66-5.2l-3-1.2c-1-.41-2-.7-3-1.06-2-.68-4-1.43-6.05-2l-6.12-1.8c-.51-.15-1-.3-1.54-.43l-1.56-.33-3.13-.69-3.14-.69c-1-.24-2.11-.33-3.16-.52l-6.36-1-6.43-.61c-1.08-.08-2.15-.25-3.23-.27l-3.24-.08c-2.16 0-4.34-.21-6.52-.18s-4.35.16-6.54.2c-1.09 0-2.2 0-3.29.1l-3.28.3c-2.2.17-4.4.37-6.62.5h-.18a2.62 2.62 0 0 1-.95-5.12 126.26 126.26 0 0 1 27-5.76l3.48-.36c1.16-.12 2.32-.1 3.49-.16l7-.21 7 .33c1.17.07 2.36.08 3.52.23l3.49.43 3.51.44 1.75.23c.58.1 1.15.22 1.73.33l6.93 1.39c2.29.53 4.55 1.21 6.83 1.82 1.13.32 2.29.59 3.4 1l3.34 1.16c4.49 1.45 8.8 3.33 13.13 5.19l6.34 3.09c1.07.5 2.09 1.08 3.11 1.66l3.07 1.72c1 .58 2.06 1.14 3.07 1.74l3 1.86c2 1.26 4 2.48 5.88 3.86s3.86 2.64 5.71 4.06l5.54 4.28a202.77 202.77 0 0 1 20.38 19A221.8 221.8 0 0 1 486.81 377c2.62 3.8 5.27 7.57 7.64 11.54 1.2 2 2.39 4 3.52 6s2.19 4 3.27 6.29a5.48 5.48 0 0 1-9.46 5.47zm-19.5 60.97l-1.06-1.24c-.4-.45-.83-.91-1.25-1.36l-1.32-1.35-1.36-1.31a67.39 67.39 0 0 0-5.88-4.81l-1.55-1.09-1.6-1c-1-.72-2.17-1.29-3.24-1.95s-2.23-1.17-3.36-1.69-2.28-1.06-3.47-1.47a64.78 64.78 0 0 0-29.8-3.93 91.66 91.66 0 0 0-15.39 2.78c-1.28.33-2.56.63-3.82 1.07l-3.83 1.17c-2.53.83-5.05 1.78-7.6 2.67-10.1 3.85-20 8.66-30.19 13.52a2.35 2.35 0 0 1-2.64-3.81A122.56 122.56 0 0 1 382.9 443c1.3-.67 2.65-1.27 4-1.91s2.64-1.31 4-1.83c2.76-1.07 5.48-2.25 8.36-3.07 1.42-.44 2.84-.92 4.29-1.3l4.38-1.06c1.45-.38 3-.6 4.45-.86s3-.53 4.51-.64a70.7 70.7 0 0 1 36.36 4.95 64.08 64.08 0 0 1 15.82 9.72 62.52 62.52 0 0 1 6.67 6.45c1 1.17 2 2.35 2.95 3.62.46.63.93 1.26 1.37 1.93.23.33.45.67.67 1l.33.54.38.64a5.45 5.45 0 0 1-8.82 6.34z"/><path class="cls-2" d="M737.08 168.83c-15 63.69-30.49 99-45.05 79.54-10.22-13.63-19.74-42.8-28.49-81.64 1.12-.1 2.23-.19 3.35-.27 2.08-.17 4.15-.29 6.23-.4h.93a326.34 326.34 0 0 1 42.39.57c1 .09 1.95.15 2.91.25l2.32.19.56.06c5.03.43 9.98 1 14.85 1.7zm186.36 157.42c-35.37 22.37-62.69 34.8-62.91 20-.23-16.6 20-52.18 44.57-89.25-.14 2-.28 3.93-.41 5.87-.44 6.46-.56 13.37 2.41 19.06 4.6 8.86 9.11 20.52 13.21 33.69 1.06 3.45 2.12 6.99 3.13 10.63z"/><path class="cls-4" d="M701.48 449.53c0 1 0 2.28.11 3.43s.18 2.34.34 3.5a46.91 46.91 0 0 0 1.37 6.79c1.23 4.35 3.29 8.35 6.43 10.81s7.34 3.33 11.84 3.06 9.2-1.48 13.93-2.82a1.73 1.73 0 0 1 2.15 1.19 1.75 1.75 0 0 1-.76 2 39.19 39.19 0 0 1-14.71 5.67c-.69.09-1.37.2-2.06.27l-2.11.05a17.14 17.14 0 0 1-2.14-.11l-1.08-.1c-.36 0-.72-.14-1.08-.21a19.89 19.89 0 0 1-8.16-3.55 22.71 22.71 0 0 1-5.78-6.62 32.34 32.34 0 0 1-3.16-7.74 43.68 43.68 0 0 1-1.36-7.94c-.12-1.33-.17-2.65-.19-4a38 38 0 0 1 .16-4.07 3.12 3.12 0 0 1 6.23.27z"/><path class="cls-4" d="M701.47 449.08a40.24 40.24 0 0 1 .17 4.18c0 1.36-.08 2.72-.21 4.08a40 40 0 0 1-1.5 8.15 30.62 30.62 0 0 1-3.5 7.85 22.14 22.14 0 0 1-6.23 6.46 20.92 20.92 0 0 1-8.36 3.3 28.27 28.27 0 0 1-8.56.07 40.29 40.29 0 0 1-15.09-5.55 1.71 1.71 0 0 1 1.27-3.14c4.93 1.15 9.73 2.36 14.4 2.58l1.73.07c.58 0 1.14-.05 1.7-.07h.85l.82-.11c.54-.1 1.1-.12 1.62-.26a15 15 0 0 0 5.74-2.47c3.37-2.36 5.64-6.3 7-10.7a43 43 0 0 0 1.47-6.89c.16-1.18.26-2.37.33-3.57s.12-2.44.09-3.49v-.14a3.12 3.12 0 0 1 6.23-.34z"/><path class="cls-2" d="M511.66 346.94c-.19 14.4-26 3.06-59.92-18.12.83-2.44 1.72-4.84 2.66-7.22a190.2 190.2 0 0 1 11.48-24 100.52 100.52 0 0 0 10.26-26c20.32 31.82 35.73 60.85 35.52 75.34zm393.82-260.8c-4.66 8.17-9.38 16.37-14.13 24.52-2.94 5.06-5.91 10.1-8.84 15.12-56.39 95.19-114.83 179-130.47 148-4.55-9-6.78-23.46-7.26-41.74a270.11 270.11 0 0 1 4.52-55.92c.3-1.67.62-3.43 1-5.23q5.58 1 10.94 2.17c.73.15 1.46.31 2.18.48.48.08 1 .19 1.42.3a278.35 278.35 0 0 1 30.08 8.68l1.59.62c14-30.63 41.26-79.77 81.67-108.3 9.53-6.73 16.51-6.22 21.51-.37.35.41.7.86 1 1.33a29.44 29.44 0 0 1 3.12 5.68c.29.69.57 1.42.85 2.16s.55 1.65.82 2.5zm-247.2 139.62c-.48 18.27-2.72 32.75-7.27 41.75-15.64 31-74.08-52.87-130.46-148.06-2.94-5-5.92-10-8.86-15.11q-6-10.25-11.84-20.52L514.79 92c4.37 2.89 8.53 5.93 12.54 9.08 1.6 1.25 3.16 2.51 4.72 3.81 29.61 24.54 49.21 54.24 61.43 77.15a247.84 247.84 0 0 1 41.3-11.42l.64-.12q9-1.65 18-2.72c.13.7.25 1.38.38 2.07a269.27 269.27 0 0 1 4.48 55.91z"/><path class="cls-5" d="M681.3 416.61l28.7.26c9.75.08 15.93 7.29 11.15 13L700.91 454a4.67 4.67 0 0 1-7.16.26l-23-24.47c-5.5-5.79.51-13.27 10.55-13.18z"/><path d="M682.61 436.65L690 445a4.47 4.47 0 0 0 2.55 1.74c4 .66 6.84-3.88 8-6.95a3.21 3.21 0 0 0 .31-1.4 2 2 0 0 0-.48-1q-4.33-5.64-9-11c-1.71-2-7-4.75-10.21-.11-2.47 3.51-.34 8.35 1.44 10.37z" fill="#fff" opacity=".5"/><path class="cls-5" d="M478.67 245.48c0-.33-.05-.66-.08-1-2.62-29.63-4.43-60-4.24-86.19.16-20.79 1.57-39 4.84-52.19 2.2-8.94 5.26-15.58 9.34-19.17 16.78 20.3 59.08 74.11 65.31 107.76 6.02 32.54-49.5 46.24-75.17 50.79zm427.9-2.77c-27.52-5.64-73.59-19.64-68.08-49.41 6.17-33.29 49-88.28 66.16-109.1.3.83.94 3.19 1.07 3.36 8.96 30.93 4.84 97.31.85 155.15z"/><path class="cls-4" d="M856.67 196.63c.23-.53.53-1.31.79-2s.53-1.5.8-2.27l1.62-4.61q1.65-4.62 3.48-9.19.9-2.28 1.86-4.55t1.94-4.53c1.32-3 2.7-6 4.25-8.88a3.83 3.83 0 0 1 7.36 1.34l1.92 48.28-6.3-2.78c1.93-1.77 3.94-3.45 6-5.09s4.13-3.24 6.23-4.81c4.23-3.11 8.54-6.15 13.11-8.86a1.81 1.81 0 0 1 2.3 2.72 157.89 157.89 0 0 1-10.9 11.47c-1.89 1.81-3.8 3.62-5.77 5.36s-3.94 3.46-6 5.06l-.25.2a3.76 3.76 0 0 1-6.06-3l-1.92-48.27 7.36 1.34a99.28 99.28 0 0 1-3.62 9.29c-.67 1.52-1.37 3-2.1 4.52s-1.47 3-2.25 4.46a98.47 98.47 0 0 1-5.06 8.68c-.94 1.41-1.9 2.8-3 4.16-.53.68-1.1 1.34-1.7 2a13.72 13.72 0 0 1-2.13 2 1.4 1.4 0 0 1-2.1-1.68zm-349.98-43.15c.38.44.94 1.05 1.46 1.59l1.65 1.71 3.36 3.44q3.36 3.48 6.59 7.09 1.62 1.8 3.21 3.63t3.15 3.69c2.07 2.48 4.11 5 6 7.64a3.83 3.83 0 0 1-4.31 6.06l-42-16.52 5.11-4.53c.8 2.62 1.46 5.27 2.08 7.93s1.17 5.34 1.7 8c1 5.38 1.94 10.79 2.45 16.3a1.81 1.81 0 0 1-3.45.89c-2.22-5.07-4-10.24-5.76-15.44-.84-2.61-1.66-5.22-2.4-7.85s-1.46-5.27-2-7.94l-.07-.29a3.75 3.75 0 0 1 2.88-4.46 3.67 3.67 0 0 1 2.3.23l42 16.52-4.31 6.07a94.88 94.88 0 0 1-6.63-7.27q-1.57-1.87-3.07-3.83t-3-3.93a98.6 98.6 0 0 1-5.44-8.29c-.83-1.45-1.63-2.92-2.36-4.47-.36-.77-.69-1.57-1-2.38a14.41 14.41 0 0 1-.77-2.74 1.4 1.4 0 0 1 2.46-1.12z"/><path class="cls-7" d="M851.12 399.84c-2.82 15.93-13.64 30.16-30.34 33.89-29.09 6.5-53.84-2.83-75.13-21.12-9.28-8-22-16.27-12.61-32.74 12.82-22.43 43.56-47.93 74-40.15 19.22 4.92 37.58 19.82 43.12 39.17a46.85 46.85 0 0 1 .96 20.95z"/><ellipse class="cls-4" cx="798.3" cy="387.01" rx="44.36" ry="46.89" transform="rotate(-36.03 798.284 387.013)"/><path class="cls-8" d="M746.43 363s-12.93 26-4.31 45.1"/><path class="cls-9" d="M840.46 422.53c24.58-18.7 24.17-26.42 6.22-52.62"/><path class="cls-7" d="M541.2 399.64c2.82 15.93 13.63 30.17 30.33 33.9 29.09 6.49 53.84-2.84 75.13-21.13 9.28-8 22-16.27 12.61-32.73-12.82-22.44-43.55-47.94-73.95-40.15-19.22 4.92-37.58 19.82-43.11 39.17a46.81 46.81 0 0 0-1.01 20.94z"/><ellipse class="cls-4" cx="594.01" cy="386.81" rx="46.89" ry="44.36" transform="rotate(-53.97 594.013 386.813)"/><path class="cls-8" d="M645.88 362.82s12.93 25.93 4.31 45.08"/><path class="cls-9" d="M551.85 422.33c-24.58-18.69-24.17-26.42-6.22-52.61"/><path d="M570.83 380.5c-2.19 4.72-4.05 9.73-4.22 15s1.56 10.91 5.57 14.53a29.69 29.69 0 0 0 7.88 4.59l11 5a1.21 1.21 0 0 0 .82.16 1.13 1.13 0 0 0 .6-.68 10.81 10.81 0 0 0 1.45-4.66 8.89 8.89 0 0 0-1.54-4.56c-3.18-5.19-8.7-8.67-11.84-13.88a9.05 9.05 0 0 1-1.5-4.38c-.06-3.11 2.35-5.7 2.58-8.79.18-2.54-1.87-6.29-4.53-7.07-3.34-1.02-5 2-6.27 4.74zm218.51 37.79a36.48 36.48 0 0 1-12.62-5.29c-11.27-7.91 3.65-28.11 4.44-24.06 1.13 5.82.32 14.15 6.37 17.41 1.94 1 4.26 1.17 6.14 2.31 2.58 1.57 4.78 6.43 2.32 9-1.41 1.49-3.76 1.24-5.73.8-.26-.02-.61-.1-.92-.17z" fill="#f7eed9" opacity=".25"/><path d="M1276.25 627.15c-14.17 14.81-32.53 19.64-51.61 24.6 3-37.58-33.4-83.13-71.23-94.61a311 311 0 0 0-31.75-8.28c35.82-23.43 77.65-34.39 119.25-21.78 42.38 12.85 70.57 63.27 35.34 100.07z" opacity=".3" fill="#392930"/><path class="cls-3" d="M611.39 1404.33c-24.18 41.38-87.73 7.07-116.94-6.92l-.55-.28c-1-.48-2.08-1-3.13-1.52 9.66-23.68 30.78-56.07 77-80.88q1.43 1.49 2.94 3c24.13 24.47 58.63 55.89 40.68 86.6zm246.44 9.82l-.33.14c-31.17 13.42-70.76 24.37-88.71-6.33a37.12 37.12 0 0 1-3.37-7.48 33.48 33.48 0 0 1-1.49-7.41c-1.61-18.47 12.1-36.75 27.44-53.2l.84-.89.77.62a277.26 277.26 0 0 1 39.16 38.55 269.26 269.26 0 0 1 25.69 36z"/><path class="cls-2" d="M946.26 753.3c-.07 3.43-.14 7-.41 10.49l-2.7-1.54c-40.3-23.2-86.67-55.24-49-62.12 14-2.56 30.11-1 46.67 2.79a322 322 0 0 1 5.08 39.63c.17 3.06.43 7.45.36 10.75zm-82.74 47.88c-16.55 7.54-38.16 9.48-60.36 8.49a82.73 82.73 0 0 0 13.9-28 25.56 25.56 0 0 0 .74-2.85 194.67 194.67 0 0 0 3-19.92c38.38 12.42 72.4 28.77 42.72 42.28zm-336.7 22.58c-13.11 13.13-33.2 22.67-54.86 29.57-1.49-2.85-2.89-5.73-4.22-8.6-4.93-10.63-8.71-22.11-12.05-33.31-.14-.45-.26-.94-.37-1.36-.82-3.1-1.65-6.35-2.41-9.61 45.99-3.71 100.6-3.4 73.91 23.31zm46.92-133.18c-32 17.69-61 27.75-52-1 5.56-17.72 19-35.46 35-51.58 11.22 12.07 15.32 30.28 16.82 49.6.07 1.02.14 2 .18 2.98z"/></g><g id="Flower"><path class="cls-12" d="M709.52 825.19a125.33 125.33 0 0 1-.23-18.25c.11-3 .22-6.12.23-9.3l-3.06-.1c0 3.14-.11 6.17-.22 9.17a130.6 130.6 0 0 0 .24 18.79z"/><path class="cls-12" d="M641.42 783.65c18.35 3.64 64.11-2.61 70 50.19l4.16 38.64-4 .43-4.14-38.42c-60.69 4.3-61.68-47.34-66.02-50.84zm66.28 17.9v-.13c.33.47.83.8 1.28.18v-.1a1.49 1.49 0 0 1 0 .21c.29-.13.54-.28.83-.41 33.3-15.84 16.32-59 16.32-59-9.4 6.42-39.9 21.33-18.43 59.25z"/><path class="cls-13" d="M707.79 829.88s-.43-1.11-1.24-3-2-4.63-3.67-7.77c-.79-1.6-1.84-3.25-2.9-5a54.87 54.87 0 0 0-3.87-5.23 46.72 46.72 0 0 0-4.83-5.06l-2.77-2.3c-1.08-.88-2-1.37-3-2.07a48.73 48.73 0 0 0-6.4-3.44c-2.2-.89-4.39-1.73-6.54-2.36-4.28-1.33-8.33-2.19-11.76-3l-4.68-1.1c-1.41-.31-2.61-.65-3.59-1-2-.58-3.13-.87-3.13-.87s1 .54 2.93 1.43c.93.45 2.08 1 3.43 1.48s2.87 1.17 4.55 1.71c3.34 1.19 7.31 2.37 11.4 3.86 2.08.68 4.09 1.66 6.18 2.5a46.38 46.38 0 0 1 5.94 3.3c.93.63 2.1 1.29 2.84 1.9l2.65 2.13a57.85 57.85 0 0 1 4.75 4.62c1.5 1.55 2.77 3.22 4 4.76s2.33 3.11 3.27 4.6c2 2.91 3.56 5.39 4.64 7.15s1.8 2.76 1.8 2.76z"/><path class="cls-13" d="M702 820.4s-.25-.47-.72-1.24c-.18-.4-.69-.74-1.2-1.22a8.59 8.59 0 0 0-1.94-1.16 12.57 12.57 0 0 0-2.54-.73 14.44 14.44 0 0 0-2.91-.28 19.06 19.06 0 0 0-3.08.21l-.78.12-.82.2-1.47.36a21.65 21.65 0 0 0-2.93 1c-1 .37-1.87.78-2.74 1.14s-1.71.78-2.47 1-1.5.65-2.2.81-1.35.42-1.94.61l-1.53.31-1.39.32s.49.13 1.39.29a16.15 16.15 0 0 0 1.65.24h2.15a13.47 13.47 0 0 0 2.55-.36 18.4 18.4 0 0 0 2.7-.68c.91-.29 1.89-.56 2.74-.88a21.4 21.4 0 0 1 2.8-.85l1.45-.42.64-.18.7-.13c.91-.18 1.83-.34 2.71-.43a25.57 25.57 0 0 1 2.56-.15 22.35 22.35 0 0 1 2.26.15 13 13 0 0 1 1.83.48c.48.25 1 .31 1.37.64.76.54 1.16.83 1.16.83zm-10.58-13.06l-1.28-.85a11 11 0 0 0-1.52-.89c-.62-.29-1.34-.62-2.14-1s-1.7-.54-2.66-.79a29.56 29.56 0 0 0-3.21-.45c-1 .05-2.07 0-3.19.12s-2.38.4-3.47.69l-3.18 1c-.51.15-1 .32-1.51.5l-.68.23-.75.21c-1 .22-2 .66-2.8.74a24.07 24.07 0 0 1-2.45.41c-.79 0-1.52.1-2.18.16l-1.71-.07h-1.54s.5.24 1.41.62c.46.18 1 .44 1.68.64s1.45.3 2.31.43a13.92 13.92 0 0 0 2.85.09 16.09 16.09 0 0 0 3-.37l.76-.13.85-.2c.52-.12 1-.25 1.57-.41l3.12-.83c1-.31 2-.46 2.93-.71l3.13-.37h2.71c.89.12 1.75.18 2.56.24s1.5.26 2.15.36 1.24.27 1.71.36zm-19.71-12.07s-1.34-.21-3.34-.31h-1.6c-.6 0-1.14-.1-1.75-.11-1.2-.1-2.47-.12-3.73-.14s-2.53-.29-3.74-.35a15.6 15.6 0 0 1-1.73-.13c-.54-.11-1.06-.18-1.54-.25-1.93-.24-3.33-.28-3.33-.28a29.6 29.6 0 0 0 3 1.55c.46.21 1 .44 1.51.64a8.2 8.2 0 0 0 1.77.46c1.24.26 2.58.45 3.93.65 1.36 0 2.73 0 4-.14a15 15 0 0 0 3.37-.57 32.33 32.33 0 0 0 3.18-1.02zm49.84-41.87s-.5.64-1.29 1.79-2 2.78-3.2 4.85a73.74 73.74 0 0 0-4 7.22 43.59 43.59 0 0 0-1.91 4.26c-.56 1.5-1.12 3-1.68 4.54s-.81 3.16-1.2 4.72a33.26 33.26 0 0 0-.74 4.65 23.71 23.71 0 0 0-.31 4.38c0 1.4 0 2.72.06 3.93a18.72 18.72 0 0 0 .38 3.29c.16 1 .3 1.81.42 2.51.24 1.38.42 2.16.42 2.16s.09-.81.17-2.21c0-.69.08-1.54.13-2.5s0-2 .23-3.23.32-2.43.46-3.77a34.27 34.27 0 0 1 .7-4.15c.32-1.43.48-2.93.95-4.39s.82-3 1.24-4.47c1-3 2-5.92 3.13-8.64.57-1.36 1-2.72 1.59-4s1-2.44 1.47-3.55l2.18-5.37c.54-1.25.8-2.02.8-2.02z"/><path class="cls-13" d="M723.45 781.78a3.85 3.85 0 0 1-.55.7 8.1 8.1 0 0 1-1.8 1.25l-1.32.73-1.49.78c-1.08.55-2.17 1.2-3.27 1.85l-1.6.94c-.56.31-1.07.71-1.59 1.07a10.78 10.78 0 0 0-2.46 2.45 4.07 4.07 0 0 0-.68 1.25 3.86 3.86 0 0 0-.33 1 8.51 8.51 0 0 0-.1.91s.21-.28.51-.73a6.89 6.89 0 0 1 1.56-1.55 18.64 18.64 0 0 1 2.6-1.66l3.3-1.76c1.08-.69 2.16-1.38 3.12-2.09a12.67 12.67 0 0 0 1.4-1.08 13.92 13.92 0 0 0 1.17-1.11 6.29 6.29 0 0 0 1.38-2.07 2.93 2.93 0 0 0 .15-.88zm2.21-26.71s-.07.26-.17.71a2.45 2.45 0 0 1-.3.73c-.11.26-.35.54-.53.85a12.61 12.61 0 0 1-1.67 1.92c-.33.34-.69.66-1 1s-.71.65-1.14 1c-.78.69-1.58 1.22-2.36 1.87a13.9 13.9 0 0 0-2 2 5.9 5.9 0 0 0-1 1.72c-.16.45-.22.7-.22.7l.47-.55a8.74 8.74 0 0 1 1.33-1.27 20 20 0 0 1 2.13-1.46 25.35 25.35 0 0 0 2.55-1.79 12.6 12.6 0 0 0 3.64-4.67 3.65 3.65 0 0 0 .31-1.1 3.11 3.11 0 0 0 .06-.87c-.04-.53-.1-.79-.1-.79zm.4 12.62l-.63.75a10.31 10.31 0 0 1-1.79 1.75c-1.56 1.34-4.08 2.5-6.53 4s-4.89 3.1-6.14 5a4.63 4.63 0 0 0-.73 1.33 3.74 3.74 0 0 0-.35 1.1c-.12.62-.16 1-.16 1l.43-.87a7.2 7.2 0 0 1 1.48-2c1.38-1.5 3.83-2.79 6.26-4.25s4.9-3 6.34-4.68a8.32 8.32 0 0 0 1.45-2.2zm-19.37 64.67s-.91-.09-2.5-.16l-2.87-.11a26.82 26.82 0 0 1-3.67-.37l-4.18-.51-4.77-1.13c-1.69-.3-3.28-1-5-1.41l-2.53-.74-2.5-.86a47.18 47.18 0 0 1-4.83-1.93c-1.5-.86-3.1-1.48-4.47-2.42s-2.79-1.69-4-2.58-2.41-1.76-3.49-2.56-2-1.62-2.89-2.28-1.6-1.32-2.19-1.84l-1.93-1.61s.52.75 1.5 2c.49.63 1.08 1.4 1.82 2.24a37.12 37.12 0 0 0 2.52 2.78 37.68 37.68 0 0 0 3.27 3.05l1.87 1.58L668 825a45.26 45.26 0 0 0 4.62 2.79 50.67 50.67 0 0 0 5.16 2.18l2.65.86 2.66.71a43.39 43.39 0 0 0 5.17 1.18l4.85.73c1.75.07 3.16 0 4.58 0a18.76 18.76 0 0 0 3.74-.25l2.84-.43c1.53-.22 2.42-.41 2.42-.41z"/><path class="cls-14" d="M781.22 918.47a45.87 45.87 0 0 1-8.72 26.89c-.54.76-1.11 1.51-1.71 2.23A49.23 49.23 0 0 1 759 958.13a52.33 52.33 0 0 1-40 6.62 82.88 82.88 0 0 0-39.9.71 52.43 52.43 0 0 1-13.1 1.65 50.82 50.82 0 0 1-39.85-18.84 47 47 0 0 1-5.39-8.42c-.39-.78-.75-1.56-1.1-2.36a45.74 45.74 0 0 1-3.72-18.08c0-16.08 8.36-30.3 21.16-38.94l.23-.16c.71-.47 1.43-.93 2.18-1.37a49.94 49.94 0 0 1 11.13-4.94 49.14 49.14 0 0 1 5.86-1.44 52.78 52.78 0 0 1 9.47-.85 51.49 51.49 0 0 1 30 9.54c.66.48 1.32 1 2 1.49a49.71 49.71 0 0 1 7.44-5.19 42.5 42.5 0 0 1 2-1.09 50.48 50.48 0 0 1 6.8-2.89 52.25 52.25 0 0 1 16.94-2.81 52.54 52.54 0 0 1 16.3 2.59c1.58.52 3.13 1.11 4.63 1.77l.42.19c14.48 6.51 25.15 19.44 28 34.94a42.13 42.13 0 0 1 .59 4.39c0 .31.05.62.06.93.03.96.07 1.92.07 2.9z"/><path class="cls-14" d="M788.91 892a39.87 39.87 0 0 1-10.47 26.85 44 44 0 0 1-32.65 14.24c-23.82 0-43.13-18.4-43.13-41.09s19.31-41.09 43.13-41.09a44.49 44.49 0 0 1 23.06 6.36A42.42 42.42 0 0 1 782 869.68a39.49 39.49 0 0 1 6.91 22.32zm-92.23-4.71c0 15.91-13.53 28.82-30.23 28.82-.84 0-1.66 0-2.47-.1a30.85 30.85 0 0 1-13.48-4.24A29.58 29.58 0 0 1 639.85 901a26.38 26.38 0 0 1-2-4.42 27.42 27.42 0 0 1-1.61-9.3 27 27 0 0 1 .86-6.82c0-.19.09-.39.15-.58a25.13 25.13 0 0 1 1.46-4 28.91 28.91 0 0 1 8.2-10.57 30.91 30.91 0 0 1 17.36-6.76c.73 0 1.46-.07 2.21-.07 14.52 0 26.66 9.75 29.57 22.76a28 28 0 0 1 .63 6.05z"/><path class="cls-15" d="M757.28 916.7c-23.82 0-43.13-18.4-43.13-41.09a39.35 39.35 0 0 1 3.88-17A39.93 39.93 0 0 0 706 887.09c0 22.7 19.31 41.09 43.12 41.09 17.45 0 32.46-9.87 39.25-24.07a44 44 0 0 1-31.09 12.59z"/><ellipse class="cls-14" cx="704.08" cy="887.45" rx="50.06" ry="47.7"/><path class="cls-15" d="M723.43 843.47A46.53 46.53 0 0 1 739 878c0 26.35-22.41 47.7-50.06 47.7a51.9 51.9 0 0 1-19.76-3.86A51.19 51.19 0 0 0 703.67 935c27.65 0 50.06-21.35 50.06-47.7 0-19.65-12.48-36.53-30.3-43.83z"/></g></svg>