<svg xmlns="http://www.w3.org/2000/svg" width="419.145" height="80" viewBox="0 121.302 419.145 80"><path d="M336.993 184.197c.006-.069.01-.14.014-.21-.173-2.83-3.03-4.706-5.679-5.237-2.39-.604-5.63.068-6.471 2.581a2.464 2.464 0 0 0-.068 1.135c.716 3.226 4.356 5.054 7.555 4.971 2.049.106 4.43-1.12 4.649-3.24zm1.231-11.769c.157-1.728-1.497-3.28-3.165-3.751-3.302-.967-7.66.029-9.117 3.298a2.57 2.57 0 0 0-.14.964c.13 2.339 2.676 3.618 4.834 3.771 2.84.26 6.28-.783 7.406-3.534.101-.252.16-.5.182-.748zm-11.8 18.156c.16-3.003-2.68-5.405-5.522-6.029-2.027-.636-4.924.112-5.355 2.38-.33 3.192 2.943 5.776 5.965 6.218 1.983.433 4.55-.426 4.912-2.569zm2.342-26.181c.16-1.267-.483-2.606-1.769-3.176-3.441-1.52-8.219.177-9.392 3.744-.447 1.494.608 2.974 2.023 3.521 3.025 1.164 6.836-.063 8.575-2.684.316-.423.5-.91.563-1.405zm-7.95 12.626c.283-2.488-.73-5.165-2.487-7-2.064-2.003-4.535-3.734-7.33-4.623-1.98-.916-4.526.345-4.788 2.47-.37 2.55 1.193 4.959 1.032 7.518.09 2.198-1.295 3.997-2.28 5.848-.922 1.569-.907 3.884.835 4.94 1.798.881 3.91.137 5.67-.48 2.893-1.336 5.94-2.775 7.94-5.285.823-1.002 1.27-2.173 1.408-3.388zM108.83 150.544a3.733 3.733 0 0 0-.032-.208c-.795-2.721-3.997-3.92-6.697-3.85-2.465-.061-5.475 1.311-5.74 3.948-.033.382.043.767.185 1.122 1.412 2.987 5.366 3.965 8.468 3.176 2.021-.35 4.074-2.072 3.816-4.188zm-1.402-11.75c-.23-1.72-2.186-2.868-3.916-2.958-3.434-.212-7.464 1.723-8.162 5.234-.037.325-.009.655.077.971.643 2.252 3.41 2.936 5.549 2.608 2.827-.375 5.95-2.153 6.44-5.085a2.59 2.59 0 0 0 .012-.77zm-7.49 20.316c-.508-2.965-3.81-4.678-6.72-4.658-2.117-.171-4.777 1.199-4.696 3.505.386 3.186 4.149 4.982 7.194 4.745 2.03-.016 4.343-1.422 4.221-3.592zm-3.509-26.05c-.125-1.27-1.048-2.434-2.428-2.706-3.693-.72-7.976 1.992-8.331 5.73-.106 1.556 1.251 2.766 2.752 2.987 3.207.465 6.653-1.575 7.768-4.515.215-.483.288-.998.24-1.496zm-4.959 14.073c-.275-2.49-1.855-4.876-3.975-6.277-2.456-1.496-5.249-2.638-8.171-2.886-2.134-.455-4.338 1.338-4.122 3.467.203 2.57 2.26 4.573 2.67 7.105.574 2.123-.379 4.183-.93 6.207-.552 1.734-.025 3.988 1.907 4.633 1.948.462 3.844-.732 5.423-1.723 2.526-1.943 5.179-4.02 6.575-6.911.58-1.16.756-2.4.623-3.615zM33.251 185.66c.01-.068.016-.139.02-.209-.088-2.833-2.887-4.794-5.519-5.404-2.37-.675-5.629-.1-6.545 2.386-.128.362-.15.754-.102 1.133.62 3.246 4.203 5.182 7.404 5.194 2.044.167 4.462-.986 4.742-3.1zm1.584-11.726c.209-1.723-1.398-3.324-3.051-3.844-3.272-1.065-7.657-.2-9.212 3.024a2.595 2.595 0 0 0-.17.96c.06 2.34 2.568 3.696 4.72 3.913 2.832.345 6.3-.595 7.508-3.31.11-.25.176-.497.205-.743zm-12.338 17.794c.251-2.997-2.517-5.482-5.338-6.191-2.008-.696-4.926-.036-5.425 2.218-.424 3.181 2.77 5.862 5.777 6.394 1.97.493 4.561-.289 4.986-2.42zm3.124-26.098c.197-1.262-.405-2.62-1.673-3.228-3.395-1.622-8.22-.068-9.5 3.462-.492 1.48.52 2.99 1.917 3.58 2.989 1.253 6.835.142 8.651-2.426.328-.414.528-.894.605-1.388zm-8.323 12.383c.356-2.479-.576-5.185-2.277-7.072-2.004-2.063-4.422-3.867-7.19-4.84-1.95-.974-4.534.21-4.858 2.326-.446 2.538 1.044 4.992.807 7.546.024 2.2-1.414 3.956-2.454 5.778-.97 1.54-1.023 3.854.687 4.962 1.77.934 3.904.253 5.68-.31 2.933-1.25 6.021-2.597 8.097-5.046.85-.977 1.333-2.134 1.508-3.344zm241.755-29.519a3.733 3.733 0 0 0-.045-.205c-.961-2.668-4.23-3.667-6.92-3.433-2.465.091-5.385 1.646-5.487 4.294-.01.383.09.763.253 1.108 1.593 2.895 5.6 3.628 8.647 2.65 1.996-.473 3.94-2.317 3.552-4.414zm-2.12-11.641c-.335-1.703-2.359-2.73-4.091-2.713-3.44 0-7.344 2.178-7.826 5.725-.017.328.032.655.137.965.78 2.208 3.584 2.721 5.699 2.262 2.798-.549 5.806-2.514 6.115-5.47.027-.27.014-.526-.035-.77zm-6.23 20.738c-.689-2.928-4.09-4.435-6.992-4.237-2.124-.04-4.695 1.49-4.473 3.787.581 3.156 4.447 4.718 7.472 4.294 2.025-.141 4.248-1.686 3.993-3.844zm-5.1-25.786c-.204-1.261-1.196-2.366-2.59-2.552-3.73-.492-7.839 2.477-7.964 6.23-.01 1.559 1.419 2.684 2.93 2.812 3.23.267 6.544-1.98 7.477-4.983a2.964 2.964 0 0 0 .146-1.507zm-4.087 14.35c-.427-2.467-2.15-4.753-4.352-6.021-2.544-1.343-5.401-2.31-8.334-2.379-2.157-.324-4.247 1.602-3.901 3.714.36 2.551 2.537 4.425 3.1 6.927.705 2.084-.12 4.199-.546 6.253-.445 1.764.22 3.982 2.188 4.507 1.973.34 3.791-.967 5.306-2.053 2.403-2.095 4.923-4.33 6.139-7.302.508-1.192.608-2.44.4-3.646zm-62.027 33.047a3.64 3.64 0 0 0 .014-.21c-.172-2.83-3.028-4.707-5.677-5.239-2.39-.605-5.629.067-6.472 2.58a2.464 2.464 0 0 0-.068 1.134c.715 3.226 4.354 5.056 7.554 4.974 2.048.106 4.431-1.118 4.649-3.24zm1.236-11.768c.158-1.728-1.496-3.282-3.163-3.753-3.302-.967-7.66.027-9.119 3.295-.108.31-.154.638-.14.965.129 2.338 2.675 3.619 4.833 3.772 2.84.26 6.28-.78 7.407-3.531.102-.252.16-.502.182-.748zm-11.806 18.15c.162-3.003-2.679-5.405-5.52-6.03-2.026-.636-4.924.11-5.355 2.377-.33 3.193 2.942 5.778 5.964 6.22 1.982.436 4.549-.423 4.911-2.566zm2.351-26.179c.16-1.267-.482-2.606-1.768-3.176-3.44-1.52-8.219.175-9.393 3.74-.448 1.494.607 2.975 2.021 3.523 3.025 1.164 6.837-.06 8.576-2.682.316-.423.502-.909.564-1.405zm-7.954 12.624c.283-2.488-.728-5.166-2.485-7.002-2.063-2.003-4.534-3.735-7.329-4.624-1.98-.917-4.526.343-4.788 2.467-.37 2.55 1.191 4.96 1.03 7.52.09 2.198-1.297 3.995-2.282 5.847-.923 1.568-.909 3.883.833 4.94 1.797.882 3.91.138 5.67-.478 2.894-1.336 5.94-2.773 7.943-5.283.822-1.002 1.269-2.172 1.408-3.387zm251.491-23.393a3.733 3.733 0 0 0-.031-.207c-.78-2.726-3.975-3.941-6.676-3.888-2.464-.074-5.481 1.282-5.761 3.918-.035.381.038.767.178 1.122 1.396 2.996 5.345 3.995 8.451 3.223 2.023-.34 4.086-2.05 3.84-4.168zm-1.337-11.756c-.221-1.722-2.17-2.881-3.9-2.98-3.433-.231-7.473 1.682-8.191 5.189-.039.325-.012.655.072.972.63 2.255 3.394 2.955 5.535 2.638 2.829-.361 5.961-2.12 6.467-5.05.045-.267.049-.523.017-.77zm-7.602 20.275c-.492-2.967-3.784-4.698-6.693-4.695-2.117-.183-4.785 1.173-4.715 3.48.368 3.188 4.121 5.004 7.168 4.783 2.029-.005 4.35-1.398 4.24-3.568zm-3.366-26.07c-.118-1.271-1.034-2.44-2.413-2.719-3.689-.74-7.987 1.947-8.362 5.684-.114 1.555 1.236 2.773 2.735 3.002 3.205.482 6.662-1.538 7.793-4.473.217-.481.293-.996.247-1.494zm-5.036 14.046c-.261-2.49-1.828-4.886-3.94-6.3-2.448-1.508-5.235-2.665-8.156-2.93-2.13-.467-4.344 1.315-4.14 3.445.188 2.57 2.235 4.585 2.63 7.119.563 2.126-.401 4.181-.963 6.202-.562 1.73-.047 3.988 1.882 4.644 1.945.472 3.847-.712 5.431-1.693 2.537-1.93 5.2-3.993 6.613-6.876.586-1.156.77-2.395.643-3.611z"/></svg>