<svg id="Layer_1" data-name="Layer 1" xmlns="http://www.w3.org/2000/svg" viewBox="0 0 1451.34 1451.34"><defs><style>.cls-2{stroke:#222f51;stroke-miterlimit:10;fill:#ff8f8a;stroke-width:26.91px}</style></defs><path d="M524.22 1276.15s-218.8-20.57-221.78-259.55c-.49-39.12-21.83-75-54.32-93.82C193.34 891 96.91 830.77 58.62 735.7c-51.75-128.5 60.7-299.33 194.62-236 23.06 10.91 99.71-2.09 80.21-60.45-19.84-59.35-28.45-142.33 1.32-219.42 22.59-58.52 76.31-99.72 138.2-110.22 95.9-16.27 139.47 56 187.74 107.82 42.43 45.51 101.58 50.1 164.15 21.32 19.13-8.8 34-24.57 48.85-39.48 85.23-85.47 194.21-100.84 277.89-3.41 72.56 84.48 47 185.32 30.68 250.66-8.92 35.72 15.13 71.44 49.72 76.54 42.47 6.26 101.71 33 124.33 87.94 45.18 109.75 5.72 244.2-133 316.39l-.63.43c-27.8 18.52-44.45 50.87-45.26 86.15-2 85.72-29.76 244.61-206.2 266.71-243.33 30.47-447.02-4.53-447.02-4.53z" stroke="#222f51" stroke-miterlimit="10" fill="#ffa14d" stroke-width="59.23"/><path class="cls-2" d="M1083.15 1085.49c-3.32 131.78-185.15 42-329.91 34.58s-374.45 92.42-301-178.71c34.06-125.77 165.22-339.42 310-332s324.23 344.35 320.91 476.13z"/><ellipse class="cls-2" cx="516.35" cy="405.48" rx="125.67" ry="188.03" transform="rotate(-19.04 516.316 405.474)"/><ellipse class="cls-2" cx="970.69" cy="410.46" rx="195.42" ry="125.3" transform="rotate(-63.95 970.612 410.472)"/><ellipse class="cls-2" cx="1176.7" cy="730.81" rx="125.79" ry="99.33" transform="rotate(-46.22 1176.78 730.824)"/><ellipse class="cls-2" cx="245.94" cy="693.97" rx="102.28" ry="137.97" transform="rotate(-42.03 245.913 693.945)"/><path d="M1345.86 604c-13.73-33.34-36.91-53.67-62.48-66-10.78 72.69-54.17 142.54-138.88 186.64l-.63.42c-27.8 18.52-44.45 50.87-45.25 86.15-2 85.72-29.77 244.62-206.2 266.71-243.35 30.48-447-4.53-447-4.53s-79.24-7.53-143-65.58c.26 2.85.64 5.67.68 8.56 3 239 221.78 259.55 221.78 259.55s203.69 35 447 4.53c176.43-22.09 204.25-181 206.2-266.71.81-35.28 17.46-67.63 45.25-86.15l.64-.42C1362.64 855 1391 713.79 1345.86 604z" fill="#222f51" opacity=".25"/></svg>