<svg id="Layer_1" data-name="Layer 1" xmlns="http://www.w3.org/2000/svg" viewBox="0 0 1451.34 1451.34"><defs><style>.cls-5{fill:#222f51;opacity:.25}</style></defs><path d="M1318.1 618.64c58.36-97.91-51.78-222.23-143.43-290A338.1 338.1 0 0 0 1046.92 270c-212.71-47.9-469.71 72-503.19 113.61-64.05 79.57-218.27 721.27 271.87 803.69 73.38 12.35 453.53 33 475.95-119.65 20.52-139.76-106.36-226.01 26.55-449.01z" stroke-width="51.4" stroke-miterlimit="10" stroke="#222f51" fill="#ffa14d"/><path d="M1150.52 574.32c84.53 13.63 27.29 131.95 22.45 235.1s60 266.85-116.06 214.53c-81.69-24.27-220.45-117.74-215.62-220.9s142.33-255.62 309.23-228.73z" stroke-width="28.83" fill="#ff8c87" stroke-miterlimit="10" stroke="#222f51"/><path d="M864.34 264.65C644 361.46 196.06 121.06 156.17 474.71c2.66 245.51 277.88 154.86 425.44 170.17" stroke-width="48.14" stroke-linecap="round" stroke-linejoin="round" stroke="#222f51" fill="#ffa14d"/><path d="M1331.44 533.2S1230.11 110 886 223.27c-80.91 26.62-193.93 73.35-203.6 171.4-4.16 42 13 85.61 44.79 113.46a142.39 142.39 0 0 0 19.68 14.43c22.57 13.84 48.74 22 74.92 27 68.54 13.06 113.3 2.88 181.56-13.49" stroke-width="51.4" stroke-linecap="round" stroke-linejoin="round" stroke="#222f51" fill="#ffa14d"/><path class="cls-5" d="M1089.34 1050.8c20.53-139.76-106.35-226 26.56-449 22.91-38.43 19.85-80.94 2.14-122.5-22.85-66.9-83.18-206.3-203.59-265.1 269.42-77.54 384.72 179 418.43 277.73 17.71 41.56 20.77 84.06-2.14 122.5-132.91 223-6 309.25-26.55 449-22.42 152.67-402.57 132-476 119.65q-13.82-2.33-26.94-5.23c128.75-5.51 274.47-34.27 288.09-127.05zM811.45 271.42l-105.84 90c-214-14.8-454.43-72.14-477.6 155.34 2.11 86.36 83 129.59 107.42 155.86-75.09-14.62-188.06-63.24-189.26-173.69 39.88-353.64 502.31-187.21 665.28-227.51z"/><ellipse cx="715.84" cy="1070.6" rx="194.59" ry="155.55" transform="rotate(-32.13 715.862 1070.635)" stroke-width="42.71" stroke-linecap="round" stroke-linejoin="round" stroke="#222f51" fill="#ffa14d"/><ellipse cx="553.87" cy="812.04" rx="218.44" ry="171.11" transform="rotate(-15.36 553.751 811.904)" stroke-width="51.04" stroke-linecap="round" stroke-linejoin="round" stroke="#222f51" fill="#ffa14d"/><path class="cls-5" d="M495.81 638.9q11.34-3.1 22.64-5.22c-28.62 39.81-40.15 86.54-27.89 131.19 23.4 85.2 125.1 132.67 233.32 112.37a210.09 210.09 0 0 1-16.68 20.35c2.13-.34 4.26-.64 6.39-.92-38.82 55.05-47.08 121.65-15.2 172.41 30.66 48.82 90.65 70.56 154.3 62.32a233.86 233.86 0 0 1-66.86 62.79c-91 57.16-201.83 44.53-247.52-28.22-36-57.31-20.82-134.81 31.72-193.07-110.52 23.35-215.7-24.3-239.54-111.14-25.03-91.13 48.99-190.91 165.32-222.86z"/><ellipse cx="435.31" cy="468.03" rx="114.3" ry="178.14" transform="rotate(-86.67 435.319 468.033)" stroke-width="34.35" fill="#ff8c87" stroke-miterlimit="10" stroke="#222f51"/><path d="M746.91 522.56c22.57 13.84 48.74 22 74.92 27 50.25 9.58 138.08-.23 181.37-6.15a30.75 30.75 0 0 0 25.3-39.41c-11.22-36.79-56.91-62.58-118.49-62.1-70.35.53-138.01 35.2-163.1 80.66z" stroke-width="28.77" fill="#ff8c87" stroke-miterlimit="10" stroke="#222f51"/><path d="M702.45 767.45L753 743.22m73.32 259.44l45.03-33.38" stroke-width="51.04" fill="none" stroke="#222f51" stroke-linecap="round" stroke-linejoin="round"/></svg>