<svg id="Layer_1" data-name="Layer 1" xmlns="http://www.w3.org/2000/svg" viewBox="0 0 1451.34 1451.34"><defs><style>.cls-2{stroke:#222f51;stroke-miterlimit:10;fill:#ff8f8a;stroke-width:24.67px}.cls-3{fill:#222f51}.cls-5{fill:#ff88b2}</style></defs><path d="M150.54 943.05c-16.15-63.47-15.11-131.5 2.92-198 3.3-12 7.1-23.68 11.43-35.08 1.93-5.2 4-10.34 6.2-15.42a391.42 391.42 0 0 1 26.78-51.32 204.7 204.7 0 0 0 23.93-55.53c1.54-5.88 2.85-11.81 3.86-17.78a198.71 198.71 0 0 0 2.79-38.09q-.13-6.8-.74-13.58c-.06-.7-.12-1.38-.18-2-5.73-57-9.77-115.27-9.89-166.76v-10.61c.36-42.76 3.65-80.25 11.28-107.39 5.14-18.39 12.26-32.08 21.79-39.45 7.31-5.7 16-7.72 26.39-5.35a58.33 58.33 0 0 1 15 6q10.14 5.55 19.86 11.51c10.18 6.17 19.89 12.66 29.24 19.39 3.74 2.67 7.39 5.38 11 8.14 54.73 41.54 94.8 90 123.25 132.64 12 18 36.28 26.38 58.77 20.35a643.3 643.3 0 0 1 57.61-12.58l1.51-.27q20.89-3.53 41.86-5.81c1-.12 1.93-.24 2.88-.33 5.52-.58 11-1.11 16.57-1.55l4.24-.36c2.61-.2 5.23-.41 7.84-.58 4.84-.36 9.68-.62 14.52-.86.71 0 1.45-.08 2.16-.08a831 831 0 0 1 98.89 1.23c2.26.18 4.54.32 6.8.53 1.81.12 3.62.26 5.4.41.45 0 .86.09 1.31.12q17.58 1.5 34.64 3.73c1.49.17 3 .35 4.42.56 8.91 1.14 17.67 2.46 26.31 3.9s17.16 3 25.5 4.64c1.72.33 3.41.68 5.1 1 1.1.18 2.2.41 3.3.65 13.35 2.83 33.07 8.15 48.78 12.57 14.25 4 29.65-1.9 36.1-13.91 35-65.21 94.88-155.4 179.51-210.13 22.23-14.36 38.5-13.28 50.17-.79.83.88 1.63 1.85 2.43 2.85a60.67 60.67 0 0 1 7.27 12.13c.69 1.47 1.34 3 2 4.61s1.31 3.44 2 5.35c.18.53.36 1 .54 1.55 9.35 28.47 12.58 71.53 12.49 121.12V318c-.29 60.39-5.49 130.1-10.5 194.58-.36 4.43-.69 8.87-1 13.27-.39 4.76-.75 9.46-1.1 14.13-.45 5.61-.86 11.14-1.31 16.57-.32 4.23-.65 8.4-1 12.54-1 13.81-1.3 28.55 5.61 40.71 66.58 117.12 106.7 262.82 55.93 390.71C1162.13 1305 593.55 1317.56 333.54 1174c-98.54-54.44-159.29-137.79-183-230.95z" stroke-miterlimit="10" stroke="#222f51" fill="#ffa14d" stroke-width="45.96"/><path class="cls-2" d="M242.32 604.26c0-.82 0-1.64-.07-2.45-2.64-73.34-3.79-148.4-1.67-213.2 1.68-51.38 5.42-96.31 12.11-128.74 4.51-22 10.38-38.25 17.87-46.93 28.36 51 99.72 186 108.5 269.5 8.47 80.67-90.92 111.82-136.74 121.82z"/><path class="cls-3" d="M305.08 385.13l.55.65.64.73c.44.5.89 1 1.37 1.51.93 1 1.92 2 2.89 3.07l5.9 6.21q5.88 6.27 11.54 12.77c3.78 4.33 7.52 8.7 11.14 13.17s7.19 9 10.44 13.75a6.8 6.8 0 0 1-7.76 10.66L268.37 418l9.13-8c1.39 4.7 2.55 9.47 3.62 14.25s2.05 9.6 3 14.42l1.3 7.26c.38 2.43.81 4.85 1.15 7.29.73 4.87 1.38 9.76 1.78 14.71a3.19 3.19 0 0 1-6.11 1.54c-2-4.55-3.73-9.17-5.4-13.81-.85-2.31-1.62-4.64-2.43-7l-2.29-7c-1.47-4.69-2.9-9.38-4.21-14.11s-2.55-9.47-3.55-14.27l-.11-.51a6.66 6.66 0 0 1 5.16-7.88 6.57 6.57 0 0 1 4.08.44l73.43 29.7-7.75 10.66a168.75 168.75 0 0 1-11.62-13.07 242.29 242.29 0 0 1-10.52-14 173.59 173.59 0 0 1-9.48-14.87c-1.47-2.57-2.81-5.24-4.08-8-.64-1.38-1.21-2.81-1.76-4.27a25.68 25.68 0 0 1-1.31-4.86 2.48 2.48 0 0 1 4.29-2z"/><path class="cls-2" d="M1206.46 589.74c.07-.81.15-1.63.22-2.44 7.29-73 13.19-147.86 15.19-212.66 1.58-51.39.69-96.46-3.93-129.25-3.11-22.23-7.93-38.84-14.85-48-31.54 49.08-111.32 179.33-125.37 262.08-13.57 80 83.64 117.39 128.74 130.27z"/><path class="cls-3" d="M1162.32 368.92a25.34 25.34 0 0 1-1.62 4.77c-.64 1.42-1.3 2.82-2 4.14q-2.16 4-4.58 7.73c-3.24 5-6.74 9.67-10.4 14.23s-7.44 9-11.39 13.28a173.85 173.85 0 0 1-12.42 12.31l-7.06-11.13 75.16-25a6.67 6.67 0 0 1 8.75 8l-.14.5c-1.31 4.73-2.84 9.39-4.46 14s-3.33 9.23-5.09 13.81l-2.73 6.85c-1 2.26-1.87 4.55-2.87 6.8-2 4.52-4 9-6.25 13.44a3.2 3.2 0 0 1-6-1.92c.72-4.92 1.67-9.76 2.71-14.58.49-2.41 1.08-4.8 1.62-7.2l1.75-7.16c1.23-4.75 2.48-9.5 3.88-14.2s2.83-9.39 4.51-14l8.61 8.52-75.16 25a6.79 6.79 0 0 1-7.06-11.12c3.55-4.53 7.41-8.82 11.29-13.07s7.9-8.35 12-12.43 8.15-8.1 12.33-12l6.28-5.82c1-1 2.08-1.92 3.08-2.88.5-.47 1-.95 1.46-1.42l.69-.69c.18-.2.38-.4.59-.61l.43-.43a2.48 2.48 0 0 1 4.17 2.27z"/><path d="M246.44 276a66.4 66.4 0 0 1 17.07 6.78q11.52 6.3 22.55 13.08c11.57 7 22.59 14.38 33.22 22 4.25 3 8.39 6.1 12.51 9.24 62.16 47.18 107.67 102.2 140 150.66 13.62 20.43 41.21 30 66.75 23.12 21.55-5.78 43.41-10.52 65.44-14.3l1.72-.3q23.71-4 47.54-6.6c1.08-.14 2.19-.27 3.27-.37q9.4-1 18.82-1.77l4.82-.4c3-.23 5.93-.47 8.9-.67 5.5-.4 11-.7 16.49-1 .81 0 1.65-.1 2.46-.1a944.07 944.07 0 0 1 112.32 1.4c2.56.2 5.16.37 7.72.6 2.06.13 4.11.3 6.14.47.5 0 1 .1 1.48.13q20 1.69 39.35 4.24c1.69.2 3.37.4 5 .63 10.11 1.3 20.06 2.8 29.87 4.44s19.49 3.4 29 5.27c2 .37 3.87.77 5.8 1.17 1.24.2 2.49.46 3.74.73 15.16 3.22 37.56 9.26 55.41 14.28 16.19 4.56 33.67-2.16 41-15.8 39.78-74.06 107.77-176.51 203.89-238.67 1.67-1.08 3.3-2.07 4.9-3-1.73-27.54-5.19-51.31-11.09-69.26-.18-.53-.36-1-.53-1.56-.66-1.9-1.28-3.67-2-5.34s-1.31-3.14-2-4.61a61.52 61.52 0 0 0-7.27-12.14c-.81-1-1.61-2-2.44-2.84-11.67-12.49-27.93-13.58-50.17.79-84.63 54.72-144.48 144.92-179.51 210.13-6.45 12-21.84 17.92-36.1 13.91-15.71-4.43-35.43-9.74-48.78-12.57a63.7 63.7 0 0 0-3.29-.65c-1.69-.35-3.39-.7-5.11-1q-12.51-2.46-25.5-4.64t-26.3-3.91c-1.46-.2-2.94-.38-4.42-.55q-17.07-2.25-34.65-3.73c-.44 0-.86-.09-1.31-.12-1.78-.15-3.59-.3-5.4-.41-2.25-.21-4.54-.36-6.8-.53a833 833 0 0 0-98.84-1.23c-.71 0-1.46.06-2.17.09-4.84.24-9.68.5-14.52.85-2.61.18-5.22.39-7.83.59l-4.25.35q-8.28.66-16.56 1.56c-.95.09-1.93.21-2.88.32q-21 2.3-41.86 5.82l-1.52.26c-19.39 3.33-38.64 7.51-57.61 12.59-22.48 6-46.77-2.37-58.76-20.35-28.46-42.65-68.53-91.08-123.25-132.63-3.63-2.76-7.28-5.46-11-8.13-9.35-6.73-19.06-13.22-29.24-19.39q-9.7-6-19.86-11.51a58.28 58.28 0 0 0-15-6c-10.36-2.38-19.09-.35-26.39 5.35-9.53 7.37-16.66 21.06-21.79 39.45-4.29 15.24-7.16 33.83-9 54.69a43.28 43.28 0 0 1 7.82 1.09zm1047.93 505.28a321 321 0 0 1-18.83 70c-120.88 304.49-689.45 317.08-949.47 173.48-98.52-54.41-159.28-137.76-183-230.92-1.27-5-2.4-10-3.45-15.07-7.4 50.66-5 101.32 7.18 149.38 23.71 93.16 84.47 176.51 183 230.92 260 143.6 828.59 131 949.46-173.48 26.02-65.53 28.13-135.7 15.11-204.31z" opacity=".25" fill="#222f51"/><circle class="cls-3" cx="907.64" cy="687.9" r="66.95"/><circle class="cls-3" cx="557.77" cy="687.9" r="71.3"/><path class="cls-5" d="M993.73 827.59l178.58-53.99"/><path class="cls-3" d="M990.79 817.86c14.75-4.92 29.62-9.46 44.53-13.86 7.45-2.24 14.93-4.34 22.4-6.51l22.46-6.29 22.52-6.09c7.53-2 15-4 22.59-5.87 15.08-3.84 30.19-7.56 45.43-10.89a5.51 5.51 0 0 1 3.17 10.51c-14.52 5.66-29.17 10.95-43.85 16.1-7.33 2.61-14.71 5.08-22.06 7.63l-22.12 7.41-22.18 7.2c-7.42 2.33-14.81 4.73-22.25 7-14.86 4.59-29.75 9-44.76 13.13a10.17 10.17 0 0 1-5.88-19.46z"/><path class="cls-5" d="M993.73 914.32l183.77 32.11"/><path class="cls-3" d="M995.48 904.3c15.43 2 30.77 4.55 46.08 7.24s30.58 5.63 45.83 8.67l22.85 4.74c7.59 1.7 15.21 3.29 22.79 5.07 15.17 3.47 30.31 7.15 45.36 11.35a5.16 5.16 0 0 1-1.77 10.12c-15.58-1.14-31.07-2.82-46.52-4.7-7.74-.89-15.44-2-23.16-3l-23.1-3.29c-15.38-2.32-30.74-4.7-46-7.39s-30.61-5.48-45.81-8.82a10.18 10.18 0 0 1 3.5-20z"/><path class="cls-5" d="M489.09 827.59L310.51 773.6"/><path class="cls-3" d="M486.15 837.32c-15-4.08-29.91-8.54-44.76-13.13-7.44-2.26-14.83-4.66-22.25-7L397 810l-22.12-7.41c-7.36-2.55-14.73-5-22.06-7.63-14.68-5.15-29.33-10.44-43.86-16.1a5.51 5.51 0 0 1 3.18-10.51c15.23 3.33 30.35 7 45.43 10.89 7.55 1.89 15.06 3.91 22.59 5.87l22.52 6.09 22.46 6.29c7.47 2.17 14.95 4.27 22.4 6.51 14.91 4.4 29.77 8.94 44.53 13.86a10.17 10.17 0 0 1-5.88 19.46z"/><path class="cls-5" d="M489.09 914.32l-183.77 32.11"/><path class="cls-3" d="M490.84 924.33c-15.2 3.34-30.49 6.17-45.81 8.82s-30.68 5.07-46 7.39l-23.1 3.29c-7.72 1-15.42 2.07-23.16 3-15.45 1.88-30.94 3.56-46.52 4.7a5.16 5.16 0 0 1-1.77-10.12c15.05-4.2 30.19-7.88 45.36-11.35 7.58-1.78 15.2-3.37 22.79-5.07l22.84-4.74c15.26-3 30.52-6 45.84-8.67s30.65-5.22 46.08-7.24a10.18 10.18 0 0 1 3.5 20z"/><path d="M793.18 780.69c1.05-19.75-15-35.8-33.56-35.8a31.91 31.91 0 0 0-18.85 6.2 4.89 4.89 0 0 1-5.64.12 31.82 31.82 0 0 0-17.85-5.51c-18.53 0-34 16-33.56 35.8S721 833.64 721 833.64a24.32 24.32 0 0 0 34.38 0s36.72-32.64 37.8-52.95z" fill="#ff968e" stroke-width="13.64" stroke-miterlimit="10" stroke="#222f51"/><path fill="none" stroke-linecap="round" stroke-linejoin="round" stroke-width="20.33" stroke="#222f51" d="M605.61 954.55h265.52"/></svg>