<svg id="Layer_1" data-name="Layer 1" xmlns="http://www.w3.org/2000/svg" viewBox="0 0 1451.34 1451.34"><defs><style>.cls-5{fill:#222f51;opacity:.25}</style></defs><path d="M180.77 635.49c-58.36-97.91 51.78-222.23 143.43-290A338.17 338.17 0 0 1 452 286.82C664.66 239 921.66 358.87 955.15 400.47c64 79.56 218.26 721.26-271.87 803.69-73.39 12.34-453.54 33-476-119.66-20.48-139.76 106.4-226.01-26.51-449.01z" stroke-width="51.4" stroke-miterlimit="10" stroke="#222f51" fill="#ffa14d"/><path d="M348.36 591.17c-84.53 13.63-27.3 132-22.46 235.1s-60 266.85 116.06 214.53c81.69-24.27 220.46-117.74 215.62-220.9S515.26 564.28 348.36 591.17z" stroke-width="28.83" fill="#ff8c87" stroke-miterlimit="10" stroke="#222f51"/><path d="M634.53 281.5c220.34 96.81 668.28-143.58 708.17 210.06-2.7 245.51-277.88 154.86-425.44 170.17" stroke-width="48.14" stroke-linecap="round" stroke-linejoin="round" stroke="#222f51" fill="#ffa14d"/><path d="M167.44 550.05s101.32-423.16 445.39-309.93c80.91 26.62 193.93 73.36 203.6 171.4 4.16 42-13 85.61-44.79 113.47A143.14 143.14 0 0 1 752 539.41c-22.57 13.84-48.74 22-74.91 27-68.55 13.06-113.31 2.88-181.56-13.49" stroke-width="51.4" stroke-linecap="round" stroke-linejoin="round" stroke="#222f51" fill="#ffa14d"/><path class="cls-5" d="M409.53 1067.65c-20.52-139.76 106.36-226-26.56-449-22.9-38.43-19.84-80.94-2.13-122.5 22.84-66.9 83.16-206.34 203.58-265.1C315 153.51 199.7 410.09 166 508.78c-17.71 41.56-20.78 84.06 2.13 122.5 132.91 223 6 309.25 26.56 449 22.41 152.68 402.57 132 476 119.65q13.82-2.32 27-5.23c-128.82-5.51-274.54-34.27-288.16-127.05zm277.89-779.38l105.84 90c214-14.8 454.43-72.14 477.6 155.34-2.1 86.36-83 129.59-107.42 155.86 75.09-14.63 188.07-63.27 189.26-173.73-39.88-353.6-502.31-187.17-665.28-227.47z"/><ellipse cx="783.03" cy="1087.46" rx="155.55" ry="194.59" transform="rotate(-57.87 783.009 1087.44)" stroke-width="42.71" stroke-linecap="round" stroke-linejoin="round" stroke="#222f51" fill="#ffa14d"/><ellipse cx="945" cy="828.89" rx="171.11" ry="218.44" transform="rotate(-74.64 945.054 828.893)" stroke-width="51.04" stroke-linecap="round" stroke-linejoin="round" stroke="#222f51" fill="#ffa14d"/><path class="cls-5" d="M1003.06 655.75q-11.34-3.11-22.64-5.22c28.62 39.81 40.15 86.54 27.89 131.19-23.4 85.2-125.1 132.67-233.31 112.37a208.51 208.51 0 0 0 16.67 20.35c-2.13-.34-4.26-.64-6.39-.92 38.82 55.05 47.08 121.65 15.2 172.41-30.66 48.82-90.64 70.56-154.29 62.32a233.6 233.6 0 0 0 66.86 62.75c91 57.16 201.82 44.53 247.51-28.22 36-57.3 20.82-134.81-31.71-193.07 110.51 23.35 215.69-24.3 239.54-111.14 25.03-91.09-48.99-190.86-165.33-222.82z"/><ellipse cx="1063.56" cy="484.88" rx="178.14" ry="114.3" transform="rotate(-3.33 1063.265 484.71)" stroke-width="34.35" fill="#ff8c87" stroke-miterlimit="10" stroke="#222f51"/><path d="M752 539.41c-22.57 13.84-48.74 22-74.91 27-50.26 9.58-138.09-.23-181.38-6.15a30.76 30.76 0 0 1-25.3-39.39c11.22-36.79 56.91-62.58 118.49-62.1 70.32.51 137.97 35.23 163.1 80.64z" stroke-width="28.77" fill="#ff8c87" stroke-miterlimit="10" stroke="#222f51"/><path d="M796.42 784.3l-50.55-24.23m-73.32 259.45l-45.03-33.39" stroke-width="51.04" fill="none" stroke="#222f51" stroke-linecap="round" stroke-linejoin="round"/></svg>