<svg xmlns="http://www.w3.org/2000/svg" width="213.197" height="71.39" viewBox="236.899 153.866 213.197 71.39"><path fill="none" d="M0 0h988.596v648.582H0z"/><g fill="#FFF"><path d="M83.607 61.979c-.413 0-.771.209-1.077.628-.305.419-.457.919-.457 1.501 0 .558.107 1.009.324 1.353.215.343.501.515.858.515.75 0 1.125-.785 1.125-2.356 0-.64-.054-1.07-.162-1.292-.107-.22-.311-.337-.611-.349zm122.821-5.043c-.667 0-1.027.547-1.083 1.641l-.211 4.799a11.4 11.4 0 0 0-.014.576c0 .361.126.652.38.873.253.221.591.332 1.013.332 1.294 0 1.942-1.32 1.942-3.961 0-1.71-.272-2.915-.816-3.612-.339-.432-.743-.648-1.211-.648z"/><path d="M214.957 22.329H50.487c-7.009 0-12.744 5.735-12.744 12.744v78.172c0 7.009 5.735 12.744 12.744 12.744h4.989a17.263 17.263 0 0 1-1.064-1.67c-1.534-2.775-2.318-5.974-2.288-9.31a18.393 18.393 0 0 1 .208-2.581c.141-.931.352-1.842.626-2.731a9.931 9.931 0 0 0 .404-3.773 9.572 9.572 0 0 0-.537-2.445 2.601 2.601 0 0 0-.034-.094c-.966-2.599-1.869-5.279-2.505-7.689-.016-.057-.03-.116-.045-.173l-.085-.323c-.507-2.008-.812-3.803-.787-5.168.015-.924.181-1.652.537-2.114.272-.356.656-.558 1.171-.574.231-.008.49.023.777.095a23.671 23.671 0 0 1 3.293 1.092c3.072 1.275 5.542 3.053 7.397 4.703.782.695 2.022.791 3.002.233.826-.47 1.676-.902 2.544-1.295l.068-.031a34.81 34.81 0 0 1 1.889-.785c.043-.017.088-.035.131-.05.251-.095.504-.188.757-.276l.195-.068.36-.124c.222-.076.446-.147.669-.218.033-.01.067-.022.1-.031a40.333 40.333 0 0 1 4.646-1.153c.108-.019.217-.04.325-.058.086-.017.173-.032.258-.047l.063-.01c.561-.097 1.117-.18 1.668-.25.072-.01.143-.02.214-.028a40.436 40.436 0 0 1 2.945-.258c.66-.031 1.649-.023 2.439-.009.717.013 1.365-.452 1.52-1.093.842-3.483 2.541-8.44 5.834-12.039.865-.945 1.641-1.093 2.34-.651.05.031.099.067.149.104.168.127.331.288.489.479a4.591 4.591 0 0 1 .351.484c.786 1.219 1.465 3.196 2.068 5.519l.044.169c.726 2.832 1.336 6.161 1.89 9.242l.114.635c.04.228.081.452.122.675l.142.792.109.599c.12.659.288 1.353.761 1.838 4.552 4.67 8.216 11.003 7.404 17.614-.641 5.221-3.99 9.534-8.678 12.847h115.481c7.009 0 12.744-5.735 12.744-12.744V35.073c0-7.009-5.735-12.744-12.744-12.744zM74.291 69.187c-.45.186-.924.308-1.421.367-.497.058-1.262.087-2.293.087-1.586 0-2.768-.14-3.546-.419-.863-.314-1.294-.849-1.294-1.605 0-.279.056-.509.169-.689.112-.18.403-.509.872-.986.244-.245.411-.716.5-1.414.089-.698.134-1.885.134-3.561 0-.93-.035-1.541-.105-1.832s-.218-.437-.443-.437c-.263 0-.516.224-.76.672s-.61 1.341-1.098 2.679l-1.688 4.695c-.291.791-.525 1.323-.704 1.597s-.375.41-.591.41c-.206 0-.389-.11-.549-.332-.103-.14-.34-.651-.71-1.536s-.678-1.669-.922-2.356l-1.857-5.183c-.253-.721-.521-1.082-.802-1.082-.3 0-.464.308-.492.925a79.635 79.635 0 0 0-.099 3.804c0 1.21.047 2.031.141 2.461.065.256.152.442.26.559s.401.326.88.628c.31.198.464.541.464 1.03 0 1.303-1.347 1.955-4.039 1.955-2.27 0-3.405-.634-3.405-1.902 0-.326.059-.561.176-.707s.42-.364.908-.655c.31-.174.519-.413.626-.715.107-.302.199-.89.274-1.763.084-.931.164-2.458.239-4.581.075-2.123.112-3.941.112-5.454 0-1.896-.117-3.182-.352-3.856a1.545 1.545 0 0 0-.289-.524c-.108-.116-.312-.267-.612-.454-.666-.396-.999-.907-.999-1.536 0-.407.124-.779.373-1.117.249-.337.579-.576.992-.716.413-.151.964-.282 1.653-.393.689-.11 1.273-.166 1.752-.166 1.201 0 2.05.122 2.547.366.244.117.437.273.577.471.141.198.342.605.605 1.222L62.4 53.83c.319.733.54 1.181.662 1.344a.597.597 0 0 0 .506.244c.188 0 .354-.087.5-.262.145-.175.316-.5.513-.978l1.984-4.799c.244-.617.403-1.018.479-1.204.459-1.164.915-1.938 1.365-2.321.572-.5 1.614-.75 3.124-.75 2.655 0 3.982.75 3.982 2.251 0 .337-.052.608-.155.812s-.314.451-.633.742c-.432.407-.704.995-.816 1.763-.216 1.605-.324 3.56-.324 5.863 0 2.967.113 5.567.338 7.801.056.547.143.919.26 1.117.117.198.419.495.908.89.337.279.506.651.506 1.117.001.814-.435 1.389-1.308 1.727zm17.105-1.728a4.967 4.967 0 0 1-1.4 1.518c-.704.512-1.44.768-2.209.768-.985 0-1.764-.419-2.336-1.256-.197-.303-.38-.454-.549-.454-.188 0-.437.146-.746.437-.938.849-2.003 1.274-3.194 1.274-1.229 0-2.223-.326-2.983-.977-.497-.431-.891-.992-1.182-1.684s-.437-1.417-.437-2.173c0-1.21.394-2.28 1.182-3.211 1.229-1.466 3.068-2.205 5.516-2.216.544 0 .887-.067 1.027-.201s.211-.445.211-.934c0-1.233-.103-2.126-.31-2.679-.207-.552-.544-.829-1.013-.829-.281 0-.532.104-.753.314-.22.209-.495.593-.823 1.152-.835 1.478-1.708 2.216-2.618 2.216-.46 0-.835-.168-1.125-.506-.291-.337-.437-.779-.437-1.326 0-.559.181-1.117.542-1.675.361-.559.851-1.047 1.47-1.466 1.698-1.117 3.471-1.675 5.319-1.675 1.632 0 3.016.512 4.151 1.536.6.547 1.02 1.172 1.259 1.876.239.704.359 1.672.359 2.906l-.028 2.6c0 1.804.104 2.973.31 3.508.104.256.202.419.296.489.093.07.291.134.591.192s.45.303.45.733c.001.557-.179 1.138-.54 1.743zm15.824-9.904c-.207.576-.474 1.05-.802 1.422-.601.71-1.337 1.064-2.209 1.064-.478 0-.879-.104-1.203-.314-.323-.209-.748-.634-1.273-1.274-.197-.245-.38-.367-.549-.367-.263 0-.434.184-.514.55-.08.367-.12 1.137-.12 2.312 0 1.757.052 2.955.155 3.595.066.349.157.591.274.725s.368.271.753.41c.844.314 1.267.861 1.267 1.641 0 .477-.136.893-.408 1.248s-.633.59-1.083.707c-.9.232-2.223.349-3.968.349-1.661 0-2.922-.181-3.785-.541-.77-.326-1.154-.89-1.154-1.693 0-.605.282-1.146.845-1.623.272-.221.459-.421.562-.602.104-.18.174-.428.211-.742.15-1.059.225-3.019.225-5.881 0-.524-.047-.899-.141-1.126s-.282-.41-.563-.55c-.667-.325-.999-.796-.999-1.414 0-.558.229-1.038.689-1.439.459-.401 1.229-.8 2.308-1.195 1.445-.535 2.674-.809 3.687-.82.497 0 .8.087.908.262.107.174.204.733.288 1.675.047.512.192.768.437.768.188 0 .366-.168.535-.506.75-1.454 1.731-2.181 2.941-2.181.854 0 1.553.343 2.097 1.029.263.338.479.771.647 1.3s.253 1.039.253 1.527a5.007 5.007 0 0 1-.311 1.684zm13.115 10.078c-1.333 1.408-2.946 2.112-4.841 2.112-1.501 0-2.707-.526-3.617-1.58-.91-1.053-1.365-2.44-1.365-4.162V55.94c0-.268-.026-.433-.078-.497s-.185-.096-.401-.096h-1.45c-.272 0-.445-.055-.521-.166-.075-.111-.112-.37-.112-.777v-.768c.009-.349.117-.604.323-.768l6.445-5.026a1.05 1.05 0 0 1 .591-.157h1.14c.235 0 .392.067.472.201s.12.398.12.794v2.356c0 .349.044.576.134.681.089.104.279.157.57.157h2.603c.347 0 .572.079.676.235.103.157.155.492.155 1.003v1.03c0 .559-.066.945-.197 1.161s-.371.323-.717.323h-2.547c-.263 0-.441.058-.535.174-.094.117-.141.338-.141.663v5.899c0 .698.138 1.268.415 1.71.277.442.631.663 1.062.663.366 0 .849-.209 1.449-.628a.705.705 0 0 1 .422-.157c.225 0 .431.169.619.506s.281.704.281 1.099c.002.723-.317 1.415-.955 2.078zm17.407 1.501c-1.173.337-2.308.506-3.406.506-.45 0-.758-.064-.921-.192-.165-.128-.261-.378-.289-.75-.047-.722-.225-1.082-.535-1.082-.113 0-.216.032-.31.096s-.38.3-.858.707c-.948.803-1.966 1.204-3.054 1.204-1.801 0-3.073-.646-3.813-1.937-.629-1.082-.943-2.903-.943-5.462 0-.954.004-1.769.014-2.443v-.803c0-1-.073-1.736-.218-2.208s-.411-.84-.795-1.108c-.366-.232-.598-.418-.697-.558s-.148-.332-.148-.576c0-.884.54-1.472 1.619-1.763 1.838-.5 3.677-.75 5.516-.75.553 0 .83.291.83.873v9.458c0 2.024.54 3.037 1.618 3.037.272 0 .54-.096.802-.288s.445-.428.549-.707c.207-.559.31-1.803.31-3.735 0-1.908-.052-3.211-.155-3.909-.038-.291-.103-.503-.197-.637-.094-.134-.272-.288-.535-.462-.535-.349-.802-.791-.802-1.327 0-.721.459-1.221 1.379-1.5 1.745-.535 3.466-.803 5.165-.803.947 0 1.421.623 1.421 1.867 0 .128-.005.39-.014.785a91.866 91.866 0 0 0-.042 2.042v7.696c0 .396.272.757.816 1.082.459.279.689.687.689 1.222.001 1.047-.998 1.856-2.996 2.425zm18.842-1.797c-1.67 1.605-3.851 2.408-6.543 2.408-1.201 0-2.467-.178-3.799-.532-1.332-.355-2.294-.771-2.885-1.248-.45-.372-.856-1.184-1.217-2.434s-.542-2.47-.542-3.656c0-.57.093-1 .281-1.292.234-.372.53-.558.887-.558.356 0 .699.227 1.027.68.197.256.662 1.077 1.394 2.461.347.651.898 1.192 1.653 1.623.755.43 1.536.646 2.343.646.694 0 1.257-.16 1.689-.48.431-.32.647-.73.647-1.23 0-.465-.168-.867-.506-1.205-.338-.337-.887-.651-1.646-.942-1.342-.523-2.364-1.003-3.068-1.439a9.456 9.456 0 0 1-1.97-1.649c-1.482-1.628-2.224-3.479-2.224-5.549 0-1.024.192-2.021.577-2.993a7.405 7.405 0 0 1 1.632-2.521c1.576-1.641 3.499-2.461 5.77-2.461.966 0 2.232.297 3.799.89.188.07.338.105.45.105.094 0 .375-.105.844-.314.15-.07.31-.104.479-.104.628 0 1.292.617 1.991 1.85.699 1.233 1.048 2.409 1.048 3.525 0 .652-.157 1.201-.471 1.649-.314.448-.697.672-1.147.672-.375 0-.68-.093-.915-.279s-.751-.739-1.548-1.658c-1.126-1.303-2.233-1.955-3.321-1.955-.525 0-.945.157-1.259.471s-.472.728-.472 1.239c0 1.012.718 1.774 2.153 2.286 1.942.71 3.185 1.228 3.729 1.553 2.392 1.443 3.588 3.566 3.588 6.37.001 2.476-.815 4.5-2.448 6.071zm17.703 2.286c-2.721 0-4.081-.587-4.081-1.763 0-.198.023-.349.07-.454.047-.105.211-.384.493-.838.394-.64.591-2.239.591-4.799 0-1.547-.117-2.676-.352-3.386-.31-.966-.863-1.449-1.661-1.449-.572 0-.995.256-1.267.768-.197.373-.295 1.07-.295 2.094v3.368c.065 1.489.122 2.333.169 2.53.047.198.263.564.647 1.1.178.244.267.529.267.855 0 1.315-1.379 1.972-4.137 1.972-3.227 0-4.841-.681-4.841-2.042 0-.314.052-.555.155-.724.104-.168.356-.428.76-.777.356-.314.603-1.16.739-2.539.136-1.378.204-3.662.204-6.85 0-2.501-.057-4.235-.169-5.201-.038-.36-.105-.625-.204-.794-.099-.168-.284-.34-.556-.515-.582-.372-.872-.803-.872-1.292 0-.582.22-1.053.661-1.414.441-.36 1.285-.75 2.533-1.169 1.688-.582 3.035-.873 4.039-.873.544 0 .807.291.788.873l-.183 7.312c-.019.873.197 1.309.647 1.309.225 0 .445-.192.661-.576.91-1.641 2.125-2.461 3.645-2.461 1.491 0 2.678.564 3.56 1.693.394.5.673 1.094.837 1.78.164.687.255 1.669.274 2.949l.126 6.3c.009.547.068.949.176 1.204.108.256.359.576.753.96a1.3 1.3 0 0 1 .408.96c.002 1.261-1.527 1.889-4.585 1.889zm18.955-2.408c-1.782 1.687-3.823 2.53-6.121 2.53-2.242 0-4.058-.791-5.446-2.374-1.351-1.536-2.026-3.537-2.026-6.003 0-2.746.825-4.991 2.477-6.736 1.726-1.838 3.823-2.757 6.29-2.757 1.717 0 3.223.553 4.517 1.658.929.792 1.675 1.821 2.238 3.089.582 1.326.873 2.711.873 4.153-.002 2.525-.935 4.671-2.802 6.44zm19.588.314c-1.229 1.478-2.627 2.216-4.193 2.216-.798 0-1.619-.233-2.463-.698-.169-.093-.305-.14-.408-.14-.281 0-.422.349-.422 1.047 0 .919.249 1.582.746 1.989.459.384.734.643.823.777.089.133.134.357.134.672 0 .698-.314 1.236-.943 1.614-.628.378-1.515.567-2.66.567-2.036 0-3.818-.506-5.347-1.518-.779-.512-1.168-1.146-1.168-1.902 0-.349.059-.614.176-.794.117-.181.345-.37.683-.567.488-.279.786-.785.894-1.518.107-.733.19-2.838.246-6.317-.066-2.862-.15-4.468-.253-4.816-.038-.116-.091-.192-.162-.227-.07-.035-.303-.099-.697-.192-.3-.07-.544-.241-.731-.515-.188-.273-.282-.602-.282-.986 0-.465.131-.875.394-1.23.263-.354.689-.701 1.281-1.038 2.298-1.292 4.123-1.949 5.474-1.972.572 0 .929.061 1.069.183.141.123.211.428.211.917 0 .431.113.646.338.646.094 0 .408-.221.943-.663.403-.337.917-.62 1.541-.846.624-.227 1.189-.34 1.695-.34 1.191 0 2.256.512 3.194 1.536.713.779 1.267 1.763 1.661 2.949a12.39 12.39 0 0 1 .619 3.927c0 2.928-.798 5.343-2.393 7.239z"/><path d="M188.584 57.128c-.31-.791-.741-1.198-1.294-1.222-.413 0-.744.189-.992.567-.249.378-.373.881-.373 1.51 0 .698.106 1.649.317 2.853.211 1.205.462 2.272.753 3.203.291.954.764 1.431 1.421 1.431.835 0 1.252-.657 1.252-1.972 0-.978-.105-2.088-.316-3.333-.212-1.245-.468-2.258-.768-3.037z"/></g><g fill="#FFF"><path d="M512.288 59.426c-.413 0-.771.209-1.076.628s-.457.919-.457 1.501c0 .558.107 1.009.323 1.353s.502.515.858.515c.751 0 1.126-.785 1.126-2.356 0-.64-.055-1.07-.162-1.292-.108-.22-.312-.337-.612-.349zm104.977-4.851c-.31-.791-.741-1.198-1.295-1.222-.413 0-.743.189-.992.567-.248.378-.373.881-.373 1.51 0 .698.106 1.649.317 2.853.211 1.205.462 2.272.753 3.203.29.954.764 1.431 1.421 1.431.835 0 1.252-.657 1.252-1.972 0-.978-.105-2.088-.316-3.333-.211-1.245-.467-2.258-.767-3.037z"/><path d="M661.83 19.776H458.423c-6.412 0-11.658 5.246-11.658 11.658v82.897c0 6.412 5.246 11.658 11.658 11.658H661.83c6.412 0 11.658-5.246 11.658-11.658V31.434c0-6.412-5.246-11.658-11.658-11.658zM502.972 66.634c-.45.186-.924.308-1.421.367-.497.058-1.262.087-2.294.087-1.586 0-2.768-.14-3.546-.419-.863-.314-1.295-.849-1.295-1.605 0-.279.057-.509.169-.689s.403-.509.872-.986c.244-.245.411-.716.5-1.414s.134-1.885.134-3.561c0-.93-.035-1.541-.105-1.832s-.219-.437-.443-.437c-.263 0-.517.224-.76.672-.244.448-.61 1.341-1.098 2.679l-1.688 4.695c-.291.791-.525 1.323-.704 1.597-.178.273-.375.41-.591.41-.206 0-.39-.11-.549-.332-.104-.14-.34-.651-.711-1.536a46.64 46.64 0 0 1-.922-2.356l-1.857-5.183c-.253-.721-.521-1.082-.802-1.082-.301 0-.465.308-.492.925a79.635 79.635 0 0 0-.099 3.804c0 1.21.047 2.031.141 2.461.065.256.152.442.26.559.108.116.401.326.88.628.31.198.465.541.465 1.03 0 1.303-1.347 1.955-4.039 1.955-2.271 0-3.405-.634-3.405-1.902 0-.326.059-.561.176-.707s.42-.364.907-.655a1.32 1.32 0 0 0 .627-.715c.107-.302.199-.89.274-1.763.084-.931.164-2.458.239-4.581.074-2.123.112-3.941.112-5.454 0-1.896-.117-3.182-.352-3.856-.085-.233-.181-.407-.289-.524-.107-.116-.312-.267-.612-.454-.666-.396-.999-.907-.999-1.536 0-.407.124-.779.373-1.117s.579-.576.992-.716c.413-.151.964-.282 1.653-.393.689-.11 1.273-.166 1.752-.166 1.201 0 2.05.122 2.547.366.244.117.437.273.577.471.141.198.343.605.605 1.222l2.927 6.684c.318.733.539 1.181.661 1.344s.291.244.507.244c.188 0 .354-.087.5-.262.145-.175.316-.5.513-.978l1.984-4.799c.244-.617.403-1.018.479-1.204.46-1.164.915-1.938 1.365-2.321.572-.5 1.613-.75 3.124-.75 2.654 0 3.982.75 3.982 2.251 0 .337-.052.608-.155.812s-.314.451-.633.742c-.432.407-.704.995-.816 1.763-.216 1.605-.323 3.56-.323 5.863 0 2.967.112 5.567.338 7.801.056.547.143.919.26 1.117s.42.495.908.89c.337.279.506.651.506 1.117 0 .816-.436 1.391-1.309 1.729zm17.105-1.728a4.967 4.967 0 0 1-1.4 1.518c-.703.512-1.439.768-2.209.768-.985 0-1.764-.419-2.336-1.256-.197-.303-.38-.454-.549-.454-.188 0-.437.146-.746.437-.938.849-2.003 1.274-3.194 1.274-1.229 0-2.223-.326-2.983-.977-.497-.431-.891-.992-1.182-1.684a5.553 5.553 0 0 1-.437-2.173c0-1.21.395-2.28 1.183-3.211 1.229-1.466 3.067-2.205 5.516-2.216.544 0 .887-.067 1.027-.201s.211-.445.211-.934c0-1.233-.103-2.126-.31-2.679-.206-.552-.544-.829-1.013-.829-.281 0-.532.104-.753.314s-.495.593-.823 1.152c-.835 1.478-1.708 2.216-2.617 2.216-.46 0-.835-.168-1.126-.506-.291-.337-.437-.779-.437-1.326 0-.559.181-1.117.542-1.675s.852-1.047 1.471-1.466c1.698-1.117 3.471-1.675 5.319-1.675 1.632 0 3.016.512 4.151 1.536.6.547 1.02 1.172 1.259 1.876.239.704.359 1.672.359 2.906l-.028 2.6c0 1.804.104 2.973.31 3.508.104.256.201.419.296.489.093.07.29.134.591.192.3.058.45.303.45.733 0 .557-.181 1.138-.542 1.743zm15.824-9.904c-.206.576-.474 1.05-.802 1.422-.601.71-1.337 1.064-2.21 1.064-.478 0-.879-.104-1.203-.314-.323-.209-.748-.634-1.273-1.274-.196-.245-.38-.367-.549-.367-.263 0-.434.184-.514.55-.079.367-.119 1.137-.119 2.312 0 1.757.052 2.955.154 3.595.066.349.157.591.274.725s.368.271.753.41c.845.314 1.267.861 1.267 1.641 0 .477-.136.893-.408 1.248-.271.355-.633.59-1.083.707-.9.232-2.224.349-3.969.349-1.66 0-2.922-.181-3.785-.541-.77-.326-1.154-.89-1.154-1.693 0-.605.282-1.146.845-1.623.272-.221.46-.421.562-.602.104-.18.174-.428.212-.742.149-1.059.225-3.019.225-5.881 0-.524-.047-.899-.141-1.126s-.281-.41-.562-.55c-.667-.325-.999-.796-.999-1.414 0-.558.229-1.038.689-1.439.459-.401 1.229-.8 2.308-1.195 1.444-.535 2.674-.809 3.687-.82.497 0 .8.087.908.262.107.174.204.733.288 1.675.047.512.192.768.437.768.188 0 .365-.168.534-.506.751-1.454 1.731-2.181 2.941-2.181.854 0 1.553.343 2.097 1.029.263.338.479.771.647 1.3s.253 1.039.253 1.527a5.005 5.005 0 0 1-.31 1.684zm13.115 10.078c-1.332 1.408-2.946 2.112-4.841 2.112-1.501 0-2.706-.526-3.616-1.58-.91-1.053-1.365-2.44-1.365-4.162v-8.062c0-.268-.025-.433-.077-.497s-.186-.096-.401-.096h-1.449c-.272 0-.445-.055-.521-.166-.075-.111-.112-.37-.112-.777v-.768c.009-.349.117-.604.323-.768l6.445-5.026a1.05 1.05 0 0 1 .591-.157h1.14c.234 0 .392.067.472.201.079.134.119.398.119.794v2.356c0 .349.045.576.134.681s.279.157.57.157h2.603c.348 0 .572.079.676.235.104.157.155.492.155 1.003v1.03c0 .559-.066.945-.197 1.161-.132.215-.371.323-.718.323H546.4c-.263 0-.441.058-.535.174-.094.117-.141.338-.141.663v5.899c0 .698.139 1.268.415 1.71.277.442.631.663 1.062.663.366 0 .85-.209 1.449-.628a.708.708 0 0 1 .423-.157c.225 0 .431.169.619.506s.281.704.281 1.099c0 .722-.319 1.414-.957 2.077zm17.407 1.501c-1.173.337-2.309.506-3.406.506-.45 0-.758-.064-.921-.192-.165-.128-.261-.378-.289-.75-.047-.722-.225-1.082-.534-1.082a.536.536 0 0 0-.31.096c-.095.064-.381.3-.858.707-.948.803-1.966 1.204-3.054 1.204-1.802 0-3.073-.646-3.813-1.937-.629-1.082-.943-2.903-.943-5.462 0-.954.005-1.769.015-2.443v-.803c0-1-.073-1.736-.219-2.208s-.41-.84-.795-1.108c-.366-.232-.598-.418-.696-.558s-.148-.332-.148-.576c0-.884.54-1.472 1.619-1.763 1.838-.5 3.677-.75 5.516-.75.554 0 .83.291.83.873v9.458c0 2.024.54 3.037 1.618 3.037.272 0 .54-.096.803-.288s.445-.428.549-.707c.206-.559.31-1.803.31-3.735 0-1.908-.052-3.211-.155-3.909-.037-.291-.103-.503-.196-.637-.095-.134-.272-.288-.535-.462-.535-.349-.802-.791-.802-1.327 0-.721.459-1.221 1.379-1.5 1.745-.535 3.466-.803 5.164-.803.947 0 1.422.623 1.422 1.867 0 .128-.005.39-.015.785a91.866 91.866 0 0 0-.042 2.042v7.696c0 .396.271.757.816 1.082.459.279.689.687.689 1.222-.002 1.047-1.001 1.856-2.999 2.425zm18.842-1.797c-1.67 1.605-3.851 2.408-6.543 2.408-1.201 0-2.468-.178-3.8-.532-1.332-.355-2.294-.771-2.885-1.248-.45-.372-.855-1.184-1.217-2.434a13.153 13.153 0 0 1-.542-3.656c0-.57.094-1 .281-1.292.234-.372.53-.558.887-.558s.699.227 1.027.68c.197.256.661 1.077 1.394 2.461.347.651.897 1.192 1.653 1.623.755.43 1.536.646 2.343.646.694 0 1.257-.16 1.688-.48.432-.32.647-.73.647-1.23 0-.465-.169-.867-.507-1.205-.338-.337-.887-.651-1.646-.942-1.342-.523-2.364-1.003-3.067-1.439a9.456 9.456 0 0 1-1.97-1.649c-1.482-1.628-2.224-3.479-2.224-5.549 0-1.024.192-2.021.577-2.993a7.405 7.405 0 0 1 1.632-2.521c1.576-1.641 3.499-2.461 5.77-2.461.966 0 2.232.297 3.8.89.188.07.338.105.45.105.094 0 .375-.105.844-.314.15-.07.31-.104.479-.104.629 0 1.293.617 1.991 1.85.699 1.233 1.049 2.409 1.049 3.525 0 .652-.157 1.201-.472 1.649-.314.448-.696.672-1.146.672-.376 0-.681-.093-.915-.279s-.751-.739-1.548-1.658c-1.126-1.303-2.232-1.955-3.321-1.955-.525 0-.945.157-1.259.471-.314.314-.472.728-.472 1.239 0 1.012.718 1.774 2.153 2.286 1.941.71 3.185 1.228 3.729 1.553 2.393 1.443 3.589 3.566 3.589 6.37 0 2.476-.816 4.5-2.449 6.071zm17.703 2.286c-2.721 0-4.081-.587-4.081-1.763 0-.198.023-.349.07-.454s.211-.384.492-.838c.395-.64.591-2.239.591-4.799 0-1.547-.117-2.676-.352-3.386-.31-.966-.863-1.449-1.66-1.449-.572 0-.995.256-1.267.768-.197.373-.296 1.07-.296 2.094v3.368c.065 1.489.122 2.333.169 2.53.047.198.263.564.647 1.1.178.244.268.529.268.855 0 1.315-1.379 1.972-4.138 1.972-3.227 0-4.841-.681-4.841-2.042 0-.314.052-.555.155-.724.104-.168.356-.428.76-.777.356-.314.603-1.16.739-2.539.136-1.378.204-3.662.204-6.85 0-2.501-.057-4.235-.169-5.201-.038-.36-.105-.625-.204-.794-.099-.168-.284-.34-.557-.515-.581-.372-.872-.803-.872-1.292 0-.582.221-1.053.661-1.414.441-.36 1.285-.75 2.533-1.169 1.688-.582 3.035-.873 4.039-.873.544 0 .807.291.788.873l-.184 7.312c-.019.873.197 1.309.647 1.309.226 0 .445-.192.661-.576.91-1.641 2.125-2.461 3.646-2.461 1.491 0 2.678.564 3.56 1.693.395.5.673 1.094.838 1.78.164.687.255 1.669.274 2.949l.126 6.3c.01.547.068.949.176 1.204.108.256.359.576.753.96a1.3 1.3 0 0 1 .408.96c.003 1.261-1.526 1.889-4.584 1.889zm18.954-2.408c-1.782 1.687-3.822 2.53-6.121 2.53-2.242 0-4.058-.791-5.445-2.374-1.352-1.536-2.026-3.537-2.026-6.003 0-2.746.825-4.991 2.477-6.736 1.726-1.838 3.822-2.757 6.29-2.757 1.717 0 3.223.553 4.517 1.658.93.792 1.675 1.821 2.238 3.089.581 1.326.872 2.711.872 4.153-.001 2.525-.935 4.671-2.802 6.44zm19.589.314c-1.229 1.478-2.627 2.216-4.193 2.216-.798 0-1.618-.233-2.463-.698-.169-.093-.305-.14-.408-.14-.281 0-.422.349-.422 1.047 0 .919.249 1.582.746 1.989.459.384.733.643.823.777.089.133.134.357.134.672 0 .698-.314 1.236-.943 1.614-.628.378-1.515.567-2.659.567-2.036 0-3.818-.506-5.348-1.518-.778-.512-1.168-1.146-1.168-1.902 0-.349.059-.614.176-.794.117-.181.345-.37.683-.567.488-.279.786-.785.894-1.518s.19-2.838.246-6.317c-.065-2.862-.149-4.468-.253-4.816-.038-.116-.092-.192-.162-.227s-.303-.099-.696-.192a1.19 1.19 0 0 1-.731-.515c-.188-.273-.282-.602-.282-.986 0-.465.132-.875.395-1.23.263-.354.689-.701 1.28-1.038 2.299-1.292 4.123-1.949 5.475-1.972.571 0 .929.061 1.069.183.141.123.211.428.211.917 0 .431.112.646.338.646.094 0 .408-.221.942-.663.403-.337.917-.62 1.541-.846.624-.227 1.189-.34 1.695-.34 1.191 0 2.257.512 3.194 1.536.713.779 1.267 1.763 1.661 2.949.412 1.245.619 2.554.619 3.927-.001 2.928-.799 5.343-2.394 7.239z"/><path d="M635.109 54.383c-.667 0-1.027.547-1.084 1.641l-.211 4.799a11.4 11.4 0 0 0-.014.576c0 .361.126.652.38.873.253.221.591.332 1.013.332 1.295 0 1.942-1.32 1.942-3.961 0-1.71-.272-2.915-.816-3.612-.338-.433-.741-.648-1.21-.648z"/></g><path fill="#FF8300" d="M544.297 97.393a.5.5 0 0 0-.613-.354l-9.067 2.223a15.335 15.335 0 0 0-.877-3.031l9.133-4.469a.499.499 0 1 0-.436-.9l-9.097 4.452a20.394 20.394 0 0 0-1.281-2.311l8.716-6.147a.5.5 0 0 0-.58-.815l-8.693 6.13a26.313 26.313 0 0 0-2.678-3.218c-.377-.387-.511-.941-.607-1.467l-.087-.478-.113-.632-.097-.539-.091-.506c-.443-2.459-.93-5.116-1.509-7.376l-.035-.135c-.481-1.854-1.023-3.433-1.651-4.405l-.035-.053a4.647 4.647 0 0 0-.244-.334 2.367 2.367 0 0 0-.39-.382c-.04-.029-.079-.058-.119-.083-.558-.353-1.177-.234-1.868.52-2.629 2.873-3.985 6.83-4.657 9.609-.124.512-.641.883-1.214.873a33.724 33.724 0 0 0-1.946.007c-.043.002-.087.004-.13.008l-.201.011a32.772 32.772 0 0 0-2.02.187l-.171.022c-.44.055-.883.122-1.332.199l-.05.008-.206.037c-.086.014-.173.031-.259.047a32.154 32.154 0 0 0-3.708.92c-.027.007-.054.016-.08.024a19.568 19.568 0 0 0-.821.273 23.035 23.035 0 0 0-.759.275l-.104.04a28.194 28.194 0 0 0-1.562.652c-.693.314-1.371.658-2.031 1.033-.782.445-1.772.369-2.396-.186-1.481-1.317-3.452-2.736-5.904-3.754a17.936 17.936 0 0 0-1.774-.636 17.89 17.89 0 0 0-.855-.236 2.234 2.234 0 0 0-.62-.076c-.411.012-.717.173-.934.458-.284.369-.417.95-.429 1.688-.02 1.089.223 2.523.628 4.125.021.085.045.171.067.258.012.046.023.093.036.138.508 1.924 1.228 4.063 1.999 6.137l.027.075a7.753 7.753 0 0 1 .457 2.653 7.89 7.89 0 0 1-.114 1.271l-10.476-.846a.507.507 0 0 0-.538.458.501.501 0 0 0 .458.539l10.331.835c-.005.018-.007.036-.012.053a14.92 14.92 0 0 0-.58 2.817c-.01.092-.008.187-.017.279l-9.282.834a.5.5 0 0 0 .044.998c.016 0 .03 0 .046-.002l9.132-.82c-.001.045-.007.089-.008.134a15.74 15.74 0 0 0 .409 3.712l-8.038 2.286a.5.5 0 1 0 .273.962l8.023-2.282c.293.96.678 1.883 1.159 2.753 1.797 3.251 4.883 5.773 9.097 6.844 11.123 2.827 32.254-3.201 33.797-15.764.114-.927.112-1.846.021-2.753l9.189-2.256a.498.498 0 0 0 .354-.611z"/><path fill="none" stroke="#FFF" stroke-width="8" stroke-miterlimit="10" d="M282.129 342.949c-2.705-4.931-4.016-10.588-3.828-16.465a31.48 31.48 0 0 1 .266-3.138c.06-.47.134-.938.219-1.404a32.35 32.35 0 0 1 1.259-4.795 16.9 16.9 0 0 0 .894-6.636 16.305 16.305 0 0 0-.544-3.213 15.6 15.6 0 0 0-.344-1.109l-.058-.167c-1.67-4.605-3.22-9.352-4.291-13.616-.028-.102-.051-.204-.076-.307-.048-.192-.098-.384-.142-.572-.85-3.551-1.338-6.723-1.237-9.126.065-1.628.399-2.906 1.072-3.71.514-.62 1.227-.965 2.173-.978a5.37 5.37 0 0 1 1.422.189c.662.169 1.314.354 1.955.551 1.008.305 1.981.646 2.929 1.013.379.146.75.295 1.12.451 5.59 2.332 10.053 5.532 13.394 8.49 1.408 1.246 3.681 1.449 5.502.494a58.524 58.524 0 0 1 4.724-2.211l.126-.053a66.394 66.394 0 0 1 3.501-1.331c.08-.029.162-.059.242-.085a57.425 57.425 0 0 1 1.761-.58c.222-.07.443-.14.666-.208a58.57 58.57 0 0 1 1.238-.365c.061-.017.124-.037.186-.051a76.905 76.905 0 0 1 8.578-1.903c.199-.031.4-.065.599-.094.159-.027.319-.052.476-.076.039-.007.076-.01.115-.017a71.201 71.201 0 0 1 3.073-.394 65.886 65.886 0 0 1 2.749-.253 78.438 78.438 0 0 1 2.764-.151c.099-.008.198-.01.298-.013 1.213-.036 3.028.004 4.478.052 1.315.043 2.525-.759 2.836-1.885 1.686-6.113 5.004-14.799 11.196-21.05 1.627-1.641 3.057-1.881 4.323-1.083.09.056.179.12.269.187.304.228.596.517.879.858a8.212 8.212 0 0 1 .547.745l.078.118c1.395 2.169 2.563 5.671 3.577 9.781l.074.299c1.219 5.01 2.206 10.89 3.101 16.334.061.375.124.749.184 1.121.065.402.131.799.196 1.193.077.474.155.94.228 1.399l.176 1.058c.195 1.165.475 2.392 1.324 3.259 8.172 8.354 14.645 19.611 12.889 31.236-4.181 27.678-53.1 40.252-78.548 33.628-9.644-2.506-16.618-8.179-20.588-15.417z"/><g fill="#FFFDFD"><path d="M453.123 420.428c-1.065 0-1.642.992-1.732 2.979l-.338 8.713c-.014.359-.022.709-.022 1.046 0 .655.203 1.183.607 1.585.406.402.945.602 1.62.602 2.07 0 3.106-2.397 3.106-7.193 0-3.105-.436-5.291-1.305-6.559-.541-.783-1.186-1.173-1.936-1.173zm-196.383 9.157c-.66 0-1.234.38-1.721 1.14-.488.761-.731 1.669-.731 2.725 0 1.014.173 1.833.518 2.456.345.624.802.935 1.372.935 1.2 0 1.8-1.427 1.8-4.278 0-1.162-.087-1.944-.259-2.345-.173-.401-.5-.612-.979-.633zm167.852-8.809c-.495-1.436-1.185-2.175-2.07-2.218-.66 0-1.189.343-1.586 1.029-.398.687-.596 1.6-.596 2.741 0 1.267.169 2.994.506 5.18.338 2.188.739 4.126 1.205 5.816.465 1.733 1.221 2.597 2.272 2.597 1.335 0 2.002-1.193 2.002-3.58 0-1.775-.168-3.791-.506-6.053-.338-2.259-.746-4.096-1.227-5.512z"/><path d="M481.999 356.844H189.653c-7.657 0-13.922 7.114-13.922 15.81v98.108c0 8.695 6.265 15.81 13.922 15.81h292.346c7.657 0 13.922-7.114 13.922-15.81v-98.108c0-8.696-6.265-15.81-13.922-15.81zm-240.155 85.827a7.652 7.652 0 0 1-2.272.666c-.795.106-2.018.158-3.668.158-2.535 0-4.426-.252-5.67-.759-1.38-.57-2.07-1.542-2.07-2.915 0-.507.09-.924.27-1.251.18-.328.645-.924 1.395-1.791.39-.443.656-1.298.799-2.566.142-1.268.214-3.423.214-6.464 0-1.69-.056-2.799-.168-3.328-.113-.528-.349-.791-.709-.791-.42 0-.825.406-1.215 1.22-.39.813-.975 2.434-1.755 4.863l-2.7 8.524c-.465 1.436-.84 2.403-1.125 2.899-.285.496-.6.744-.945.744-.33 0-.623-.2-.878-.602-.165-.254-.544-1.183-1.136-2.788a90.623 90.623 0 0 1-1.474-4.278l-2.97-9.411c-.405-1.31-.832-1.964-1.282-1.964-.48 0-.742.559-.788 1.679a165.066 165.066 0 0 0-.158 6.908c0 2.197.075 3.686.225 4.467.104.465.244.803.416 1.014s.641.592 1.406 1.14c.495.359.742.983.742 1.87 0 2.366-2.153 3.549-6.458 3.549-3.63 0-5.445-1.15-5.445-3.453 0-.592.094-1.02.281-1.284.187-.263.671-.659 1.451-1.188a2.33 2.33 0 0 0 1.001-1.299c.173-.548.319-1.616.439-3.199.135-1.69.263-4.463.383-8.319.12-3.854.18-7.156.18-9.902 0-3.443-.188-5.777-.563-7.003-.135-.422-.288-.74-.461-.951s-.498-.485-.979-.824c-1.065-.718-1.597-1.648-1.597-2.788 0-.74.199-1.416.596-2.029a3.233 3.233 0 0 1 1.587-1.299c.66-.274 1.541-.511 2.643-.713 1.103-.2 2.036-.3 2.801-.3 1.92 0 3.277.221 4.072.665.39.211.698.496.923.855s.547 1.099.967 2.218l4.68 12.137c.509 1.331.862 2.144 1.057 2.44s.465.443.81.443c.3 0 .566-.158.799-.474.232-.318.506-.909.821-1.775l3.173-8.713c.39-1.12.645-1.849.765-2.188.734-2.112 1.462-3.517 2.182-4.214.915-.909 2.58-1.362 4.995-1.362 4.244 0 6.368 1.362 6.368 4.087 0 .613-.083 1.103-.247 1.474-.165.37-.503.818-1.013 1.346-.69.74-1.125 1.807-1.305 3.201-.345 2.915-.518 6.464-.518 10.648 0 5.387.18 10.109.54 14.165.09.992.229 1.668.416 2.027s.671.898 1.451 1.616c.54.507.811 1.183.811 2.029.003 1.476-.694 2.522-2.09 3.133zm27.35-3.136a8.693 8.693 0 0 1-2.239 2.756c-1.125.929-2.302 1.394-3.532 1.394-1.575 0-2.82-.761-3.735-2.281-.315-.55-.608-.824-.878-.824-.3 0-.698.265-1.193.792-1.5 1.541-3.203 2.312-5.108 2.312-1.965 0-3.555-.591-4.77-1.774-.795-.781-1.426-1.801-1.89-3.058a11.275 11.275 0 0 1-.697-3.945c0-2.197.63-4.141 1.89-5.831 1.965-2.662 4.905-4.004 8.82-4.024.87 0 1.418-.122 1.643-.365.225-.243.337-.809.337-1.696 0-2.238-.165-3.86-.495-4.863-.33-1.003-.87-1.506-1.62-1.506-.45 0-.852.191-1.203.572-.353.38-.792 1.077-1.316 2.09-1.336 2.684-2.73 4.024-4.185 4.024-.735 0-1.335-.306-1.8-.918-.465-.613-.698-1.415-.698-2.408 0-1.014.288-2.029.866-3.042.578-1.014 1.362-1.901 2.351-2.662 2.715-2.029 5.55-3.043 8.505-3.043 2.61 0 4.823.931 6.637 2.789a8.252 8.252 0 0 1 2.014 3.406c.383 1.279.574 3.037.574 5.276l-.045 4.722c0 3.275.165 5.398.495 6.368.165.466.323.761.473.888.15.126.465.243.945.348.48.106.72.55.72 1.331 0 1.017-.289 2.074-.866 3.172zm25.301-17.983c-.33 1.046-.757 1.907-1.282 2.582-.96 1.29-2.138 1.934-3.532 1.934-.765 0-1.407-.191-1.924-.572-.518-.38-1.196-1.15-2.036-2.312-.315-.444-.608-.666-.878-.666-.42 0-.694.333-.821.999-.127.665-.191 2.064-.191 4.198 0 3.19.083 5.366.247 6.527.105.633.251 1.072.439 1.315.188.244.588.492 1.204.746 1.35.57 2.025 1.563 2.025 2.979 0 .866-.217 1.622-.652 2.266-.435.644-1.013 1.072-1.733 1.283-1.44.422-3.555.633-6.345.633-2.655 0-4.673-.328-6.053-.981-1.23-.592-1.845-1.616-1.845-3.074 0-1.098.45-2.081 1.35-2.947.435-.4.734-.765.9-1.092.165-.328.278-.777.337-1.347.24-1.922.36-5.481.36-10.679 0-.95-.075-1.631-.225-2.044-.15-.411-.45-.744-.9-.998-1.066-.591-1.598-1.446-1.598-2.566 0-1.014.368-1.886 1.103-2.615.735-.728 1.965-1.452 3.69-2.17 2.31-.972 4.275-1.468 5.895-1.49.795 0 1.278.159 1.451.476.173.317.327 1.331.462 3.042.075.931.307 1.395.697 1.395.3 0 .585-.307.855-.92 1.2-2.64 2.768-3.961 4.703-3.961 1.365 0 2.482.624 3.353 1.87.42.614.765 1.399 1.035 2.362.27.961.405 1.885.405 2.772-.001.99-.166 2.009-.496 3.055zm20.971 18.3c-2.13 2.556-4.71 3.834-7.741 3.834-2.4 0-4.328-.955-5.782-2.867-1.455-1.912-2.183-4.431-2.183-7.558v-14.639c0-.485-.041-.787-.124-.903-.083-.115-.296-.174-.641-.174h-2.317c-.435 0-.712-.1-.833-.302-.12-.2-.18-.67-.18-1.409v-1.395c.015-.633.188-1.098.518-1.394l10.305-9.126c.255-.191.57-.285.945-.285h1.823c.375 0 .626.122.754.365.127.243.191.724.191 1.442v4.278c0 .633.071 1.046.214 1.235.142.191.446.285.911.285h4.162c.555 0 .915.143 1.08.429.165.285.248.892.248 1.822v1.87c0 1.014-.106 1.716-.315 2.107-.211.391-.593.587-1.148.587h-4.073c-.42 0-.706.106-.855.317-.15.211-.225.613-.225 1.203v10.711c0 1.268.221 2.303.664 3.106.442.803 1.009 1.203 1.699 1.203.585 0 1.357-.38 2.317-1.14.225-.191.45-.285.675-.285.36 0 .69.307.99.918.3.614.45 1.279.45 1.997.001 1.307-.509 2.563-1.529 3.768zm27.832 2.725c-1.875.613-3.69.918-5.445.918-.72 0-1.212-.115-1.474-.348-.263-.233-.416-.685-.461-1.362-.075-1.309-.36-1.964-.855-1.964a.79.79 0 0 0-.495.174c-.15.117-.608.544-1.373 1.283-1.515 1.458-3.142 2.186-4.882 2.186-2.88 0-4.913-1.172-6.097-3.517-1.005-1.964-1.508-5.27-1.508-9.918 0-1.731.007-3.21.022-4.436v-1.458c0-1.816-.116-3.153-.349-4.008-.233-.855-.657-1.526-1.271-2.012-.585-.422-.957-.761-1.114-1.014-.158-.254-.236-.602-.236-1.046 0-1.605.862-2.671 2.587-3.201 2.94-.907 5.88-1.362 8.82-1.362.885 0 1.327.529 1.327 1.585v17.175c0 3.676.862 5.514 2.588 5.514.435 0 .862-.174 1.282-.524.42-.348.712-.776.878-1.283.329-1.014.495-3.275.495-6.781 0-3.465-.083-5.831-.247-7.099-.06-.528-.165-.913-.315-1.156s-.435-.524-.855-.84c-.855-.633-1.283-1.436-1.283-2.408 0-1.309.735-2.218 2.205-2.725 2.79-.972 5.543-1.458 8.258-1.458 1.515 0 2.272 1.131 2.272 3.391 0 .233-.008.709-.022 1.426-.03 1.014-.052 2.251-.068 3.708v13.974c0 .718.435 1.373 1.305 1.964.734.507 1.102 1.247 1.102 2.219.002 1.9-1.596 3.368-4.791 4.403zm30.128-3.264c-2.67 2.915-6.158 4.372-10.462 4.372-1.92 0-3.945-.322-6.075-.966s-3.668-1.399-4.613-2.266c-.72-.676-1.369-2.149-1.946-4.42-.578-2.27-.866-4.484-.866-6.638 0-1.035.15-1.816.45-2.345.375-.676.847-1.014 1.418-1.014.57 0 1.117.413 1.643 1.236.315.465 1.057 1.955 2.228 4.468.555 1.183 1.436 2.166 2.643 2.947 1.208.781 2.456 1.172 3.747 1.172 1.11 0 2.01-.291 2.7-.872.69-.58 1.035-1.325 1.035-2.234 0-.844-.27-1.572-.81-2.186-.54-.611-1.418-1.183-2.633-1.711-2.145-.951-3.78-1.822-4.905-2.614-1.125-.792-2.175-1.79-3.15-2.995-2.37-2.957-3.555-6.316-3.555-10.076 0-1.859.307-3.671.922-5.435s1.485-3.29 2.61-4.579c2.52-2.979 5.595-4.467 9.225-4.467 1.545 0 3.57.539 6.075 1.616.3.126.54.189.72.189.15 0 .6-.189 1.35-.57.24-.126.495-.189.765-.189 1.005 0 2.066 1.12 3.184 3.358 1.117 2.24 1.677 4.372 1.677 6.401 0 1.183-.252 2.181-.754 2.995-.503.813-1.114 1.22-1.834 1.22-.6 0-1.088-.17-1.462-.507-.375-.339-1.2-1.342-2.475-3.01-1.8-2.366-3.57-3.55-5.31-3.55-.84 0-1.511.285-2.014.857-.503.57-.754 1.32-.754 2.249 0 1.838 1.148 3.221 3.443 4.15 3.105 1.29 5.092 2.23 5.962 2.821 3.825 2.619 5.738 6.475 5.738 11.566-.002 4.5-1.307 8.175-3.917 11.027zm28.307 4.151c-4.35 0-6.525-1.066-6.525-3.201 0-.358.036-.633.111-.824.075-.189.338-.696.787-1.52.63-1.162.946-4.067.946-8.715 0-2.809-.188-4.858-.562-6.148-.495-1.753-1.381-2.629-2.655-2.629-.915 0-1.59.465-2.025 1.394-.315.676-.473 1.944-.473 3.802v6.116c.105 2.704.195 4.235.27 4.595.075.359.42 1.025 1.035 1.996.285.444.427.962.427 1.553 0 2.388-2.205 3.58-6.614 3.58-5.161 0-7.74-1.235-7.74-3.706 0-.572.082-1.009.247-1.316.165-.306.57-.776 1.215-1.41.57-.57.964-2.107 1.181-4.61.217-2.504.327-6.649.327-12.438 0-4.541-.09-7.69-.27-9.443-.06-.655-.169-1.135-.327-1.442-.158-.306-.454-.618-.889-.935-.93-.676-1.395-1.457-1.395-2.345 0-1.055.352-1.911 1.057-2.566.705-.655 2.055-1.362 4.05-2.123 2.7-1.057 4.852-1.585 6.458-1.585.87 0 1.29.528 1.26 1.585l-.293 13.277c-.03 1.585.315 2.377 1.035 2.377.36 0 .712-.348 1.057-1.046 1.456-2.978 3.399-4.467 5.827-4.467 2.385 0 4.283 1.024 5.692 3.073.63.909 1.077 1.986 1.34 3.232.263 1.247.408 3.032.439 5.355l.203 11.44c.014.992.109 1.722.28 2.186.174.465.575 1.046 1.205 1.742.435.487.652 1.068.652 1.744 0 2.281-2.445 3.422-7.333 3.422zm30.307-4.373c-2.85 3.064-6.112 4.595-9.788 4.595-3.585 0-6.488-1.436-8.707-4.309-2.159-2.788-3.24-6.422-3.24-10.9 0-4.987 1.319-9.063 3.96-12.232 2.759-3.338 6.112-5.007 10.057-5.007 2.745 0 5.153 1.005 7.223 3.011 1.485 1.436 2.677 3.306 3.578 5.607a20.784 20.784 0 0 1 1.395 7.543c0 4.584-1.493 8.482-4.478 11.692zm31.321.57c-1.965 2.684-4.2 4.024-6.705 4.024-1.275 0-2.588-.422-3.937-1.268-.27-.169-.488-.252-.653-.252-.45 0-.675.633-.675 1.901 0 1.668.397 2.872 1.193 3.612.735.698 1.173 1.166 1.317 1.41.141.243.214.65.214 1.22 0 1.268-.503 2.244-1.508 2.931s-2.422 1.031-4.254 1.031c-3.254 0-6.105-.92-8.549-2.758-1.246-.929-1.867-2.081-1.867-3.454 0-.633.093-1.114.281-1.441.187-.329.55-.672 1.091-1.031.78-.507 1.255-1.426 1.428-2.756.173-1.331.304-5.154.395-11.471-.105-5.196-.24-8.112-.406-8.745-.06-.211-.146-.35-.258-.413s-.484-.18-1.114-.348c-.48-.127-.87-.439-1.17-.935-.301-.496-.45-1.094-.45-1.79 0-.844.21-1.59.63-2.234s1.102-1.272 2.047-1.886c3.675-2.344 6.593-3.538 8.753-3.58.914 0 1.485.111 1.709.333.226.222.338.776.338 1.664 0 .781.18 1.172.54 1.172.15 0 .653-.402 1.508-1.205.645-.611 1.467-1.124 2.464-1.537.998-.411 1.902-.618 2.712-.618 1.905 0 3.607.931 5.107 2.789 1.141 1.416 2.025 3.201 2.655 5.355.66 2.26.99 4.637.99 7.129-.001 5.325-1.276 9.708-3.826 13.151z"/></g><path fill="#FFF" d="M323.267 314.023c.074 3.48-2.807 6.376-6.435 6.469s-6.629-2.653-6.704-6.133c-.074-3.48 2.807-6.376 6.435-6.469 3.628-.092 6.629 2.653 6.704 6.133zm19.367-4.049c.074 3.48-2.807 6.376-6.435 6.469s-6.629-2.653-6.704-6.133c-.074-3.48 2.807-6.376 6.435-6.469 3.628-.093 6.63 2.653 6.704 6.133zm1.342 22.696a1.007 1.007 0 0 0-1.377.058c-.032.033-3.189 3.28-6.632 2.911-1.431-.155-2.741-.942-3.915-2.337l3.737-6.126-.017-.009a4.31 4.31 0 0 0 .313-3.074c-.65-2.395-3.204-3.819-5.705-3.18a4.699 4.699 0 0 0-2.553 1.656 4.843 4.843 0 0 0-2.737-.096c-2.5.638-4 3.097-3.35 5.492.371 1.365 1.361 2.413 2.606 2.945l5.394 3.007c-.455 1.526-1.234 2.649-2.346 3.331-2.909 1.788-7.239.21-7.283.194-.502-.188-1.067.053-1.264.533a.917.917 0 0 0 .546 1.209c.128.048 1.997.735 4.284.784 1.53.033 3.247-.22 4.753-1.142 1.296-.793 2.249-1.976 2.872-3.512 1.318 1.273 2.801 2.006 4.434 2.183.206.022.41.035.613.04 4.138.089 7.53-3.391 7.679-3.546a.908.908 0 0 0-.052-1.321z"/><path fill="none" stroke="#FFF" stroke-width="2" stroke-linecap="round" stroke-miterlimit="10" d="M340.732 320.975l24.075-16.433m-22.659 19.229l28.702-9.272m-28.25 12.272l29.356 1.005m-56.155-1.368l-28.129-7.611m27.534 11.023l-29.165-.737m29.616 3.819l-28.774 9.922"/><path fill="#FFF" d="M284.666 287.587c-1.571-1.021-3.654.307-3.289 2.096l1.859 9.115c.263 1.798 2.41 2.688 3.967 1.644l4.417-2.961c1.92-1.287 1.965-3.996.088-5.319l-7.042-4.575zm68.998-15.317c1.001-1.559 3.461-1.18 3.884.597l2.154 9.054c.52 1.744-1.062 3.413-2.922 3.083l-5.278-.935c-2.295-.407-3.479-2.859-2.326-4.814l4.488-6.985z"/><path opacity=".25" fill="#D8D8D8" d="M366.881 291.531c-.06-.349-.117-.701-.176-1.058-.073-.459-.151-.925-.228-1.399-.065-.394-.131-.791-.196-1.193-.06-.372-.123-.746-.184-1.121-.895-5.444-1.882-11.324-3.101-16.334l-.074-.299c-1.014-4.11-2.181-7.612-3.577-9.781l-.078-.118a8.212 8.212 0 0 0-.547-.745 5.275 5.275 0 0 0-.879-.858 4.358 4.358 0 0 0-.269-.187c-1.266-.798-2.696-.558-4.323 1.083-6.192 6.25-9.511 14.937-11.196 21.05-.31 1.126-1.52 1.928-2.836 1.885-1.45-.048-3.265-.088-4.478-.052-.1.003-.2.006-.298.013a78.438 78.438 0 0 0-2.764.151c-.777.056-1.562.124-2.355.21-.13.012-.262.028-.394.043a68.008 68.008 0 0 0-3.073.394c-.039.007-.076.01-.115.017-.157.024-.317.048-.476.075-.199.029-.4.063-.599.094a77.03 77.03 0 0 0-8.578 1.903c-.062.014-.125.034-.186.051a58.57 58.57 0 0 0-1.238.365c-.222.068-.444.138-.666.208l-.36.115a54.684 54.684 0 0 0-1.643.55 66.394 66.394 0 0 0-3.626 1.384 58.524 58.524 0 0 0-4.724 2.211c-1.821.955-4.095.752-5.503-.494-3.34-2.958-7.804-6.159-13.394-8.49-.37-.155-.742-.305-1.12-.451a39.823 39.823 0 0 0-2.929-1.013 42.129 42.129 0 0 0-1.955-.551 5.37 5.37 0 0 0-1.422-.189c-.945.013-1.658.358-2.172.978-.672.804-1.006 2.083-1.072 3.71-.101 2.403.387 5.576 1.237 9.126.044.188.094.38.142.572.025.102.048.205.076.307 1.071 4.264 2.621 9.011 4.291 13.616l.058.167c.129.366.243.736.344 1.109a16.317 16.317 0 0 1 .576 4.764 16.838 16.838 0 0 1-.926 5.085 32.317 32.317 0 0 0-1.259 4.795 26.59 26.59 0 0 0-.219 1.404c-.051.373-.087.749-.124 1.126.435.487.675.775.675.775-.492-.591 4.414-6.963 4.812-7.515 3.964-5.49 8.632-10.741 13.932-15.082 11.486-9.408 28.522-12.992 43.144-10.599 11.048 1.809 21.393 7.054 29.304 14.618 4.837 4.624 8.282 10.312 11.146 16.276.876-10.983-5.332-21.517-13.083-29.44-.847-.869-1.128-2.096-1.322-3.261z"/><ellipse transform="rotate(-94.232 291.936 362.035)" fill="#E5C29C" stroke="#E5C29C" stroke-width="8" stroke-miterlimit="10" cx="291.943" cy="362.043" rx="19.287" ry="20.114"/><path opacity=".25" fill="#B29579" d="M288.014 357.59c7.667-3.249 16.277-1.554 21.957 3.64a18.432 18.432 0 0 0-1.649-8.186c-4.435-9.741-16.284-14.14-26.466-9.825s-14.841 15.709-10.406 25.45a19.062 19.062 0 0 0 4.508 6.185c.2-7.258 4.66-14.13 12.056-17.264z"/><path fill="#E5C29C" stroke="#E5C29C" stroke-width="8" stroke-miterlimit="10" d="M424.298 358.7s-3.554-14.57-22.556-19.403c-16.653-4.235-49.671 6.586-49.988 6.687-11.279 3.6-18.058 9.386-17.328 19.263.731 9.877 9.673 17.266 19.973 16.504s18.058-9.386 17.328-19.263l-.003-.046c-.109-1.451 1.211-2.499 2.517-2.236.56.113 1.12.228 1.691.208l48.366-1.714z"/><path opacity=".25" fill="#B29579" d="M345.56 373.717c-.731-9.877 6.049-15.663 17.328-19.263.317-.101 33.335-10.922 49.988-6.687 3.123.794 5.822 1.855 8.163 3.067-3.335-4.069-8.862-8.528-17.844-10.812-16.653-4.235-49.671 6.586-49.988 6.687-11.279 3.6-18.058 9.386-17.328 19.263.537 7.253 5.509 13.151 12.188 15.478a17.22 17.22 0 0 1-2.507-7.733z"/><path fill="#FFF" d="M301.297 178.886a.5.5 0 0 0-.613-.354l-9.067 2.223a15.335 15.335 0 0 0-.877-3.031l9.133-4.469a.499.499 0 1 0-.436-.9l-9.097 4.452a20.394 20.394 0 0 0-1.281-2.311l8.716-6.147a.5.5 0 0 0-.58-.815l-8.693 6.13a26.313 26.313 0 0 0-2.678-3.218c-.377-.387-.511-.941-.607-1.467l-.087-.478-.113-.632-.097-.539-.091-.506c-.443-2.459-.93-5.116-1.509-7.376l-.035-.135c-.481-1.854-1.023-3.433-1.651-4.405l-.035-.053a4.647 4.647 0 0 0-.244-.334 2.367 2.367 0 0 0-.39-.382c-.04-.029-.079-.058-.119-.083-.558-.353-1.177-.234-1.868.52-2.629 2.873-3.985 6.83-4.657 9.609-.124.512-.641.883-1.214.873a33.724 33.724 0 0 0-1.946.007c-.043.002-.087.004-.13.008l-.201.011a32.772 32.772 0 0 0-2.02.187l-.171.022c-.44.055-.883.122-1.332.199l-.05.008-.206.037c-.086.014-.173.031-.259.047a32.154 32.154 0 0 0-3.708.92c-.027.007-.054.016-.08.024a19.568 19.568 0 0 0-.821.273 23.035 23.035 0 0 0-.759.275l-.104.04a28.194 28.194 0 0 0-1.562.652c-.693.314-1.371.658-2.031 1.033-.782.445-1.772.369-2.396-.186-1.481-1.317-3.452-2.736-5.904-3.754a17.936 17.936 0 0 0-1.774-.636 17.89 17.89 0 0 0-.855-.236 2.234 2.234 0 0 0-.62-.076c-.411.012-.717.173-.934.458-.284.369-.417.95-.429 1.688-.02 1.089.223 2.523.628 4.125.021.085.045.171.067.258.012.046.023.093.036.138.508 1.924 1.228 4.063 1.999 6.137l.027.075a7.753 7.753 0 0 1 .457 2.653 7.89 7.89 0 0 1-.114 1.271l-10.476-.846a.507.507 0 0 0-.538.458.501.501 0 0 0 .458.539l10.331.835c-.005.018-.007.036-.012.053a14.92 14.92 0 0 0-.58 2.817c-.01.092-.008.187-.017.279l-9.282.834a.5.5 0 0 0 .044.998c.016 0 .03 0 .046-.002l9.132-.82c-.001.045-.007.089-.008.134a15.74 15.74 0 0 0 .409 3.712l-8.038 2.286a.5.5 0 1 0 .273.962l8.023-2.282c.293.96.678 1.883 1.159 2.753 1.797 3.251 4.883 5.773 9.097 6.844 11.123 2.827 32.254-3.201 33.797-15.764.114-.927.112-1.846.021-2.753l9.189-2.256a.498.498 0 0 0 .354-.611z"/><text transform="translate(321.697 187.953)" fill="#FFF" font-family="'MuseoSansCyrl-900'" font-size="24">MartuShop</text><path fill="none" stroke="#FFF" stroke-width="6" stroke-linecap="round" stroke-miterlimit="10" d="M297.481 193.608l-5.523 7.752m12.028-9.092l-10.157 13.65m14.455-10.635L298 209.311m10.944-7.66l-6.101 7.879"/><path fill="#FFF" d="M293.547 196.105c-1.703 1.379-3.398 3.111-3.805 5.358-.55 3.034.678 5.227 2.475 7.524 3.061 3.914 8.692 5.808 12.653 2.058 1.979-1.874 1.887-5.184 0-7.071-1.966-1.966-5.093-1.873-7.071 0 .729-.69 1.808-.9 2.768-.706 1.059.215.348.171-.102-.104-1.072-.654.74.668-.193-.184a10.96 10.96 0 0 1-.766-.803c-.832-.933.85 1.185-.092-.141l-.224-.384c.405.64.489 1.358.252 2.152-.048.263-1.03 1.464-.304.67.441-.482.974-.888 1.479-1.297 2.121-1.718 1.775-5.296 0-7.071-2.076-2.078-4.954-1.715-7.07-.001z"/><path fill="#FFF" d="M293.602 196.686c.288-.382.246-.359-.128.067-.329.348-.704.657-1.063.972-.463.405-.944 1.124-1.265 1.562-.635.864.298-.315.463-.41-1.776 1.034-3.114 3.597-2.298 5.647 1.288 3.234 3.494 5.511 6.605 7.079 2.434 1.227 5.401.664 6.841-1.794 1.312-2.24.638-5.615-1.794-6.841a14.468 14.468 0 0 1-.819-.429c-.057-.031-1.326-.887-.56-.287a7.815 7.815 0 0 1-.693-.644c.72.711-.331-.733.064.258l-2.298 5.647c.581-.338 1.1-.763 1.599-1.213.37-.419.717-.857 1.041-1.313.347-.455.327-.435-.059.061.928-1.167 2.084-2.09 3-3.313 1.638-2.187.357-5.581-1.794-6.841-2.554-1.498-5.212-.385-6.842 1.792z"/><path fill="#FFF" d="M293.066 206.183c.166 1.418.219 1.683.779 2.956.268.61.728 1.131 1.181 1.614 1.864 1.988 5.191 1.88 7.071 0 1.973-1.973 1.863-5.084 0-7.071a1.772 1.772 0 0 1-.188-.218l.782 1.012a2.427 2.427 0 0 1-.211-.384l.504 1.194a1.478 1.478 0 0 1-.079-.284l.179 1.329a7.446 7.446 0 0 1-.017-.148l-.179-1.329a4.997 4.997 0 0 0-1.286-2.206c-.933-.933-2.215-1.464-3.536-1.464s-2.602.531-3.536 1.464c-.844.844-1.61 2.295-1.464 3.535z"/><path fill="#FFBDCB" d="M297.153 196.015c2.579 0 2.579-4 0-4s-2.579 4 0 4zm6.665-1.508c2.579 0 2.579-4 0-4s-2.579 4 0 4zm4.298 3.015c2.579 0 2.579-4 0-4s-2.579 4 0 4zm.529 6.555c2.579 0 2.579-4 0-4-2.58 0-2.58 4 0 4z"/><ellipse transform="rotate(-54.948 297.16 205.875)" fill="#FFF" stroke="#FFF" stroke-width=".4" stroke-linecap="round" stroke-miterlimit="10" cx="297.148" cy="205.867" rx="6.343" ry="9.47"/><path fill="#FFBDCB" d="M297.386 200.474c1.403 1.606 3.286 2.656 5.019 3.856.898.622 2.217.169 2.736-.717.583-.995.177-2.117-.718-2.736-1.466-1.015-3.024-1.872-4.21-3.23-.718-.822-2.097-.732-2.828 0-.809.808-.716 2.007.001 2.827z"/><path fill="#FFBDCB" d="M301.515 202.066c1.462-.57 2.342-1.684 3.22-2.934.628-.894.164-2.22-.718-2.736-1-.586-2.111-.173-2.736.717-.098.139-.196.278-.296.416-.128.171-.11.15.055-.064a8.382 8.382 0 0 1-.283.341 5.602 5.602 0 0 1-.41.42c-.168.143-.142.126.079-.052-.117.085-.5.239.025.034-1.015.396-1.709 1.327-1.397 2.46.268.97 1.444 1.795 2.461 1.398z"/><path fill="none" stroke="#FFF" stroke-width="6" stroke-linecap="round" stroke-miterlimit="10" d="M249.755 217.673l8.519 4.247m-10.857-10.464l15.067 7.905m-12.758-12.62l15.459 7.972m-9.273-9.618l8.734 4.798"/><path fill="#FFF" d="M252.24 220.661c2.059 1.856 4.16 3.396 7.041 3.462 2.549.058 4.793-1.626 6.349-3.488 1.328-1.589 2.589-3.446 2.965-5.524.596-3.292-.572-5.744-3.186-7.729-2.176-1.652-5.588-.345-6.841 1.794-1.503 2.565-.372 5.196 1.794 6.841-.882-.67-1.533-1.412-1.563-2.539-.032-1.218.09-.624-.096-.085.424-1.235.045-.232-.124.055-.124.2-.254.396-.391.587.441-.553.496-.628.164-.225a9.7 9.7 0 0 1-.589.628c-.831.828.207-.088.513-.182l1.687-.019c.645.319.711.339.196.06-.441-.303-.463-.308-.063-.015a25.667 25.667 0 0 1-.784-.692c-2.023-1.823-5.07-2.001-7.071 0-1.852 1.851-2.026 5.245-.001 7.071z"/><path fill="#FFF" d="M252.696 220.683c.422.223.815.46 1.208.731-1.234-.847 2.015 1.532 1.126.899.314.224.635.4.977.577 1.079.558-.483-.711.203.132 1.394 1.711 4.276 1.84 6.059.782 2.976-1.766 4.636-4.665 5.667-7.88.832-2.595-.948-5.451-3.492-6.151-2.71-.746-5.319.899-6.151 3.492-.09.295-.188.587-.296.876.335-.941-.257.435-.307.525-.327.488-.341.533-.044.135-.8.971.65-.269-.424.368l6.059.782c-.773-.948-1.879-1.481-2.919-2.07 1.36.77-1.577-1.227-1.041-.823a11.576 11.576 0 0 0-1.578-1.01c-2.41-1.274-5.421-.63-6.841 1.794-1.332 2.275-.613 5.569 1.794 6.841z"/><path fill="#FFF" d="M263.415 219.956c1.147-.322 2.405-.977 3.151-1.937l.782-1.012c.452-.78.68-1.621.683-2.524 0-1.321-.531-2.602-1.464-3.536s-2.215-1.464-3.536-1.464c-1.182 0-2.772.483-3.536 1.464a2.262 2.262 0 0 1-.409.409l1.012-.782c-.08.057-.165.106-.255.147l1.194-.504c-.09.041-.184.073-.281.095-2.623.735-4.217 3.514-3.492 6.151.72 2.617 3.528 4.228 6.151 3.493z"/><path fill="#FFBDCB" d="M250.208 219.933c2.579 0 2.579-4 0-4s-2.58 4 0 4zm-2.529-6.349c2.579 0 2.579-4 0-4s-2.579 4 0 4zm2.309-4.715c2.579 0 2.579-4 0-4-2.58 0-2.58 4 0 4zm6.392-1.544c2.579 0 2.579-4 0-4s-2.579 4 0 4z"/><ellipse transform="rotate(-153.914 261.934 216.113)" fill="#FFF" stroke="#FFF" stroke-width=".4" stroke-linecap="round" stroke-miterlimit="10" cx="261.923" cy="216.103" rx="6.343" ry="9.47"/><path fill="#FFBDCB" d="M256.349 216.934c1.388-1.667 2.163-3.582 3.093-5.515.473-.982.278-2.153-.717-2.736-.883-.517-2.264-.265-2.736.717-.756 1.57-1.34 3.352-2.468 4.706-.697.837-.823 2.005 0 2.828.718.717 2.13.838 2.828 0z"/><path fill="#FFBDCB" d="M257.386 212.185c-.673-1.152-1.861-1.834-3.024-2.403-.979-.48-2.156-.273-2.736.718-.52.888-.261 2.257.717 2.736.369.181.735.367 1.089.577.085.051.168.104.251.159.419.272-.314-.275.058.037.07.06.136.124.2.19.32.32-.224-.364-.009.005a2.019 2.019 0 0 0 2.736.717 2.02 2.02 0 0 0 .718-2.736z"/></svg>