<svg width="185" height="271" fill="none" xmlns="http://www.w3.org/2000/svg"><g clip-path="url(#clip0)"><path d="M272.963 64.65c-32.723-24.203-80.726-44.162-130.006-45.334a184.438 184.438 0 0 0-22.404.805c-13.081 1.282-56.76 6.166-90.626 39.024-9.96 9.663-27.282 26.465-28.877 52.029-.258 4.133-1.077 24.009 10.899 41.527 7.634 11.166 12.397 9.57 16.985 18.511 9.271 18.063-6.734 31.275-1.992 51.033 5.25 21.867 32.994 39.604 56.763 40.525 24.165.938 30.721-16.008 53.777-12.008 19.469 3.379 19.459 16.272 37.845 19.013 18.091 2.704 23.199-9.02 58.76-21.514 34.606-12.153 42.13-5.39 50.789-16.01 13.677-16.775-3.268-35.896 8.963-70.045 8.246-23.051 19.07-22.995 20.914-36.023 2.509-17.726-14.215-41.14-41.79-61.532z" fill="#FFE3CF"/><path d="M151.941 134.961l94.462 53.401c11.736 6.635 26.242-1.866 26.272-15.396l.288-108.315c-32.723-24.204-80.726-44.163-130.005-45.335v100.206a17.766 17.766 0 0 0 2.41 8.942 17.663 17.663 0 0 0 6.573 6.497z" fill="url(#paint0_linear)"/><path d="M69.364 96.978c11.989 0 21.707-5.115 21.707-11.424 0-6.31-9.718-11.425-21.707-11.425-11.988 0-21.707 5.115-21.707 11.424 0 6.31 9.719 11.425 21.707 11.425z" fill="#B66BAF"/><path d="M69.364 101.846c11.989 0 21.707-5.115 21.707-11.424 0-6.31-9.718-11.425-21.707-11.425-11.988 0-21.707 5.115-21.707 11.425 0 6.31 9.719 11.424 21.707 11.424z" fill="#454563"/><path d="M69.364 70.984c-15.29 0-27.686 6.523-27.686 14.57 0 8.046 12.395 14.571 27.694 14.571s27.694-6.524 27.694-14.572c0-8.047-12.41-14.57-27.702-14.57zm0 25.994c-11.988 0-21.707-5.115-21.707-11.424 0-6.31 9.72-11.423 21.707-11.423 11.988 0 21.709 5.115 21.709 11.422 0 6.308-9.72 11.425-21.709 11.425z" fill="#fff"/><path d="M69.364 100.125c-15.29 0-27.686-6.524-27.686-14.572v56.991c0 8.047 12.395 14.57 27.694 14.57s27.694-6.523 27.694-14.57v-56.99c-.014 8.047-12.41 14.571-27.702 14.571z" fill="url(#paint1_linear)"/><path d="M64.079 91.782h-.098a.692.692 0 0 1-.587-.782c.592-4.23-.914-7.22-2.37-10.113-1.692-3.358-3.44-6.83-1.491-11.848.515-1.326.561-2.393.141-3.261-.863-1.782-3.68-2.642-6.169-3.403-2.853-.871-5.55-1.693-5.767-3.891-.909-9.224-2.52-10.763-3.17-10.998-.441-.156-.92.199-1.245.525-.326.327-.56 2.144-.536 3.92a.697.697 0 0 1-.681.703h-.01a.691.691 0 0 1-.69-.685c-.013-.919.018-3.99.933-4.918.857-.863 1.813-1.164 2.687-.85 2.009.72 3.344 4.7 4.08 12.165.126 1.277 2.394 1.968 4.795 2.702 2.76.842 5.888 1.796 7.001 4.114.59 1.218.557 2.689-.096 4.377-1.724 4.442-.26 7.348 1.436 10.718 1.48 2.94 3.156 6.272 2.505 10.932a.694.694 0 0 1-.668.593z" fill="#6E4D7E"/><path d="M71.055 58.585c.753 2.785 3.031 6.879 6.748 7.31 1.813.213 4.55-.373 5.808-2.345 2.83-4.452-4.366-9.848-1.666-15.404 1.584-3.26 4.142-3.138 6.379-6.824 2.844-4.69-1.382-8.246.841-14.254 1.905-5.15 5.692-4.377 8.212-10.069.206-.469 3.66-8.543-.491-13.533-3.66-4.404-11.498-4.341-16.102-1.327-6.03 3.947-7.703 13.742-6.077 20.464.836 3.458 2.38 5.42 1.313 7.923-1.616 3.796-6.702 2.883-8.048 6.272-1.346 3.39 3.281 5.421 3.777 12.212.347 4.736-1.76 5.63-.694 9.575z" fill="url(#paint2_linear)"/><path d="M76.608 91.116a.687.687 0 0 1-.54-.263 17.547 17.547 0 0 1-2.8-5.823c-.857-3.186-1.064-7.95 2.816-12.55 5.912-7.015 4.453-9.915 1.802-15.18a92.39 92.39 0 0 1-1.237-2.518c-1.768-3.79-2.455-7.191-2.045-10.111.467-3.355 2.368-5.885 5.633-7.517 4.356-2.188 2.442-8.11.586-13.842-.717-2.213-1.4-4.301-1.668-6.097-.71-4.659 2.126-7.606 4.772-8.714 1.814-.76 3.423-.655 4.104.266.417.566.623 1.596-.765 3.283a.693.693 0 0 1-1.227-.375.699.699 0 0 1 .155-.51c.728-.885.83-1.427.72-1.576-.155-.217-1.075-.392-2.463.19-2.186.915-4.53 3.356-3.94 7.222.26 1.688.919 3.725 1.616 5.88.961 2.97 1.956 6.041 2.105 8.77.179 3.309-.934 5.514-3.389 6.745-7.284 3.644-4.978 11.46-2.956 15.797.41.88.822 1.693 1.217 2.48 1.332 2.644 2.49 4.925 2.452 7.504-.031 2.766-1.4 5.605-4.431 9.2-2.8 3.314-3.652 7.097-2.549 11.246a16.48 16.48 0 0 0 2.563 5.37.696.696 0 0 1-.542 1.124l.011-.001z" fill="#6E4D7E"/><path d="M61.504 58.406c3.319-.194 6.052-2.93 7.166-5.578 2.023-4.804-.656-10.84-4.255-13.696-2.595-2.06-4.924-1.876-5.478-3.852-.596-2.128 1.856-3.19 2.301-6.867a10.305 10.305 0 0 0-1.988-7.265c-2.49-3.236-5.161-1.817-7.66-4.44-4.054-4.25-.155-11.247-3.487-13.338-1.988-1.25-5.434-.045-7.345 2.033-1.66 1.788-2.394 4.503-1.69 6.764 1.19 3.818 5.465 3.116 7.046 6.77 1.703 3.935-2.45 6.615-.881 11.373 1.173 3.56 3.784 2.92 5.652 6.765 2.396 4.929-1.089 7.633.864 13.12 1.366 3.838 5.195 8.476 9.755 8.21z" fill="url(#paint3_linear)"/><path d="M68.8 91.782a.689.689 0 0 1-.6-.347c-.093-.157-2.296-4.074-2.178-10.53.052-2.902.898-5.047 1.643-6.94.962-2.436 1.791-4.534 1.033-7.874-.737-3.244-2.72-5.269-5.017-7.613-1.926-1.969-4.11-4.2-5.77-7.484-1.622-3.206-1.818-6.27-1.992-8.973-.213-3.327-.399-6.2-3.15-8.522-4.448-3.751-4.424-6.958-4.396-10.667.008-.99.015-2.012-.052-3.127-.283-4.541-2.112-6.387-3.716-8.023a35.661 35.661 0 0 1-.641-.66c-1.177-1.262-.987-2.582-.467-3.33a2.27 2.27 0 0 1 2.79-.782c.768.331.913.863.933 1.149.065 1.014-1.194 1.876-1.738 2.2a.686.686 0 0 1-.252.088c.114.12.233.24.355.363 1.604 1.627 3.8 3.857 4.107 8.91.072 1.164.064 2.21.056 3.223-.028 3.633-.048 6.253 3.904 9.593 3.202 2.703 3.413 6.003 3.639 9.496.173 2.695.352 5.482 1.844 8.434 1.563 3.093 3.578 5.15 5.524 7.138 2.342 2.391 4.554 4.65 5.379 8.285.854 3.752-.093 6.153-1.09 8.693-.737 1.876-1.499 3.804-1.546 6.455-.106 6.073 1.98 9.774 2 9.81a.696.696 0 0 1-.252.947.675.675 0 0 1-.35.088zM45.361 8.1a.9.9 0 0 0-.733.388.94.94 0 0 0-.11.848.685.685 0 0 1 .261-.27c.386-.222.73-.512 1.015-.855l-.05-.024a.98.98 0 0 0-.383-.087zm7.95 109.219a1.78 1.78 0 0 1-.882-.222c-1.04-.583-1.197-1.563-.892-2.268a1.73 1.73 0 0 1 2.1-.999.691.691 0 0 1 .474.878.686.686 0 0 1-.351.413.704.704 0 0 1-.54.032.364.364 0 0 0-.415.228c-.079.181.022.352.298.506.19.108.73.049 1.13-.453.84-1.063.531-3.542-2.865-7.315-2.89-3.209-3.994-7.328-3.112-11.6.77-3.721 2.997-6.998 5.54-8.153 3.89-1.771 6.915 1.129 7.968 2.91a.694.694 0 0 1-.762 1.026.69.69 0 0 1-.424-.317c-.1-.166-2.477-4.054-6.214-2.356-2.125.966-4.082 3.908-4.757 7.172-.46 2.217-.708 6.513 2.781 10.388 4.869 5.406 3.665 8.172 2.92 9.11a2.65 2.65 0 0 1-1.997 1.02z" fill="#6E4D7E"/><path d="M272.609 154.513L142.958 76.411v-28.19l129.651 78.101v28.191z" fill="url(#paint4_linear)"/><path d="M195.486 74.23l-52.528-31.642V31.745l52.528 31.644v10.842z" fill="url(#paint5_linear)"/><path d="M179.979 49.353l-37.021-22.646v-4.679l37.021 22.643v4.682z" fill="url(#paint6_linear)"/><path d="M71.734 174.538l98.445 57.19a17.596 17.596 0 0 0 8.843 2.385c3.105 0 6.156-.823 8.843-2.385l54.394-31.613c4.027-2.345 4.027-8.191 0-10.532l-98.446-57.189a17.599 17.599 0 0 0-8.843-2.385c-3.105 0-6.156.823-8.844 2.385l-54.392 31.613c-4.028 2.34-4.028 8.191 0 10.531z" fill="url(#paint7_linear)"/><path d="M179.022 196.973L68.712 132.89v13.824a6.041 6.041 0 0 0 .801 3.043 6.006 6.006 0 0 0 2.22 2.222l98.446 57.188a17.596 17.596 0 0 0 8.843 2.385c3.105 0 6.156-.823 8.843-2.385l54.394-31.613a6.014 6.014 0 0 0 2.22-2.222c.53-.925.807-1.975.8-3.043v-13.824l-66.257 38.508z" fill="url(#paint8_linear)"/><path d="M71.88 138.155l98.445 57.189a17.599 17.599 0 0 0 8.843 2.385c3.105 0 6.156-.823 8.844-2.385l54.389-31.613c4.028-2.344 4.028-8.191 0-10.533L143.959 96.01a17.584 17.584 0 0 0-17.685 0L71.88 127.621c-4.028 2.342-4.028 8.193 0 10.534z" fill="url(#paint9_linear)"/><path d="M200.153 177.849l-2.456-1.461.13-.075-8.09-4.7-1.749-1.014a5.127 5.127 0 0 0-5.153 0l-17.736 10.379c0 1.26-.137 1.913.86 2.434l9.822 5.698 1.486.861a5.137 5.137 0 0 0 5.153 0l16.879-9.792c1.046-.633.854-1.496.854-2.33z" fill="#017B8B"/><path d="M199.287 176.391l-1.46-.846-9.848-5.714a5.14 5.14 0 0 0-5.153 0l-16.879 9.79a1.738 1.738 0 0 0-.869 1.51 1.744 1.744 0 0 0 .869 1.51l.88.511 10.424 6.048a5.132 5.132 0 0 0 5.153 0l16.88-9.792a1.743 1.743 0 0 0 .865-1.508 1.747 1.747 0 0 0-.862-1.509z" fill="#54ADAC"/><path d="M166.941 180.734l-2.049-1.354-.708.677.093 1.103.521.984 2.138 1.074.005-2.484z" fill="#54ADAC"/><path d="M166.101 182.081c-.615-.358-1.113-1.204-1.113-1.893 0-.689.498-.957 1.113-.6l12.968 7.53a1.823 1.823 0 0 0 1.823 0l18.345-11.109v2.782l-16.937 9.897a4.774 4.774 0 0 1-4.801 0l-11.398-6.607z" fill="url(#paint10_linear)"/><path d="M200.186 174.618l-2.457-1.46.131-.077-8.792-5.099-1.749-1.015c-1.594-.923-23.026 12.292-22.032 12.819l10.514 6.097 1.486.861a5.13 5.13 0 0 0 5.153 0l16.878-9.79c1.06-.635.868-1.503.868-2.336z" fill="#017B8B"/><path d="M165.542 182.406c-.622-.356-1.114-1.203-1.114-1.891s.498-.957 1.114-.6l1.4.819a3.828 3.828 0 0 0-1.4-1.573c-.988-.574-1.788-.142-1.788.963s.8 2.464 1.788 3.037c.565.329 1.069.326 1.4.057l-1.4-.812z" fill="#7988C9"/><path d="M199.318 173.163l-1.458-.846-10.404-6.014c-.409-.183-.778-.188-1.052-.041l-22.216 12.807 1.379.445.096-.283.509.291 11.12 6.45a5.127 5.127 0 0 0 5.153 0l16.873-9.791a1.74 1.74 0 0 0 .865-1.509 1.749 1.749 0 0 0-.865-1.509z" fill="#54ADAC"/><path d="M165.542 182.406c-.622-.356-1.114-1.203-1.114-1.891s.498-.957 1.114-.6l1.4.819a3.828 3.828 0 0 0-1.4-1.573c-.988-.574-1.788-.142-1.788.963s.8 2.464 1.788 3.037c.565.329 1.069.326 1.4.057l-1.4-.812z" fill="#017B8B"/><path d="M120.662 222.439l10.855-2.55c4.058-.954 6.613-5.232 4.098-12.309l1.127 3.115a7.188 7.188 0 0 0-3.927-4.462 7.146 7.146 0 0 0-5.928.034l-13.408 11.978c1.209 3.417 1.249 5.865 7.183 4.194z" fill="#AA286C"/><path d="M119.786 220.013l10.855-2.55a7.217 7.217 0 0 0 4.601-3.456 7.277 7.277 0 0 0-.859-8.396 7.165 7.165 0 0 0-5.411-2.432 7.146 7.146 0 0 0-2.961.661s-7.116 4.825-9.268 6.712c-5.984 5.244-4.069 11.132 3.043 9.461z" fill="#017B8B"/><path d="M127.845 213.039a4.632 4.632 0 0 1-2.851-.988 4.672 4.672 0 0 1-1.648-2.539l-3.701-14.784a4.699 4.699 0 0 1-.092-1.818 4.667 4.667 0 0 1 1.823-3.065 4.634 4.634 0 0 1 6.497.959 4.68 4.68 0 0 1 .777 1.645l3.707 14.784c.172.689.184 1.408.037 2.102a4.678 4.678 0 0 1-.883 1.906 4.643 4.643 0 0 1-3.666 1.798z" fill="#DEC3A4"/><path d="M121.502 180.623l-.943.231c-3.905.957-6.298 4.912-5.346 8.835l.966 3.983c.952 3.923 4.888 6.328 8.793 5.372l.943-.231c3.905-.957 6.298-4.912 5.346-8.836l-.966-3.982c-.952-3.923-4.888-6.328-8.793-5.372zM77.968 236.2l10.301-4.689a7.23 7.23 0 0 0 3.838-4.272 7.258 7.258 0 0 0-.483-5.733 7.135 7.135 0 0 0-4.699-3.603 7.124 7.124 0 0 0-5.791 1.187l-9.187 6.696c-5.874 4.282-.59 13.419 6.021 10.414z" fill="#AA286C"/><path d="M79.129 235.033l10.302-4.69a7.193 7.193 0 0 0 2.36-1.736 7.24 7.24 0 0 0 1.829-5.453 7.25 7.25 0 0 0-.834-2.816 7.17 7.17 0 0 0-1.96-2.31 7.124 7.124 0 0 0-8.522-.107l-9.187 6.695c-5.881 4.284-.6 13.423 6.012 10.417z" fill="#017B8B"/><path d="M86.317 227.337a4.655 4.655 0 0 1-4.037-2.372 4.685 4.685 0 0 1 .063-4.699l7.328-12.231a4.644 4.644 0 0 1 2.858-2.129 4.619 4.619 0 0 1 4.86 1.756 4.683 4.683 0 0 1 .237 5.185l-7.328 12.231a4.631 4.631 0 0 1-3.981 2.259z" fill="#DEC3A4"/><path d="M153.494 73.21h-.039c-.798-.131-1.688.26-2.489 1.207-1.605 1.91-2.227 5.376-1.373 7.735.455 1.263 1.245 1.952 2.113 2.032l.865.156-1.187-1.19-.09-.104-.411-.758-.395-1.623.18-3.208 1.556-2.88.696-.459.487-.331 1.089-.396-1.002-.181z" fill="url(#paint11_linear)"/><path d="M152.571 84.333l-3.071-.552c-.876-.072-1.659-.762-2.113-2.032-.848-2.36-.23-5.824 1.378-7.74.795-.95 1.685-1.34 2.49-1.209h.039l3.202.591-1.925 10.942z" fill="#C7DBDB"/><path d="M152.006 74.598c-1.608 1.917-2.226 5.382-1.378 7.741.848 2.36 2.838 2.716 4.446.8 1.609-1.917 2.227-5.383 1.381-7.74-.847-2.358-2.834-2.718-4.449-.801z" fill="#fff"/><path d="M160.034 69.266c7.089-1.489 13.709 3.517 16.464 8.23 2.387 4.082.753 6.025 3.579 9.898 3.437 4.706 6.802 3.14 9.746 7.316 3.423 4.846-.134 8.338 3.267 14.329 2.811 4.952 6.186 4.239 7.687 8.459 1.662 4.669-.362 11.472-5.098 14.33-6.796 4.101-16.349-1.629-19.207-7.782-1.92-4.133.535-5.543-.622-11.909-1.36-7.477-12.436-5.456-20.161-8.079-4.132-1.407-.489-11.016-3.166-13.34-3.112-2.698-3.924-7.622-3.029-11.46 1.257-5.38 5.968-9.032 10.54-9.992z" fill="url(#paint12_linear)"/><path d="M135.281 146.523a3.704 3.704 0 0 1-1.878-.515 3.725 3.725 0 0 1-1.362-1.399 3.745 3.745 0 0 1 .08-3.775c3.208-5.234 5.634-8.882 7.779-12.103 4.755-7.153 7.896-11.881 14.936-26.984a3.736 3.736 0 0 1 2.099-1.926 3.7 3.7 0 0 1 4.008.992 3.748 3.748 0 0 1 .621 4.1c-7.285 15.616-10.728 20.795-15.492 27.966-2.105 3.165-4.49 6.753-7.623 11.87a3.723 3.723 0 0 1-1.354 1.302 3.694 3.694 0 0 1-1.814.472z" fill="#FFC18F"/><path d="M156.837 176.436c11.078-2.392 18.222-6.509 25.415-17.211 8.265-12.302 12.117-72.511-20.878-65.055-23.682 5.353 11.947 41.111-21.496 48.557-17.311 3.852 0 37.37 16.959 33.709z" fill="url(#paint13_linear)"/><path d="M98.095 201.014l-.816-.527c-3.375-2.181-7.871-1.199-10.041 2.193l-2.203 3.443c-2.17 3.392-1.193 7.91 2.183 10.09l.815.527c3.376 2.18 7.872 1.198 10.042-2.193l2.203-3.444c2.17-3.392 1.193-7.909-2.183-10.089z" fill="#AA286C"/><path d="M117.176 188.35l-.015-.025.015.025zm-.25-.572c-.029-.08-.059-.156-.083-.241.026.081.054.163.083.241zm.54 1.093c.287.449.635.857 1.033 1.211a6.428 6.428 0 0 1-1.033-1.211z" fill="#434886"/><path d="M140.143 147.495l-1.056-.05c-6.47-.312-15.329-.75-20.91 6.125-5.201 6.41-5.66 17.082-1.443 33.597.031.125.068.248.109.37l9.881-8.731v.033c-2.49-12.434-.599-16.618.44-17.898 1.876-2.312 6.69-2.074 11.358-1.848l1.089.053a5.77 5.77 0 0 0 4.177-1.519 5.832 5.832 0 0 0 1.884-4.041 5.86 5.86 0 0 0-1.511-4.197 5.805 5.805 0 0 0-4.023-1.894h.005z" fill="#434886"/><path d="M140.143 147.495l-1.056-.05c-6.47-.312-15.329-.75-20.91 6.125-5.201 6.41-5.66 17.082-1.443 33.597.031.125.068.248.109.37l9.881-8.731v.033c-2.49-12.434-.599-16.618.44-17.898 1.876-2.312 6.69-2.074 11.358-1.848l1.089.053a5.77 5.77 0 0 0 4.177-1.519 5.832 5.832 0 0 0 1.884-4.041 5.86 5.86 0 0 0-1.511-4.197 5.805 5.805 0 0 0-4.023-1.894h.005z" fill="#C7DBDB"/><path d="M118.506 190.082a5.786 5.786 0 0 0 6.875.612 5.829 5.829 0 0 0 2.352-2.783 5.86 5.86 0 0 0 .243-3.643 95.273 95.273 0 0 1-.664-2.736v.026c-3.832 2.538-7.031 5.291-8.806 8.524zm-1.07-1.266c-.04-.064-.076-.127-.113-.191.037.063.075.129.113.191z" fill="#434886"/><path d="M117.467 188.871l-.036-.055c.019.017.036.036.036.055zm9.264-10.032c.172.859.366 1.757.58 2.693l-.58-2.693zm-9.576 9.486zm.168.3l-.155-.275c.054.092.102.181.155.275z" fill="#C7DBDB"/><path d="M116.844 187.537c.025.081.054.156.084.241.069.186.147.369.235.547l.014.025c.047.094.096.184.156.275.037.064.073.127.113.191l.036.055c.292.445.639.852 1.033 1.211 1.775-3.233 4.979-5.986 8.812-8.524v-.025c-.214-.938-.408-1.836-.58-2.694v-.033l-9.903 8.731z" fill="#434886"/><path d="M116.844 187.537c.025.081.054.156.084.241.069.186.147.369.235.547l.014.025c.047.094.096.184.156.275.037.064.073.127.113.191l.036.055c.292.445.639.852 1.033 1.211 1.775-3.233 4.979-5.986 8.812-8.524v-.025c-.214-.938-.408-1.836-.58-2.694v-.033l-9.903 8.731z" fill="#C7DBDB"/><path d="M155.256 172.535c3.32-2.39 2.148-9.744-2.617-16.426-4.765-6.682-11.318-10.162-14.637-7.773-3.319 2.39-2.148 9.744 2.617 16.426 4.765 6.682 11.318 10.162 14.637 7.773z" fill="#454563"/><path d="M143.874 148.879l-.559-1.21c10.001-4.656 15.3-8.393 17.723-12.495 2.334-3.956 2.074-8.394 1.711-14.539-.194-3.331-.415-7.107-.295-11.623l1.327.036c-.118 4.458.101 8.204.294 11.509.373 6.381.644 10.991-1.898 15.297-2.566 4.352-8.041 8.247-18.303 13.025z" fill="#BD4061"/><path d="M171.941 104.357c3.66-1.958 4.424-4.7 1.391-6.784-3.032-2.083-8.572-2.424-12.375-.762-3.802 1.661-3.384 4.05-1.993 7.467 3.96 9.73 5.891 3.87 12.977.079z" fill="#FFC18F"/><path d="M165.52 103.089a3.708 3.708 0 0 1-2.264-.776 3.739 3.739 0 0 1-1.325-2.002l-3.28-12.464a3.749 3.749 0 0 1 .38-2.831 3.72 3.72 0 0 1 2.261-1.732 3.7 3.7 0 0 1 2.818.382 3.732 3.732 0 0 1 1.723 2.272l3.288 12.464a3.763 3.763 0 0 1-.648 3.233 3.707 3.707 0 0 1-2.945 1.457l-.008-.003z" fill="#FF9F6E"/><path d="M161.623 93.595c6.126 0 11.092-5.007 11.092-11.184 0-6.176-4.966-11.183-11.092-11.183s-11.092 5.007-11.092 11.183c0 6.177 4.966 11.184 11.092 11.184z" fill="#FFC18F"/><path d="M150.46 79.57c1.008 2.404 5.747 2.935 8.681 2.623 3.137-.337 4.697-.296 6.588-.038 4.779.649 4.804 7.6 7.595 7.307 1.626-.172 2.631-3.108 2.936-4.673.998-5.13-2.57-10.8-7.261-13.474-1.078-.614-6.164-3.325-11.513-1.094-4.341 1.82-8.175 6.616-7.026 9.35z" fill="url(#paint14_linear)"/><path d="M151.161 162.22a5.828 5.828 0 0 0-2.79-3.472 5.782 5.782 0 0 0-4.416-.472c-4.761 1.407-9.591 3.458-14.339 6.062.009 0 5.711 2.601 6.496 5.975.687 2.956 4.078 1.766 4.911 1.424l.167-.072h.019-.019a55.297 55.297 0 0 1 6.046-2.206 5.82 5.82 0 0 0 4.129-4.974 5.837 5.837 0 0 0-.204-2.265z" fill="#434886"/><path d="M151.161 162.22a5.828 5.828 0 0 0-2.79-3.472 5.782 5.782 0 0 0-4.416-.472c-4.761 1.407-9.591 3.458-14.339 6.062.009 0 5.711 2.601 6.496 5.975.687 2.956 4.078 1.766 4.911 1.424l.167-.072h.019-.019a55.297 55.297 0 0 1 6.046-2.206 5.82 5.82 0 0 0 4.129-4.974 5.837 5.837 0 0 0-.204-2.265z" fill="#C7DBDB"/><path d="M136.112 170.313c-.778-3.374-6.487-5.97-6.496-5.975a90.308 90.308 0 0 0-12.447 8.274c-9.957 7.857-18.796 17.959-26.281 30.029a5.853 5.853 0 0 0 .205 6.477 5.824 5.824 0 0 0 1.652 1.556 5.78 5.78 0 0 0 6.445-.206 5.824 5.824 0 0 0 1.549-1.659c14.062-22.668 30.227-32.732 40.278-37.072-.827.342-4.218 1.532-4.905-1.424z" fill="#434886"/><path d="M173.522 150.053l-10.401 5.503c7.039 4.413 5.488 11.005 5.488 11.005l10.063-7.191c.25-3.511-1.439-7.149-5.15-9.317z" fill="#BD4061"/><path d="M163.121 155.555s5.223 6.391 5.488 11.006c0 0 1.551-6.592-5.488-11.006z" fill="#6E4D7E"/><path d="M157.092 154.18v-1.126h-.217l-.095.266a1.479 1.479 0 0 0-.434-.381l-28.665-16.632a3.364 3.364 0 0 0-3.372 0l-20.111 11.667 31.015 17.991a3.148 3.148 0 0 0 3.163 0l17.974-10.419a1.474 1.474 0 0 0 .739-1.19v-.06a.74.74 0 0 0 .003-.116z" fill="#54ADAC"/><path d="M156.35 151.827l-28.669-16.632a3.363 3.363 0 0 0-3.372 0l-20.111 11.667 32.595 18.916 19.557-11.345a1.491 1.491 0 0 0 .754-1.303 1.5 1.5 0 0 0-.754-1.303zm1.161-69.555s8.364.36 9.078 4.146c.714 3.786-.07 6.544-3.785 7.116 3.083-.442 5.528-1.743 7.312-3.927 0 0 1.005-7.98.217-8.515-.789-.535-12.822 1.18-12.822 1.18z" fill="#C7DBDB"/><path d="M176.243 121.748s1.901 22.963-17.08 23.324l-8.906 5.345s10.253 3.134 20.359 1.179c20.674-4.001 11.714-37.644 11.714-37.644l-6.087 7.796z" fill="#C7DBDB"/><path d="M144.174 146.948l-4.836 2.806a1.738 1.738 0 0 1-1.751 0l-7.313-4.239a.643.643 0 0 1-.318-.552.638.638 0 0 1 .318-.552l4.836-2.814a1.748 1.748 0 0 1 1.75 0l7.312 4.24a.629.629 0 0 1 .239.877.634.634 0 0 1-.237.234z" fill="#017B8B"/><path d="M121.2 141.599l-1.639.952-2.25-1.306 1.64-.952 2.249 1.306zm2.762 1.602l-1.64.952-2.249-1.305 1.639-.952 2.25 1.305zm2.762 1.602l-1.64.952-2.25-1.305 1.64-.952 2.25 1.305zm2.761 1.603l-1.64.95-2.249-1.304 1.641-.952 2.248 1.306zm2.764 1.6l-1.642.952-2.25-1.303 1.642-.952 2.25 1.303zm2.761 1.603l-1.641.952-2.25-1.306 1.641-.95 2.25 1.304zm2.762 1.602l-1.64.952-2.25-1.305 1.64-.952 2.25 1.305z" fill="#54ADAC"/><path d="M143.323 154.432l-1.641.952-5.55-3.221 1.64-.952 5.551 3.221zm2.734 1.586l-1.64.952-2.25-1.305 1.641-.952 2.249 1.305zm2.763 1.603l-1.642.952-2.249-1.306 1.641-.952 2.25 1.306zm-32.181-13.504l-1.642.952-2.249-1.305 1.641-.951 2.25 1.304zm2.761 1.602l-1.641.952-2.25-1.305 1.641-.952 2.25 1.305zm2.762 1.603l-1.642.952-2.248-1.306 1.64-.952 2.25 1.306zm2.762 1.602l-1.64.952-2.25-1.305 1.64-.952 2.25 1.305zm2.761 1.602l-1.64.952-2.249-1.305 1.64-.952 2.249 1.305zm2.762 1.603l-1.64.952-2.25-1.305 1.642-.953 2.248 1.306zm2.763 1.602l-1.641.951-2.25-1.304 1.641-.952 2.25 1.305zm2.762 1.601l-1.642.952-2.249-1.304 1.641-.952 2.25 1.304zm2.761 1.602l-1.641.952-2.248-1.303 1.64-.952 2.249 1.303zm2.762 1.603l-1.641.952-2.249-1.306 1.64-.952 2.25 1.306zm2.872 1.666l-1.641.952-2.359-1.369 1.64-.952 2.36 1.369zm-30.6-14.42l-1.642.953-2.248-1.306 1.64-.952 2.25 1.305zm2.761 1.603l-1.641.952-2.248-1.305 1.64-.952 2.249 1.305zm2.762 1.602l-1.64.952-2.25-1.305 1.64-.952 2.25 1.305zm2.761 1.603l-1.639.95-2.25-1.304 1.64-.952 2.249 1.306zm2.762 1.602l-1.64.95-2.249-1.303 1.641-.952 2.248 1.305zm2.763 1.601l-1.641.952-2.25-1.306 1.641-.95 2.25 1.304zm2.762 1.602l-1.641.952-2.25-1.305 1.641-.951 2.25 1.304zm2.762 1.602l-1.642.952-2.248-1.305 1.64-.95 2.25 1.303zm2.761 1.603l-1.641.952-2.248-1.306 1.64-.952 2.249 1.306zm2.762 1.602l-1.64.952-2.25-1.305 1.64-.952 2.25 1.305zm2.872 1.667l-1.641.952-2.359-1.37 1.64-.952 2.36 1.37zm-21.799-18.585l-1.64.951-2.978-1.726 1.642-.952 2.976 1.727zm2.763 1.603l-1.641.95-2.25-1.304 1.641-.952 2.25 1.306zm2.762 1.601l-1.642.952-2.249-1.306 1.641-.95 2.25 1.304zm2.761 1.602l-1.641.952-2.25-1.305 1.641-.951 2.25 1.304zm2.762 1.602l-1.641.952-2.249-1.305 1.64-.952 2.25 1.305zm2.762 1.603l-1.64.952-2.25-1.306 1.64-.952 2.25 1.306zm2.761 1.602l-1.64.952-2.249-1.305 1.64-.952 2.249 1.305zm2.762 1.602l-1.64.952-2.25-1.305 1.64-.952 2.25 1.305zm2.763 1.603l-1.641.95-2.25-1.304 1.641-.952 2.25 1.306zm2.762 1.602l-1.642.95-2.249-1.303 1.641-.952 2.25 1.305zm2.06 1.194l-1.642.952-1.546-.899 1.64-.95 1.548.897z" fill="#54ADAC"/><path d="M175.016 111.552c-2.264 3.057-2.977 7.173-1.592 9.192 1.385 2.02 4.342 1.179 6.606-1.875 2.264-3.055 2.976-7.173 1.592-9.193-1.385-2.019-4.343-1.185-6.606 1.876z" fill="#FA8E79"/><path d="M175.605 83.01l-.02-.017h-.011c-.622-.513-1.593-.616-2.752-.19-2.343.862-4.59 3.563-5.018 6.033-.23 1.325.109 2.314.836 2.814l.672.566-.447-1.618-.026-.134.019-.865.466-1.612 1.741-2.695 2.768-1.727.831-.053.584-.038 1.145.2-.788-.664z" fill="url(#paint15_linear)"/><path d="M176.386 83.671l-2.501-2.1-.021-.016-.009-.008c-.622-.513-1.593-.616-2.752-.19-2.343.862-4.59 3.563-5.019 6.035-.229 1.324.11 2.312.835 2.814l2.393 2.009 7.074-8.544z" fill="#C7DBDB"/><path d="M173.633 83.479c-2.343.863-4.592 3.564-5.02 6.034-.427 2.47 1.124 3.774 3.468 2.911 2.345-.863 4.59-3.563 5.018-6.033.428-2.47-1.122-3.77-3.466-2.912z" fill="#fff"/><path d="M182.325 113.949a3.72 3.72 0 0 0-2.978-2.871 3.693 3.693 0 0 0-2.776.615 3.72 3.72 0 0 0-1.531 2.407c-.085.483-.075.977.03 1.456 2.801 12.737 2.49 20.738-.946 24.461-3.206 3.478-10.036 4.283-22.689 2.632-.04 0-2.439-.495-3.91-1.211-1.47-.716-3.318-2.669-3.982-2.475-.665.194-.637 1.047.194 1.837a10.26 10.26 0 0 0 1.704 1.302s-6.28-.586-10.141 1.48c-2.908 1.556-.719 4.015 2.545 5.058 1.122.359 10.79 1.164 10.79 1.164 5.405.769 9.82 1.145 13.536 1.145 1.566 0 3.009-.068 4.356-.199 5.805-.575 10.074-2.425 13.052-5.656 2.78-3.016 4.321-7.08 4.707-12.426.353-4.965-.287-11.087-1.961-18.719z" fill="#FFC18F"/><path d="M178.35 171.335c-2.528 0-4.318-1.719-6.768-4.064-3.362-3.224-7.966-7.635-17.497-10.648a.169.169 0 0 1-.079-.198.17.17 0 0 1 .07-.09.165.165 0 0 1 .11-.024c9.604 3.035 14.239 7.48 17.625 10.724 3.1 2.97 4.978 4.766 8.557 3.631l.608-.194c3.818-1.205 6.34-2.002 6.875-3.672.399-1.241-.311-2.978-2.284-5.628-4.228-5.671-2.786-15.184-1.26-25.254.934-6.202 1.911-12.614 1.4-17.936-.684-7.057-4.511-11.341-8.208-15.476-3.32-3.72-6.457-7.235-6.457-12.28a.169.169 0 0 1 .167-.167.169.169 0 0 1 .166.167c0 4.918 3.095 8.386 6.379 12.056 3.561 3.99 7.596 8.511 8.291 15.675.521 5.364-.454 11.797-1.4 18.018-1.449 9.56-2.947 19.445 1.199 25.005 2.049 2.748 2.768 4.577 2.334 5.941-.588 1.833-3.175 2.657-7.091 3.889l-.609.192a6.958 6.958 0 0 1-2.128.333z" fill="#fff"/><path d="M154.73 156.902a.225.225 0 0 1-.068-.011l-.913-.266a.26.26 0 0 1-.153-.119.258.258 0 0 1-.021-.193.245.245 0 0 1 .314-.168l.911.266a.248.248 0 0 1 .179.276.25.25 0 0 1-.249.215z" fill="#fff"/><path d="M151.263 74.23s.648-.848 1.381-1.172c0 0 1.867-2.575 3.761-2.528l-1.891-.046-2.158 1.382-1.142 1.833.049.532z" fill="#017B8B"/><path d="M158.751 70.741a8.53 8.53 0 0 0-.454-.156l-.211-.066c-.077-.025-.155-.051-.236-.073-.081-.022-.156-.044-.244-.064-.089-.02-.128-.036-.19-.05a7.09 7.09 0 0 0-.288-.061l-.138-.03c-.106-.019-.21-.034-.312-.05l-.098-.016a6.66 6.66 0 0 0-.34-.035h-.064a6.603 6.603 0 0 0-.347-.018h-.428c-.123 0-.244.014-.364.027a4.743 4.743 0 0 0-2.225.782c-1.01.692-1.711 1.807-1.998 3.264l.458.042c.983-2.958 3.645-4.141 7.488-2.658 4.979 1.912 9.572 7.28 11.026 12.807l.34.134c-1.25-5.73-6.21-11.793-11.375-13.779z" fill="#54ADAC"/><path d="M155.032 70.138c.12-.013.242-.022.364-.027h.428c.114 0 .229 0 .347.018h.064c.112.009.226.02.341.036l.098.015c.106.016.21.031.311.05l.138.03c.095.019.19.037.288.06.063.015.126.034.19.05l.244.065c.089.023.156.049.237.073l.21.066c.155.05.302.105.454.157 5.166 1.985 10.126 8.046 11.366 13.764.515-.602 1.288-1.382 2.164-1.845-1.383-5.595-6.224-11.411-11.271-13.35-2.334-.894-4.313-.813-5.736.045l-.022.013-.048.031-2.402 1.523a4.737 4.737 0 0 1 2.224-.782l.011.008z" fill="#fff"/><path d="M94.385 126.554l9.813 20.308 32.595 18.916-9.472-20.55a4.494 4.494 0 0 0-1.826-2L95.831 126.02c-1.173-.681-1.506.409-1.446.534z" fill="#54ADAC"/><path d="M125.101 143.579l-29.986-17.491a.483.483 0 0 0-.719.324.49.49 0 0 0 .034.301l9.743 21.204a.19.19 0 0 0 .076.085l31.096 18.038a.528.528 0 0 0 .784-.356.529.529 0 0 0-.038-.328l-9.1-19.698a4.681 4.681 0 0 0-1.89-2.079z" fill="#017B8B"/></g><defs><linearGradient id="paint0_linear" x1="137.733" y1="154.066" x2="292.134" y2="37.2" gradientUnits="userSpaceOnUse"><stop stop-color="#AA286C"/><stop offset="1" stop-color="#FFDA89"/></linearGradient><linearGradient id="paint1_linear" x1="37.827" y1="121.334" x2="99.767" y2="121.334" gradientUnits="userSpaceOnUse"><stop stop-color="#fff"/><stop offset=".18" stop-color="#FFFDFB"/><stop offset=".36" stop-color="#FFF6EF"/><stop offset=".53" stop-color="#FFEADB"/><stop offset=".71" stop-color="#FFDAC0"/><stop offset=".88" stop-color="#FFC59C"/><stop offset="1" stop-color="#FFB580"/></linearGradient><linearGradient id="paint2_linear" x1="69.739" y1="104.357" x2="97.879" y2="-59.679" gradientUnits="userSpaceOnUse"><stop stop-color="#017B8B"/><stop offset="1" stop-color="#7DF1E2"/></linearGradient><linearGradient id="paint3_linear" x1="74.748" y1="36.383" x2="33.363" y2="25.225" gradientUnits="userSpaceOnUse"><stop stop-color="#434886"/><stop offset="1" stop-color="#7DF1E2"/></linearGradient><linearGradient id="paint4_linear" x1="82335.8" y1="68971.1" x2="196831" y2="68971.1" gradientUnits="userSpaceOnUse"><stop stop-color="#AA286C"/><stop offset="1" stop-color="#FFDA89"/></linearGradient><linearGradient id="paint5_linear" x1="33443.4" y1="14432.5" x2="79831.4" y2="14432.5" gradientUnits="userSpaceOnUse"><stop stop-color="#AA286C"/><stop offset="1" stop-color="#FFDA89"/></linearGradient><linearGradient id="paint6_linear" x1="23851.1" y1="6260.22" x2="56137.5" y2="6260.22" gradientUnits="userSpaceOnUse"><stop stop-color="#AA286C"/><stop offset="1" stop-color="#FFDA89"/></linearGradient><linearGradient id="paint7_linear" x1="123.419" y1="240.496" x2="159.896" y2="177.617" gradientUnits="userSpaceOnUse"><stop stop-color="#fff"/><stop offset=".17" stop-color="#CFD1E0"/><stop offset=".37" stop-color="#9EA0C0"/><stop offset=".56" stop-color="#767AA7"/><stop offset=".74" stop-color="#5A5F95"/><stop offset=".89" stop-color="#494E8A"/><stop offset="1" stop-color="#434886"/></linearGradient><linearGradient id="paint8_linear" x1="62.361" y1="172.22" x2="269.342" y2="172.22" gradientUnits="userSpaceOnUse"><stop stop-color="#EDD4B9"/><stop offset=".68" stop-color="#B66BAF"/></linearGradient><linearGradient id="paint9_linear" x1="-7269.11" y1="98420.4" x2="413602" y2="89795.5" gradientUnits="userSpaceOnUse"><stop stop-color="#fff"/><stop offset=".18" stop-color="#FFFDFB"/><stop offset=".36" stop-color="#FFF6EF"/><stop offset=".53" stop-color="#FFEADB"/><stop offset=".71" stop-color="#FFDAC0"/><stop offset=".88" stop-color="#FFC59C"/><stop offset="1" stop-color="#FFB580"/></linearGradient><linearGradient id="paint10_linear" x1="181.51" y1="182.677" x2="166.546" y2="182.677" gradientUnits="userSpaceOnUse"><stop stop-color="#E0E4EE"/><stop offset=".25" stop-color="#ECEFF5"/><stop offset=".65" stop-color="#FAFBFC"/><stop offset="1" stop-color="#fff"/></linearGradient><linearGradient id="paint11_linear" x1="148.854" y1="80.145" x2="155.984" y2="77.584" gradientUnits="userSpaceOnUse"><stop offset=".33" stop-color="#FFB580"/><stop offset="1" stop-color="#B66BAF"/></linearGradient><linearGradient id="paint12_linear" x1="149.156" y1="101.105" x2="201.353" y2="101.105" gradientUnits="userSpaceOnUse"><stop stop-color="#434886"/><stop offset=".27" stop-color="#404B86"/><stop offset=".5" stop-color="#355387"/><stop offset=".72" stop-color="#246088"/><stop offset=".92" stop-color="#0B738A"/><stop offset=".99" stop-color="#017B8B"/></linearGradient><linearGradient id="paint13_linear" x1="153.481" y1="154.575" x2="187.107" y2="96.61" gradientUnits="userSpaceOnUse"><stop stop-color="#AA286C"/><stop offset=".42" stop-color="#AD2B6A"/><stop offset=".78" stop-color="#B53666"/><stop offset=".99" stop-color="#BD4061"/></linearGradient><linearGradient id="paint14_linear" x1="25271" y1="10288.1" x2="33997.1" y2="10288.1" gradientUnits="userSpaceOnUse"><stop stop-color="#434886"/><stop offset=".27" stop-color="#404B86"/><stop offset=".5" stop-color="#355387"/><stop offset=".72" stop-color="#246088"/><stop offset=".92" stop-color="#0B738A"/><stop offset=".99" stop-color="#017B8B"/></linearGradient><linearGradient id="paint15_linear" x1="4086.78" y1="432.155" x2="4502.1" y2="504.221" gradientUnits="userSpaceOnUse"><stop offset=".33" stop-color="#FFB580"/><stop offset="1" stop-color="#B66BAF"/></linearGradient><clipPath id="clip0"><path fill="#fff" transform="translate(.933)" d="M0 0h314.067v270.166H0z"/></clipPath></defs></svg>